<svg width="406" height="685" viewBox="0 0 406 685" fill="none" xmlns="http://www.w3.org/2000/svg">
<rect y="0.796463" width="406" height="683.761" rx="203" fill="#EEE4FF"/>
<mask id="mask0_11_919" style="mask-type:alpha" maskUnits="userSpaceOnUse" x="0" y="0" width="406" height="685">
<path d="M0 203.796C0 91.6825 90.8862 0.796463 203 0.796463C315.114 0.796463 406 91.6826 406 203.796V481.558C406 593.671 315.114 684.558 203 684.558C90.8862 684.558 0 593.671 0 481.558V203.796Z" fill="#EEE4FF"/>
</mask>
<g mask="url(#mask0_11_919)">
<path d="M307.235 669.055C304.833 665.7 301.752 667.129 299.497 669.055C298.348 670.051 297.32 671.181 296.435 672.42C295.38 670.834 293.29 669.756 290.64 669.055C280.38 666.317 261.659 669.055 261.659 669.055L260.678 662.74H306.457L307.235 669.055Z" fill="#FFA59C"/>
<path d="M359.009 703.857C359.008 704.113 358.992 704.368 358.963 704.622C358.776 706.305 357.979 707.86 356.725 708.989C355.47 710.118 353.845 710.743 352.161 710.744H277.081C274.486 710.749 271.976 709.814 270.012 708.108C268.049 706.403 266.762 704.043 266.39 701.461L261.659 669.055C261.659 669.055 280.381 666.317 290.64 669.055C293.29 669.756 295.38 670.834 296.435 672.42C297.321 671.181 298.349 670.051 299.498 669.055C301.753 667.129 304.833 665.7 307.235 669.055C307.272 669.119 307.272 669.119 307.308 669.184C307.409 669.378 307.62 669.765 307.969 670.318C310.94 675.001 323.262 691.402 353.389 697.1C354.964 697.388 356.388 698.222 357.415 699.456C358.442 700.691 359.006 702.248 359.009 703.857Z" fill="#005386"/>
<path d="M316.704 693.833C303.554 690.627 296.114 673.422 295.803 672.691L297.068 672.148C297.141 672.321 304.552 689.447 317.029 692.489L316.704 693.833Z" fill="#004471"/>
<path d="M109.417 669.055C111.819 665.7 114.899 667.129 117.155 669.055C118.304 670.051 119.332 671.181 120.218 672.42C121.272 670.834 123.363 669.756 126.012 669.055C136.271 666.317 154.993 669.055 154.993 669.055L155.975 662.74H110.196L109.417 669.055Z" fill="#FFA59C"/>
<path d="M57.6426 703.857C57.6438 704.113 57.6592 704.368 57.6885 704.622C57.8757 706.305 58.6728 707.859 59.9277 708.988C61.1825 710.118 62.8071 710.742 64.491 710.744H139.572C142.166 710.749 144.676 709.813 146.639 708.108C148.603 706.402 149.889 704.042 150.262 701.461L154.992 669.055C154.992 669.055 136.271 666.317 126.012 669.055C123.362 669.756 121.271 670.834 120.217 672.42C119.332 671.181 118.304 670.051 117.155 669.055C114.899 667.129 111.818 665.7 109.416 669.055C109.38 669.119 109.38 669.119 109.343 669.184C109.242 669.378 109.031 669.765 108.684 670.318C105.713 675.001 93.3903 691.402 63.2626 697.1C61.688 697.388 60.2635 698.222 59.2368 699.456C58.21 700.691 57.6459 702.248 57.6426 703.857Z" fill="#005386"/>
<path d="M99.9473 693.833C113.097 690.627 120.539 673.422 120.849 672.691L119.584 672.148C119.51 672.321 112.1 689.447 99.6226 692.489L99.9473 693.833Z" fill="#004471"/>
<path d="M104.685 476.036L302.92 472.228L204.962 396.322L104.685 476.036Z" fill="#96BED5"/>
<path d="M119.394 469.689L106.901 662.74H161.586L203.991 391.282L256.219 662.74H312.259L291.468 466.195L219.033 336.102H192.772L119.394 469.689Z" fill="#8A49FF"/>
<path d="M305.186 312.25H281.908V342.037H125.031L122.855 309.979L104.661 311.101C101.042 311.107 97.4741 310.241 94.2569 308.574C93.2214 308.043 92.2301 307.428 91.2928 306.737C87.1424 303.656 84.026 299.374 82.3601 294.465C80.6942 289.555 80.5581 284.251 81.9701 279.262L107.333 187.122C107.334 187.122 107.336 187.121 107.337 187.121C107.339 187.12 107.34 187.12 107.341 187.119C107.342 187.118 107.343 187.116 107.344 187.115C107.344 187.113 107.345 187.112 107.345 187.11C114.029 174.631 120.612 168.102 125.831 164.701L125.964 164.616C129.677 162.26 133.983 161.023 138.373 161.052H254.911C272.417 161.052 288.063 172.602 294.048 189.944L325.634 281.483C330.797 296.449 320.291 312.25 305.186 312.25Z" fill="#FF7467"/>
<path d="M224.509 130.689C224.509 130.689 223.068 144.547 217.79 147.002L219.101 131.985L224.509 130.689Z" fill="#020C2D"/>
<path d="M172.533 93.6694C172.533 93.6694 165.812 113.67 171.721 116.593C177.63 119.516 179.264 90.8983 179.264 90.8983L172.533 93.6694Z" fill="#020C2D"/>
<path d="M219.101 131.985L215.672 171.282C215.367 174.783 213.769 178.041 211.193 180.414C208.617 182.788 205.25 184.105 201.756 184.105C199.774 184.105 197.815 183.682 196.009 182.862C194.203 182.042 192.591 180.846 191.28 179.352C189.968 177.858 188.988 176.1 188.405 174.196C187.821 172.292 187.647 170.285 187.894 168.307L190.091 150.697C190.091 150.697 164.312 152.296 173.83 101.063C175.152 93.5472 179.071 86.7422 184.897 81.8488C190.118 77.5565 197.439 74.4385 206.804 77.2926C227.615 83.6338 223.2 108.681 223.2 108.681L225.586 108.75C226.703 108.782 227.803 109.041 228.819 109.512C229.834 109.983 230.745 110.655 231.495 111.489C232.245 112.323 232.82 113.301 233.184 114.364C233.548 115.427 233.695 116.554 233.615 117.675C233.35 121.396 231.755 124.894 229.123 127.523C226.491 130.152 223.001 131.733 219.299 131.974L219.101 131.985Z" fill="#FFA59C"/>
<path d="M225.714 124.3C228.104 122.097 229.147 119.872 228.814 117.695C228.256 114.036 224.004 111.997 223.823 111.912L223.208 113.233C223.245 113.25 226.944 115.033 227.381 117.921C227.633 119.588 226.739 121.373 224.733 123.224L225.714 124.3Z" fill="#FF8579"/>
<path d="M188.39 129.733L189.482 128.74L185.315 124.105L188.606 107.4L187.163 107.112L183.728 124.545L188.39 129.733Z" fill="#FC6760"/>
<path d="M198.935 132.022L185.923 135.572C185.848 135.591 185.779 135.628 185.722 135.68C185.664 135.731 185.62 135.796 185.593 135.869C185.566 135.941 185.557 136.019 185.567 136.096C185.576 136.173 185.604 136.247 185.648 136.31C187.213 138.569 193.542 146.245 199.501 132.682C199.537 132.599 199.549 132.507 199.536 132.417C199.522 132.327 199.484 132.242 199.425 132.173C199.365 132.104 199.288 132.053 199.202 132.027C199.115 132 199.023 131.998 198.935 132.022Z" fill="white"/>
<path d="M204.598 108.33C204.717 108.331 204.832 108.288 204.922 108.209C205.012 108.13 205.07 108.02 205.086 107.901C205.101 107.782 205.072 107.661 205.006 107.562C204.939 107.462 204.838 107.391 204.722 107.361C204.388 107.269 196.514 105.22 192.848 107.414C192.791 107.446 192.74 107.489 192.7 107.541C192.659 107.593 192.629 107.653 192.612 107.716C192.595 107.78 192.591 107.847 192.6 107.912C192.609 107.978 192.631 108.041 192.664 108.098C192.698 108.155 192.743 108.204 192.796 108.243C192.849 108.282 192.909 108.31 192.973 108.326C193.037 108.341 193.103 108.343 193.168 108.332C193.233 108.321 193.295 108.297 193.35 108.261C196.665 106.278 204.395 108.294 204.472 108.314C204.513 108.325 204.555 108.331 204.598 108.33Z" fill="#020C2D"/>
<path d="M197.394 112.894C198.467 112.894 199.337 111.552 199.337 109.896C199.337 108.24 198.467 106.898 197.394 106.898C196.321 106.898 195.451 108.24 195.451 109.896C195.451 111.552 196.321 112.894 197.394 112.894Z" fill="#020C2D"/>
<path d="M184.52 108.33C184.64 108.331 184.755 108.288 184.845 108.209C184.935 108.13 184.993 108.02 185.008 107.901C185.024 107.782 184.995 107.661 184.928 107.562C184.862 107.462 184.761 107.391 184.645 107.361C184.312 107.269 176.438 105.22 172.772 107.414C172.717 107.447 172.668 107.49 172.63 107.542C172.591 107.594 172.563 107.653 172.547 107.716C172.515 107.842 172.535 107.977 172.601 108.089C172.667 108.202 172.776 108.283 172.902 108.315C173.028 108.347 173.161 108.328 173.273 108.261C176.588 106.278 184.318 108.294 184.396 108.314C184.436 108.325 184.478 108.331 184.52 108.33Z" fill="#020C2D"/>
<path d="M177.32 112.894C178.394 112.894 179.264 111.552 179.264 109.896C179.264 108.24 178.394 106.898 177.32 106.898C176.247 106.898 175.377 108.24 175.377 109.896C175.377 111.552 176.247 112.894 177.32 112.894Z" fill="#020C2D"/>
<path d="M208.877 101.712C207.538 101.191 206.16 100.779 204.755 100.481C203.354 100.18 201.934 99.9865 200.504 99.9017C199.055 99.811 197.6 99.8595 196.159 100.047C194.692 100.238 193.249 100.589 191.856 101.093C191.668 101.151 191.494 101.247 191.344 101.374C191.193 101.502 191.07 101.658 190.98 101.834C190.891 102.01 190.838 102.202 190.823 102.399C190.809 102.597 190.834 102.795 190.897 102.982C190.96 103.169 191.059 103.342 191.19 103.49C191.32 103.638 191.478 103.758 191.656 103.843C191.833 103.929 192.025 103.978 192.222 103.987C192.418 103.997 192.614 103.967 192.799 103.899L192.877 103.87L192.964 103.834C194.127 103.328 195.341 102.948 196.585 102.702C197.854 102.452 199.145 102.324 200.438 102.321C201.753 102.314 203.067 102.406 204.368 102.598C205.665 102.787 206.946 103.078 208.199 103.468L208.248 103.484C208.48 103.561 208.733 103.544 208.953 103.436C209.172 103.328 209.341 103.138 209.423 102.906C209.505 102.674 209.493 102.42 209.39 102.197C209.288 101.974 209.102 101.8 208.874 101.713L208.877 101.712Z" fill="#020C2D"/>
<path d="M171.563 100.546C172.553 100.166 173.578 99.8836 174.622 99.7034C175.652 99.5217 176.696 99.4367 177.741 99.4497C178.806 99.4587 179.867 99.5921 180.902 99.8473C181.978 100.115 183.017 100.517 183.993 101.047C184.274 101.223 184.487 101.491 184.594 101.806C184.702 102.122 184.698 102.464 184.584 102.777C184.552 102.925 184.488 103.064 184.396 103.184C184.304 103.304 184.187 103.401 184.053 103.47C183.918 103.538 183.771 103.575 183.62 103.578C183.47 103.582 183.32 103.551 183.183 103.489C183.164 103.48 183.146 103.47 183.127 103.459L183.065 103.422C182.255 102.906 181.386 102.492 180.476 102.189C179.57 101.889 178.632 101.695 177.681 101.611C176.725 101.521 175.761 101.521 174.804 101.611C173.846 101.699 172.898 101.879 171.974 102.149L171.938 102.16C171.843 102.179 171.745 102.178 171.65 102.156C171.555 102.135 171.466 102.094 171.389 102.036C171.311 101.978 171.246 101.904 171.198 101.819C171.151 101.734 171.121 101.64 171.112 101.543C171.063 101.35 171.081 101.146 171.163 100.964C171.245 100.783 171.386 100.635 171.563 100.546Z" fill="#020C2D"/>
<path d="M193.45 151.706C196.685 151.757 199.881 150.992 202.746 149.481L202.033 148.189C196.654 151.183 190.297 149.986 190.233 149.974L189.952 151.426C191.107 151.623 192.278 151.717 193.45 151.706Z" fill="#FF8579"/>
<path d="M222.351 111.631L221.363 115.059C221.259 115.426 221.058 115.757 220.781 116.018C220.505 116.279 220.163 116.46 219.793 116.542C219.423 116.624 219.037 116.603 218.677 116.483C218.317 116.363 217.997 116.147 217.749 115.858C213.931 111.228 211.746 105.458 211.532 99.4479C211.532 99.4479 149.753 107.923 168.144 63.8945C168.144 63.8945 180.819 72.9938 197.395 65.0688C213.972 57.1438 223.2 76.1939 223.2 76.1939C223.2 76.1939 244.213 67.268 228.874 109.536L226.218 109.137C225.382 109.01 224.529 109.194 223.818 109.652C223.106 110.111 222.585 110.814 222.351 111.631Z" fill="#020C2D"/>
<path d="M305.186 312.253H281.908L302.917 472.228L264.569 452.019C244.998 441.709 231.406 422.014 228.123 399.219L219.888 342.032L203.994 231.697L219.583 161.058H254.911C272.417 161.058 288.063 172.603 294.048 189.945L325.634 281.49C330.797 296.444 320.291 312.253 305.186 312.253Z" fill="#E7F0FD"/>
<path d="M269.212 214.343L267.546 214.639L276.797 267.318L278.463 267.022L269.212 214.343Z" fill="#96BED5"/>
<path d="M203.994 231.694L195.956 342.037L191.999 396.433C190.219 420.779 176.679 442.465 156.154 453.811L104.687 476.043L122.855 309.979L108.957 312.637C105.594 312.053 102.263 311.3 98.9752 310.381C97.3447 309.943 95.7636 309.338 94.2569 308.574C93.2238 308.038 92.2329 307.424 91.2928 306.737C87.1424 303.656 84.026 299.374 82.3601 294.465C80.6942 289.555 80.5581 284.251 81.9701 279.262L107.333 187.122L107.345 187.11C114.029 174.631 120.612 168.102 125.831 164.701L125.964 164.616C129.677 162.26 133.983 161.023 138.373 161.052H183.354L203.994 231.694Z" fill="#E7F0FD"/>
<path d="M217.533 149.946L236.432 176.177L226.982 184.104L234.477 203.319L203.99 258.524C203.99 258.524 203.72 188.552 217.533 149.946Z" fill="#E7F0FD"/>
<path d="M189.951 151.423L171.72 172.959L180.836 185.103L171.088 198.219L203.991 258.524C203.991 258.524 207.781 246.716 189.951 151.423Z" fill="#E7F0FD"/>
<path d="M204.731 258.938L203.253 258.112L233.546 203.257L225.975 183.843L235.287 176.032L216.849 150.445L218.219 149.448L237.583 176.321L227.993 184.363L235.41 203.382L204.731 258.938Z" fill="#96BED5"/>
<path d="M203.25 258.934L170.085 198.148L179.778 185.106L170.638 172.926L189.307 150.872L190.595 151.974L172.804 172.991L181.893 185.1L172.091 198.289L204.732 258.116L203.25 258.934Z" fill="#96BED5"/>
<path d="M164.147 246.031L139.335 218.757C137.808 217.078 135.872 215.828 133.719 215.128C131.566 214.429 129.268 214.304 127.053 214.767L119.269 216.394C118.896 216.472 118.556 216.666 118.298 216.948C118.04 217.231 117.876 217.588 117.83 217.969C117.785 218.35 117.859 218.736 118.043 219.072C118.227 219.408 118.511 219.678 118.856 219.843L127.22 221.765L118.046 227.392C116.908 228.02 116.03 229.035 115.568 230.254C115.106 231.474 115.091 232.818 115.525 234.048L119.28 244.685C120.22 247.346 121.83 249.717 123.953 251.566L128.356 255.4L164.147 246.031Z" fill="#FFA59C"/>
<path d="M131.144 227.279L129.743 223.997C129.528 223.487 129.185 223.042 128.749 222.704C128.313 222.366 127.797 222.146 127.252 222.066L119.021 220.824L119.271 219.143L127.504 220.384C128.333 220.507 129.118 220.841 129.781 221.357C130.445 221.872 130.966 222.55 131.294 223.326L132.694 226.607L131.144 227.279Z" fill="#FF8579"/>
<path d="M118.04 239.345L116.841 238.146L122.561 232.36H130.524V234.06H123.264L118.04 239.345Z" fill="#FF8579"/>
<path d="M122.236 249.321L121.066 248.093L127.963 241.46H136.661V243.16H128.641L122.236 249.321Z" fill="#FF8579"/>
<path d="M225.492 234.602L263.492 219.369C265.831 218.431 268.372 218.121 270.866 218.47C273.36 218.818 275.722 219.813 277.718 221.356L284.731 226.777C285.068 227.038 285.315 227.398 285.437 227.806C285.559 228.215 285.551 228.652 285.413 229.056C285.276 229.46 285.015 229.81 284.669 230.058C284.323 230.305 283.908 230.437 283.484 230.435L274.179 228.285L280.656 238.388C281.493 239.572 281.884 241.016 281.759 242.462C281.634 243.909 281.001 245.264 279.974 246.284L271.085 255.11C268.861 257.317 266.107 258.906 263.09 259.723L256.831 261.419L241.958 258.521L225.492 234.602Z" fill="#FFA59C"/>
<path d="M267.591 231.897L266.357 230.468L269.342 227.862C270.045 227.245 270.893 226.819 271.806 226.627C272.719 226.434 273.666 226.481 274.556 226.763L283.402 229.531L282.843 231.338L273.997 228.57C273.413 228.386 272.792 228.356 272.193 228.482C271.594 228.609 271.037 228.887 270.576 229.292L267.591 231.897Z" fill="#FF8579"/>
<path d="M274.905 250.369L272.218 242.529L264.944 238.992L265.764 237.289L273.741 241.17L276.683 249.752L274.905 250.369Z" fill="#FF8579"/>
<path d="M265.895 258.319L262.446 249.026L254.413 245.118L255.231 243.415L263.945 247.653L267.657 257.658L265.895 258.319Z" fill="#FF8579"/>
<path d="M124.656 256.126L235.528 227.109L244.948 270.635L122.852 309.987L124.656 256.126Z" fill="#E7F0FD"/>
<path d="M108.716 313.493C104.239 313.466 99.8295 312.395 95.8343 310.363C91.8391 308.332 88.3671 305.396 85.6915 301.787C83.0159 298.178 81.2096 293.994 80.4148 289.563C79.6199 285.133 79.8582 280.578 81.1109 276.256L107.692 184.775L109.314 185.252L82.7329 276.734C81.3915 281.351 81.2842 286.242 82.422 290.915C83.5597 295.587 85.9022 299.875 89.2134 303.346C92.5246 306.818 96.6874 309.35 101.282 310.689C105.877 312.027 110.742 312.123 115.385 310.968L122.649 309.162L243.958 270.061L234.889 228.154L124.868 256.949L124.442 255.304L236.166 226.061L245.937 271.206L123.111 310.797L115.792 312.619C113.477 313.197 111.101 313.491 108.716 313.493Z" fill="#96BED5"/>
<path d="M281.908 312.253L172.858 293.869L244.947 270.635L242.326 258.524L285.528 269.105L281.908 312.253Z" fill="#E7F0FD"/>
<path d="M281.769 313.092L169.285 294.129L243.958 270.061L241.214 257.377L285.729 268.28L285.329 269.931L243.441 259.673L245.938 271.208L176.434 293.61L282.048 311.415L281.769 313.092Z" fill="#96BED5"/>
<path d="M119.061 405.834L118.528 404.22C143.052 396.041 142.038 350.362 141.714 343.07L118.969 347.906L118.62 346.246L143.282 341.003L143.35 341.976C143.505 344.197 146.837 396.569 119.061 405.834Z" fill="#96BED5"/>
<path d="M289.073 405.873C256.024 402.778 259.645 345.225 259.685 344.644L259.756 343.629L287.278 350.741L286.857 352.388L261.316 345.788C260.997 353.451 260.18 401.463 289.226 404.181L289.073 405.873Z" fill="#96BED5"/>
<path d="M195.205 352.36H221.375L219.888 342.032H195.956L195.205 352.36Z" fill="#004471"/>
<path d="M200.854 369.298L199.191 369.604L203.163 391.432L204.826 391.126L200.854 369.298Z" fill="#0079C4"/>
<path d="M275.6 457.302L273.919 457.487L296.278 662.837L297.958 662.652L275.6 457.302Z" fill="#0079C4"/>
<path d="M200.165 374.714L148.472 662.593L150.136 662.895L201.83 375.017L200.165 374.714Z" fill="#0079C4"/>
<path d="M143.34 201.262L141.667 201.009C145.337 176.536 131.59 168.017 125.509 165.493L126.151 163.925C132.604 166.599 147.19 175.602 143.34 201.262Z" fill="#96BED5"/>
<path d="M264.65 198.387C262.648 188.411 263.716 180.745 267.824 175.602C269.361 173.751 271.259 172.238 273.4 171.155C275.542 170.072 277.882 169.442 280.275 169.305L280.307 171.005C278.161 171.152 276.065 171.73 274.145 172.706C272.225 173.682 270.518 175.034 269.127 176.685C265.366 181.415 264.412 188.603 266.308 198.048L264.65 198.387Z" fill="#96BED5"/>
</g>
</svg>
