<svg width="74" height="75" viewBox="0 0 74 75" fill="none" xmlns="http://www.w3.org/2000/svg">
<ellipse cx="37" cy="37.7201" rx="37" ry="37.2046" fill="#BDE6FF"/>
<path d="M36.9998 36.6206C33.8702 36.6206 31.3332 33.7664 31.3332 30.2456V25.9956C31.3332 24.822 32.2846 23.8706 33.4582 23.8706H40.5415C41.7151 23.8706 42.6665 24.822 42.6665 25.9956V30.2456C42.6665 33.7664 40.1295 36.6206 36.9998 36.6206Z" stroke="white" stroke-width="2.125"/>
<path d="M42.6668 29.5372H31.3335" stroke="white" stroke-width="2.125" stroke-linecap="round"/>
<path d="M24.25 49.3706V46.5372C24.25 42.6252 27.4213 39.4539 31.3333 39.4539H31.6005C32.3619 39.4539 33.1182 39.5766 33.8405 39.8174L34.7601 40.1239C36.214 40.6086 37.786 40.6086 39.2399 40.1239L40.1595 39.8174C40.8818 39.5766 41.6381 39.4539 42.3995 39.4539H42.6667C46.5787 39.4539 49.75 42.6252 49.75 46.5372V49.3706" stroke="white" stroke-width="2.125" stroke-linecap="round"/>
<circle cx="2.83333" cy="2.83333" r="2.83333" transform="matrix(-1 0 0 1 34.1665 43.7039)" stroke="white" stroke-width="2.125"/>
<path d="M40.2124 47.9539C39.9713 47.5372 39.8333 47.0533 39.8333 46.5372C39.8333 44.9724 41.1019 43.7039 42.6667 43.7039C44.2315 43.7039 45.5 44.9724 45.5 46.5372C45.5 47.0533 45.362 47.5372 45.121 47.9539" stroke="white" stroke-width="2.125" stroke-linecap="round"/>
<path d="M34.1667 36.6206L32.75 39.4539" stroke="white" stroke-width="2.125" stroke-linecap="round"/>
<path d="M41.2502 39.4539L39.8335 36.6206" stroke="white" stroke-width="2.125" stroke-linecap="round"/>
<path d="M31.3335 39.4539V43.7039" stroke="white" stroke-width="2.125" stroke-linecap="round"/>
<path d="M42.6665 39.4539V43.7039" stroke="white" stroke-width="2.125" stroke-linecap="round"/>
</svg>
