<svg width="74" height="75" viewBox="0 0 74 75" fill="none" xmlns="http://www.w3.org/2000/svg">
<ellipse cx="37" cy="37.4613" rx="37" ry="37.2046" fill="#FF7467"/>
<path d="M24.25 50.1172H49.75" stroke="white" stroke-width="2.125" stroke-linecap="round"/>
<path d="M25.6665 26.0339C25.6665 25.2515 26.3008 24.6173 27.0832 24.6173H41.2498C42.0322 24.6173 42.6665 25.2515 42.6665 26.0339V50.1173H25.6665V26.0339Z" stroke="white" stroke-width="2.125"/>
<path d="M42.6665 35.9506H45.4998H46.9165C47.6989 35.9506 48.3332 36.5849 48.3332 37.3673V50.1173H42.6665V35.9506Z" stroke="white" stroke-width="2.125"/>
<path d="M31.3335 43.7423C31.3335 43.3511 31.6506 43.0339 32.0418 43.0339H34.1668H36.2918C36.683 43.0339 37.0002 43.3511 37.0002 43.7423V49.4089C37.0002 49.8001 36.683 50.1173 36.2918 50.1173H32.0418C31.6506 50.1173 31.3335 49.8001 31.3335 49.4089V43.7423Z" stroke="white" stroke-width="2.125"/>
<path d="M34.1665 30.2839V35.9506" stroke="white" stroke-width="2.125" stroke-linecap="round"/>
<path d="M31.3335 33.1173H37.0002" stroke="white" stroke-width="2.125" stroke-linecap="round"/>
</svg>
