<svg width="733" height="435" viewBox="0 0 733 435" fill="none" xmlns="http://www.w3.org/2000/svg">
<path d="M0 217.5C0 97.3781 97.3781 0 217.5 0H515.5C635.622 0 733 97.3781 733 217.5C733 337.622 635.622 435 515.5 435H217.5C97.3781 435 0 337.622 0 217.5Z" fill="#EEE4FF"/>
<mask id="mask0_11_2026" style="mask-type:alpha" maskUnits="userSpaceOnUse" x="0" y="0" width="733" height="435">
<path d="M0 217.5C0 97.3781 97.3781 0 217.5 0H515.5C635.622 0 733 97.3781 733 217.5C733 337.622 635.622 435 515.5 435H217.5C97.3781 435 0 337.622 0 217.5Z" fill="#C4C4C4"/>
</mask>
<g mask="url(#mask0_11_2026)">
<path d="M620.924 148.147C621.747 73.563 557.271 8.5532 490.871 22.8729C426.519 36.7512 382.995 110.582 367.571 181.772C366.311 187.585 365.003 193.793 361.15 198.101C354.735 205.279 344.477 204.078 335.933 202.165C283.345 190.375 232.028 172.457 178.377 166.333C124.725 160.208 66.8835 167.076 20.0963 200.957C-26.6909 234.838 -58.583 300.503 -44.7079 358.048C-33.6345 403.988 3.64796 436.116 44.4547 449.817C85.2614 463.518 129.605 461.609 172.996 458.526C203.043 456.391 233.665 453.799 262.402 461.667C320.981 477.709 360.93 533.264 407.555 574.372C454.179 615.481 525.571 641.647 574.527 597.433C608.041 567.162 616.664 508.021 592.944 471.116C563.331 425.048 462.475 394.935 509.167 318.22C548.466 253.646 619.895 241.376 620.924 148.147Z" fill="#AA81F3"/>
<path d="M529.995 604.755C522.03 604.723 514.09 603.879 506.296 602.235C478.198 596.433 448.759 580.925 423.404 558.57C410.968 547.603 398.806 535.413 387.047 523.625C354.727 491.224 321.308 457.72 278.493 445.995C250.971 438.46 221.392 440.577 192.786 442.625L189.291 442.874C144.601 446.049 101.124 447.77 60.5128 434.135C39.5471 427.167 20.4194 415.568 4.54841 400.198C-12.195 383.789 -23.8178 363.641 -29.0489 341.931C-35.6894 314.386 -32.339 284.022 -19.3605 254.122C-7.17846 226.054 12.4796 201.222 35.9902 184.197C88.1003 146.465 151.058 144.483 194.697 149.464C230.018 153.496 264.89 162.783 298.613 171.763C316.17 176.438 334.318 181.273 352.317 185.307C361.036 187.258 370.782 188.331 376.945 181.434C380.641 177.297 381.93 171.346 383.176 165.592L383.221 165.383C391.356 127.843 406.771 91.9149 426.624 64.216C449.293 32.5913 477.082 12.4676 506.988 6.02057C535.299 -0.0850763 564.615 7.75262 589.526 28.0942C604.423 40.4043 616.434 55.8383 624.706 73.3038C633.458 91.5883 637.929 111.626 637.78 131.897C637.118 191.819 607.427 218.514 575.99 246.777C558.315 262.669 540.038 279.102 525.93 302.28C493.854 354.983 531.789 385.316 568.475 414.651C584.975 427.842 600.554 440.301 609.7 454.529C633.61 491.728 624.956 551.12 591.18 581.627C574.24 596.937 553.389 604.755 529.995 604.755ZM233.126 439.484C248.619 439.484 263.995 440.765 278.816 444.824C321.943 456.634 355.479 490.255 387.911 522.77C399.657 534.545 411.801 546.721 424.211 557.662C472.491 600.232 542.597 623.873 590.371 580.724C623.738 550.586 632.296 491.926 608.683 455.19C599.645 441.129 584.137 428.731 567.723 415.608C549.472 401.014 530.599 385.923 520.393 367.826C508.816 347.299 510.289 325.653 524.898 301.651C539.099 278.319 557.443 261.825 575.184 245.876C606.415 217.797 635.915 191.275 636.57 131.888L637.179 131.894L636.57 131.888C637.008 92.288 619.135 53.8416 588.764 29.0435C564.144 8.94172 535.202 1.19262 507.255 7.21618C438.727 21.9926 398.255 101.796 384.42 165.645L384.375 165.853C383.095 171.763 381.774 177.874 377.861 182.25C371.237 189.661 360.592 188.414 352.055 186.5C334.033 182.46 315.869 177.623 298.303 172.946C264.623 163.977 229.796 154.701 194.563 150.679C151.138 145.721 88.5019 147.687 36.7095 185.189C-6.56481 216.524 -42.6411 280.329 -27.8598 341.65C-17.7552 383.571 15.4284 417.714 60.9045 432.983C101.3 446.547 144.647 444.829 189.208 441.662L192.699 441.413C206.06 440.459 219.633 439.484 233.126 439.484Z" fill="#EEE4FF"/>
<path d="M114.885 221.036H223.067C227.143 221.036 231.178 221.838 234.944 223.398C238.709 224.958 242.13 227.244 245.012 230.126C247.894 233.008 250.18 236.429 251.74 240.194C253.3 243.96 254.102 247.995 254.102 252.071V502.125C254.102 504.398 253.199 506.578 251.592 508.186C249.984 509.793 247.804 510.696 245.531 510.696H114.885C112.612 510.696 110.432 509.793 108.824 508.186C107.217 506.578 106.313 504.398 106.313 502.125V229.607C106.313 227.334 107.217 225.154 108.824 223.546C110.432 221.939 112.612 221.036 114.885 221.036Z" fill="#FF7467"/>
<path d="M134.393 245.716C134.393 232.085 123.343 221.036 109.712 221.036C96.082 221.036 85.0322 232.085 85.0322 245.716V486.018C85.0322 499.648 96.082 510.698 109.712 510.698C123.343 510.698 134.393 499.648 134.393 486.018V245.716Z" fill="#E36155"/>
<path d="M130.176 244.682H244.189C251.802 244.682 259.192 247.256 265.158 251.986C271.124 256.716 275.316 263.324 277.052 270.737L294.003 343.108H254.101V408.726H134.394V316.506H71.4375L96.603 265.545C99.6962 259.282 104.48 254.009 110.412 250.322C116.345 246.636 123.191 244.682 130.176 244.682Z" fill="#F7C16C"/>
<path d="M244.681 409.429C241.673 406.791 237.789 405.371 233.789 405.446C232.306 405.495 230.724 405.697 229.048 405.911C223.759 406.587 217.762 407.351 215.274 402.462C214.09 400.127 214.299 397.179 215.911 393.44C218.928 386.434 223.877 380.435 228.66 374.628C233.87 368.307 239.257 361.77 241.967 354.059C244.33 347.313 244.254 340.255 241.756 334.694C238.942 328.428 232.891 324.112 226.7 323.953C222.686 323.855 218.723 325.373 214.899 326.853C214.168 327.138 213.432 327.422 212.699 327.694C208.31 329.319 202.621 330.912 197.494 328.765C196.032 328.113 194.74 327.136 193.714 325.908C192.689 324.68 191.957 323.234 191.577 321.68C191.267 320.572 191.231 319.406 191.469 318.281C191.708 317.155 192.216 316.105 192.949 315.218C194.432 313.484 196.512 312.692 198.524 311.927C199.562 311.562 200.572 311.122 201.546 310.61C202.861 309.825 203.991 308.765 204.856 307.502C205.722 306.24 206.304 304.804 206.561 303.295C206.98 301.219 206.962 299.078 206.508 297.009C206.053 294.94 205.173 292.989 203.922 291.28C198.573 284.275 188.939 282.639 183.672 282.288C174.17 281.655 164.667 283.507 156.098 287.661C153.632 288.856 151.083 290.286 148.62 291.668C139.421 296.825 129.911 302.158 120.207 298.576L119.82 298.433L119.669 298.048C117.941 293.614 121.176 288.971 128.779 284.973C131.9 283.334 135.386 280.329 136.138 277.309C136.3 276.732 136.331 276.126 136.229 275.535C136.126 274.945 135.894 274.384 135.547 273.895C133.812 271.364 129.816 271.42 126.965 271.681C114.583 272.824 102.37 275.367 90.5603 279.262L89.9849 277.515C101.926 273.577 114.276 271.005 126.797 269.85C130.112 269.545 134.783 269.525 137.065 272.857C137.559 273.561 137.892 274.365 138.041 275.212C138.189 276.059 138.149 276.929 137.923 277.759C136.972 281.579 132.863 284.911 129.633 286.606C125.88 288.579 119.91 292.51 121.249 297C130.028 299.988 139.019 294.949 147.719 290.071C150.208 288.676 152.782 287.232 155.296 286.012C164.154 281.721 173.976 279.807 183.797 280.461C193.427 281.102 201.095 284.551 205.387 290.172C206.794 292.092 207.785 294.285 208.298 296.609C208.81 298.934 208.833 301.34 208.364 303.673C208.055 305.441 207.367 307.121 206.346 308.597C205.324 310.073 203.995 311.31 202.449 312.221C201.396 312.779 200.303 313.258 199.179 313.655C197.301 314.37 195.522 315.044 194.347 316.419C193.807 317.087 193.437 317.877 193.267 318.719C193.097 319.562 193.133 320.433 193.372 321.259C193.69 322.529 194.29 323.712 195.127 324.718C195.965 325.725 197.018 326.53 198.21 327.073C202.742 328.973 207.995 327.48 212.064 325.975C212.789 325.706 213.514 325.424 214.241 325.143C218.234 323.599 222.352 321.991 226.758 322.12C233.639 322.296 240.345 327.048 243.443 333.946C246.132 339.932 246.229 347.487 243.711 354.672C240.892 362.692 235.4 369.356 230.088 375.804C225.386 381.509 220.523 387.409 217.609 394.173C216.228 397.377 216.002 399.817 216.922 401.632C218.823 405.371 223.68 404.747 228.825 404.091C230.468 403.881 232.168 403.664 233.737 403.612C238.187 403.524 242.511 405.093 245.867 408.016L244.681 409.429Z" fill="#CC9933"/>
<path d="M247.572 297.991C246.773 297.995 245.975 297.916 245.191 297.757C240.406 296.756 236.406 292.218 234.49 285.619C233.949 283.769 233.552 281.858 233.167 280.01C232.455 276.584 231.781 273.346 230.268 270.379C225.18 260.361 212.537 257.426 202.945 258.933C192.411 260.591 183.002 266.515 173.903 272.243L173.663 272.394C169.803 274.817 165.988 276.94 161.78 276.342C157.515 275.724 154.316 272.423 151.405 269.095C144.304 261.003 138.088 253.612 133.946 245.083L135.6 244.28C139.643 252.602 145.776 259.893 152.789 267.883C155.585 271.08 158.397 273.993 162.041 274.522C165.631 275.035 169.126 273.071 172.689 270.837L172.927 270.688C182.184 264.859 191.756 258.832 202.664 257.114C212.894 255.503 226.407 258.708 231.912 269.542C233.537 272.728 234.269 276.239 234.972 279.633C235.349 281.447 235.74 283.323 236.26 285.103C237.984 291.041 241.462 295.101 245.57 295.956C247.584 296.288 249.646 296.167 251.608 295.602C258.379 294.016 264.891 290.427 271.19 286.956C273.942 285.439 276.788 283.867 279.602 282.502L280.407 284.156C277.635 285.504 274.81 287.061 272.078 288.567C265.67 292.097 259.045 295.749 252.028 297.393C250.571 297.763 249.076 297.964 247.572 297.991Z" fill="#CC9933"/>
<path d="M74.5181 310.266H136.361L134.394 316.506H71.436L74.5181 310.266Z" fill="#005386"/>
<path d="M288.742 320.644L287.238 314.226H254.101V320.644H288.742Z" fill="#005386"/>
<path d="M179.468 244.682L180.427 254.891C180.843 259.323 182.969 263.419 186.355 266.31C189.74 269.201 194.118 270.66 198.561 270.377C200.903 270.229 203.19 269.6 205.279 268.53C207.368 267.46 209.215 265.972 210.705 264.159C212.195 262.346 213.296 260.245 213.94 257.988C214.584 255.732 214.758 253.366 214.449 251.04L213.606 244.682H179.468Z" fill="#005386"/>
<path d="M182.057 219.118L185.19 254.826C185.469 258.005 186.929 260.965 189.283 263.122C191.636 265.278 194.713 266.473 197.905 266.473C199.715 266.473 201.505 266.088 203.155 265.344C204.805 264.6 206.278 263.513 207.476 262.155C208.674 260.798 209.569 259.201 210.102 257.471C210.635 255.741 210.794 253.917 210.569 252.121L208.561 236.119C208.561 236.119 232.114 237.573 223.418 191.022C222.209 184.194 218.628 178.012 213.308 173.566C208.538 169.664 201.847 166.833 193.292 169.426C174.279 175.187 178.312 197.946 178.312 197.946L176.13 198.008C175.109 198.037 174.104 198.273 173.176 198.701C172.249 199.129 171.417 199.74 170.732 200.497C170.046 201.255 169.521 202.144 169.189 203.11C168.856 204.075 168.722 205.099 168.795 206.118C169.037 209.498 170.496 212.676 172.9 215.064C175.305 217.451 178.493 218.888 181.875 219.106L182.057 219.118Z" fill="#FFA59C"/>
<path d="M210.118 217.072L209.12 216.17L212.928 211.958L209.919 196.78L211.239 196.518L214.377 212.358L210.118 217.072Z" fill="#FC6760"/>
<path d="M178.318 197.946L182.063 219.118C188.078 231.465 199.158 238.447 208.695 236.779C215.051 235.667 219.432 230.939 219.966 230.347C225.956 223.715 225.471 215.571 225.351 214.041C223.43 214.497 221.423 214.455 219.523 213.917C217.252 213.241 216.362 212.107 213.982 211.837C212.625 211.708 211.255 211.869 209.966 212.312C207.796 212.952 192.654 217.793 186.715 212.501C184.644 210.657 183.163 202.267 182.724 197.946C182.724 197.946 190.672 196.307 190.861 187.045C190.861 187.045 238.341 198.079 229.868 166.552C221.394 135.025 186.715 160.05 186.715 160.05C186.715 160.05 160.392 149.494 172.521 199.049L178.318 197.946Z" fill="#020C2D"/>
<path d="M176.017 212.135C173.834 210.134 172.881 208.115 173.185 206.133C173.695 202.809 177.579 200.956 177.744 200.879L178.307 202.079C178.273 202.095 174.894 203.716 174.494 206.339C174.264 207.855 175.077 209.475 176.913 211.158L176.017 212.135Z" fill="#FF8579"/>
<path d="M200.483 219.151L212.371 222.377C212.439 222.395 212.501 222.429 212.553 222.476C212.605 222.523 212.645 222.581 212.669 222.647C212.694 222.712 212.702 222.783 212.693 222.852C212.685 222.922 212.66 222.988 212.62 223.045C211.19 225.098 205.407 232.072 199.966 219.749C199.933 219.673 199.922 219.59 199.935 219.508C199.947 219.426 199.983 219.35 200.036 219.287C200.09 219.225 200.161 219.179 200.24 219.155C200.319 219.131 200.403 219.129 200.483 219.151Z" fill="#FC6760"/>
<path d="M195.31 197.626C195.202 197.626 195.096 197.586 195.015 197.514C194.933 197.442 194.88 197.343 194.866 197.235C194.852 197.127 194.878 197.018 194.939 196.928C195 196.837 195.091 196.772 195.197 196.745C195.501 196.663 202.695 194.8 206.045 196.792C206.098 196.821 206.145 196.86 206.182 196.907C206.22 196.954 206.248 197.009 206.264 197.067C206.28 197.125 206.284 197.186 206.276 197.246C206.268 197.306 206.248 197.364 206.217 197.416C206.186 197.468 206.145 197.513 206.096 197.549C206.047 197.584 205.992 197.61 205.933 197.623C205.874 197.637 205.813 197.639 205.753 197.628C205.694 197.618 205.637 197.595 205.586 197.562C202.558 195.76 195.496 197.592 195.427 197.61C195.389 197.621 195.35 197.626 195.31 197.626Z" fill="#020C2D"/>
<path d="M201.89 201.771C202.87 201.771 203.665 200.551 203.665 199.047C203.665 197.543 202.87 196.324 201.89 196.324C200.909 196.324 200.115 197.543 200.115 199.047C200.115 200.551 200.909 201.771 201.89 201.771Z" fill="#020C2D"/>
<path d="M213.651 197.626C213.542 197.626 213.437 197.586 213.355 197.514C213.274 197.442 213.221 197.343 213.207 197.235C213.193 197.127 213.219 197.018 213.28 196.928C213.34 196.837 213.432 196.772 213.537 196.745C213.841 196.663 221.035 194.8 224.386 196.792C224.439 196.821 224.486 196.86 224.523 196.907C224.561 196.954 224.589 197.009 224.605 197.067C224.621 197.125 224.625 197.186 224.617 197.246C224.609 197.306 224.589 197.364 224.558 197.416C224.527 197.468 224.486 197.513 224.437 197.549C224.388 197.584 224.333 197.61 224.274 197.623C224.215 197.637 224.154 197.639 224.094 197.628C224.035 197.618 223.978 197.595 223.927 197.562C220.899 195.76 213.837 197.592 213.767 197.61C213.73 197.621 213.691 197.626 213.651 197.626Z" fill="#020C2D"/>
<path d="M220.231 201.771C221.211 201.771 222.006 200.551 222.006 199.047C222.006 197.543 221.211 196.324 220.231 196.324C219.25 196.324 218.456 197.543 218.456 199.047C218.456 200.551 219.25 201.771 220.231 201.771Z" fill="#020C2D"/>
<path d="M191.398 191.612C192.621 191.138 193.881 190.764 195.164 190.494C196.444 190.22 197.742 190.044 199.048 189.967C200.372 189.885 201.702 189.929 203.018 190.099C204.359 190.273 205.677 190.591 206.95 191.049C207.281 191.168 207.552 191.413 207.704 191.73C207.857 192.047 207.88 192.412 207.767 192.745C207.654 193.079 207.415 193.355 207.102 193.514C206.788 193.674 206.424 193.704 206.088 193.598L206.017 193.572L205.935 193.54C204.873 193.08 203.764 192.735 202.627 192.512C201.466 192.284 200.286 192.168 199.103 192.165C197.902 192.158 196.702 192.242 195.513 192.417C194.327 192.587 193.157 192.852 192.013 193.207L191.968 193.221C191.757 193.286 191.53 193.266 191.333 193.167C191.136 193.068 190.986 192.897 190.912 192.689C190.839 192.482 190.848 192.254 190.939 192.053C191.03 191.852 191.194 191.694 191.399 191.612H191.398Z" fill="#020C2D"/>
<path d="M225.493 190.551C224.588 190.207 223.652 189.951 222.698 189.787C221.756 189.622 220.801 189.545 219.845 189.556C218.872 189.565 217.902 189.686 216.957 189.918C215.974 190.161 215.025 190.527 214.134 191.007C213.877 191.167 213.683 191.411 213.584 191.697C213.486 191.984 213.489 192.295 213.593 192.579C213.622 192.714 213.68 192.84 213.764 192.949C213.848 193.059 213.955 193.148 214.078 193.21C214.201 193.272 214.336 193.306 214.473 193.31C214.611 193.313 214.748 193.286 214.873 193.229L214.924 193.202L214.981 193.168C215.721 192.699 216.515 192.323 217.346 192.048C218.175 191.775 219.032 191.599 219.9 191.523C220.774 191.441 221.654 191.441 222.528 191.523C223.403 191.602 224.269 191.766 225.113 192.01L225.147 192.021C225.234 192.039 225.324 192.038 225.411 192.019C225.498 192 225.579 191.962 225.651 191.91C225.723 191.857 225.782 191.789 225.826 191.712C225.87 191.634 225.897 191.549 225.905 191.46C225.95 191.284 225.934 191.098 225.859 190.933C225.784 190.768 225.655 190.633 225.493 190.551Z" fill="#020C2D"/>
<path d="M299.586 496.565C297.969 496.565 296.419 495.923 295.276 494.78C294.132 493.637 293.49 492.086 293.49 490.469C293.49 488.853 294.132 487.302 295.276 486.159C296.419 485.016 297.969 484.373 299.586 484.373C308.175 484.364 316.41 480.948 322.484 474.874C328.557 468.8 331.973 460.565 331.981 451.976V407.913C331.981 406.296 332.624 404.746 333.767 403.603C334.91 402.459 336.46 401.817 338.077 401.817C339.694 401.817 341.244 402.459 342.388 403.603C343.531 404.746 344.173 406.296 344.173 407.913V451.976C344.16 463.797 339.459 475.131 331.1 483.49C322.741 491.85 311.408 496.552 299.586 496.565Z" fill="#004471"/>
<path d="M254.101 408.726H295.132C304.723 408.725 313.963 412.339 321.01 418.846C328.057 425.353 332.393 434.277 333.156 443.838L346.323 609.121H289.57L286.023 504.488L263.855 612.67L210.652 594.05L241.686 475.229H179.528C173.427 475.229 167.389 474.007 161.768 471.635C156.148 469.264 151.06 465.79 146.804 461.419C142.548 457.048 139.211 451.869 136.99 446.188C134.768 440.506 133.708 434.437 133.87 428.339L134.394 408.726H254.101Z" fill="#005386"/>
<path d="M286.685 504.682L285.36 504.301L301.742 447.227C303.008 442.815 303.232 438.169 302.397 433.656C301.561 429.143 299.689 424.885 296.927 421.219C294.165 417.553 290.59 414.578 286.482 412.53C282.374 410.482 277.847 409.415 273.257 409.415H254.101V408.033H273.257C278.061 408.034 282.799 409.15 287.097 411.294C291.396 413.437 295.138 416.55 298.028 420.387C300.919 424.224 302.878 428.68 303.753 433.403C304.627 438.126 304.393 442.988 303.068 447.606L286.685 504.682Z" fill="#0079C4"/>
<path d="M229.048 583.6L227.722 583.22L259.84 471.188C260.305 469.567 260.386 467.86 260.079 466.203C259.771 464.545 259.083 462.981 258.068 461.634C257.053 460.288 255.74 459.195 254.231 458.442C252.722 457.69 251.059 457.298 249.372 457.298H177.941C171.149 457.29 164.638 454.589 159.836 449.787C155.033 444.984 152.332 438.473 152.324 431.682V408.726H153.706V431.682C153.713 438.108 156.269 444.268 160.813 448.812C165.357 453.356 171.517 455.911 177.943 455.918H249.378C251.278 455.919 253.151 456.361 254.851 457.209C256.551 458.057 258.031 459.288 259.174 460.805C260.317 462.322 261.093 464.084 261.439 465.952C261.786 467.82 261.694 469.742 261.172 471.569L229.048 583.6Z" fill="#0079C4"/>
<path d="M143.49 285.361L133.734 316.298L135.05 316.713L144.806 285.776L143.49 285.361Z" fill="#CC9933"/>
<path d="M254.79 285.569H253.411V320.644H254.79V285.569Z" fill="#CC9933"/>
<path d="M106.313 496.565C104.696 496.565 103.146 495.923 102.003 494.78C100.86 493.637 100.217 492.086 100.217 490.469C100.217 488.853 100.86 487.302 102.003 486.159C103.146 485.016 104.696 484.373 106.313 484.373C114.903 484.364 123.137 480.948 129.211 474.874C135.284 468.8 138.7 460.565 138.708 451.976V407.913C138.708 406.296 139.351 404.746 140.494 403.603C141.637 402.459 143.188 401.817 144.804 401.817C146.421 401.817 147.972 402.459 149.115 403.603C150.258 404.746 150.9 406.296 150.9 407.913V451.976C150.887 463.797 146.186 475.131 137.827 483.49C129.468 491.85 118.135 496.552 106.313 496.565Z" fill="#004471"/>
<path d="M190.227 360.843H78.4836C74.5495 360.843 71.3604 364.032 71.3604 367.966V401.603C71.3604 405.537 74.5495 408.726 78.4836 408.726H190.227C194.161 408.726 197.35 405.537 197.35 401.603V367.966C197.35 364.032 194.161 360.843 190.227 360.843Z" fill="#FF7467"/>
<path d="M214.197 360.843H192.916C189.162 360.843 186.118 363.887 186.118 367.641V401.928C186.118 405.682 189.162 408.726 192.916 408.726H214.197C217.952 408.726 220.996 405.682 220.996 401.928V367.641C220.996 363.887 217.952 360.843 214.197 360.843Z" fill="#FF7467"/>
<path d="M214.199 409.539H192.917C190.899 409.536 188.964 408.734 187.537 407.307C186.111 405.88 185.308 403.945 185.306 401.928V367.641C185.308 365.623 186.11 363.688 187.537 362.261C188.964 360.834 190.899 360.032 192.917 360.029H214.199C216.216 360.032 218.151 360.834 219.578 362.261C221.004 363.688 221.807 365.623 221.809 367.641V401.928C221.807 403.945 221.004 405.88 219.577 407.307C218.151 408.733 216.216 409.536 214.199 409.539ZM192.917 361.655C191.33 361.657 189.808 362.288 188.686 363.41C187.564 364.533 186.933 366.054 186.931 367.641V401.928C186.933 403.514 187.564 405.036 188.686 406.158C189.808 407.28 191.33 407.911 192.917 407.913H214.199C215.785 407.911 217.307 407.28 218.428 406.158C219.55 405.036 220.181 403.514 220.183 401.928V367.641C220.182 366.054 219.551 364.533 218.429 363.41C217.307 362.288 215.785 361.657 214.199 361.655H192.917Z" fill="#E36155"/>
<path d="M75.5739 316.506L73.9695 320.045C71.9748 324.444 71.1152 329.272 71.4693 334.089C71.8235 338.905 73.38 343.556 75.9966 347.615C78.6131 351.675 82.2059 355.013 86.4463 357.325C90.6867 359.636 95.4392 360.847 100.269 360.847H176.069L179.397 367.156C180.303 368.876 181.822 370.193 183.653 370.848C185.483 371.503 187.493 371.448 189.285 370.693L209.334 362.244C210.971 361.555 212.271 360.249 212.951 358.608C213.632 356.968 213.64 355.125 212.972 353.479L207.985 341.193C205.714 335.598 201.353 331.109 195.826 328.676L178.373 320.993C171.656 318.036 164.397 316.509 157.058 316.509L75.5739 316.506Z" fill="#FFA59C"/>
<path d="M254.101 360.843H356.139C358.029 360.843 359.842 361.594 361.178 362.931C362.515 364.267 363.266 366.08 363.266 367.97V401.598C363.266 403.489 362.515 405.302 361.178 406.638C359.842 407.975 358.029 408.726 356.139 408.726H254.101V360.843Z" fill="#FF7467"/>
<path d="M381.492 360.843H360.211C356.457 360.843 353.413 363.887 353.413 367.641V401.928C353.413 405.682 356.457 408.726 360.211 408.726H381.492C385.247 408.726 388.291 405.682 388.291 401.928V367.641C388.291 363.887 385.247 360.843 381.492 360.843Z" fill="#FF7467"/>
<path d="M381.493 409.539H360.211C358.194 409.536 356.259 408.734 354.832 407.307C353.406 405.88 352.603 403.945 352.601 401.928V367.641C352.603 365.623 353.405 363.688 354.832 362.261C356.259 360.834 358.194 360.032 360.211 360.029H381.493C383.511 360.031 385.446 360.834 386.873 362.261C388.3 363.688 389.102 365.623 389.104 367.641V401.928C389.102 403.946 388.299 405.88 386.872 407.307C385.445 408.734 383.511 409.536 381.493 409.539ZM360.211 361.655C358.625 361.657 357.103 362.288 355.981 363.41C354.859 364.533 354.228 366.054 354.226 367.641V401.928C354.228 403.514 354.859 405.036 355.981 406.158C357.103 407.28 358.625 407.911 360.211 407.913H381.493C383.08 407.911 384.601 407.28 385.723 406.158C386.846 405.036 387.477 403.515 387.479 401.928V367.641C387.477 366.054 386.846 364.532 385.724 363.41C384.601 362.288 383.08 361.657 381.493 361.655H360.211Z" fill="#E36155"/>
<path d="M254.101 320.644H351.049C351.049 320.644 382.971 322.418 383.56 360.843H365.828C365.828 360.843 365.236 379.168 353.413 360.843H264.742C261.919 360.843 259.213 359.722 257.217 357.726C255.222 355.731 254.101 353.024 254.101 350.202V320.644Z" fill="#FFA59C"/>
<path d="M190.373 370.248L186.076 360.662C185.731 359.887 185.222 359.197 184.585 358.639L178.273 353.084L179.185 352.049L185.497 357.603C186.282 358.293 186.909 359.143 187.335 360.098L191.632 369.684L190.373 370.248Z" fill="#FF8579"/>
<path d="M198.021 367.02L193.171 355.885C192.995 355.479 192.777 355.092 192.52 354.731L187.039 347.057L188.162 346.255L193.643 353.929C193.957 354.368 194.224 354.839 194.439 355.335L199.288 366.471L198.021 367.02Z" fill="#FF8579"/>
<path d="M206.35 363.497L202.25 353.46C201.556 351.759 200.534 350.21 199.243 348.903L194.79 344.387L195.772 343.418L200.225 347.934C201.643 349.37 202.765 351.07 203.526 352.939L207.626 362.975L206.35 363.497Z" fill="#FF8579"/>
<path d="M352.823 361.2L347.96 353.191C346.404 352.886 339.95 351.241 338.842 344.935L340.2 344.696C341.279 350.84 348.186 351.843 348.48 351.884L348.805 351.927L354.002 360.484L352.823 361.2Z" fill="#FF8579"/>
<path d="M365.201 361.132L361.421 352.94C360.446 350.836 359.026 348.969 357.258 347.469L348.534 340.088L349.428 339.031L358.151 346.412C360.072 348.043 361.616 350.072 362.676 352.358L366.456 360.55L365.201 361.132Z" fill="#FF8579"/>
<path d="M208.554 344.342L206.145 341.416C205.236 340.309 204.092 339.418 202.797 338.807C201.501 338.196 200.086 337.88 198.654 337.882V336.501C200.29 336.498 201.905 336.859 203.385 337.557C204.864 338.254 206.171 339.272 207.209 340.535L209.617 343.461L208.554 344.342Z" fill="#FF8579"/>
<path d="M699.165 359.946H338.754V395.021H699.165V359.946Z" fill="#004471"/>
<path d="M691.658 394.626V673.291H664.32V642.495H373.6V673.291H346.252V394.626H691.658Z" fill="white"/>
<path d="M692.471 674.104H663.508V643.308H374.413V674.104H345.44V393.814H692.471V674.104ZM665.133 672.478H690.846V395.439H347.066V672.478H372.787V641.682H665.133V672.478Z" fill="#004471"/>
<path d="M706.262 265.198L677.408 179.172C674.933 171.789 670.2 165.37 663.879 160.823C657.557 156.275 649.967 153.829 642.18 153.83H530.515C523.482 153.828 516.573 155.69 510.493 159.226C504.413 162.762 499.377 167.845 495.9 173.958L468.628 221.901L377.395 188.083L356.475 237.924L476.555 288.674C482.227 291.072 488.602 291.203 494.367 289.041C500.132 286.878 504.849 282.587 507.544 277.051L514.478 262.798L531.83 293.107L526.046 312.695H642.205L620.843 353.928L659.557 371.768L704.312 288.345C706.204 284.825 707.352 280.955 707.688 276.973C708.023 272.992 707.538 268.984 706.262 265.198ZM655.557 281.804C651.953 273.031 659.806 262.797 659.806 262.797L661.893 268.626L655.557 281.804Z" fill="#0079C4"/>
<path d="M560.539 80.1865C560.539 80.1865 552.35 127.8 546.832 133.526C541.315 139.252 537.572 147.084 540.724 154.178L574.13 153.832L583.743 142.372L567.771 84.0741L560.539 80.1865Z" fill="#020C2D"/>
<path d="M602.857 125.516L599.62 162.406C599.331 165.69 597.823 168.746 595.391 170.973C592.96 173.2 589.783 174.435 586.486 174.435C584.616 174.435 582.767 174.038 581.062 173.269C579.357 172.5 577.835 171.377 576.598 169.975C575.36 168.573 574.435 166.923 573.884 165.136C573.332 163.349 573.168 161.465 573.4 159.609L575.475 143.079C575.475 143.079 551.144 144.58 560.128 96.4919C561.376 89.4385 565.075 83.0524 570.571 78.4595C575.499 74.4305 582.409 71.5045 591.248 74.1826C610.892 80.1346 606.726 103.641 606.726 103.641L608.979 103.706C610.034 103.736 611.072 103.98 612.031 104.422C612.989 104.863 613.848 105.495 614.556 106.277C615.264 107.06 615.807 107.978 616.15 108.976C616.494 109.974 616.633 111.031 616.557 112.084C616.308 115.576 614.802 118.86 612.318 121.328C609.834 123.795 606.54 125.279 603.046 125.505L602.857 125.516Z" fill="#FFA59C"/>
<path d="M561.514 91.4151C562.75 91.8448 564.014 92.2558 565.306 92.6481C574.399 95.3847 583.833 96.823 593.328 96.9201C594.196 96.9291 595.027 97.2769 595.643 97.8893C596.259 98.5017 596.611 99.3304 596.625 100.199C596.661 103.657 596.193 108.537 599.247 110.481C603.583 113.24 591.652 152.002 606.732 153.832H633.534C633.534 153.832 632.082 129.727 623.682 123.402C615.282 117.078 631.169 60.8251 600.824 65.1597C586.536 56.024 569.776 59.1118 562.973 68.9156C556.645 78.0383 560.988 90.0285 561.514 91.4151Z" fill="#020C2D"/>
<path d="M573.872 123.402L574.903 122.471L570.97 118.119L574.076 102.44L572.714 102.169L569.472 118.533L573.872 123.402Z" fill="#FC6760"/>
<path d="M583.824 125.55L571.543 128.882C571.473 128.9 571.409 128.935 571.355 128.984C571.302 129.032 571.261 129.093 571.235 129.16C571.21 129.228 571.202 129.301 571.21 129.372C571.219 129.444 571.245 129.513 571.286 129.572C572.764 131.693 578.737 138.898 584.359 126.167C584.392 126.088 584.403 126.002 584.389 125.918C584.376 125.834 584.34 125.755 584.284 125.691C584.228 125.627 584.156 125.58 584.074 125.555C583.993 125.529 583.906 125.528 583.824 125.55Z" fill="#FC6760"/>
<path d="M589.167 103.316C589.28 103.316 589.388 103.275 589.473 103.2C589.557 103.126 589.612 103.023 589.626 102.912C589.64 102.8 589.614 102.688 589.551 102.594C589.488 102.501 589.394 102.433 589.285 102.405C588.971 102.323 581.539 100.395 578.079 102.454C578.026 102.485 577.981 102.527 577.944 102.575C577.908 102.624 577.881 102.679 577.866 102.738C577.851 102.797 577.848 102.859 577.857 102.919C577.866 102.979 577.886 103.037 577.917 103.089C577.948 103.142 577.989 103.187 578.038 103.224C578.087 103.26 578.142 103.287 578.201 103.302C578.26 103.317 578.322 103.32 578.382 103.311C578.442 103.302 578.5 103.282 578.552 103.251C581.68 101.389 588.976 103.28 589.049 103.3C589.087 103.311 589.127 103.316 589.167 103.316Z" fill="#020C2D"/>
<path d="M582.372 107.597C583.385 107.597 584.206 106.337 584.206 104.783C584.206 103.229 583.385 101.969 582.372 101.969C581.358 101.969 580.537 103.229 580.537 104.783C580.537 106.337 581.358 107.597 582.372 107.597Z" fill="#020C2D"/>
<path d="M570.221 103.316C570.334 103.316 570.442 103.275 570.526 103.2C570.611 103.126 570.665 103.023 570.68 102.912C570.694 102.8 570.668 102.688 570.605 102.594C570.542 102.501 570.448 102.433 570.339 102.405C570.024 102.323 562.593 100.395 559.132 102.454C559.029 102.518 558.955 102.62 558.926 102.738C558.898 102.856 558.916 102.98 558.978 103.085C559.04 103.189 559.14 103.265 559.258 103.296C559.375 103.327 559.5 103.311 559.605 103.251C562.734 101.389 570.029 103.28 570.102 103.3C570.141 103.311 570.181 103.316 570.221 103.316Z" fill="#020C2D"/>
<path d="M563.424 107.597C564.437 107.597 565.259 106.337 565.259 104.783C565.259 103.229 564.437 101.969 563.424 101.969C562.411 101.969 561.59 103.229 561.59 104.783C561.59 106.337 562.411 107.597 563.424 107.597Z" fill="#020C2D"/>
<path d="M593.209 97.1013C591.945 96.6119 590.644 96.2257 589.318 95.9464C587.997 95.6633 586.656 95.4815 585.307 95.4026C583.938 95.3173 582.565 95.3627 581.205 95.5384C579.819 95.7182 578.457 96.0474 577.142 96.5202C576.966 96.5768 576.804 96.6676 576.665 96.7874C576.525 96.9072 576.41 97.0535 576.328 97.2179C576.245 97.3823 576.196 97.5615 576.183 97.745C576.17 97.9286 576.193 98.1129 576.252 98.2873C576.311 98.4617 576.404 98.6226 576.526 98.7608C576.647 98.8989 576.795 99.0116 576.96 99.0922C577.126 99.1728 577.306 99.2197 577.489 99.2302C577.673 99.2408 577.857 99.2148 578.031 99.1536C578.056 99.1455 578.08 99.1366 578.105 99.1268L578.186 99.0935C579.284 98.618 580.43 98.2619 581.604 98.0312C582.803 97.796 584.022 97.6763 585.244 97.6735C586.485 97.6661 587.725 97.7528 588.953 97.9328C590.177 98.1083 591.386 98.3801 592.568 98.7456L592.615 98.7602C592.833 98.8272 593.068 98.8076 593.271 98.7054C593.475 98.6032 593.631 98.4265 593.707 98.2119C593.783 97.9974 593.773 97.7618 593.68 97.5543C593.586 97.3467 593.416 97.1833 593.205 97.0981L593.209 97.1013Z" fill="#020C2D"/>
<path d="M557.989 96.0065C558.923 95.6503 559.89 95.3854 560.876 95.2157C561.849 95.0452 562.835 94.9654 563.823 94.9775C564.828 94.986 565.829 95.1114 566.806 95.3514C567.822 95.6027 568.802 95.9806 569.724 96.4763C569.989 96.642 570.19 96.894 570.291 97.19C570.393 97.4861 570.389 97.8081 570.281 98.1019C570.251 98.2407 570.191 98.3711 570.104 98.4836C570.017 98.596 569.906 98.6876 569.78 98.7517C569.653 98.8158 569.513 98.8508 569.371 98.8541C569.229 98.8574 569.088 98.8289 568.959 98.7708C568.941 98.7618 568.924 98.7521 568.907 98.7415L568.847 98.7066C568.083 98.2225 567.262 97.834 566.403 97.55C565.548 97.268 564.663 97.0858 563.766 97.007C562.863 96.9229 561.955 96.9229 561.052 97.007C560.147 97.0902 559.253 97.2595 558.38 97.5126L558.345 97.5232C558.255 97.5416 558.163 97.5409 558.073 97.521C557.983 97.5012 557.899 97.4627 557.825 97.408C557.751 97.3533 557.689 97.2838 557.644 97.2037C557.599 97.1237 557.571 97.0351 557.563 96.9436C557.516 96.7623 557.533 96.5705 557.611 96.4001C557.688 96.2297 557.821 96.0908 557.989 96.0065Z" fill="#020C2D"/>
<path d="M578.647 144.027C581.702 144.075 584.72 143.356 587.425 141.937L586.752 140.723C581.675 143.533 575.675 142.408 575.617 142.398L575.351 143.761C576.44 143.946 577.543 144.035 578.647 144.027Z" fill="#FF8579"/>
<path d="M516.699 471.947C516.699 471.947 638.95 458.95 655.553 468.663C672.157 478.376 578.115 377.469 578.115 377.469L516.699 471.947Z" fill="#96BED5"/>
<path d="M516.699 471.948L517.731 629.115L567.769 625.11L578.115 377.463L602.147 625.11L655.553 624.276L648.878 468.97L632.125 312.693H548.742L516.699 471.948Z" fill="#0079C4"/>
<path d="M706.263 265.198L688.95 213.555L677.409 179.174C674.933 171.791 670.201 165.372 663.879 160.825C657.558 156.277 649.967 153.831 642.18 153.831H603.817L599.026 312.695L596.043 411.648C595.688 423.47 599.251 435.077 606.179 444.664C613.106 454.25 623.008 461.277 634.343 464.651L650.086 469.332C651.112 469.636 652.194 469.698 653.248 469.512C654.301 469.326 655.297 468.898 656.157 468.262C657.017 467.625 657.717 466.797 658.202 465.843C658.687 464.89 658.943 463.836 658.951 462.766L661.894 372.998L659.558 371.766L704.313 288.343C706.204 284.824 707.352 280.954 707.688 276.973C708.023 272.992 707.538 268.984 706.263 265.198ZM655.558 281.804C651.953 273.031 659.806 262.797 659.806 262.797L661.894 268.626L655.558 281.804Z" fill="#E7F0FD"/>
<path d="M361.023 234.581L345.661 225.656L318.875 222.185C317.168 221.964 315.612 221.096 314.527 219.76C313.443 218.424 312.913 216.722 313.047 215.007L314.917 191.115L299.33 179.033C299.024 178.796 298.808 178.463 298.715 178.088C298.622 177.713 298.659 177.318 298.819 176.966C298.979 176.615 299.252 176.327 299.596 176.151C299.939 175.974 300.333 175.918 300.712 175.993L322.606 180.246L323.132 178.993C323.64 177.785 324.571 176.803 325.751 176.232C326.931 175.661 328.278 175.54 329.541 175.892L356.988 183.542C360.881 184.627 364.538 186.425 367.775 188.845L378.855 197.128L361.023 234.581Z" fill="#FFA59C"/>
<path d="M349.138 202.097C337.51 200.989 335.049 189.832 334.681 187.664L322.27 180.85L322.934 179.641L335.956 186.789L335.997 187.144C336.056 187.652 337.571 199.609 349.269 200.724L349.138 202.097Z" fill="#FF8579"/>
<path d="M336.437 196.119L327.415 194.022L300.325 145.304C300.101 144.885 300.048 144.395 300.176 143.938C300.303 143.48 300.603 143.09 301.012 142.848C301.421 142.606 301.907 142.531 302.37 142.639C302.833 142.747 303.236 143.03 303.495 143.428L336.437 196.119Z" fill="#005386"/>
<path d="M360.613 243.603C359.562 244.261 358.292 244.475 357.083 244.197C355.874 243.919 354.825 243.173 354.167 242.122C354.129 242.058 354.085 241.975 354.047 241.911L337.697 212.512C342.037 210.673 338.561 205.707 338.561 205.707L333.21 204.439L332.281 202.764L338.755 203.776C339.427 203.543 340.024 203.133 340.483 202.59L362.093 237.166C362.419 237.685 362.639 238.264 362.741 238.869C362.843 239.474 362.825 240.093 362.687 240.691C362.55 241.289 362.296 241.854 361.94 242.353C361.584 242.853 361.133 243.278 360.613 243.603Z" fill="#4A4B81"/>
<path d="M338.831 204.485L314.122 200.629L314.335 199.266L338.676 203.064C339.055 202.938 339.401 202.727 339.687 202.447C339.973 202.166 340.19 201.824 340.323 201.447C340.735 200.096 339.878 198.312 339.375 197.509L314.763 191.786L315.075 190.442L340.212 196.286L340.363 196.503C340.444 196.62 342.384 199.42 341.642 201.85C341.437 202.456 341.091 203.005 340.633 203.452C340.174 203.899 339.616 204.23 339.004 204.418L338.831 204.485Z" fill="#FF8579"/>
<path d="M337.411 213.27L313.576 209.693L313.78 208.329L337.432 211.878C337.818 211.749 338.168 211.533 338.456 211.246C338.744 210.959 338.962 210.61 339.092 210.225C339.515 208.762 338.512 206.931 338.135 206.316L314.077 200.615L314.395 199.273L338.982 205.099L339.133 205.314C339.214 205.43 341.116 208.186 340.422 210.603C340.239 211.188 339.922 211.723 339.497 212.165C339.072 212.607 338.55 212.944 337.972 213.149C337.929 213.17 337.884 213.188 337.839 213.204L337.676 213.265L337.411 213.27Z" fill="#FF8579"/>
<path d="M337.592 222.381L313.371 218.601L313.584 217.238L337.439 220.96C337.819 220.834 338.165 220.623 338.45 220.343C338.736 220.063 338.953 219.721 339.086 219.344C339.498 217.993 338.641 216.209 338.138 215.405L313.526 209.682L313.838 208.339L338.971 214.18L339.123 214.395C339.205 214.513 341.144 217.312 340.402 219.743C340.197 220.35 339.851 220.899 339.392 221.345C338.934 221.792 338.375 222.123 337.764 222.312L337.592 222.381Z" fill="#FF8579"/>
<path d="M567.769 153.832L563.107 312.689L560.686 395.086C560.086 415.526 551.942 435.021 537.823 449.815L516.7 471.948V368.968C516.7 363.05 516.327 350.111 516.327 350.111H517.731C517.731 350.111 521.862 324.94 526.045 312.69C527.873 306.499 528.43 300.002 527.68 293.591C526.93 287.179 524.891 280.986 521.684 275.383L514.477 262.794L507.54 277.052C504.846 282.588 500.13 286.88 494.365 289.042C488.601 291.204 482.226 291.072 476.555 288.673L356.479 237.925L377.403 188.08L468.63 221.901L495.9 173.957C499.378 167.845 504.413 162.763 510.492 159.229C516.571 155.694 523.478 153.832 530.511 153.832H567.769Z" fill="#E7F0FD"/>
<path d="M575.345 143.761L552.202 166.112L556.644 175.725L552.202 184.662L565.259 243.738C565.259 243.738 578.111 151.195 575.345 143.761Z" fill="#E7F0FD"/>
<path d="M598.452 142.374L619.92 164.807L611.768 175.699L619.92 196.45L601.103 243.74C601.103 243.74 592.973 155.215 598.452 142.374Z" fill="#E7F0FD"/>
<path d="M564.465 243.911L551.347 184.554L555.744 175.709L551.222 165.926L574.782 143.176L575.91 144.345L553.183 166.293L557.546 175.735L553.058 184.764L566.052 243.56L564.465 243.911Z" fill="#96BED5"/>
<path d="M601.857 244.036L600.347 243.435L619.046 196.443L610.846 175.569L618.856 164.868L597.864 142.937L599.039 141.813L620.983 164.739L612.69 175.819L620.794 196.447L620.674 196.746L601.857 244.036Z" fill="#96BED5"/>
<path d="M704.314 288.341L659.557 371.769L620.844 353.929L642.205 312.69L661.893 268.629L642.205 213.549H688.945L706.266 265.191C707.538 268.979 708.022 272.987 707.686 276.968C707.35 280.95 706.202 284.82 704.314 288.341Z" fill="#E7F0FD"/>
<path d="M661.605 373.626L619.92 354.26L661.149 268.589L641.556 213.787L642.855 213.322L662.642 268.667L662.517 268.928L621.769 353.598L662.186 372.375L661.605 373.626Z" fill="#96BED5"/>
<path d="M513.796 262.901C513.737 262.523 508.136 224.883 523.153 204.496L524.264 205.315C509.589 225.237 515.101 262.319 515.161 262.69L513.796 262.901Z" fill="#96BED5"/>
<path d="M532.818 193.53L531.45 193.351C534.772 167.968 517.025 156.822 516.845 156.713L517.564 155.536C517.751 155.65 536.255 167.268 532.818 193.53Z" fill="#96BED5"/>
<path d="M636.195 193.616C630.771 173.206 658.587 158.443 659.774 157.825L660.412 159.045C660.132 159.191 632.388 173.919 637.527 193.263L636.195 193.616Z" fill="#96BED5"/>
<path d="M524.022 405.428L523.394 404.2C537.522 396.985 534.564 356.339 534.092 350.8H516.327V349.418H535.346L535.408 350.039C535.602 351.97 539.947 397.295 524.022 405.428Z" fill="#96BED5"/>
<path d="M598.452 331.088H562.546V332.467H598.452V331.088Z" fill="#005386"/>
<path d="M576.355 359.955L574.99 360.151L577.503 377.671L578.868 377.475L576.355 359.955Z" fill="#005386"/>
<path d="M654.847 412.858C642.707 412.858 633.158 408.974 626.457 401.309C611.609 384.327 615.86 354.132 615.904 353.829L615.991 353.239H620.844V354.621H617.194C616.689 358.885 614.2 385.201 627.498 400.408C634.052 407.902 643.459 411.64 655.545 411.476L655.562 412.858C655.322 412.856 655.083 412.858 654.847 412.858Z" fill="#96BED5"/>
</g>
</svg>
