<svg width="174" height="174" viewBox="0 0 174 174" fill="none" xmlns="http://www.w3.org/2000/svg">
<rect width="174" height="174" rx="87" fill="#87CDEC"/>
<mask id="mask0_11_2777" style="mask-type:alpha" maskUnits="userSpaceOnUse" x="0" y="0" width="174" height="174">
<rect width="174" height="174" rx="87" fill="#323232"/>
</mask>
<g mask="url(#mask0_11_2777)">
<path d="M164.005 78.7981H76.7323C73.4444 78.7981 70.1887 79.4457 67.151 80.7039C64.1134 81.9622 61.3533 83.8064 59.0284 86.1313C56.7035 88.4562 54.8593 91.2163 53.6011 94.2539C52.3428 97.2915 51.6952 100.547 51.6952 103.835V305.56C51.6952 307.394 52.4238 309.153 53.7206 310.45C55.0174 311.746 56.7762 312.475 58.6102 312.475H164.005C165.839 312.475 167.598 311.746 168.895 310.45C170.192 309.153 170.92 307.394 170.92 305.56V85.7131C170.92 83.8791 170.192 82.1203 168.895 80.8235C167.598 79.5266 165.839 78.7981 164.005 78.7981Z" fill="#FF7467"/>
<path d="M148.268 98.7083C148.268 87.7122 157.182 78.7981 168.178 78.7981C179.174 78.7981 188.088 87.7122 188.088 98.7083V292.566C188.088 303.562 179.174 312.476 168.178 312.476C157.182 312.476 148.268 303.562 148.268 292.566V98.7083Z" fill="#E36155"/>
<path d="M151.67 97.8743H59.6933C53.5511 97.8742 47.5895 99.9508 42.7765 103.767C37.9636 107.583 34.5822 112.914 33.1815 118.894L19.5063 177.277H51.6964V230.213H148.267V155.817H199.056L178.754 114.705C176.259 109.652 172.4 105.399 167.614 102.425C162.828 99.4503 157.305 97.8742 151.67 97.8743Z" fill="#F7C16C"/>
<path d="M59.296 230.78C61.7224 228.652 64.8556 227.506 68.0823 227.567C69.2789 227.606 70.5556 227.769 71.907 227.942C76.1742 228.487 81.012 229.104 83.0191 225.159C83.9744 223.276 83.8059 220.897 82.505 217.881C80.071 212.23 76.0792 207.39 72.2204 202.705C68.0174 197.606 63.6714 192.333 61.4853 186.111C59.5786 180.669 59.6402 174.976 61.6552 170.489C63.9252 165.435 68.8068 161.952 73.8013 161.824C77.0397 161.745 80.2369 162.97 83.3213 164.164C83.9115 164.393 84.5055 164.623 85.0963 164.842C88.6371 166.153 93.2269 167.438 97.3631 165.706C98.5418 165.18 99.5848 164.392 100.412 163.401C101.239 162.411 101.829 161.244 102.137 159.99C102.386 159.097 102.416 158.156 102.223 157.248C102.03 156.34 101.621 155.493 101.03 154.778C99.8331 153.378 98.1551 152.74 96.5316 152.123C95.6941 151.828 94.8793 151.473 94.0937 151.06C93.0329 150.427 92.1218 149.572 91.4234 148.553C90.7249 147.534 90.2557 146.376 90.0481 145.158C89.7099 143.484 89.7245 141.757 90.0911 140.088C90.4576 138.419 91.1681 136.845 92.1772 135.466C96.4923 129.815 104.264 128.495 108.513 128.212C116.179 127.702 123.845 129.195 130.758 132.546C132.747 133.511 134.804 134.664 136.791 135.779C144.212 139.939 151.884 144.242 159.712 141.352L160.025 141.237L160.146 140.926C161.54 137.349 158.93 133.603 152.797 130.378C150.279 129.056 147.467 126.632 146.86 124.195C146.73 123.73 146.705 123.241 146.787 122.764C146.87 122.288 147.058 121.836 147.337 121.441C148.737 119.399 151.96 119.444 154.26 119.655C164.25 120.577 174.102 122.629 183.629 125.771L184.093 124.362C174.46 121.184 164.497 119.11 154.396 118.178C151.722 117.932 147.953 117.916 146.113 120.604C145.714 121.172 145.445 121.82 145.325 122.504C145.206 123.187 145.238 123.888 145.42 124.558C146.187 127.64 149.502 130.328 152.108 131.695C155.136 133.287 159.952 136.458 158.871 140.081C151.79 142.491 144.536 138.426 137.518 134.491C135.509 133.365 133.433 132.201 131.405 131.216C124.259 127.754 116.336 126.211 108.413 126.738C100.644 127.255 94.4577 130.037 90.9956 134.572C89.8606 136.121 89.0608 137.89 88.6473 139.765C88.2337 141.64 88.2155 143.581 88.5938 145.464C88.8426 146.89 89.3981 148.246 90.2219 149.436C91.0457 150.627 92.1182 151.624 93.3653 152.36C94.215 152.81 95.0966 153.196 96.0031 153.517C97.5185 154.093 98.9538 154.637 99.9013 155.746C100.337 156.286 100.636 156.922 100.773 157.602C100.91 158.282 100.881 158.985 100.688 159.651C100.432 160.676 99.9479 161.629 99.2722 162.442C98.5965 163.254 97.7465 163.903 96.7854 164.342C93.1292 165.874 88.8915 164.669 85.6084 163.456C85.0242 163.238 84.4393 163.011 83.8524 162.784C80.6317 161.538 77.3092 160.241 73.7547 160.345C68.2036 160.487 62.7934 164.321 60.2946 169.885C58.1249 174.715 58.0469 180.809 60.0782 186.606C62.3522 193.076 66.7834 198.452 71.0683 203.654C74.8615 208.256 78.7846 213.016 81.1352 218.472C82.2499 221.057 82.4322 223.026 81.6893 224.49C80.1563 227.506 76.2378 227.003 72.0873 226.473C70.7615 226.304 69.3904 226.129 68.1249 226.087C64.5349 226.016 61.0467 227.282 58.3386 229.64L59.296 230.78Z" fill="#CC9933"/>
<path d="M56.9628 140.88C57.608 140.883 58.2518 140.82 58.884 140.691C62.744 139.884 65.9707 136.223 67.5169 130.899C67.9529 129.406 68.2735 127.865 68.5837 126.374C69.1587 123.61 69.7023 120.998 70.9226 118.604C75.0272 110.523 85.2266 108.155 92.9651 109.371C101.463 110.708 109.053 115.487 116.394 120.109L116.587 120.23C119.702 122.185 122.779 123.897 126.174 123.415C129.615 122.916 132.195 120.254 134.543 117.568C140.272 111.041 145.287 105.078 148.628 98.1979L147.294 97.55C144.033 104.263 139.085 110.145 133.427 116.591C131.171 119.17 128.903 121.52 125.963 121.947C123.067 122.361 120.248 120.776 117.373 118.974L117.181 118.854C109.714 114.152 101.991 109.29 93.1919 107.903C84.9387 106.603 74.0371 109.189 69.5967 117.929C68.2853 120.499 67.6952 123.332 67.128 126.07C66.8238 127.533 66.5084 129.046 66.0888 130.483C64.698 135.273 61.8923 138.548 58.5784 139.238C56.9537 139.506 55.2897 139.408 53.7073 138.953C48.2447 137.673 42.9912 134.778 37.9096 131.977C35.6894 130.754 33.3938 129.486 31.1238 128.384L30.4746 129.719C32.7106 130.806 34.9898 132.063 37.1936 133.277C42.3631 136.125 47.7076 139.071 53.3683 140.397C54.5438 140.696 55.75 140.858 56.9628 140.88Z" fill="#CC9933"/>
<path d="M196.57 150.782H146.68L148.267 155.817H199.057L196.57 150.782Z" fill="#005386"/>
<path d="M23.7505 159.155L24.9636 153.978H51.6963V159.155H23.7505Z" fill="#005386"/>
<path d="M111.904 97.8743L111.131 106.11C110.795 109.685 109.08 112.99 106.349 115.322C103.618 117.654 100.086 118.831 96.5013 118.603C94.6118 118.483 92.767 117.976 91.0817 117.113C89.3964 116.25 87.9065 115.05 86.7046 113.587C85.5026 112.124 84.6142 110.43 84.0945 108.609C83.5749 106.788 83.4351 104.88 83.6838 103.003L84.3638 97.8743H111.904Z" fill="#005386"/>
<path d="M109.816 77.2507L107.288 106.057C107.064 108.623 105.886 111.011 103.987 112.75C102.088 114.489 99.6065 115.454 97.0314 115.454C95.5709 115.454 94.1271 115.143 92.7958 114.543C91.4645 113.942 90.2763 113.065 89.31 111.97C88.3437 110.875 87.6215 109.587 87.1913 108.191C86.7611 106.796 86.6329 105.324 86.815 103.875L88.4346 90.9666C88.4346 90.9666 69.4338 92.139 76.4491 54.5853C77.4245 49.0771 80.3129 44.09 84.6053 40.5029C88.4536 37.3556 93.8506 35.0718 100.752 37.1634C116.091 41.811 112.837 60.1712 112.837 60.1712L114.597 60.221C115.421 60.2446 116.232 60.4348 116.98 60.7799C117.729 61.1251 118.4 61.6181 118.953 62.2294C119.505 62.8406 119.929 63.5575 120.197 64.3367C120.466 65.1159 120.574 65.9414 120.515 66.7635C120.32 69.4904 119.143 72.0541 117.203 73.9804C115.263 75.9067 112.691 77.0652 109.963 77.2415L109.816 77.2507Z" fill="#FFA59C"/>
<path d="M87.1787 75.6L87.9839 74.8729L84.912 71.4744L87.3387 59.2299L86.2745 59.0188L83.7429 71.7976L87.1787 75.6Z" fill="#FC6760"/>
<path d="M112.832 60.171L109.811 77.2512C104.959 87.2113 96.02 92.8443 88.3261 91.4989C83.1985 90.6019 79.665 86.787 79.2335 86.3097C74.4017 80.9592 74.7931 74.3898 74.8895 73.1551C76.4397 73.5233 78.0583 73.4889 79.5915 73.0554C81.4236 72.5099 82.1409 71.5952 84.0614 71.3775C85.1563 71.2729 86.2609 71.4034 87.3012 71.7604C89.0519 72.2765 101.268 76.1825 106.059 71.9126C107.729 70.4254 108.923 63.6567 109.278 60.171C109.278 60.171 102.866 58.8485 102.714 51.3768C102.714 51.3768 64.4102 60.2785 71.2458 34.8448C78.0815 9.41097 106.059 29.5992 106.059 29.5992C106.059 29.5992 127.294 21.0837 117.509 61.0608L112.832 60.171Z" fill="#020C2D"/>
<path d="M114.689 71.6177C116.45 70.0033 117.218 68.3746 116.973 66.776C116.562 64.0942 113.428 62.5999 113.295 62.5376L112.841 63.5054C112.868 63.5185 115.595 64.826 115.917 66.9419C116.103 68.1648 115.447 69.4722 113.966 70.8295L114.689 71.6177Z" fill="#FF8579"/>
<path d="M94.9513 77.2776L85.3604 79.8807C85.3059 79.895 85.2555 79.9222 85.2137 79.96C85.1719 79.9979 85.1398 80.0452 85.1201 80.0981C85.1004 80.1509 85.0937 80.2077 85.1007 80.2637C85.1076 80.3197 85.1278 80.3732 85.1598 80.4197C86.3138 82.0753 90.9784 87.7018 95.3683 77.7602C95.3948 77.699 95.4035 77.6317 95.3934 77.5659C95.3833 77.5 95.3548 77.4384 95.3113 77.388C95.2677 77.3376 95.2109 77.3005 95.1472 77.2809C95.0835 77.2614 95.0156 77.2602 94.9513 77.2776Z" fill="#FC6760"/>
<path d="M99.1239 59.9127C99.2117 59.9127 99.2965 59.8807 99.3625 59.8228C99.4285 59.7648 99.4711 59.6847 99.4824 59.5976C99.4936 59.5105 99.4727 59.4223 99.4237 59.3494C99.3746 59.2766 99.3006 59.2241 99.2156 59.2019C98.9698 59.1363 93.1662 57.6328 90.4641 59.2399C90.4212 59.2631 90.3834 59.2947 90.3531 59.3329C90.3227 59.3711 90.3004 59.415 90.2874 59.462C90.2745 59.509 90.2711 59.5582 90.2776 59.6065C90.2841 59.6549 90.3003 59.7014 90.3253 59.7433C90.3502 59.7852 90.3834 59.8216 90.4227 59.8504C90.4621 59.8792 90.5069 59.8997 90.5544 59.9108C90.6019 59.9218 90.6511 59.9231 90.6992 59.9147C90.7472 59.9062 90.793 59.8881 90.8339 59.8615C93.277 58.4078 98.9744 59.8851 99.0301 59.9002C99.0606 59.9086 99.0922 59.9128 99.1239 59.9127Z" fill="#020C2D"/>
<path d="M93.8165 63.2568C93.0256 63.2568 92.3844 62.2731 92.3844 61.0596C92.3844 59.846 93.0256 58.8623 93.8165 58.8623C94.6074 58.8623 95.2485 59.846 95.2485 61.0596C95.2485 62.2731 94.6074 63.2568 93.8165 63.2568Z" fill="#020C2D"/>
<path d="M84.3275 59.9127C84.4153 59.9127 84.5002 59.8807 84.5661 59.8228C84.6321 59.7648 84.6747 59.6847 84.686 59.5976C84.6972 59.5105 84.6764 59.4223 84.6273 59.3494C84.5782 59.2766 84.5042 59.2241 84.4193 59.2019C84.174 59.1363 78.3705 57.6328 75.6677 59.2399C75.6248 59.2631 75.587 59.2947 75.5567 59.3329C75.5263 59.3711 75.504 59.415 75.491 59.462C75.4781 59.509 75.4747 59.5582 75.4812 59.6065C75.4877 59.6549 75.5039 59.7014 75.5289 59.7433C75.5538 59.7852 75.587 59.8216 75.6263 59.8504C75.6657 59.8792 75.7105 59.8997 75.758 59.9108C75.8055 59.9218 75.8548 59.9231 75.9028 59.9147C75.9508 59.9062 75.9966 59.8881 76.0375 59.8615C78.4806 58.4078 84.178 59.8851 84.2337 59.9002C84.2642 59.9086 84.2958 59.9128 84.3275 59.9127Z" fill="#020C2D"/>
<path d="M79.0206 63.2568C78.2297 63.2568 77.5885 62.2731 77.5885 61.0596C77.5885 59.846 78.2297 58.8623 79.0206 58.8623C79.8115 58.8623 80.4526 59.846 80.4526 61.0596C80.4526 62.2731 79.8115 63.2568 79.0206 63.2568Z" fill="#020C2D"/>
<path d="M102.28 55.0612C101.293 54.679 100.277 54.3773 99.2416 54.1589C98.2095 53.9384 97.1622 53.7964 96.1087 53.7341C95.0402 53.6676 93.9679 53.7034 92.9063 53.8409C91.8243 53.9811 90.7607 54.2378 89.734 54.6068C89.467 54.7034 89.2484 54.9008 89.1252 55.1566C89.0019 55.4125 88.9838 55.7064 89.0747 55.9754C89.1657 56.2445 89.3583 56.4672 89.6115 56.5958C89.8646 56.7245 90.1581 56.7489 90.429 56.6637L90.4868 56.6427L90.5523 56.6165C91.4097 56.2453 92.3043 55.9673 93.221 55.787C94.1576 55.6034 95.1097 55.5098 96.0641 55.5077C97.0332 55.5018 98.0014 55.5695 98.9603 55.7103C99.9168 55.8481 100.861 56.0612 101.784 56.3477L101.82 56.3595C101.99 56.4115 102.174 56.3959 102.332 56.3159C102.491 56.2359 102.613 56.0978 102.672 55.9302C102.731 55.7627 102.723 55.5788 102.65 55.4168C102.577 55.2549 102.444 55.1275 102.279 55.0612H102.28Z" fill="#020C2D"/>
<path d="M74.7751 54.2056C75.505 53.9276 76.2602 53.721 77.03 53.5886C77.7898 53.4556 78.5603 53.3934 79.3315 53.4031C80.1168 53.4096 80.8986 53.5075 81.6612 53.6949C82.4545 53.8904 83.2199 54.1856 83.9391 54.5735C84.1463 54.7027 84.3027 54.8992 84.3821 55.1302C84.4615 55.3611 84.4591 55.6123 84.3751 55.8416C84.352 55.9502 84.3048 56.0522 84.2372 56.1403C84.1695 56.2283 84.083 56.3001 83.984 56.3504C83.885 56.4006 83.776 56.4282 83.665 56.4309C83.554 56.4336 83.4438 56.4115 83.3424 56.3661L83.3011 56.3439L83.2552 56.3163C82.6586 55.938 82.0178 55.6345 81.3471 55.4128C80.679 55.1926 79.9877 55.0504 79.2869 54.9892C78.5819 54.9233 77.8722 54.9233 77.1671 54.9892C76.4609 55.0536 75.7624 55.1853 75.0813 55.3826L75.0544 55.3911C74.9841 55.4055 74.9116 55.405 74.8415 55.3895C74.7714 55.374 74.7054 55.344 74.6477 55.3013C74.59 55.2586 74.5419 55.2043 74.5066 55.1418C74.4712 55.0793 74.4495 55.0102 74.4427 54.9387C74.4063 54.7969 74.4194 54.647 74.4799 54.5137C74.5403 54.3804 74.6445 54.2717 74.7751 54.2056Z" fill="#020C2D"/>
<path d="M140.929 130.691L148.799 155.648L147.738 155.983L139.868 131.026L140.929 130.691Z" fill="#CC9933"/>
<path d="M51.1402 130.859H52.2529V159.155H51.1402V130.859Z" fill="#CC9933"/>
<path d="M195.718 155.817L197.013 158.672C198.622 162.22 199.315 166.115 199.03 170.001C198.744 173.887 197.488 177.639 195.377 180.913C193.267 184.188 190.368 186.881 186.947 188.746C183.526 190.611 179.692 191.588 175.796 191.588H114.646L111.962 196.677C111.23 198.065 110.005 199.128 108.528 199.656C107.051 200.184 105.43 200.14 103.985 199.531L87.8105 192.715C86.4899 192.159 85.4415 191.105 84.8922 189.782C84.3429 188.458 84.3369 186.972 84.8756 185.644L88.8989 175.732C90.7309 171.219 94.2492 167.597 98.7075 165.635L112.788 159.436C118.207 157.051 124.062 155.819 129.983 155.819L195.718 155.817Z" fill="#FFA59C"/>
<path d="M51.6963 159.155H-26.5145C-26.5145 159.155 -52.2669 160.586 -52.7423 191.584H-38.437C-38.437 191.584 -37.9596 206.368 -28.4219 191.584H43.1119C45.3886 191.584 47.5721 190.68 49.182 189.07C50.7919 187.46 51.6963 185.277 51.6963 183V159.155Z" fill="#FFA59C"/>
<path d="M88.4404 178.272L90.3832 175.912C91.1166 175.019 92.0393 174.3 93.0844 173.807C94.1296 173.314 95.2712 173.059 96.4268 173.061V171.947C95.1072 171.945 93.8036 172.236 92.6101 172.799C91.4166 173.362 90.3628 174.182 89.5249 175.202L87.5821 177.562L88.4404 178.272Z" fill="#FF8579"/>
</g>
</svg>
