<svg width="656" height="374" viewBox="0 0 656 374" fill="none" xmlns="http://www.w3.org/2000/svg">
<path d="M0 187C0 83.7228 83.7228 0 187 0H469C572.277 0 656 83.7228 656 187C656 290.277 572.277 374 469 374H187C83.7228 374 0 290.277 0 187Z" fill="#AA81F3"/>
<mask id="mask0_11_1429" style="mask-type:alpha" maskUnits="userSpaceOnUse" x="0" y="0" width="656" height="374">
<path d="M0 187C0 83.7228 83.7228 0 187 0H469C572.277 0 656 83.7228 656 187C656 290.277 572.277 374 469 374H187C83.7228 374 0 290.277 0 187Z" fill="#C4C4C4"/>
</mask>
<g mask="url(#mask0_11_1429)">
<path d="M670.279 331.624C652.461 376.65 622.091 411.889 584.591 437.93C504.18 493.764 390.965 507.279 298.285 484.096C296.584 483.667 294.892 483.23 293.211 482.786C281.807 479.74 270.009 475.941 257.991 471.415C181.882 442.732 97.2582 384.908 52.4386 306.238C34.2334 274.298 22.5932 238.915 20.7498 200.653C20.5879 197.168 20.4917 193.65 20.4909 190.087C20.3345 124.07 47.4268 46.405 95.2435 17.7837C114.546 6.22875 136.32 3.20354 157.39 4.67782H157.399C174.32 5.84551 190.791 9.90231 205.164 14.7553C220.911 20.1085 236.128 26.909 250.62 35.0699C258.579 39.6061 266.208 44.6648 274.045 49.8001H274.054C278.539 52.7323 283.088 55.6949 287.811 58.5957H287.819C298.946 65.4369 310.997 71.9409 325.311 76.9988C334.401 80.2027 343.751 82.6153 353.257 84.2099C357.195 84.8754 370.945 87.0763 397.093 86.3216C474.34 84.0722 495.248 60.709 538.451 60.6644C568.945 60.6284 607.754 72.1943 638.297 98.9472C649.76 108.948 659.539 120.729 667.258 133.837H667.266C668.486 135.912 669.666 138.017 670.797 140.191C694.826 186.171 691.747 240.77 684.406 279.896C678.914 309.129 671.036 329.717 670.279 331.624Z" fill="#EEE4FF"/>
<path d="M399.185 482.06C368.833 482.127 338.586 478.482 309.118 471.207C307.415 470.778 305.72 470.341 304.035 469.896C292.538 466.824 280.673 462.993 268.766 458.509C227.649 442.882 189.027 421.349 154.118 394.587C114.732 364.319 84.0411 330.16 62.9046 293.055C43.5591 259.112 32.8622 223.462 31.1102 187.092C30.9358 183.358 30.8506 179.888 30.8498 176.483C30.6996 112.956 56.4428 33.1459 105.932 3.52189C123.347 -6.90209 144.354 -11.3312 168.368 -9.65433L168.427 -9.64808C183.399 -8.60944 199.492 -5.21195 216.262 0.450536C232.042 5.80903 247.289 12.6232 261.808 20.805C269.186 25.0104 276.142 29.5724 283.507 34.4027L285.27 35.5564C290.041 38.6762 294.371 41.4902 298.967 44.316L299.023 44.3481C312.626 52.7112 324.159 58.3721 336.415 62.7034C345.478 65.9024 354.802 68.308 364.281 69.8934C375.42 71.7751 390.548 72.5033 408.023 71.9972C451.244 70.7388 476.359 62.9967 498.513 56.1658C515.582 50.9037 530.324 46.3589 549.391 46.3393H549.547C584.724 46.3393 622.107 60.6934 649.579 84.7558C661.03 94.7507 670.81 106.512 678.548 119.594L678.683 119.813C680.007 122.063 681.169 124.153 682.234 126.201C706.566 172.761 703.105 228.178 695.921 266.468C690.227 296.784 682.099 317.467 681.752 318.343C664.754 361.3 635.842 397.173 595.824 424.965C557.324 451.698 509.338 469.956 457.056 477.766C437.898 480.624 418.555 482.06 399.185 482.06ZM158.63 -8.54609C138.823 -8.54609 121.305 -4.0599 106.449 4.8327C57.3946 34.1947 31.8798 113.406 32.0284 176.478C32.0284 179.857 32.1137 183.299 32.2865 187.003C34.0251 223.097 44.6509 258.494 63.8682 292.211C103.636 362.018 180.363 423.665 269.111 457.113C280.987 461.587 292.821 465.408 304.284 468.47C305.962 468.914 307.65 469.35 309.351 469.779C407.391 494.302 519.615 476.211 595.255 423.691C635.064 396.046 663.81 360.386 680.702 317.698C681.043 316.838 689.116 296.298 694.78 266.135C701.916 228.125 705.362 173.123 681.255 126.992C680.233 125.029 679.123 123.028 677.863 120.878L677.733 120.67C670.048 107.624 660.315 95.8995 648.908 85.9438C621.628 62.0488 584.498 47.794 549.554 47.794H549.398C530.471 47.8136 515.797 52.3381 498.802 57.5775C476.585 64.4264 451.406 72.1889 408.052 73.4543C390.514 73.9604 375.324 73.2283 364.124 71.3372C354.59 69.7428 345.212 67.323 336.097 64.105C323.783 59.7541 312.2 54.0705 298.551 45.6831L298.497 45.6518C293.892 42.8229 289.563 40.0089 284.792 36.8922L284.714 36.8476L282.958 35.6956C275.606 30.8746 268.666 26.322 261.317 22.1345C246.859 13.9838 231.674 7.19504 215.959 1.85599C199.251 -3.78616 183.221 -7.16879 168.315 -8.19727L168.255 -8.20352C164.989 -8.4319 161.781 -8.54609 158.63 -8.54609Z" fill="#8A49FF"/>
<path d="M243.676 102.852H112.478C99.6646 102.852 89.2773 113.239 89.2773 126.053V360.267C89.2773 373.08 99.6646 383.467 112.478 383.467H243.676C256.489 383.467 266.877 373.08 266.877 360.267V126.053C266.877 113.239 256.489 102.852 243.676 102.852Z" fill="#F7C16C"/>
<path d="M112.267 102.852H117.48C123.577 102.852 129.425 105.274 133.736 109.586C138.048 113.897 140.47 119.744 140.47 125.842V360.475C140.47 366.572 138.048 372.419 133.736 376.731C129.425 381.042 123.577 383.464 117.48 383.464H108.522C103.418 383.464 98.523 381.437 94.914 377.827C91.3049 374.218 89.2773 369.324 89.2773 364.22V125.842C89.2773 119.744 91.6994 113.897 96.0108 109.586C100.322 105.274 106.17 102.852 112.267 102.852Z" fill="#F7C16C"/>
<path d="M284.706 384.429H108.722C106.055 384.446 103.411 383.935 100.943 382.926C98.4743 381.917 96.2296 380.43 94.338 378.55C92.4464 376.67 90.9453 374.435 89.9209 371.972C88.8965 369.51 88.3691 366.87 88.3691 364.203C88.3691 361.536 88.8965 358.895 89.9209 356.433C90.9453 353.971 92.4464 351.736 94.338 349.856C96.2296 347.976 98.4743 346.489 100.943 345.48C103.411 344.471 106.055 343.96 108.722 343.976H284.706C287.373 343.96 290.017 344.471 292.485 345.48C294.954 346.489 297.198 347.976 299.09 349.856C300.982 351.736 302.483 353.971 303.507 356.433C304.532 358.895 305.059 361.536 305.059 364.203C305.059 366.87 304.532 369.51 303.507 371.972C302.483 374.435 300.982 376.67 299.09 378.55C297.198 380.43 294.954 381.917 292.485 382.926C290.017 383.935 287.373 384.446 284.706 384.429ZM108.722 345.54C106.261 345.525 103.821 345.995 101.543 346.926C99.2647 347.857 97.1931 349.229 95.4473 350.964C93.7015 352.698 92.316 354.761 91.3705 357.033C90.4251 359.305 89.9383 361.742 89.9383 364.203C89.9383 366.664 90.4251 369.1 91.3705 371.373C92.316 373.645 93.7015 375.707 95.4473 377.442C97.1931 379.176 99.2647 380.549 101.543 381.479C103.821 382.41 106.261 382.881 108.722 382.865H284.706C287.167 382.881 289.607 382.41 291.885 381.479C294.163 380.549 296.235 379.176 297.981 377.442C299.727 375.707 301.112 373.645 302.058 371.373C303.003 369.1 303.49 366.664 303.49 364.203C303.49 361.742 303.003 359.305 302.058 357.033C301.112 354.761 299.727 352.698 297.981 350.964C296.235 349.229 294.163 347.857 291.885 346.926C289.607 345.995 287.167 345.525 284.706 345.54H108.722Z" fill="#E59C54"/>
<path d="M422.662 186.386L315.991 259.432C313.207 261.335 310.059 262.643 306.746 263.273C303.433 263.903 300.025 263.842 296.737 263.093C293.448 262.344 290.35 260.923 287.636 258.921C284.923 256.918 282.652 254.376 280.967 251.454L262.15 218.799L261.762 263.366H134.424L103.352 271.766C80.0242 278.078 60.3158 253.642 71.4264 232.177L115.111 147.806C118.663 140.944 124.033 135.191 130.634 131.176C137.235 127.161 144.813 125.037 152.539 125.038H261.688C265.895 125.038 270.021 126.194 273.614 128.381C277.208 130.567 280.131 133.7 282.064 137.436L319.058 208.96L400.089 151.084L422.662 186.386Z" fill="#FF7467"/>
<path d="M190.541 94.8098C190.541 94.8098 191.969 108.474 197.201 110.894L195.902 96.0885L190.541 94.8098Z" fill="#020C2D"/>
<path d="M242.07 58.3111C242.07 58.3111 248.733 78.0304 242.875 80.9141C237.017 83.7977 235.396 55.5807 235.396 55.5807L242.07 58.3111Z" fill="#020C2D"/>
<path d="M195.901 96.0886L199.301 134.836C199.604 138.286 201.188 141.498 203.742 143.838C206.296 146.177 209.634 147.475 213.098 147.476C215.062 147.476 217.004 147.058 218.795 146.25C220.585 145.442 222.183 144.262 223.483 142.789C224.783 141.316 225.754 139.584 226.333 137.706C226.911 135.829 227.084 133.85 226.84 131.901L224.661 114.539C224.661 114.539 250.219 116.115 240.783 65.6011C239.472 58.1918 235.586 51.4834 229.812 46.6584C224.636 42.4264 217.377 39.3527 208.092 42.1659C187.46 48.4181 191.837 73.1148 191.837 73.1148L189.47 73.1821C188.361 73.2138 187.271 73.4694 186.264 73.9336C185.257 74.3979 184.355 75.061 183.611 75.8833C182.867 76.7055 182.298 77.6697 181.937 78.7179C181.575 79.7661 181.43 80.8766 181.509 81.9824C181.772 85.6503 183.355 89.0988 185.964 91.6898C188.574 94.2808 192.033 95.839 195.703 96.0761L195.901 96.0886Z" fill="#FFA59C"/>
<path d="M189.192 84.8082H191.894V95.3331C190.957 95.0209 190.053 94.62 189.192 94.1357V84.8082Z" fill="#FFA59C"/>
<path d="M216.707 146.122C217.591 146.124 218.475 146.076 219.354 145.978C216.206 147.573 212.568 147.905 209.182 146.908C205.797 145.911 202.92 143.659 201.14 140.612C205.541 144.183 211.039 146.129 216.707 146.122Z" fill="#FFA59C"/>
<path d="M189.345 88.5139C186.976 86.3419 185.942 84.1512 186.272 82.0012C186.825 78.3941 191.043 76.3841 191.219 76.3004L191.83 77.6026C191.793 77.6198 188.125 79.378 187.693 82.2241C187.442 83.8666 188.325 85.6287 190.317 87.4541L189.345 88.5139Z" fill="#FF8579"/>
<path d="M226.349 93.8681L225.266 92.8897L229.397 88.3182L226.134 71.8478L227.565 71.5638L230.971 88.7531L226.349 93.8681Z" fill="#FC6760"/>
<path d="M215.894 96.1246L228.798 99.6253C228.872 99.6438 228.94 99.68 228.997 99.7308C229.054 99.7816 229.097 99.8454 229.124 99.9168C229.151 99.9882 229.159 100.065 229.15 100.14C229.14 100.216 229.112 100.288 229.068 100.35C227.516 102.578 221.242 110.146 215.337 96.7729C215.302 96.6911 215.29 96.6012 215.304 96.5132C215.317 96.4253 215.355 96.343 215.413 96.2755C215.471 96.208 215.547 96.1581 215.632 96.1314C215.717 96.1047 215.807 96.1024 215.894 96.1246Z" fill="#FC6760"/>
<path d="M210.281 72.7661C210.163 72.7664 210.048 72.7236 209.959 72.6456C209.871 72.5677 209.813 72.46 209.798 72.3427C209.783 72.2254 209.811 72.1066 209.877 72.0086C209.943 71.9106 210.043 71.8401 210.157 71.8104C210.487 71.7228 218.291 69.6987 221.929 71.862C221.985 71.8942 222.034 71.9372 222.073 71.9884C222.112 72.0396 222.14 72.0981 222.157 72.1605C222.173 72.2228 222.177 72.2877 222.167 72.3515C222.158 72.4153 222.137 72.4767 222.104 72.5321C222.071 72.5875 222.027 72.6357 221.976 72.6741C221.924 72.7125 221.865 72.7402 221.802 72.7557C221.74 72.7711 221.675 72.774 221.611 72.7641C221.548 72.7542 221.486 72.7317 221.431 72.6981C218.147 70.7428 210.482 72.7293 210.404 72.7505C210.364 72.7609 210.322 72.7661 210.281 72.7661Z" fill="#020C2D"/>
<path d="M217.42 77.2647C218.484 77.2647 219.346 75.9414 219.346 74.3091C219.346 72.6768 218.484 71.3535 217.42 71.3535C216.356 71.3535 215.494 72.6768 215.494 74.3091C215.494 75.9414 216.356 77.2647 217.42 77.2647Z" fill="#020C2D"/>
<path d="M230.183 72.7661C230.065 72.7664 229.951 72.7236 229.862 72.6456C229.773 72.5677 229.715 72.46 229.7 72.3427C229.685 72.2254 229.713 72.1066 229.779 72.0086C229.846 71.9106 229.945 71.8401 230.06 71.8104C230.391 71.7228 238.194 69.6987 241.832 71.862C241.941 71.9288 242.019 72.0359 242.05 72.1601C242.081 72.2843 242.061 72.4155 241.996 72.5254C241.93 72.6353 241.824 72.7151 241.701 72.7474C241.577 72.7797 241.445 72.762 241.335 72.6981C238.05 70.7428 230.385 72.7293 230.307 72.7505C230.267 72.7609 230.225 72.7661 230.183 72.7661Z" fill="#020C2D"/>
<path d="M237.323 77.2647C238.387 77.2647 239.249 75.9414 239.249 74.3091C239.249 72.6768 238.387 71.3535 237.323 71.3535C236.259 71.3535 235.396 72.6768 235.396 74.3091C235.396 75.9414 236.259 77.2647 237.323 77.2647Z" fill="#020C2D"/>
<path d="M206.036 66.2401C207.363 65.7262 208.73 65.3205 210.123 65.027C211.511 64.73 212.92 64.5391 214.337 64.4561C215.774 64.3662 217.217 64.4138 218.645 64.5984C220.1 64.7876 221.53 65.1334 222.911 65.63C223.272 65.7589 223.567 66.0242 223.734 66.3688C223.901 66.7134 223.925 67.1096 223.803 67.4723C223.68 67.8349 223.42 68.135 223.079 68.3078C222.737 68.4806 222.341 68.5124 221.977 68.3963C221.951 68.388 221.924 68.3786 221.898 68.3682L221.812 68.333C220.658 67.8332 219.455 67.459 218.222 67.2169C216.962 66.97 215.682 66.8443 214.398 66.8415C213.094 66.8337 211.792 66.9247 210.502 67.1137C209.216 67.3001 207.946 67.5878 206.704 67.974L206.655 67.9896C206.425 68.0669 206.173 68.0506 205.955 67.9442C205.736 67.8379 205.568 67.65 205.487 67.4211C205.406 67.1921 205.418 66.9404 205.52 66.7201C205.622 66.4998 205.807 66.3285 206.035 66.2432L206.036 66.2401Z" fill="#020C2D"/>
<path d="M243.033 65.0904C242.052 64.7157 241.036 64.4375 240 64.2598C238.978 64.0808 237.942 63.997 236.904 64.0095C235.848 64.0181 234.797 64.1493 233.771 64.4006C232.704 64.6642 231.674 65.0612 230.707 65.5824C230.428 65.7562 230.217 66.0208 230.11 66.3315C230.004 66.6423 230.007 66.9803 230.12 67.2889C230.151 67.4349 230.215 67.5721 230.306 67.6904C230.397 67.8087 230.514 67.9051 230.647 67.9725C230.78 68.04 230.927 68.0769 231.076 68.0804C231.225 68.0839 231.374 68.054 231.51 67.9928C231.529 67.9834 231.547 67.9732 231.565 67.9631L231.626 67.9263C232.429 67.4175 233.292 67.0093 234.194 66.7109C235.092 66.4148 236.022 66.2235 236.964 66.1408C237.913 66.0524 238.867 66.0524 239.816 66.1408C240.766 66.228 241.705 66.4058 242.621 66.6718L242.658 66.6828C242.753 66.7022 242.85 66.7015 242.944 66.6807C243.039 66.6599 243.128 66.6195 243.205 66.5621C243.283 66.5047 243.347 66.4316 243.395 66.3476C243.442 66.2635 243.472 66.1704 243.481 66.0743C243.53 65.8839 243.512 65.6824 243.431 65.5033C243.349 65.3243 243.209 65.1786 243.033 65.0904Z" fill="#020C2D"/>
<path d="M221.332 115.533C218.125 115.583 214.956 114.829 212.116 113.338L212.82 112.062C218.152 115.015 224.456 113.834 224.518 113.822L224.798 115.253C223.653 115.449 222.493 115.543 221.332 115.533Z" fill="#FF8579"/>
<path d="M301.079 291.141L313.698 297.447C321.442 301.317 328.149 306.981 333.26 313.969C338.371 320.956 341.738 329.064 343.08 337.616L369.125 503.568H317.903L293.593 387.23L273.625 503.568H221.536L238.899 367.261L199.238 351.626L177.255 304.064L203.202 263.367H238.604L301.079 291.141Z" fill="#005386"/>
<path d="M183.023 367.849L152.016 377.151C148.685 378.15 145.162 378.327 141.749 377.667C138.335 377.007 135.132 375.53 132.414 373.361C129.696 371.192 127.545 368.397 126.143 365.215C124.742 362.033 124.133 358.558 124.368 355.089L129.21 283.624H132.977L134.427 263.367L103.355 271.768C80.0271 278.08 60.3187 253.644 71.4294 232.179L100.033 176.924L115.114 147.807C118.666 140.946 124.035 135.193 130.635 131.177C137.236 127.162 144.813 125.038 152.539 125.038H194.036C194.036 125.038 197.196 153.183 199.843 191.394C200.842 205.683 201.761 221.385 202.418 237.555C202.76 246.072 203.03 254.725 203.2 263.365C203.798 293.536 203.162 323.587 200.091 347.631C199.508 352.291 197.584 356.682 194.555 360.271C191.525 363.859 187.519 366.492 183.023 367.849Z" fill="#E7F0FD"/>
<path d="M422.662 186.386L315.991 259.432C313.207 261.335 310.06 262.643 306.746 263.273C303.433 263.903 300.025 263.842 296.737 263.093C293.448 262.344 290.35 260.923 287.637 258.921C284.923 256.918 282.652 254.376 280.967 251.454L262.15 218.799C268.768 277.25 299.875 290.638 301.082 291.144C299.587 290.901 251.715 282.744 238.606 263.368C225.297 243.685 231.086 125.038 231.086 125.038H261.688C265.895 125.038 270.021 126.194 273.614 128.381C277.208 130.567 280.131 133.7 282.064 137.436L319.058 208.96L400.089 151.084L422.662 186.386Z" fill="#E7F0FD"/>
<path d="M197.608 115.533L178.078 142.727L186.212 153.207L180.659 161.165L199.85 220.347C199.85 220.347 203.322 131.499 197.608 115.533Z" fill="#E7F0FD"/>
<path d="M224.947 116.815L243.992 137.479L237.323 150.502L246.378 163.235L230.97 204.109C230.97 204.109 223.442 121.62 224.947 116.815Z" fill="#E7F0FD"/>
<path d="M199.205 220.551L179.911 161.05L185.374 153.224L177.234 142.742L197.059 115.139L198.156 115.927L178.921 142.711L187.051 153.181L181.402 161.272L200.49 220.135L199.205 220.551Z" fill="#96BED5"/>
<path d="M231.602 204.348L230.338 203.871L245.619 163.334L236.535 150.559L243.177 137.59L224.451 117.274L225.444 116.359L244.808 137.367L238.111 150.444L247.137 163.137L231.602 204.348Z" fill="#96BED5"/>
<path d="M216.23 232.304L202.418 237.553L134.424 263.362L103.352 271.763C80.0242 278.075 60.3158 253.639 71.4264 232.174L100.031 176.92L147.929 180.205L133.262 217.254L199.844 191.387L206.577 188.308L216.23 232.304Z" fill="#E7F0FD"/>
<path d="M132.069 218.446L147.301 179.964L148.557 180.462L134.463 216.067L199.603 190.759L200.091 192.018L132.069 218.446Z" fill="#96BED5"/>
<path d="M150.907 161.823L149.581 161.561C154.423 137.099 133.284 130.413 133.071 130.349L133.462 129.055C133.687 129.124 155.983 136.174 150.907 161.823Z" fill="#96BED5"/>
<path d="M137.104 325.175C136.652 325.175 136.201 325.15 135.751 325.102L135.894 323.759C137.309 323.945 138.749 323.804 140.101 323.345C141.454 322.887 142.682 322.123 143.692 321.114C152.18 312.854 151.122 288.511 150.866 284.3H129.21V282.947H152.126L152.176 283.568C152.269 284.751 154.346 312.632 144.638 322.078C143.653 323.071 142.478 323.857 141.185 324.389C139.891 324.921 138.503 325.188 137.104 325.175Z" fill="#96BED5"/>
<path d="M294.265 387.3L292.922 387.159L296.482 353.328C297.123 347.147 295.98 340.911 293.187 335.36C290.395 329.808 286.07 325.173 280.725 322.003L229.49 291.723L230.177 290.56L281.413 320.841C286.981 324.143 291.486 328.971 294.395 334.753C297.303 340.536 298.495 347.031 297.827 353.47L294.265 387.3Z" fill="#0079C4"/>
<path d="M203.679 329.887L203.128 331.12L208.061 333.323L208.612 332.09L203.679 329.887Z" fill="#0079C4"/>
<path d="M242.187 488.067L240.845 487.915L241.992 477.713L243.334 477.864L242.187 488.067ZM244.48 467.661L243.138 467.511L244.286 457.308L245.628 457.459L244.48 467.661ZM246.774 447.256L245.432 447.105L246.579 436.902L247.921 437.053L246.774 447.256ZM249.067 426.85L247.726 426.699L248.873 416.496L250.215 416.648L249.067 426.85ZM251.361 406.444L250.019 406.293L251.167 396.091L252.508 396.242L251.361 406.444ZM253.655 386.039L252.313 385.888L253.46 375.685L254.802 375.836L253.655 386.039ZM255.948 365.634L254.606 365.483L254.818 363.597C255.119 360.946 254.548 358.269 253.191 355.972L254.354 355.286C255.858 357.836 256.492 360.806 256.16 363.748L255.948 365.634ZM245.561 350.07L236.186 345.884L236.734 344.65L246.109 348.836L245.561 350.07ZM226.812 341.699L217.437 337.513L217.984 336.28L227.359 340.465L226.812 341.699Z" fill="#0079C4"/>
<path d="M298.035 351.088L296.727 351.419L298.049 356.657L299.358 356.326L298.035 351.088Z" fill="#0079C4"/>
<path d="M331.113 487.586L328.357 476.675L329.666 476.345L332.422 487.256L331.113 487.586ZM325.602 465.765L322.846 454.855L324.155 454.524L326.911 465.434L325.602 465.765ZM320.092 443.944L317.336 433.034L318.645 432.703L321.4 443.613L320.092 443.944ZM314.581 422.123L311.825 411.213L313.134 410.882L315.889 421.792L314.581 422.123ZM309.069 400.302L306.314 389.392L307.623 389.061L310.379 399.972L309.069 400.302ZM303.559 378.481L300.803 367.571L302.112 367.24L304.868 378.151L303.559 378.481Z" fill="#0079C4"/>
<path d="M260.891 158.229L259.541 158.209C259.932 130.649 270.786 126.746 271.249 126.593L271.677 127.874C271.573 127.91 261.264 131.77 260.891 158.229Z" fill="#96BED5"/>
<path d="M260.892 176.889L259.544 176.952L261.476 218.827L262.825 218.764L260.892 176.889Z" fill="#96BED5"/>
<path d="M202.178 236.91L134.19 262.74L134.67 264.003L202.657 238.173L202.178 236.91Z" fill="#96BED5"/>
<path d="M192.678 76.0197L193.658 79.3999C193.761 79.7613 193.961 80.0879 194.235 80.3453C194.509 80.6026 194.848 80.7811 195.215 80.8619C195.582 80.9426 195.964 80.9227 196.321 80.8041C196.678 80.6856 196.996 80.4728 197.242 80.1883C199.655 77.3727 202.929 72.12 203.404 64.0088C203.404 64.0088 264.653 72.3641 246.42 28.9546C246.42 28.9546 233.853 37.9254 217.419 30.1121C200.984 22.2988 191.836 41.0812 191.836 41.0812C191.836 41.0812 171.004 32.2801 186.211 73.9549L188.844 73.5638C189.672 73.4395 190.517 73.6199 191.222 74.0716C191.928 74.5232 192.445 75.2154 192.678 76.0197Z" fill="#020C2D"/>
<path d="M454.004 164.156L419.106 180.822L402.251 154.468L413.947 143.484C415.116 142.389 416.511 141.565 418.034 141.072L446.441 131.834C446.778 131.725 447.139 131.717 447.481 131.81C447.822 131.904 448.129 132.096 448.363 132.363C448.596 132.629 448.747 132.958 448.796 133.309C448.845 133.659 448.79 134.017 448.638 134.337L447.557 136.615L453.878 135.462C454.436 135.361 455.012 135.422 455.536 135.639C456.06 135.856 456.511 136.219 456.834 136.686C457.157 137.152 457.339 137.702 457.357 138.269C457.376 138.836 457.231 139.397 456.939 139.884L453.337 145.871L457.404 154.829C458.174 156.519 458.249 158.444 457.613 160.189C456.977 161.933 455.681 163.358 454.004 164.156Z" fill="#FFA59C"/>
<path d="M235.02 251.81C229.807 251.804 224.809 249.73 221.122 246.044C217.436 242.357 215.363 237.359 215.357 232.146V148.823H218.058V232.146C218.058 234.374 218.496 236.579 219.349 238.637C220.201 240.695 221.451 242.565 223.026 244.14C224.601 245.715 226.471 246.965 228.529 247.817C230.587 248.67 232.792 249.109 235.02 249.109C237.248 249.109 239.453 248.67 241.511 247.817C243.569 246.965 245.439 245.715 247.014 244.14C248.589 242.565 249.839 240.695 250.691 238.637C251.544 236.579 251.982 234.374 251.982 232.146C251.937 217.578 256.837 203.427 265.883 192.007C274.928 180.588 287.582 172.577 301.773 169.287C351.947 157.496 438.47 136.774 454.19 130.488L455.192 132.996C440.097 139.029 363.767 157.491 302.39 171.917C288.793 175.07 276.668 182.745 268.001 193.687C259.334 204.628 254.638 218.188 254.681 232.146C254.675 237.359 252.602 242.357 248.916 246.043C245.23 249.729 240.233 251.803 235.02 251.81Z" fill="#005386"/>
<path d="M469.697 135.408C469.698 137.027 469.38 138.631 468.76 140.127C468.141 141.623 467.234 142.983 466.089 144.129C464.945 145.274 463.585 146.183 462.09 146.803C460.594 147.423 458.99 147.743 457.371 147.743C455.447 147.748 453.55 147.298 451.834 146.428C453.796 144.463 455.511 142.265 456.939 139.883C457.231 139.396 457.376 138.836 457.358 138.269C457.339 137.701 457.157 137.152 456.834 136.685C456.511 136.219 456.061 135.855 455.536 135.638C455.012 135.421 454.436 135.36 453.878 135.462L449.249 136.309C448.125 136.517 447.008 136.778 445.9 137.091L445.18 137.298C445.082 136.672 445.034 136.04 445.036 135.407C445.062 132.154 446.373 129.043 448.682 126.751C450.992 124.46 454.113 123.174 457.367 123.174C460.62 123.174 463.741 124.46 466.051 126.751C468.361 129.043 469.671 132.154 469.697 135.407V135.408Z" fill="#0079C4"/>
<path d="M244.222 84.8082V121.309C244.222 128.606 241.323 135.604 236.163 140.764C231.003 145.924 224.004 148.823 216.707 148.823C209.41 148.823 202.411 145.924 197.251 140.764C192.091 135.604 189.192 128.606 189.192 121.309V84.8082H191.894V121.309C191.904 127.886 194.521 134.192 199.172 138.843C203.823 143.495 210.129 146.112 216.707 146.122C217.592 146.124 218.475 146.076 219.354 145.978C225.439 145.319 231.067 142.437 235.158 137.884C239.249 133.332 241.515 127.429 241.521 121.309V98.1878C242.531 93.8023 242.981 89.3068 242.862 84.8082H244.222Z" fill="#005386"/>
<path d="M190.539 87.0896C191.812 87.0896 192.844 86.058 192.844 84.7855C192.844 83.513 191.812 82.4814 190.539 82.4814C189.267 82.4814 188.235 83.513 188.235 84.7855C188.235 86.058 189.267 87.0896 190.539 87.0896Z" fill="#0079C4"/>
<path d="M245.176 84.7807C245.177 85.0837 245.118 85.3839 245.003 85.664C244.887 85.9441 244.718 86.1986 244.503 86.4129C244.289 86.6271 244.035 86.797 243.755 86.9125C243.475 87.0281 243.174 87.0872 242.871 87.0864H242.853C242.889 85.6278 242.871 84.0972 242.808 82.4852H242.871C243.174 82.4841 243.473 82.5426 243.753 82.6575C244.032 82.7723 244.286 82.9412 244.5 83.1545C244.715 83.3677 244.885 83.6212 245.001 83.9002C245.116 84.1793 245.176 84.4785 245.176 84.7807Z" fill="#0079C4"/>
<path d="M294.092 231.287H232.618C231.975 231.286 231.339 231.145 230.756 230.875C230.172 230.605 229.654 230.212 229.237 229.722C228.819 229.232 228.513 228.658 228.339 228.039C228.165 227.42 228.128 226.77 228.229 226.135L237.7 137.751C237.845 136.376 238.48 135.099 239.488 134.153C240.496 133.207 241.811 132.655 243.193 132.598H304.667C305.31 132.6 305.945 132.74 306.529 133.01C307.112 133.281 307.631 133.674 308.048 134.164C308.465 134.653 308.771 135.228 308.945 135.847C309.118 136.466 309.156 137.116 309.055 137.751L299.584 226.135C299.439 227.51 298.805 228.787 297.796 229.733C296.788 230.678 295.473 231.23 294.092 231.287Z" fill="#0079C4"/>
<path d="M284.214 138.978H262.275C261.924 138.978 261.578 138.902 261.259 138.755C260.94 138.608 260.657 138.393 260.43 138.126C260.202 137.859 260.035 137.545 259.94 137.207C259.846 136.869 259.826 136.514 259.881 136.168L260.675 128.757C260.755 128.007 261.101 127.31 261.651 126.794C262.201 126.279 262.918 125.978 263.672 125.946H285.611C285.962 125.946 286.308 126.023 286.627 126.17C286.946 126.317 287.228 126.532 287.456 126.799C287.684 127.066 287.85 127.38 287.945 127.718C288.04 128.056 288.06 128.41 288.004 128.757L287.209 136.168C287.13 136.918 286.784 137.614 286.234 138.13C285.684 138.646 284.967 138.947 284.214 138.978Z" fill="#005386"/>
<path d="M269.922 191.921H265.221L267.599 169.73H272.3L269.922 191.921Z" fill="#33CC99"/>
<path d="M279.138 183.276H257.857L258.383 178.374H279.663L279.138 183.276Z" fill="#33CC99"/>
<path d="M266.653 200.489C256.256 200.489 248.743 191.667 249.903 180.825C251.064 169.982 260.47 161.161 270.864 161.161C281.258 161.161 288.774 169.982 287.614 180.825C286.455 191.667 277.05 200.489 266.653 200.489ZM270.474 164.838C262.02 164.838 254.374 172.01 253.43 180.825C252.486 189.64 258.592 196.812 267.047 196.812C275.503 196.812 283.146 189.641 284.091 180.825C285.036 172.009 278.927 164.838 270.472 164.838H270.474Z" fill="#33CC99"/>
<path d="M207.678 193.324L216.194 187.698C219.494 185.516 223.338 184.297 227.292 184.178L254.629 183.367C255.284 183.347 255.935 183.479 256.531 183.753C257.127 184.026 257.652 184.433 258.064 184.943C258.477 185.452 258.766 186.05 258.91 186.69C259.054 187.33 259.048 187.994 258.893 188.631L253.269 211.713C252.877 213.321 251.984 214.763 250.719 215.83C249.454 216.898 247.882 217.535 246.23 217.65L233.154 218.563C230.954 218.717 228.791 219.211 226.741 220.025L214.598 224.847L207.678 193.324Z" fill="#FFA59C"/>
<path d="M257.956 191.516L238.824 193.529L238.965 194.871L258.097 192.858L257.956 191.516Z" fill="#FF8579"/>
<path d="M255.776 200.443L236.938 202.642L237.095 203.983L255.932 201.784L255.776 200.443Z" fill="#FF8579"/>
<path d="M253.752 208.632L238.791 211.04L239.005 212.373L253.967 209.965L253.752 208.632Z" fill="#FF8579"/>
<path d="M439.464 156.833L438.669 155.742L447.294 149.448C450.941 146.775 454.022 143.406 456.359 139.535C456.587 139.16 456.701 138.727 456.686 138.288C456.671 137.85 456.529 137.425 456.277 137.066C456.032 136.703 455.686 136.419 455.28 136.252C454.875 136.085 454.43 136.042 454 136.128L449.371 136.975C448.27 137.177 447.164 137.436 446.086 137.743L433.655 141.317L419.186 145.37L418.821 144.069L433.29 140.018L445.719 136.445C446.841 136.126 447.987 135.857 449.133 135.646L453.761 134.8C454.447 134.675 455.155 134.75 455.799 135.016C456.444 135.283 456.997 135.73 457.394 136.303C457.791 136.876 458.015 137.552 458.038 138.249C458.06 138.946 457.882 139.634 457.523 140.232C455.091 144.256 451.884 147.758 448.089 150.535L439.464 156.833Z" fill="#FF8579"/>
<path d="M139.796 127.254C139.52 117.759 136.723 110.922 131.481 106.932C123.527 100.877 112.539 103.481 112.428 103.508L112.106 102.197C112.581 102.08 123.838 99.4157 132.299 105.857C137.882 110.106 140.858 117.292 141.145 127.215L139.796 127.254Z" fill="#E59C54"/>
<path d="M420.668 380.5H551.866C564.68 380.5 575.067 370.113 575.067 357.3V123.086C575.067 110.272 564.68 99.885 551.866 99.885H420.668C407.855 99.885 397.468 110.272 397.468 123.086V357.3C397.468 370.113 407.855 380.5 420.668 380.5Z" fill="#F7C16C"/>
<path d="M555.822 380.5H546.863C540.766 380.5 534.918 378.078 530.607 373.767C526.296 369.455 523.874 363.608 523.874 357.511V122.878C523.873 119.858 524.468 116.868 525.623 114.079C526.778 111.289 528.471 108.755 530.606 106.62C532.741 104.484 535.275 102.791 538.065 101.635C540.854 100.48 543.844 99.885 546.863 99.885H552.077C558.174 99.885 564.021 102.307 568.333 106.618C572.644 110.93 575.066 116.777 575.066 122.874V361.255C575.066 366.359 573.039 371.254 569.43 374.863C565.821 378.472 560.926 380.5 555.822 380.5Z" fill="#F7C16C"/>
<path d="M555.622 381.463H379.635C374.293 381.43 369.18 379.284 365.414 375.494C361.648 371.705 359.534 366.579 359.534 361.236C359.534 355.894 361.648 350.768 365.414 346.978C369.18 343.189 374.293 341.043 379.635 341.01H555.622C560.965 341.043 566.077 343.189 569.843 346.978C573.609 350.768 575.723 355.894 575.723 361.236C575.723 366.579 573.609 371.705 569.843 375.494C566.077 379.284 560.965 381.43 555.622 381.463ZM379.635 342.574C374.707 342.606 369.991 344.586 366.517 348.083C363.043 351.579 361.093 356.308 361.093 361.236C361.093 366.165 363.043 370.894 366.517 374.39C369.991 377.886 374.707 379.867 379.635 379.899H555.622C560.551 379.867 565.267 377.886 568.74 374.39C572.214 370.894 574.164 366.165 574.164 361.236C574.164 356.308 572.214 351.579 568.74 348.083C565.267 344.586 560.551 342.606 555.622 342.574H379.635Z" fill="#E59C54"/>
<path d="M524.547 124.288L523.197 124.249C523.484 114.326 526.461 107.14 532.043 102.891C540.506 96.4494 551.762 99.114 552.236 99.2305L551.916 100.542C551.805 100.515 540.794 97.9189 532.853 103.972C527.618 107.963 524.823 114.798 524.547 124.288Z" fill="#E59C54"/>
<path d="M548.763 237.089L520.216 260.553L486.585 288.175L470.379 253.762L468.065 248.835V232.615H390.175C386.477 232.622 382.827 231.773 379.511 230.136C376.195 228.498 373.302 226.116 371.06 223.176C368.817 220.235 367.284 216.816 366.581 213.185C365.879 209.554 366.025 205.81 367.009 202.245L372.438 182.458L383.593 141.834C383.75 141.267 383.926 140.7 384.124 140.151C385.879 135.132 389.152 130.783 393.488 127.707C397.824 124.63 403.009 122.978 408.326 122.979H512.2C517.667 122.981 522.986 124.759 527.356 128.043C531.727 131.328 534.914 135.942 536.437 141.193L541.227 157.714L544.577 169.266L551.032 191.531L556.758 211.303C558.093 215.912 558.047 220.811 556.626 225.395C555.205 229.978 552.472 234.044 548.763 237.089Z" fill="#33CC99"/>
<path d="M378.865 230.329L378.436 229.048C382.139 227.805 386.083 226.61 390.16 225.498C392.222 224.937 394.305 224.398 396.398 223.856C408.129 220.824 420.263 217.69 429.492 209.973C431.659 208.159 435.19 204.518 434.491 200.524C433.98 197.625 431.519 195.524 428.829 193.451C421.194 187.554 412.541 180.871 402.733 177.685C394.315 174.955 382.385 174.592 374.151 181.766C373.699 182.163 373.291 182.548 372.92 182.926L371.958 181.982C372.356 181.574 372.783 181.171 373.264 180.749C381.926 173.203 394.381 173.554 403.153 176.4C413.183 179.658 421.935 186.418 429.656 192.381C432.45 194.532 435.229 196.918 435.824 200.289C436.6 204.719 433.281 208.564 430.361 211.009C420.897 218.921 408.618 222.094 396.738 225.165C394.653 225.704 392.574 226.241 390.517 226.801C386.463 227.907 382.544 229.094 378.865 230.329Z" fill="#339966"/>
<path d="M427.409 154.811C417.527 154.825 407.728 152.997 398.516 149.421C393.076 147.419 388.045 144.447 383.667 140.648L384.575 139.649C388.833 143.337 393.724 146.222 399.011 148.163C409.953 152.382 421.697 154.115 433.391 153.238C445.086 152.361 456.439 148.896 466.63 143.093C470.656 140.775 474.54 138.057 478.296 135.428C481.535 133.16 484.885 130.814 488.332 128.723C492.381 126.269 496.617 124.14 501.002 122.354L501.512 123.606C497.192 125.364 493.018 127.461 489.03 129.878C485.62 131.948 482.289 134.281 479.067 136.535C475.287 139.181 471.379 141.918 467.3 144.265C455.15 151.199 441.398 154.834 427.409 154.811Z" fill="#339966"/>
<path d="M478.834 92.5426C478.834 92.5426 476.3 104.744 473.775 106.169L475.096 93.2802L478.834 92.5426Z" fill="#020C2D"/>
<path d="M432.324 47.0793C432.324 47.0793 426.004 61.1018 429.575 77.5035L438.162 57.6308L432.324 47.0793Z" fill="#37396D"/>
<path d="M496.074 91.5275C505.131 91.5275 512.473 84.1853 512.473 75.1282C512.473 66.0711 505.131 58.7289 496.074 58.7289C487.017 58.7289 479.675 66.0711 479.675 75.1282C479.675 84.1853 487.017 91.5275 496.074 91.5275Z" fill="#020C2D"/>
<path d="M474.905 93.2903L471.624 130.683C471.333 134.013 469.804 137.114 467.339 139.372C464.874 141.631 461.653 142.884 458.31 142.884C456.414 142.884 454.54 142.481 452.812 141.701C451.084 140.921 449.542 139.783 448.288 138.361C447.033 136.94 446.096 135.268 445.537 133.456C444.979 131.645 444.812 129.735 445.048 127.854L447.151 111.098C447.151 111.098 422.487 112.619 431.593 63.8728C432.859 56.7227 436.608 50.2489 442.18 45.5925C447.175 41.5083 454.18 38.5426 463.141 41.2573C483.051 47.2913 478.827 71.1229 478.827 71.1229L481.112 71.1887C482.181 71.2192 483.234 71.4658 484.205 71.9137C485.177 72.3617 486.048 73.0016 486.766 73.7951C487.483 74.5885 488.033 75.519 488.382 76.5305C488.73 77.542 488.87 78.6137 488.794 79.6808C488.54 83.2204 487.013 86.5483 484.495 89.0488C481.977 91.5492 478.638 93.053 475.097 93.2817L474.905 93.2903Z" fill="#FFA59C"/>
<path d="M486.575 73.5944C485.14 72.1062 483.177 71.2425 481.111 71.1902L478.824 71.1183C456.162 70.0922 447.879 56.5147 447.879 56.5147C445.844 58.8292 443.338 60.6826 440.529 61.9511C437.72 63.2196 434.673 63.874 431.591 63.8705C428.764 53.9486 431.564 44.3239 438.119 40.0208C441.143 38.1431 444.69 37.2845 448.239 37.5712C457.998 32.8449 469.46 33.7631 477.761 40.0208C487.665 47.4844 491.438 61.2957 486.575 73.5944Z" fill="#020C2D"/>
<path d="M481.231 85.9799C483.518 83.8846 484.516 81.7698 484.197 79.6956C483.663 76.2145 479.595 74.2748 479.422 74.1935L478.833 75.4504C478.869 75.4676 482.409 77.1639 482.826 79.9084C483.068 81.4953 482.215 83.1932 480.294 84.9545L481.231 85.9799Z" fill="#FF8579"/>
<path d="M445.523 91.1504L446.567 90.2057L442.581 85.7946L445.729 69.8997L444.349 69.626L441.062 86.2138L445.523 91.1504Z" fill="#FC6760"/>
<path d="M461.028 71.6869C461.142 71.6868 461.252 71.6452 461.338 71.5699C461.423 71.4947 461.479 71.3909 461.493 71.2779C461.508 71.165 461.481 71.0505 461.417 70.956C461.354 70.8614 461.258 70.7932 461.148 70.764C460.829 70.6795 453.296 68.7305 449.788 70.814C449.681 70.8776 449.603 70.9811 449.573 71.1018C449.542 71.2224 449.56 71.3503 449.624 71.4573C449.688 71.5643 449.791 71.6418 449.912 71.6725C450.032 71.7032 450.16 71.6847 450.267 71.6212C453.439 69.7332 460.834 71.6509 460.908 71.6712C460.947 71.6818 460.988 71.687 461.028 71.6869Z" fill="#020C2D"/>
<path d="M454.139 76.0283C455.166 76.0283 455.998 74.7513 455.998 73.176C455.998 71.6007 455.166 70.3236 454.139 70.3236C453.112 70.3236 452.28 71.6007 452.28 73.176C452.28 74.7513 453.112 76.0283 454.139 76.0283Z" fill="#020C2D"/>
<path d="M441.822 71.6869C441.936 71.6866 442.046 71.6449 442.131 71.5696C442.216 71.4943 442.271 71.3905 442.286 71.2776C442.301 71.1646 442.274 71.0503 442.21 70.9558C442.147 70.8613 442.051 70.7931 441.941 70.764C441.622 70.6795 434.089 68.7305 430.581 70.814C430.474 70.8777 430.396 70.9813 430.366 71.102C430.335 71.2227 430.353 71.3507 430.417 71.4577C430.481 71.5648 430.584 71.6421 430.705 71.6727C430.826 71.7034 430.954 71.6849 431.061 71.6212C434.231 69.7332 441.627 71.6509 441.701 71.6712C441.741 71.6818 441.781 71.6871 441.822 71.6869Z" fill="#020C2D"/>
<path d="M434.932 76.0283C435.959 76.0283 436.791 74.7513 436.791 73.176C436.791 71.6007 435.959 70.3236 434.932 70.3236C433.906 70.3236 433.073 71.6007 433.073 73.176C433.073 74.7513 433.906 76.0283 434.932 76.0283Z" fill="#020C2D"/>
<path d="M465.125 65.3893C463.844 64.8928 462.525 64.5004 461.181 64.2161C459.841 63.9309 458.481 63.7478 457.114 63.6686C455.727 63.5818 454.334 63.628 452.956 63.8063C451.552 63.9886 450.172 64.3221 448.839 64.8011C448.664 64.8603 448.502 64.9535 448.363 65.0753C448.223 65.1971 448.109 65.3451 448.027 65.511C447.945 65.6768 447.896 65.8572 447.884 66.0419C447.872 66.2265 447.896 66.4118 447.955 66.5871C448.014 66.7624 448.107 66.9244 448.229 67.0637C448.351 67.203 448.499 67.3169 448.665 67.3991C448.831 67.4812 449.011 67.5298 449.196 67.5422C449.38 67.5546 449.566 67.5305 449.741 67.4713L449.819 67.4439L449.903 67.4102C451.016 66.928 452.177 66.567 453.368 66.3333C454.583 66.0947 455.819 65.9735 457.058 65.9712C458.316 65.9631 459.572 66.0507 460.817 66.2332C462.059 66.4124 463.284 66.6891 464.482 67.0606L464.53 67.0755C464.75 67.1431 464.988 67.123 465.194 67.0194C465.4 66.9158 465.558 66.7368 465.635 66.5195C465.712 66.3023 465.703 66.0637 465.608 65.8534C465.514 65.6431 465.342 65.4774 465.128 65.3909L465.125 65.3893Z" fill="#020C2D"/>
<path d="M429.421 64.2787C430.369 63.9178 431.349 63.6496 432.348 63.4778C433.334 63.3049 434.335 63.224 435.336 63.2362C436.355 63.2454 437.369 63.3727 438.359 63.6155C439.389 63.8697 440.383 64.2528 441.317 64.7558C441.586 64.9237 441.789 65.1789 441.892 65.4787C441.995 65.7784 441.992 66.1045 441.883 66.4022C441.853 66.543 441.791 66.6752 441.703 66.7893C441.615 66.9033 441.503 66.9962 441.374 67.0612C441.246 67.1262 441.104 67.1617 440.96 67.165C440.816 67.1683 440.674 67.1393 440.542 67.0802C440.524 67.0716 440.506 67.0615 440.489 67.0513L440.43 67.0161C439.655 66.5252 438.823 66.1312 437.952 65.8429C437.085 65.5579 436.187 65.3742 435.278 65.2955C434.363 65.2102 433.442 65.2102 432.526 65.2955C431.61 65.3793 430.703 65.5508 429.819 65.8078L429.784 65.8179C429.692 65.8367 429.598 65.836 429.507 65.816C429.416 65.796 429.331 65.757 429.256 65.7017C429.181 65.6464 429.118 65.5759 429.073 65.4948C429.027 65.4138 428.999 65.324 428.99 65.2313C428.942 65.0471 428.959 64.8523 429.038 64.679C429.116 64.5058 429.252 64.3645 429.421 64.2787Z" fill="#020C2D"/>
<path d="M450.364 112.061C453.459 112.109 456.517 111.381 459.258 109.943L458.576 108.712C453.429 111.561 447.346 110.421 447.286 110.41L447.016 111.791C448.122 111.98 449.242 112.07 450.364 112.061Z" fill="#FF8579"/>
<path d="M446.601 97.7859C449.696 97.8345 452.754 97.1063 455.495 95.6679L454.813 94.4369C449.667 97.2861 443.584 96.1466 443.523 96.1349L443.254 97.5169C444.36 97.7053 445.48 97.7954 446.601 97.7859Z" fill="#FC6760"/>
<path d="M520.391 260.399V296.893C520.392 304.557 518.63 312.119 515.241 318.993C511.853 325.868 506.928 331.871 500.849 336.539L468.673 361.236L461.933 495.392H422.342L406.152 338.172L366.139 495.392H326.377L338.92 339.21C339.54 331.501 341.722 323.999 345.335 317.161C348.948 310.323 353.916 304.292 359.935 299.437L416.554 253.761L520.391 260.399Z" fill="#0079C4"/>
<path d="M452.535 495.392H451.186V354.972L498.261 321.993C501.327 319.843 503.83 316.986 505.559 313.665C507.288 310.343 508.192 306.654 508.194 302.909V269.867H509.544V302.909C509.543 306.87 508.587 310.773 506.758 314.288C504.929 317.802 502.281 320.824 499.037 323.099L452.537 355.675L452.535 495.392Z" fill="#005386"/>
<path d="M502.124 228.716L480.183 274.584H419.445V260.399L407.362 267.36C405.263 268.585 402.945 269.386 400.538 269.719C388.509 271.299 377.426 260.036 380.561 247.39C380.772 246.539 381.039 245.702 381.362 244.887L398.02 202.832L400.587 196.349C401.542 193.941 403.198 191.875 405.341 190.419C407.484 188.963 410.015 188.184 412.606 188.183H475.307C479.847 188.184 484.277 189.584 487.994 192.193C491.71 194.801 494.533 198.491 496.078 202.76C496.389 203.626 496.648 204.51 496.852 205.407L502.124 228.716Z" fill="#005386"/>
<path d="M458.625 171.476L456.369 197.19C456.168 199.48 455.116 201.611 453.421 203.163C451.727 204.716 449.512 205.577 447.213 205.577C445.91 205.577 444.621 205.3 443.433 204.764C442.245 204.228 441.184 203.445 440.322 202.467C439.459 201.49 438.814 200.34 438.43 199.095C438.046 197.849 437.932 196.536 438.094 195.242L439.54 183.72C439.54 183.72 422.579 184.765 428.841 151.245C429.712 146.328 432.29 141.876 436.121 138.674C438.062 136.975 440.41 135.808 442.936 135.285C445.461 134.763 448.079 134.903 450.535 135.693C464.227 139.838 461.322 156.23 461.322 156.23L462.893 156.275C463.628 156.296 464.352 156.466 465.02 156.774C465.688 157.082 466.287 157.522 466.781 158.068C467.274 158.613 467.652 159.253 467.892 159.949C468.132 160.645 468.228 161.381 468.175 162.115C468.001 164.549 466.951 166.838 465.219 168.557C463.487 170.277 461.192 171.311 458.756 171.468L458.625 171.476Z" fill="#FFA59C"/>
<path d="M462.976 166.447C464.548 165.007 465.234 163.554 465.015 162.126C464.648 159.732 461.85 158.399 461.73 158.343L461.325 159.203C461.35 159.215 463.784 160.382 464.071 162.271C464.236 163.366 463.651 164.53 462.329 165.741L462.976 166.447Z" fill="#FF8579"/>
<path d="M438.42 170.003L439.139 169.354L436.397 166.321L438.562 155.39L437.613 155.202L435.353 166.608L438.42 170.003Z" fill="#FC6760"/>
<path d="M446.429 170.86L435.755 173.754C435.695 173.77 435.639 173.8 435.592 173.842C435.546 173.884 435.51 173.937 435.488 173.996C435.467 174.054 435.459 174.117 435.467 174.18C435.474 174.242 435.497 174.301 435.532 174.353C436.817 176.196 442.008 182.458 446.893 171.394C446.923 171.326 446.933 171.251 446.922 171.178C446.91 171.104 446.879 171.036 446.83 170.98C446.782 170.924 446.718 170.883 446.647 170.862C446.576 170.841 446.501 170.84 446.429 170.86Z" fill="white"/>
<path d="M449.082 158.675C449.16 158.674 449.236 158.646 449.295 158.594C449.353 158.542 449.391 158.471 449.401 158.393C449.411 158.316 449.393 158.237 449.349 158.172C449.306 158.107 449.24 158.06 449.164 158.04C448.945 157.982 443.768 156.64 441.353 158.074C441.316 158.096 441.283 158.124 441.257 158.158C441.231 158.192 441.213 158.231 441.202 158.272C441.191 158.314 441.189 158.357 441.195 158.399C441.201 158.441 441.215 158.482 441.237 158.519C441.259 158.555 441.287 158.587 441.322 158.613C441.356 158.638 441.395 158.657 441.437 158.667C441.478 158.677 441.521 158.679 441.563 158.673C441.606 158.666 441.646 158.652 441.683 158.629C443.863 157.331 448.949 158.65 449 158.664C449.027 158.671 449.054 158.675 449.082 158.675Z" fill="#020C2D"/>
<path d="M444.345 161.66C445.051 161.66 445.624 160.782 445.624 159.699C445.624 158.615 445.051 157.737 444.345 157.737C443.639 157.737 443.066 158.615 443.066 159.699C443.066 160.782 443.639 161.66 444.345 161.66Z" fill="#020C2D"/>
<path d="M435.875 158.675C435.953 158.674 436.028 158.646 436.087 158.594C436.146 158.542 436.184 158.471 436.194 158.393C436.204 158.316 436.185 158.237 436.142 158.172C436.098 158.107 436.032 158.06 435.957 158.04C435.738 157.982 430.56 156.64 428.145 158.074C428.108 158.096 428.076 158.124 428.05 158.158C428.024 158.192 428.005 158.231 427.994 158.272C427.984 158.314 427.981 158.357 427.987 158.399C427.993 158.441 428.007 158.482 428.029 158.519C428.051 158.555 428.08 158.587 428.114 158.613C428.149 158.638 428.188 158.657 428.229 158.667C428.271 158.677 428.314 158.679 428.356 158.673C428.398 158.666 428.439 158.652 428.475 158.629C430.656 157.331 435.741 158.65 435.793 158.664C435.819 158.671 435.847 158.675 435.875 158.675Z" fill="#020C2D"/>
<path d="M431.138 161.66C431.844 161.66 432.416 160.782 432.416 159.699C432.416 158.615 431.844 157.737 431.138 157.737C430.431 157.737 429.859 158.615 429.859 159.699C429.859 160.782 430.431 161.66 431.138 161.66Z" fill="#020C2D"/>
<path d="M451.9 154.344C451.019 154.003 450.112 153.733 449.187 153.539C448.266 153.342 447.332 153.215 446.391 153.159C445.438 153.1 444.48 153.132 443.533 153.255C442.567 153.38 441.618 153.609 440.701 153.939C440.578 153.978 440.464 154.04 440.365 154.124C440.267 154.207 440.186 154.309 440.127 154.424C440.068 154.539 440.033 154.665 440.024 154.794C440.015 154.922 440.031 155.052 440.072 155.174C440.114 155.296 440.179 155.409 440.265 155.506C440.35 155.603 440.454 155.681 440.571 155.737C440.687 155.793 440.813 155.825 440.942 155.832C441.071 155.838 441.2 155.819 441.322 155.775C441.339 155.769 441.356 155.762 441.373 155.756L441.43 155.732C442.196 155.401 442.994 155.153 443.813 154.993C444.648 154.828 445.498 154.745 446.35 154.743C447.215 154.737 448.079 154.798 448.936 154.924C449.789 155.047 450.632 155.237 451.455 155.492L451.488 155.502C451.641 155.553 451.807 155.542 451.952 155.471C452.096 155.4 452.207 155.276 452.261 155.125C452.315 154.973 452.307 154.807 452.239 154.661C452.172 154.515 452.05 154.401 451.9 154.344Z" fill="#020C2D"/>
<path d="M427.348 153.581C428 153.334 428.674 153.15 429.361 153.033C430.039 152.915 430.727 152.859 431.415 152.868C432.116 152.874 432.814 152.961 433.494 153.128C434.202 153.302 434.885 153.565 435.528 153.91C435.713 154.025 435.853 154.201 435.924 154.407C435.995 154.613 435.993 154.837 435.919 155.042C435.898 155.139 435.856 155.23 435.796 155.309C435.735 155.388 435.658 155.452 435.57 155.497C435.481 155.542 435.384 155.566 435.285 155.569C435.186 155.571 435.087 155.552 434.997 155.511L434.96 155.491L434.919 155.466C434.386 155.129 433.814 154.858 433.216 154.66C432.619 154.464 432.002 154.337 431.377 154.282C430.748 154.223 430.114 154.223 429.485 154.282C428.854 154.339 428.231 154.457 427.623 154.634L427.599 154.641C427.536 154.655 427.471 154.654 427.408 154.641C427.345 154.627 427.286 154.6 427.234 154.562C427.183 154.524 427.14 154.475 427.108 154.42C427.077 154.364 427.057 154.302 427.051 154.238C427.018 154.111 427.029 153.976 427.083 153.857C427.137 153.737 427.231 153.64 427.348 153.581Z" fill="#020C2D"/>
<path d="M441.749 184.38C443.877 184.413 445.98 183.912 447.865 182.923L447.395 182.076C444.992 183.263 442.278 183.671 439.632 183.245L439.447 184.194C440.207 184.324 440.977 184.386 441.749 184.38Z" fill="#FF8579"/>
<path d="M461.321 156.23L457.767 162.603L452.952 150.188C452.952 150.188 424.236 154.553 423.889 148.363C423.543 142.172 427.45 142.688 427.45 142.688C427.45 142.688 428.597 139.493 432.09 143.154C432.092 143.154 462.469 138.82 461.321 156.23Z" fill="#020C2D"/>
<path d="M470.429 146.669C469.944 146.643 469.467 146.795 469.085 147.095C468.703 147.395 468.443 147.823 468.353 148.3L467.139 154.768C467.054 155.205 466.873 155.618 466.608 155.976C466.343 156.334 466.001 156.628 465.607 156.837C465.214 157.045 464.778 157.162 464.333 157.18C463.888 157.198 463.445 157.116 463.036 156.94L461.404 156.228L461.325 156.196L431.923 143.406L429.147 142.196C432.218 133.23 437.883 129.4 444.185 128.555C444.634 128.49 445.089 128.442 445.544 128.416C456.537 127.661 469.028 135.284 473.105 140.319C477.998 146.369 473.241 146.834 470.429 146.669Z" fill="#E36155"/>
<path d="M431.281 137.318L430.989 138.066L467.51 152.37L467.803 151.623L431.281 137.318Z" fill="#CC3333"/>
<path d="M467.519 148.594L466.759 148.857C466.502 148.113 466.283 147.316 466.048 146.476C465.32 143.865 464.501 140.907 462.249 139.019C460.703 137.724 458.495 137.162 456.359 136.622C454.755 136.289 453.199 135.757 451.726 135.039C449.948 134.117 448.407 132.797 447.222 131.181C446.451 130.062 445.407 129.158 444.188 128.555C444.638 128.49 445.093 128.442 445.548 128.416C446.444 129.032 447.225 129.801 447.853 130.689C448.973 132.22 450.432 133.469 452.117 134.338C453.528 135.024 455.019 135.529 456.557 135.841C458.783 136.408 461.083 136.991 462.768 138.403C465.208 140.452 466.063 143.539 466.818 146.262C467.048 147.091 467.267 147.872 467.519 148.594Z" fill="#CC3333"/>
<path d="M446.117 211.097H445.13V248.646H446.117V211.097Z" fill="#96BED5"/>
<path d="M445.623 217.129C454.095 217.129 460.963 210.261 460.963 201.789C460.963 193.316 454.095 186.448 445.623 186.448C437.151 186.448 430.283 193.316 430.283 201.789C430.283 210.261 437.151 217.129 445.623 217.129Z" fill="#F7C16C"/>
<path d="M444.961 213.634C444.417 213.634 443.873 213.597 443.334 213.523C440.582 213.193 438.072 211.787 436.354 209.612C433.007 205.453 432.944 200.45 436.186 196.23C438.36 193.564 441.358 191.695 444.709 190.916C448.061 190.138 451.575 190.494 454.702 191.929C455.1 192.104 455.316 192.22 455.316 192.22C455.47 192.302 455.585 192.442 455.636 192.608C455.687 192.775 455.67 192.955 455.588 193.109C455.506 193.263 455.367 193.378 455.2 193.429C455.033 193.48 454.853 193.463 454.699 193.381C454.688 193.375 454.502 193.278 454.171 193.131C451.313 191.813 448.1 191.481 445.033 192.187C441.967 192.893 439.222 194.597 437.229 197.031C435.849 198.687 435.105 200.782 435.133 202.937C435.16 205.093 435.957 207.167 437.379 208.788C438.889 210.697 441.093 211.932 443.51 212.221C448.594 212.908 453.547 209.902 454.538 205.508C455.058 203.203 455.388 200.038 454.002 198.056C453.566 197.485 453.012 197.015 452.379 196.677C451.746 196.339 451.048 196.14 450.331 196.095C448.947 195.889 447.532 196.045 446.226 196.549C444.92 197.054 443.767 197.888 442.88 198.971C442.252 199.735 441.84 200.652 441.686 201.629C441.532 202.605 441.643 203.605 442.006 204.524C442.146 204.984 442.383 205.408 442.701 205.768C443.019 206.129 443.411 206.417 443.85 206.613C444.853 206.979 446.204 206.716 447.865 205.831C451.088 204.11 450.946 203.356 450.939 203.328C450.783 202.69 448.056 202.076 445.217 202.049C445.047 202.042 444.885 201.969 444.768 201.846C444.65 201.723 444.585 201.558 444.586 201.388C444.587 201.217 444.654 201.054 444.773 200.932C444.892 200.81 445.054 200.739 445.225 200.734H445.232C446.743 200.751 451.714 200.964 452.215 203.016C452.513 204.23 451.361 205.457 448.484 206.993C446.48 208.063 444.769 208.351 443.4 207.853C442.785 207.598 442.233 207.212 441.781 206.723C441.33 206.233 440.99 205.652 440.786 205.018C440.335 203.886 440.195 202.654 440.381 201.451C440.567 200.247 441.072 199.114 441.843 198.171C442.87 196.906 444.208 195.93 445.726 195.338C447.244 194.747 448.89 194.56 450.502 194.797C451.401 194.862 452.275 195.12 453.065 195.553C453.855 195.986 454.542 196.585 455.08 197.308C456.415 199.215 456.664 202.074 455.822 205.804C454.791 210.361 450.103 213.633 444.961 213.634Z" fill="#E7F0FD"/>
<path d="M430.011 229.383L433.189 226.051C434.421 224.759 435.988 223.836 437.715 223.387L449.655 220.275C449.941 220.201 450.241 220.193 450.53 220.254C450.82 220.314 451.092 220.44 451.325 220.623C451.557 220.805 451.745 221.039 451.872 221.306C452 221.573 452.064 221.865 452.06 222.161L451.912 232.876C451.902 233.623 451.655 234.347 451.206 234.944C450.757 235.541 450.13 235.979 449.415 236.196L443.756 237.917C442.804 238.206 441.902 238.641 441.082 239.206L436.228 242.55L430.011 229.383Z" fill="#FFA59C"/>
<path d="M451.939 223.519L443.729 226.333L443.927 226.909L452.137 224.095L451.939 223.519Z" fill="#FF8579"/>
<path d="M451.878 227.672L443.815 230.535L444.019 231.11L452.082 228.246L451.878 227.672Z" fill="#FF8579"/>
<path d="M451.812 231.478L445.476 234.044L445.704 234.609L452.041 232.043L451.812 231.478Z" fill="#FF8579"/>
<path d="M457.341 227.393L451.128 240.555L446.279 237.215C445.46 236.649 444.558 236.215 443.605 235.928L437.942 234.207C437.228 233.99 436.601 233.551 436.153 232.953C435.704 232.356 435.457 231.632 435.448 230.885L435.358 224.502V224.357L435.295 220.171C435.292 219.875 435.357 219.582 435.486 219.315C435.614 219.048 435.802 218.814 436.035 218.631C436.268 218.449 436.54 218.322 436.83 218.261C437.12 218.2 437.42 218.207 437.707 218.28L449.646 221.395C451.373 221.842 452.939 222.766 454.166 224.061L457.341 227.393Z" fill="#FFA59C"/>
<path d="M435.418 221.531L435.22 222.107L443.431 224.921L443.628 224.345L435.418 221.531Z" fill="#FF8579"/>
<path d="M435.476 225.676L435.272 226.25L443.335 229.114L443.539 228.54L435.476 225.676Z" fill="#FF8579"/>
<path d="M435.54 229.479L435.311 230.044L441.648 232.61L441.876 232.045L435.54 229.479Z" fill="#FF8579"/>
<path d="M488.414 306.354L469.01 394.228V394.236L464.31 415.53V414.748C462.599 415.586 461.014 416.288 459.555 416.873C448.959 421.078 444.691 418.899 443.007 416.873C442.479 416.265 442.111 415.534 441.936 414.748L441.096 415.557L441.528 391.788L443.178 301.488L402.665 341.626L395.021 382.628V382.637L391.086 403.754C370.324 413.946 368.712 403.754 368.712 403.754L370.12 380.165L372.812 335.049C373.154 329.31 375.426 323.856 379.259 319.571L419.445 274.584H486.008L488.736 289.638C489.736 295.176 489.627 300.858 488.414 306.354Z" fill="#FFA59C"/>
<path d="M488.414 306.354L488.341 306.683C485.511 319.505 484.083 332.596 484.083 345.726H438.163L443.178 301.491L411.54 337.379L408.992 335.363L383.323 315.005L377.966 310.756L419.445 274.584H486.008L488.736 289.638C489.737 295.176 489.627 300.858 488.414 306.354Z" fill="#E36155"/>
<path d="M473.462 257.603C473.462 257.603 447.393 259.213 442.076 264.657C436.76 270.101 451.601 266.671 454.09 269.77C456.186 272.381 438.235 279.662 430.171 279.909C429.767 279.928 429.372 280.032 429.011 280.214C428.65 280.397 428.332 280.653 428.076 280.966C427.821 281.279 427.634 281.643 427.529 282.033C427.423 282.423 427.401 282.831 427.463 283.231C427.562 283.906 427.895 284.525 428.405 284.978C428.915 285.432 429.568 285.692 430.25 285.711C434.583 285.84 445.709 284.147 448.229 283.483C450.685 282.834 438.579 287.259 433.022 288.713C432.573 288.831 432.154 289.043 431.793 289.336C431.432 289.629 431.138 289.995 430.931 290.411C430.723 290.826 430.606 291.281 430.588 291.745C430.571 292.21 430.652 292.672 430.827 293.102C431.118 293.824 431.655 294.418 432.344 294.779C433.033 295.141 433.827 295.245 434.586 295.074L453.802 289.689L440.471 297.399C440.052 297.65 439.697 297.992 439.43 298.401C439.164 298.809 438.995 299.273 438.935 299.757C438.875 300.24 438.926 300.731 439.085 301.193C439.243 301.654 439.504 302.072 439.849 302.417C440.35 302.916 441.002 303.236 441.704 303.326C442.405 303.416 443.116 303.271 443.727 302.915L460.152 293.06L449.785 301.338C449.159 301.967 448.798 302.811 448.774 303.698C448.75 304.585 449.065 305.447 449.656 306.109C450.238 306.76 451.044 307.168 451.913 307.252C452.783 307.337 453.652 307.091 454.348 306.564L470.665 294.202L487.246 283.885L473.462 257.603Z" fill="#FFA59C"/>
<path d="M548.763 237.089L486.585 288.175L470.379 253.762L515.531 218.144L506.267 177.854L544.577 169.265L556.758 211.301C558.094 215.911 558.048 220.81 556.627 225.394C555.206 229.978 552.472 234.044 548.763 237.089Z" fill="#33CC99"/>
<path d="M519.642 260.915C512.559 249.758 502.386 241.177 491.732 237.373L492.186 236.101C503.119 240.004 513.542 248.783 520.782 260.19L519.642 260.915Z" fill="#339966"/>
<path d="M509.792 194.314C504.892 194.314 499.866 193.835 495.21 191.96C488.332 189.19 481.9 182.175 482.916 174.128C483.647 168.335 488.431 162.944 495.104 160.4C500.902 158.191 507.214 158.081 513.319 157.976L513.646 157.969C522.604 157.813 531.869 157.5 541.194 157.043L541.26 158.392C531.924 158.85 522.641 159.162 513.67 159.32L513.342 159.326C507.353 159.43 501.161 159.537 495.588 161.662C489.374 164.033 484.927 168.992 484.258 174.297C483.328 181.669 489.318 188.135 495.716 190.711C502.642 193.498 510.571 193.067 517.567 192.688L550.997 190.86L551.075 192.209L517.644 194.036C515.115 194.17 512.472 194.314 509.792 194.314Z" fill="#339966"/>
<path d="M470.801 254.291L469.965 253.231L514.774 217.883L505.609 178.006L506.924 177.704L516.282 218.414L470.801 254.291Z" fill="#339966"/>
<path d="M399.707 198.683L396.751 189.821C395.616 186.414 395.389 182.77 396.092 179.248L399.683 161.294L401.008 161.559L397.417 179.513C396.76 182.804 396.971 186.21 398.032 189.394L400.986 198.256L399.707 198.683Z" fill="#339966"/>
<path d="M419.802 260.974L419.093 259.825L437.319 248.57L428.17 226.413L406.827 237.272L406.215 236.069L428.861 224.547L439.006 249.117L419.802 260.974Z" fill="#0079C4"/>
<path d="M471.177 256.708L448.657 245.371L459.081 222.989L488.134 239.432L487.469 240.608L459.688 224.884L450.434 244.754L471.784 255.502L471.177 256.708Z" fill="#0079C4"/>
<path d="M400.538 269.718C388.509 271.299 377.426 260.036 380.561 247.39C386.045 248.024 391.107 250.646 394.789 254.761C398.47 258.875 400.516 264.197 400.538 269.718Z" fill="#0079C4"/>
<path d="M421.732 188.182C420.138 192.521 417.251 196.267 413.461 198.912C409.67 201.558 405.159 202.976 400.537 202.975C399.694 202.977 398.852 202.929 398.015 202.831L400.581 196.348C401.536 193.94 403.193 191.874 405.336 190.418C407.479 188.962 410.01 188.183 412.601 188.182H421.732Z" fill="#0079C4"/>
<path d="M496.074 202.759C495.042 202.904 494.001 202.976 492.959 202.975C488.336 202.976 483.823 201.558 480.032 198.912C476.24 196.267 473.351 192.522 471.756 188.182H475.304C479.844 188.184 484.274 189.584 487.99 192.192C491.706 194.8 494.529 198.49 496.074 202.759Z" fill="#0079C4"/>
<path d="M446.148 237.4C445.348 236.848 444.467 236.424 443.536 236.144L437.873 234.423C437.112 234.193 436.444 233.726 435.967 233.09C435.49 232.454 435.228 231.683 435.219 230.888L435.129 224.357H435.58V224.502L435.669 230.882C435.677 231.582 435.907 232.261 436.327 232.82C436.747 233.379 437.335 233.79 438.004 233.992L443.667 235.713C444.643 236.006 445.566 236.451 446.404 237.03L446.148 237.4Z" fill="#FF8579"/>
<path d="M451.963 222.582C451.284 221.764 448.488 221.206 447.468 221.06L447.531 220.614C447.688 220.637 451.383 221.176 452.309 222.295L451.963 222.582Z" fill="#FF8579"/>
<path d="M479.69 288.11L479.217 293.492L480.562 293.61L481.035 288.229L479.69 288.11Z" fill="#CC3333"/>
<path d="M477.271 331.046L475.926 330.927L476.749 321.568L478.094 321.687L477.271 331.046ZM478.913 312.328L477.568 312.21L478.391 302.851L479.736 302.969L478.913 312.328Z" fill="#CC3333"/>
<path d="M475.102 340.284L474.628 345.666L475.973 345.784L476.446 340.403L475.102 340.284Z" fill="#CC3333"/>
<path d="M408.419 327.961L404.636 331.818L405.599 332.763L409.382 328.907L408.419 327.961Z" fill="#CC3333"/>
<path d="M415.703 322.462L414.739 321.516L421.059 315.072L422.024 316.017L415.703 322.462ZM428.348 309.574L427.384 308.628L433.705 302.184L434.664 303.131L428.348 309.574Z" fill="#CC3333"/>
<path d="M443.803 291.883L440.021 295.74L440.984 296.685L444.767 292.829L443.803 291.883Z" fill="#CC3333"/>
<path d="M487.968 60.1112L483.69 71.771L485.38 72.3912L489.658 60.7314L487.968 60.1112Z" fill="#0079C4"/>
<path d="M477.538 91.1599C478.22 91.1599 478.772 90.6073 478.772 89.9257C478.772 89.2441 478.22 88.6915 477.538 88.6915C476.857 88.6915 476.304 89.2441 476.304 89.9257C476.304 90.6073 476.857 91.1599 477.538 91.1599Z" fill="#005386"/>
<path d="M524.55 256.105H523.199V341.792H524.55V256.105Z" fill="#E59C54"/>
<path d="M69.2195 385.153C68.9083 387.79 68.3319 390.39 67.4988 392.911C66.3988 396.234 64.8769 399.401 62.9704 402.336C59.6532 407.367 55.5343 411.822 50.7773 415.522C50.6325 415.637 50.4682 415.724 50.2924 415.78C50.1978 415.805 50.1007 415.818 50.003 415.819C49.9268 415.819 49.8508 415.811 49.7762 415.796C23.9822 410.767 11.7187 401.718 7.51094 391.238H7.50312C6.26441 388.101 5.66864 384.747 5.7512 381.375C5.91529 376.607 6.95451 371.909 8.81707 367.516C10.1324 364.281 11.6988 361.153 13.5019 358.162C15.9999 354.003 18.7803 350.021 21.8236 346.243C24.0839 343.412 26.3833 340.768 28.5732 338.39C32.6568 333.933 37.0026 329.723 41.5875 325.783L41.564 325.493C41.618 325.552 41.6754 325.607 41.7361 325.658C41.7855 325.622 41.8325 325.582 41.8769 325.54L41.9082 325.83C48.6857 332.577 54.6018 340.138 59.5213 348.339C61.2717 351.272 62.8465 354.307 64.2374 357.427C66.7785 363.01 68.4608 368.946 69.2273 375.032C69.6118 378.395 69.6092 381.791 69.2195 385.153Z" fill="#33CC99"/>
<path d="M30.0576 350.542C27.6557 350.542 24.7017 349.414 22.098 347.463C21.8227 347.255 21.5592 347.048 21.312 346.837L22.335 345.655C22.5571 345.847 22.7949 346.032 23.0389 346.216C25.6832 348.199 28.6607 349.238 30.8068 348.93C31.1732 348.918 31.5323 348.824 31.8575 348.655C32.1827 348.486 32.4658 348.246 32.6859 347.952C32.9061 347.659 33.0576 347.32 33.1294 346.961C33.2012 346.601 33.1914 346.23 33.1008 345.875C32.7965 343.727 30.9601 341.157 28.3072 339.168C28.2931 339.16 28.247 339.126 28.2016 339.09L29.0064 337.742C29.0565 337.775 29.1034 337.81 29.1503 337.846L29.2457 337.916C32.2178 340.145 34.2888 343.11 34.6493 345.659C34.7688 346.218 34.767 346.796 34.6442 347.354C34.5213 347.912 34.2802 348.437 33.9371 348.894C33.594 349.351 33.1569 349.73 32.6552 350.004C32.1535 350.277 31.599 350.44 31.029 350.482C30.707 350.525 30.3824 350.545 30.0576 350.542Z" fill="#339966"/>
<path d="M69.1682 385.935C66.7257 385.935 63.8295 384.812 61.2102 382.846C56.5739 379.376 54.5122 374.555 56.5176 371.874C58.5229 369.193 63.7357 369.83 68.3673 373.304C68.8178 373.642 69.284 374.028 69.7524 374.453L68.7029 375.612C68.2696 375.221 67.8425 374.864 67.4288 374.555C63.6285 371.704 59.2041 370.907 57.7689 372.813C56.3338 374.718 58.3446 378.747 62.1488 381.593C64.4849 383.348 67.0972 384.368 69.2144 384.371L69.2253 385.935H69.1682Z" fill="#339966"/>
<path d="M56.5515 360.532C54.019 360.532 52.0152 359.657 51.2049 357.96C49.7721 354.938 52.752 350.627 57.989 348.142C58.4387 347.93 58.8493 347.755 59.2482 347.607L59.7957 349.073C59.4382 349.205 59.0659 349.363 58.6585 349.556C54.3639 351.589 51.5976 355.135 52.619 357.288C53.6404 359.441 58.136 359.539 62.4329 357.503C62.8975 357.285 63.3715 357.034 63.8407 356.755L64.6385 358.1C64.127 358.404 63.6092 358.679 63.1016 358.918C61.0616 359.926 58.8263 360.477 56.5515 360.532Z" fill="#339966"/>
<path d="M13.7561 369.114C12.1486 369.102 10.551 368.861 9.01105 368.4C8.86323 368.358 8.70524 368.306 8.55664 368.254L9.07753 366.779C9.19484 366.82 9.31842 366.862 9.44199 366.896C11.5517 367.568 13.7934 367.717 15.9734 367.329C17.6854 366.961 18.7968 366.185 19.1018 365.145C19.69 363.128 17.1082 360.38 13.2219 358.893L13.7819 357.432C18.577 359.268 21.4466 362.697 20.6035 365.584C20.1288 367.201 18.6013 368.364 16.3019 368.859C15.4646 369.033 14.6113 369.119 13.7561 369.114Z" fill="#339966"/>
</g>
</svg>
