<svg width="174" height="174" viewBox="0 0 174 174" fill="none" xmlns="http://www.w3.org/2000/svg">
<rect width="174" height="174" rx="87" fill="#FFE0AF"/>
<mask id="mask0_11_2714" style="mask-type:alpha" maskUnits="userSpaceOnUse" x="0" y="0" width="174" height="174">
<rect width="174" height="174" rx="87" fill="#323232"/>
</mask>
<g mask="url(#mask0_11_2714)">
<path d="M65.2822 329.706H180.849C192.136 329.706 201.286 320.557 201.286 309.27L201.286 102.961C201.286 91.6739 192.136 82.5242 180.849 82.5242L65.2822 82.5242C53.9955 82.5242 44.8458 91.6739 44.8458 102.961L44.8458 309.27C44.8458 320.557 53.9955 329.706 65.2822 329.706Z" fill="#F7C16C"/>
<path d="M184.334 329.706H176.442C171.072 329.706 165.921 327.573 162.123 323.775C158.326 319.977 156.192 314.827 156.192 309.456L156.192 102.777C156.192 100.118 156.715 97.4842 157.733 95.027C158.75 92.5698 160.242 90.3371 162.122 88.4564C164.003 86.5757 166.235 85.0838 168.692 84.0659C171.149 83.0481 173.783 82.5242 176.442 82.5242H181.035C186.406 82.5242 191.556 84.6577 195.354 88.4554C199.152 92.2531 201.285 97.4038 201.285 102.775L201.285 312.755C201.285 317.25 199.499 321.562 196.32 324.741C193.141 327.92 188.83 329.706 184.334 329.706Z" fill="#F7C16C"/>
<path d="M156.785 104.02L155.596 103.985C155.849 95.2446 158.471 88.9148 163.388 85.1718C170.843 79.4978 180.757 81.845 181.175 81.9476L180.893 83.103C180.795 83.0788 171.096 80.7923 164.102 86.1239C159.49 89.6395 157.028 95.6608 156.785 104.02Z" fill="#E59C54"/>
<path d="M178.116 203.382L152.97 224.049L123.346 248.381L109.071 218.068L107.032 213.728V199.44H38.4221C35.1645 199.446 31.9496 198.699 29.0287 197.256C26.1078 195.814 23.56 193.716 21.5843 191.126C19.6086 188.536 18.2586 185.524 17.6397 182.326C17.0208 179.127 17.1498 175.829 18.0167 172.689L22.7985 155.259L32.6247 119.475C32.7625 118.975 32.9182 118.476 33.0925 117.992C34.6386 113.572 37.5209 109.741 41.3404 107.031C45.1598 104.321 49.7274 102.865 54.4107 102.866H145.909C150.725 102.869 155.41 104.434 159.26 107.327C163.11 110.221 165.917 114.285 167.259 118.911L171.478 133.464L174.428 143.639L180.115 163.251L185.158 180.668C186.334 184.727 186.294 189.043 185.042 193.08C183.791 197.118 181.383 200.699 178.116 203.382Z" fill="#33CC99"/>
<path d="M28.4601 197.426L28.0819 196.299C31.344 195.204 34.8182 194.151 38.4089 193.172C40.2256 192.677 42.0603 192.202 43.9038 191.725C54.2378 189.055 64.9258 186.293 73.0552 179.496C74.9642 177.898 78.0747 174.691 77.4588 171.173C77.0082 168.619 74.8409 166.768 72.471 164.943C65.7456 159.748 58.124 153.861 49.4841 151.055C42.0692 148.65 31.561 148.331 24.308 154.65C23.9091 155 23.5501 155.338 23.2236 155.672L22.3755 154.84C22.7268 154.481 23.103 154.125 23.526 153.754C31.1566 147.107 42.1271 147.416 49.8541 149.923C58.6896 152.793 66.3987 158.747 73.1998 164C75.6607 165.895 78.1084 167.996 78.6327 170.966C79.3161 174.868 76.393 178.255 73.8206 180.409C65.4845 187.378 54.6683 190.173 44.2035 192.878C42.3668 193.353 40.5357 193.826 38.7238 194.319C35.1531 195.294 31.7008 196.339 28.4601 197.426Z" fill="#339966"/>
<path d="M71.2203 130.906C62.5153 130.919 53.8842 129.309 45.7692 126.158C40.9776 124.395 36.546 121.777 32.6899 118.43L33.4898 117.551C37.2398 120.799 41.5481 123.34 46.2053 125.05C55.844 128.766 66.1881 130.293 76.4893 129.521C86.7906 128.748 96.7913 125.696 105.768 120.584C109.315 118.543 112.736 116.148 116.044 113.833C118.898 111.835 121.848 109.768 124.884 107.926C128.451 105.765 132.183 103.889 136.045 102.316L136.494 103.419C132.689 104.968 129.013 106.815 125.499 108.944C122.496 110.767 119.562 112.822 116.723 114.808C113.394 117.139 109.951 119.549 106.358 121.617C95.6562 127.724 83.5427 130.927 71.2203 130.906Z" fill="#339966"/>
<path d="M116.518 76.0566C116.518 76.0566 114.286 86.8039 112.062 88.0598L113.226 76.7063L116.518 76.0566Z" fill="#020C2D"/>
<path d="M75.5497 36.01C75.5497 36.01 69.9825 48.3618 73.1281 62.8093L80.6926 45.3043L75.5497 36.01Z" fill="#37396D"/>
<path d="M131.704 75.1624C139.682 75.1624 146.15 68.6949 146.15 60.7169C146.15 52.7389 139.682 46.2715 131.704 46.2715C123.726 46.2715 117.259 52.7389 117.259 60.7169C117.259 68.6949 123.726 75.1624 131.704 75.1624Z" fill="#020C2D"/>
<path d="M113.058 76.7152L110.168 109.653C109.911 112.586 108.564 115.317 106.393 117.307C104.222 119.296 101.384 120.4 98.4393 120.4C96.7694 120.4 95.1187 120.045 93.5967 119.358C92.0746 118.671 90.7161 117.668 89.6113 116.416C88.5065 115.164 87.6807 113.691 87.1888 112.096C86.6968 110.5 86.5499 108.818 86.7578 107.161L88.6103 92.4014C88.6103 92.4014 66.8843 93.7414 74.9055 50.8026C76.0208 44.5043 79.3235 38.8019 84.2315 34.7002C88.631 31.1026 94.8017 28.4902 102.695 30.8815C120.233 36.1966 116.513 57.1889 116.513 57.1889L118.525 57.2468C119.467 57.2737 120.394 57.4909 121.25 57.8855C122.106 58.2801 122.873 58.8438 123.505 59.5427C124.137 60.2416 124.621 61.0612 124.928 61.9522C125.236 62.8432 125.359 63.7872 125.292 64.7272C125.068 67.8451 123.723 70.7765 121.505 72.979C119.287 75.1816 116.346 76.5061 113.226 76.7076L113.058 76.7152Z" fill="#FFA59C"/>
<path d="M123.337 59.3659C122.073 58.055 120.344 57.2942 118.523 57.2481L116.509 57.1848C96.5473 56.2809 89.2509 44.3211 89.2509 44.3211C87.4582 46.3598 85.2511 47.9924 82.777 49.1098C80.3028 50.2272 77.6187 50.8036 74.9039 50.8005C72.4134 42.0607 74.8798 33.5827 80.6537 29.7923C83.3179 28.1383 86.4421 27.382 89.5678 27.6345C98.1649 23.4713 108.26 24.2801 115.573 29.7923C124.297 36.3667 127.62 48.5325 123.337 59.3659Z" fill="#020C2D"/>
<path d="M118.63 70.2757C120.644 68.4301 121.524 66.5672 121.243 64.7402C120.772 61.6737 117.189 59.9652 117.037 59.8936L116.518 61.0007C116.549 61.0158 119.667 62.5101 120.035 64.9276C120.248 66.3254 119.497 67.8211 117.804 69.3725L118.63 70.2757Z" fill="#FF8579"/>
<path d="M87.176 74.8304L88.0958 73.9982L84.5843 70.1126L87.3579 56.1115L86.142 55.8704L83.2471 70.4819L87.176 74.8304Z" fill="#FC6760"/>
<path d="M100.834 57.6856C100.934 57.6855 101.031 57.6489 101.107 57.5826C101.182 57.5163 101.231 57.4249 101.244 57.3254C101.256 57.2259 101.233 57.1251 101.177 57.0418C101.121 56.9585 101.036 56.8983 100.939 56.8727C100.658 56.7983 94.0226 55.0814 90.9328 56.9167C90.8385 56.9727 90.7703 57.0639 90.7433 57.1702C90.7162 57.2764 90.7325 57.3891 90.7885 57.4834C90.8445 57.5777 90.9356 57.6458 91.0419 57.6729C91.1482 57.7 91.2608 57.6837 91.3551 57.6277C94.1487 55.9646 100.663 57.6539 100.728 57.6718C100.763 57.6811 100.798 57.6857 100.834 57.6856Z" fill="#020C2D"/>
<path d="M94.7655 61.5099C95.6699 61.5099 96.4031 60.385 96.4031 58.9974C96.4031 57.6098 95.6699 56.4849 94.7655 56.4849C93.8611 56.4849 93.1279 57.6098 93.1279 58.9974C93.1279 60.385 93.8611 61.5099 94.7655 61.5099Z" fill="#020C2D"/>
<path d="M83.9161 57.6856C84.0164 57.6853 84.1132 57.6486 84.1884 57.5823C84.2637 57.5159 84.3122 57.4245 84.325 57.325C84.3378 57.2256 84.314 57.1248 84.2581 57.0416C84.2021 56.9584 84.1178 56.8983 84.0209 56.8727C83.7398 56.7983 77.1047 55.0814 74.0142 56.9167C73.9199 56.9728 73.8517 57.0641 73.8247 57.1704C73.7977 57.2767 73.8141 57.3894 73.8702 57.4837C73.9263 57.578 74.0175 57.6461 74.1239 57.6731C74.2302 57.7001 74.3429 57.6838 74.4372 57.6277C77.2301 55.9646 83.7446 57.6539 83.81 57.6718C83.8446 57.6811 83.8803 57.6858 83.9161 57.6856Z" fill="#020C2D"/>
<path d="M77.8471 61.5099C78.7515 61.5099 79.4846 60.385 79.4846 58.9974C79.4846 57.6098 78.7515 56.4849 77.8471 56.4849C76.9427 56.4849 76.2095 57.6098 76.2095 58.9974C76.2095 60.385 76.9427 61.5099 77.8471 61.5099Z" fill="#020C2D"/>
<path d="M104.443 52.1383C103.314 51.7009 102.152 51.3554 100.968 51.1049C99.7881 50.8537 98.5905 50.6924 97.3859 50.6227C96.164 50.5462 94.9377 50.5868 93.7235 50.7439C92.4866 50.9045 91.2708 51.1983 90.097 51.6202C89.9426 51.6724 89.7999 51.7545 89.6772 51.8617C89.5545 51.969 89.4541 52.0994 89.3818 52.2455C89.3095 52.3916 89.2666 52.5505 89.2557 52.7131C89.2448 52.8758 89.266 53.039 89.3182 53.1934C89.3703 53.3478 89.4524 53.4905 89.5597 53.6132C89.667 53.7359 89.7974 53.8363 89.9435 53.9086C90.0896 53.981 90.2485 54.0238 90.4111 54.0347C90.5737 54.0456 90.7369 54.0244 90.8913 53.9722L90.9603 53.9481L91.034 53.9185C92.0143 53.4938 93.0375 53.1757 94.0859 52.9699C95.1567 52.7597 96.2451 52.6529 97.3363 52.6509C98.4444 52.6438 99.5515 52.7209 100.648 52.8817C101.742 53.0396 102.821 53.2833 103.876 53.6106L103.918 53.6237C104.112 53.6832 104.322 53.6655 104.503 53.5742C104.685 53.483 104.824 53.3253 104.892 53.1339C104.96 52.9426 104.951 52.7324 104.868 52.5471C104.785 52.3619 104.634 52.216 104.445 52.1397L104.443 52.1383Z" fill="#020C2D"/>
<path d="M72.9928 51.1601C73.8273 50.8422 74.6907 50.606 75.5708 50.4546C76.4395 50.3023 77.3206 50.2311 78.2025 50.2418C79.1002 50.2499 79.994 50.362 80.8659 50.5759C81.7732 50.7998 82.6486 51.1373 83.4714 51.5804C83.7082 51.7282 83.887 51.9531 83.9777 52.2171C84.0684 52.4812 84.0655 52.7684 83.9695 53.0306C83.9429 53.1546 83.8888 53.2711 83.8114 53.3715C83.7339 53.472 83.6349 53.5538 83.5217 53.6111C83.4085 53.6684 83.2839 53.6996 83.1571 53.7025C83.0302 53.7054 82.9044 53.6799 82.7887 53.6278C82.7728 53.6203 82.757 53.6113 82.7418 53.6024L82.6895 53.5713C82.007 53.1389 81.274 52.7919 80.5069 52.538C79.743 52.2869 78.9526 52.1251 78.1515 52.0557C77.3454 51.9806 76.534 51.9806 75.7279 52.0557C74.9203 52.1296 74.1216 52.2807 73.3428 52.507L73.3118 52.5159C73.2315 52.5324 73.1486 52.5319 73.0685 52.5142C72.9884 52.4966 72.9129 52.4623 72.8469 52.4135C72.7809 52.3648 72.726 52.3027 72.6856 52.2313C72.6452 52.16 72.6203 52.0809 72.6125 51.9992C72.5708 51.837 72.5857 51.6653 72.6549 51.5127C72.7241 51.3601 72.8433 51.2357 72.9928 51.1601Z" fill="#020C2D"/>
<path d="M91.4398 93.2496C94.1662 93.292 96.8597 92.6506 99.2743 91.3839L98.6736 90.2996C94.1404 92.8093 88.782 91.8049 88.7289 91.7952L88.4912 93.0119C89.4651 93.1784 90.4519 93.2579 91.4398 93.2496Z" fill="#FF8579"/>
<path d="M88.1264 80.6751C90.8525 80.7179 93.5459 80.0765 95.9602 78.8095L95.3594 77.7251C90.827 80.2349 85.4685 79.2311 85.4148 79.2208L85.1777 80.4381C86.1517 80.6041 87.1384 80.6834 88.1264 80.6751Z" fill="#FC6760"/>
<path d="M178.116 203.382L123.346 248.381L109.071 218.068L148.843 186.694L140.683 151.204L174.429 143.638L185.159 180.666C186.335 184.726 186.295 189.042 185.043 193.08C183.791 197.117 181.383 200.699 178.116 203.382Z" fill="#33CC99"/>
<path d="M143.788 165.703C139.472 165.703 135.045 165.28 130.943 163.629C124.885 161.19 119.22 155.01 120.115 147.922C120.758 142.819 124.972 138.07 130.85 135.829C135.957 133.883 141.518 133.787 146.895 133.694L147.183 133.688C155.074 133.55 163.235 133.275 171.449 132.873L171.507 134.06C163.284 134.464 155.107 134.739 147.204 134.878L146.915 134.883C141.64 134.974 136.186 135.07 131.277 136.941C125.803 139.03 121.886 143.398 121.297 148.07C120.477 154.564 125.753 160.26 131.39 162.529C137.49 164.984 144.474 164.605 150.637 164.27L180.084 162.66L180.153 163.849L150.705 165.458C148.477 165.576 146.149 165.703 143.788 165.703Z" fill="#339966"/>
<path d="M109.442 218.534L108.706 217.6L148.176 186.464L140.103 151.338L141.262 151.072L149.505 186.931L109.442 218.534Z" fill="#339966"/>
<path d="M46.8185 169.551L44.2143 161.745C43.2151 158.744 43.0152 155.534 43.6342 152.432L46.7971 136.617L47.9641 136.851L44.8013 152.666C44.2223 155.564 44.4089 158.564 45.3428 161.369L47.9449 169.175L46.8185 169.551Z" fill="#339966"/>
<path d="M66.2192 160.302C64.8155 164.124 62.2723 167.423 58.9335 169.753C55.5946 172.083 51.6209 173.332 47.5492 173.332C46.807 173.334 46.0653 173.291 45.3281 173.205L47.5885 167.495C48.4299 165.373 49.8889 163.553 51.7767 162.271C53.6644 160.988 55.8938 160.302 58.1759 160.302H66.2192Z" fill="#0079C4"/>
<path d="M131.704 173.142C130.795 173.269 129.878 173.333 128.96 173.332C124.888 173.332 120.913 172.083 117.573 169.753C114.233 167.423 111.689 164.124 110.283 160.302H113.408C117.408 160.303 121.309 161.536 124.583 163.833C127.857 166.131 130.343 169.381 131.704 173.142Z" fill="#0079C4"/>
<path d="M124.564 47.4889L120.795 57.7595L122.284 58.3058L126.053 48.0352L124.564 47.4889Z" fill="#0079C4"/>
<path d="M115.377 74.8386C115.978 74.8386 116.464 74.3518 116.464 73.7514C116.464 73.151 115.978 72.6643 115.377 72.6643C114.777 72.6643 114.29 73.151 114.29 73.7514C114.29 74.3518 114.777 74.8386 115.377 74.8386Z" fill="#005386"/>
</g>
</svg>
