<svg width="1440" height="156" viewBox="0 0 1440 156" fill="none" xmlns="http://www.w3.org/2000/svg">
<rect x="-58" y="92" width="263" height="64" rx="32" fill="white"/>
<path d="M14.0261 129.16H18.7261V131H11.7461V117.1H14.0261V129.16ZM25.4128 131.18C24.3728 131.18 23.4328 130.947 22.5928 130.48C21.7528 130 21.0928 129.333 20.6128 128.48C20.1328 127.613 19.8928 126.613 19.8928 125.48C19.8928 124.36 20.1395 123.367 20.6328 122.5C21.1261 121.633 21.7995 120.967 22.6528 120.5C23.5061 120.033 24.4595 119.8 25.5128 119.8C26.5661 119.8 27.5195 120.033 28.3728 120.5C29.2261 120.967 29.8995 121.633 30.3928 122.5C30.8861 123.367 31.1328 124.36 31.1328 125.48C31.1328 126.6 30.8795 127.593 30.3728 128.46C29.8661 129.327 29.1728 130 28.2928 130.48C27.4261 130.947 26.4661 131.18 25.4128 131.18ZM25.4128 129.2C25.9995 129.2 26.5461 129.06 27.0528 128.78C27.5728 128.5 27.9928 128.08 28.3128 127.52C28.6328 126.96 28.7928 126.28 28.7928 125.48C28.7928 124.68 28.6395 124.007 28.3328 123.46C28.0261 122.9 27.6195 122.48 27.1128 122.2C26.6061 121.92 26.0595 121.78 25.4728 121.78C24.8861 121.78 24.3395 121.92 23.8328 122.2C23.3395 122.48 22.9461 122.9 22.6528 123.46C22.3595 124.007 22.2128 124.68 22.2128 125.48C22.2128 126.667 22.5128 127.587 23.1128 128.24C23.7261 128.88 24.4928 129.2 25.4128 129.2ZM37.6467 128.96L40.7667 119.98H43.1867L38.9867 131H36.2667L32.0867 119.98H34.5267L37.6467 128.96ZM55.0102 125.22C55.0102 125.633 54.9835 126.007 54.9302 126.34H46.5102C46.5768 127.22 46.9035 127.927 47.4902 128.46C48.0768 128.993 48.7968 129.26 49.6502 129.26C50.8768 129.26 51.7435 128.747 52.2502 127.72H54.7102C54.3768 128.733 53.7702 129.567 52.8902 130.22C52.0235 130.86 50.9435 131.18 49.6502 131.18C48.5968 131.18 47.6502 130.947 46.8102 130.48C45.9835 130 45.3302 129.333 44.8502 128.48C44.3835 127.613 44.1502 126.613 44.1502 125.48C44.1502 124.347 44.3768 123.353 44.8302 122.5C45.2968 121.633 45.9435 120.967 46.7702 120.5C47.6102 120.033 48.5702 119.8 49.6502 119.8C50.6902 119.8 51.6168 120.027 52.4302 120.48C53.2435 120.933 53.8768 121.573 54.3302 122.4C54.7835 123.213 55.0102 124.153 55.0102 125.22ZM52.6302 124.5C52.6168 123.66 52.3168 122.987 51.7302 122.48C51.1435 121.973 50.4168 121.72 49.5502 121.72C48.7635 121.72 48.0902 121.973 47.5302 122.48C46.9702 122.973 46.6368 123.647 46.5302 124.5H52.6302ZM64.7292 121.58C65.0626 121.02 65.5026 120.587 66.0492 120.28C66.6092 119.96 67.2692 119.8 68.0292 119.8V122.16H67.4492C66.5559 122.16 65.8759 122.387 65.4092 122.84C64.9559 123.293 64.7292 124.08 64.7292 125.2V131H62.4492V119.98H64.7292V121.58ZM80.225 125.22C80.225 125.633 80.1983 126.007 80.145 126.34H71.725C71.7917 127.22 72.1183 127.927 72.705 128.46C73.2917 128.993 74.0117 129.26 74.865 129.26C76.0917 129.26 76.9583 128.747 77.465 127.72H79.925C79.5917 128.733 78.985 129.567 78.105 130.22C77.2383 130.86 76.1583 131.18 74.865 131.18C73.8117 131.18 72.865 130.947 72.025 130.48C71.1983 130 70.545 129.333 70.065 128.48C69.5983 127.613 69.365 126.613 69.365 125.48C69.365 124.347 69.5917 123.353 70.045 122.5C70.5117 121.633 71.1583 120.967 71.985 120.5C72.825 120.033 73.785 119.8 74.865 119.8C75.905 119.8 76.8317 120.027 77.645 120.48C78.4583 120.933 79.0917 121.573 79.545 122.4C79.9983 123.213 80.225 124.153 80.225 125.22ZM77.845 124.5C77.8317 123.66 77.5317 122.987 76.945 122.48C76.3583 121.973 75.6317 121.72 74.765 121.72C73.9783 121.72 73.305 121.973 72.745 122.48C72.185 122.973 71.8517 123.647 71.745 124.5H77.845ZM84.7488 116.2V131H82.4688V116.2H84.7488ZM86.9822 125.44C86.9822 124.333 87.2089 123.353 87.6622 122.5C88.1289 121.647 88.7555 120.987 89.5422 120.52C90.3422 120.04 91.2222 119.8 92.1822 119.8C93.0489 119.8 93.8022 119.973 94.4422 120.32C95.0955 120.653 95.6155 121.073 96.0022 121.58V119.98H98.3022V131H96.0022V129.36C95.6155 129.88 95.0889 130.313 94.4222 130.66C93.7555 131.007 92.9955 131.18 92.1422 131.18C91.1955 131.18 90.3289 130.94 89.5422 130.46C88.7555 129.967 88.1289 129.287 87.6622 128.42C87.2089 127.54 86.9822 126.547 86.9822 125.44ZM96.0022 125.48C96.0022 124.72 95.8422 124.06 95.5222 123.5C95.2155 122.94 94.8089 122.513 94.3022 122.22C93.7955 121.927 93.2489 121.78 92.6622 121.78C92.0755 121.78 91.5289 121.927 91.0222 122.22C90.5155 122.5 90.1022 122.92 89.7822 123.48C89.4755 124.027 89.3222 124.68 89.3222 125.44C89.3222 126.2 89.4755 126.867 89.7822 127.44C90.1022 128.013 90.5155 128.453 91.0222 128.76C91.5422 129.053 92.0889 129.2 92.6622 129.2C93.2489 129.2 93.7955 129.053 94.3022 128.76C94.8089 128.467 95.2155 128.04 95.5222 127.48C95.8422 126.907 96.0022 126.24 96.0022 125.48ZM103.957 121.84V127.94C103.957 128.353 104.05 128.653 104.237 128.84C104.437 129.013 104.77 129.1 105.237 129.1H106.637V131H104.837C103.81 131 103.024 130.76 102.477 130.28C101.93 129.8 101.657 129.02 101.657 127.94V121.84H100.357V119.98H101.657V117.24H103.957V119.98H106.637V121.84H103.957ZM109.898 118.52C109.485 118.52 109.138 118.38 108.858 118.1C108.578 117.82 108.438 117.473 108.438 117.06C108.438 116.647 108.578 116.3 108.858 116.02C109.138 115.74 109.485 115.6 109.898 115.6C110.298 115.6 110.638 115.74 110.918 116.02C111.198 116.3 111.338 116.647 111.338 117.06C111.338 117.473 111.198 117.82 110.918 118.1C110.638 118.38 110.298 118.52 109.898 118.52ZM111.018 119.98V131H108.738V119.98H111.018ZM118.792 131.18C117.752 131.18 116.812 130.947 115.972 130.48C115.132 130 114.472 129.333 113.992 128.48C113.512 127.613 113.272 126.613 113.272 125.48C113.272 124.36 113.518 123.367 114.012 122.5C114.505 121.633 115.178 120.967 116.032 120.5C116.885 120.033 117.838 119.8 118.892 119.8C119.945 119.8 120.898 120.033 121.752 120.5C122.605 120.967 123.278 121.633 123.772 122.5C124.265 123.367 124.512 124.36 124.512 125.48C124.512 126.6 124.258 127.593 123.752 128.46C123.245 129.327 122.552 130 121.672 130.48C120.805 130.947 119.845 131.18 118.792 131.18ZM118.792 129.2C119.378 129.2 119.925 129.06 120.432 128.78C120.952 128.5 121.372 128.08 121.692 127.52C122.012 126.96 122.172 126.28 122.172 125.48C122.172 124.68 122.018 124.007 121.712 123.46C121.405 122.9 120.998 122.48 120.492 122.2C119.985 121.92 119.438 121.78 118.852 121.78C118.265 121.78 117.718 121.92 117.212 122.2C116.718 122.48 116.325 122.9 116.032 123.46C115.738 124.007 115.592 124.68 115.592 125.48C115.592 126.667 115.892 127.587 116.492 128.24C117.105 128.88 117.872 129.2 118.792 129.2ZM132.326 119.8C133.192 119.8 133.966 119.98 134.646 120.34C135.339 120.7 135.879 121.233 136.266 121.94C136.652 122.647 136.846 123.5 136.846 124.5V131H134.586V124.84C134.586 123.853 134.339 123.1 133.846 122.58C133.352 122.047 132.679 121.78 131.826 121.78C130.972 121.78 130.292 122.047 129.786 122.58C129.292 123.1 129.046 123.853 129.046 124.84V131H126.766V119.98H129.046V121.24C129.419 120.787 129.892 120.433 130.466 120.18C131.052 119.927 131.672 119.8 132.326 119.8ZM143.754 131.18C142.887 131.18 142.107 131.027 141.414 130.72C140.734 130.4 140.194 129.973 139.794 129.44C139.394 128.893 139.181 128.287 139.154 127.62H141.514C141.554 128.087 141.774 128.48 142.174 128.8C142.587 129.107 143.101 129.26 143.714 129.26C144.354 129.26 144.847 129.14 145.194 128.9C145.554 128.647 145.734 128.327 145.734 127.94C145.734 127.527 145.534 127.22 145.134 127.02C144.747 126.82 144.127 126.6 143.274 126.36C142.447 126.133 141.774 125.913 141.254 125.7C140.734 125.487 140.281 125.16 139.894 124.72C139.521 124.28 139.334 123.7 139.334 122.98C139.334 122.393 139.507 121.86 139.854 121.38C140.201 120.887 140.694 120.5 141.334 120.22C141.987 119.94 142.734 119.8 143.574 119.8C144.827 119.8 145.834 120.12 146.594 120.76C147.367 121.387 147.781 122.247 147.834 123.34H145.554C145.514 122.847 145.314 122.453 144.954 122.16C144.594 121.867 144.107 121.72 143.494 121.72C142.894 121.72 142.434 121.833 142.114 122.06C141.794 122.287 141.634 122.587 141.634 122.96C141.634 123.253 141.741 123.5 141.954 123.7C142.167 123.9 142.427 124.06 142.734 124.18C143.041 124.287 143.494 124.427 144.094 124.6C144.894 124.813 145.547 125.033 146.054 125.26C146.574 125.473 147.021 125.793 147.394 126.22C147.767 126.647 147.961 127.213 147.974 127.92C147.974 128.547 147.801 129.107 147.454 129.6C147.107 130.093 146.614 130.48 145.974 130.76C145.347 131.04 144.607 131.18 143.754 131.18ZM156.138 119.8C156.978 119.8 157.724 119.98 158.378 120.34C159.044 120.7 159.564 121.233 159.938 121.94C160.324 122.647 160.518 123.5 160.518 124.5V131H158.258V124.84C158.258 123.853 158.011 123.1 157.518 122.58C157.024 122.047 156.351 121.78 155.498 121.78C154.644 121.78 153.964 122.047 153.458 122.58C152.964 123.1 152.718 123.853 152.718 124.84V131H150.438V116.2H152.718V121.26C153.104 120.793 153.591 120.433 154.178 120.18C154.778 119.927 155.431 119.8 156.138 119.8ZM164.586 118.52C164.172 118.52 163.826 118.38 163.546 118.1C163.266 117.82 163.126 117.473 163.126 117.06C163.126 116.647 163.266 116.3 163.546 116.02C163.826 115.74 164.172 115.6 164.586 115.6C164.986 115.6 165.326 115.74 165.606 116.02C165.886 116.3 166.026 116.647 166.026 117.06C166.026 117.473 165.886 117.82 165.606 118.1C165.326 118.38 164.986 118.52 164.586 118.52ZM165.706 119.98V131H163.426V119.98H165.706ZM170.979 121.6C171.366 121.093 171.893 120.667 172.559 120.32C173.226 119.973 173.979 119.8 174.819 119.8C175.779 119.8 176.653 120.04 177.439 120.52C178.239 120.987 178.866 121.647 179.319 122.5C179.773 123.353 179.999 124.333 179.999 125.44C179.999 126.547 179.773 127.54 179.319 128.42C178.866 129.287 178.239 129.967 177.439 130.46C176.653 130.94 175.779 131.18 174.819 131.18C173.979 131.18 173.233 131.013 172.579 130.68C171.926 130.333 171.393 129.907 170.979 129.4V136.24H168.699V119.98H170.979V121.6ZM177.679 125.44C177.679 124.68 177.519 124.027 177.199 123.48C176.893 122.92 176.479 122.5 175.959 122.22C175.453 121.927 174.906 121.78 174.319 121.78C173.746 121.78 173.199 121.927 172.679 122.22C172.173 122.513 171.759 122.94 171.439 123.5C171.133 124.06 170.979 124.72 170.979 125.48C170.979 126.24 171.133 126.907 171.439 127.48C171.759 128.04 172.173 128.467 172.679 128.76C173.199 129.053 173.746 129.2 174.319 129.2C174.906 129.2 175.453 129.053 175.959 128.76C176.479 128.453 176.893 128.013 177.199 127.44C177.519 126.867 177.679 126.2 177.679 125.44Z" fill="#051B29"/>
<rect x="233" y="92" width="286" height="64" rx="32" fill="white"/>
<circle cx="265" cy="124" r="22" fill="#8A49FF"/>
<circle cx="265" cy="124" r="10.5" stroke="white" stroke-width="3"/>
<path d="M317.597 117.1V131H315.317V121.48L311.077 131H309.497L305.237 121.48V131H302.957V117.1H305.417L310.297 128L315.157 117.1H317.597ZM319.834 125.44C319.834 124.333 320.06 123.353 320.514 122.5C320.98 121.647 321.607 120.987 322.394 120.52C323.194 120.04 324.074 119.8 325.034 119.8C325.9 119.8 326.654 119.973 327.294 120.32C327.947 120.653 328.467 121.073 328.854 121.58V119.98H331.154V131H328.854V129.36C328.467 129.88 327.94 130.313 327.274 130.66C326.607 131.007 325.847 131.18 324.994 131.18C324.047 131.18 323.18 130.94 322.394 130.46C321.607 129.967 320.98 129.287 320.514 128.42C320.06 127.54 319.834 126.547 319.834 125.44ZM328.854 125.48C328.854 124.72 328.694 124.06 328.374 123.5C328.067 122.94 327.66 122.513 327.154 122.22C326.647 121.927 326.1 121.78 325.514 121.78C324.927 121.78 324.38 121.927 323.874 122.22C323.367 122.5 322.954 122.92 322.634 123.48C322.327 124.027 322.174 124.68 322.174 125.44C322.174 126.2 322.327 126.867 322.634 127.44C322.954 128.013 323.367 128.453 323.874 128.76C324.394 129.053 324.94 129.2 325.514 129.2C326.1 129.2 326.647 129.053 327.154 128.76C327.66 128.467 328.067 128.04 328.374 127.48C328.694 126.907 328.854 126.24 328.854 125.48ZM336.428 121.58C336.762 121.02 337.202 120.587 337.748 120.28C338.308 119.96 338.968 119.8 339.728 119.8V122.16H339.148C338.255 122.16 337.575 122.387 337.108 122.84C336.655 123.293 336.428 124.08 336.428 125.2V131H334.148V119.98H336.428V121.58ZM344.104 121.58C344.438 121.02 344.878 120.587 345.424 120.28C345.984 119.96 346.644 119.8 347.404 119.8V122.16H346.824C345.931 122.16 345.251 122.387 344.784 122.84C344.331 123.293 344.104 124.08 344.104 125.2V131H341.824V119.98H344.104V121.58ZM350.66 118.52C350.247 118.52 349.9 118.38 349.62 118.1C349.34 117.82 349.2 117.473 349.2 117.06C349.2 116.647 349.34 116.3 349.62 116.02C349.9 115.74 350.247 115.6 350.66 115.6C351.06 115.6 351.4 115.74 351.68 116.02C351.96 116.3 352.1 116.647 352.1 117.06C352.1 117.473 351.96 117.82 351.68 118.1C351.4 118.38 351.06 118.52 350.66 118.52ZM351.78 119.98V131H349.5V119.98H351.78ZM354.013 125.44C354.013 124.333 354.24 123.353 354.693 122.5C355.16 121.647 355.787 120.987 356.573 120.52C357.373 120.04 358.253 119.8 359.213 119.8C360.08 119.8 360.833 119.973 361.473 120.32C362.127 120.653 362.647 121.073 363.033 121.58V119.98H365.333V131H363.033V129.36C362.647 129.88 362.12 130.313 361.453 130.66C360.787 131.007 360.027 131.18 359.173 131.18C358.227 131.18 357.36 130.94 356.573 130.46C355.787 129.967 355.16 129.287 354.693 128.42C354.24 127.54 354.013 126.547 354.013 125.44ZM363.033 125.48C363.033 124.72 362.873 124.06 362.553 123.5C362.247 122.94 361.84 122.513 361.333 122.22C360.827 121.927 360.28 121.78 359.693 121.78C359.107 121.78 358.56 121.927 358.053 122.22C357.547 122.5 357.133 122.92 356.813 123.48C356.507 124.027 356.353 124.68 356.353 125.44C356.353 126.2 356.507 126.867 356.813 127.44C357.133 128.013 357.547 128.453 358.053 128.76C358.573 129.053 359.12 129.2 359.693 129.2C360.28 129.2 360.827 129.053 361.333 128.76C361.84 128.467 362.247 128.04 362.553 127.48C362.873 126.907 363.033 126.24 363.033 125.48ZM372.768 119.8C373.621 119.8 374.375 119.973 375.028 120.32C375.695 120.653 376.215 121.073 376.588 121.58V119.98H378.888V131.18C378.888 132.193 378.675 133.093 378.248 133.88C377.821 134.68 377.201 135.307 376.388 135.76C375.588 136.213 374.628 136.44 373.508 136.44C372.015 136.44 370.775 136.087 369.788 135.38C368.801 134.687 368.241 133.74 368.108 132.54H370.368C370.541 133.113 370.908 133.573 371.468 133.92C372.041 134.28 372.721 134.46 373.508 134.46C374.428 134.46 375.168 134.18 375.728 133.62C376.301 133.06 376.588 132.247 376.588 131.18V129.34C376.201 129.86 375.675 130.3 375.008 130.66C374.355 131.007 373.608 131.18 372.768 131.18C371.808 131.18 370.928 130.94 370.128 130.46C369.341 129.967 368.715 129.287 368.248 128.42C367.795 127.54 367.568 126.547 367.568 125.44C367.568 124.333 367.795 123.353 368.248 122.5C368.715 121.647 369.341 120.987 370.128 120.52C370.928 120.04 371.808 119.8 372.768 119.8ZM376.588 125.48C376.588 124.72 376.428 124.06 376.108 123.5C375.801 122.94 375.395 122.513 374.888 122.22C374.381 121.927 373.835 121.78 373.248 121.78C372.661 121.78 372.115 121.927 371.608 122.22C371.101 122.5 370.688 122.92 370.368 123.48C370.061 124.027 369.908 124.68 369.908 125.44C369.908 126.2 370.061 126.867 370.368 127.44C370.688 128.013 371.101 128.453 371.608 128.76C372.128 129.053 372.675 129.2 373.248 129.2C373.835 129.2 374.381 129.053 374.888 128.76C375.395 128.467 375.801 128.04 376.108 127.48C376.428 126.907 376.588 126.24 376.588 125.48ZM391.983 125.22C391.983 125.633 391.956 126.007 391.903 126.34H383.483C383.549 127.22 383.876 127.927 384.463 128.46C385.049 128.993 385.769 129.26 386.623 129.26C387.849 129.26 388.716 128.747 389.223 127.72H391.683C391.349 128.733 390.743 129.567 389.863 130.22C388.996 130.86 387.916 131.18 386.623 131.18C385.569 131.18 384.623 130.947 383.783 130.48C382.956 130 382.303 129.333 381.823 128.48C381.356 127.613 381.123 126.613 381.123 125.48C381.123 124.347 381.349 123.353 381.803 122.5C382.269 121.633 382.916 120.967 383.743 120.5C384.583 120.033 385.543 119.8 386.623 119.8C387.663 119.8 388.589 120.027 389.403 120.48C390.216 120.933 390.849 121.573 391.303 122.4C391.756 123.213 391.983 124.153 391.983 125.22ZM389.603 124.5C389.589 123.66 389.289 122.987 388.703 122.48C388.116 121.973 387.389 121.72 386.523 121.72C385.736 121.72 385.063 121.973 384.503 122.48C383.943 122.973 383.609 123.647 383.503 124.5H389.603ZM401.702 121.6C402.089 121.093 402.615 120.667 403.282 120.32C403.949 119.973 404.702 119.8 405.542 119.8C406.502 119.8 407.375 120.04 408.162 120.52C408.962 120.987 409.589 121.647 410.042 122.5C410.495 123.353 410.722 124.333 410.722 125.44C410.722 126.547 410.495 127.54 410.042 128.42C409.589 129.287 408.962 129.967 408.162 130.46C407.375 130.94 406.502 131.18 405.542 131.18C404.702 131.18 403.955 131.013 403.302 130.68C402.649 130.333 402.115 129.907 401.702 129.4V136.24H399.422V119.98H401.702V121.6ZM408.402 125.44C408.402 124.68 408.242 124.027 407.922 123.48C407.615 122.92 407.202 122.5 406.682 122.22C406.175 121.927 405.629 121.78 405.042 121.78C404.469 121.78 403.922 121.927 403.402 122.22C402.895 122.513 402.482 122.94 402.162 123.5C401.855 124.06 401.702 124.72 401.702 125.48C401.702 126.24 401.855 126.907 402.162 127.48C402.482 128.04 402.895 128.467 403.402 128.76C403.922 129.053 404.469 129.2 405.042 129.2C405.629 129.2 406.175 129.053 406.682 128.76C407.202 128.453 407.615 128.013 407.922 127.44C408.242 126.867 408.402 126.2 408.402 125.44ZM415.257 121.58C415.59 121.02 416.03 120.587 416.577 120.28C417.137 119.96 417.797 119.8 418.557 119.8V122.16H417.977C417.083 122.16 416.403 122.387 415.937 122.84C415.483 123.293 415.257 124.08 415.257 125.2V131H412.977V119.98H415.257V121.58ZM425.432 131.18C424.392 131.18 423.452 130.947 422.612 130.48C421.772 130 421.112 129.333 420.632 128.48C420.152 127.613 419.912 126.613 419.912 125.48C419.912 124.36 420.159 123.367 420.652 122.5C421.146 121.633 421.819 120.967 422.672 120.5C423.526 120.033 424.479 119.8 425.532 119.8C426.586 119.8 427.539 120.033 428.392 120.5C429.246 120.967 429.919 121.633 430.412 122.5C430.906 123.367 431.152 124.36 431.152 125.48C431.152 126.6 430.899 127.593 430.392 128.46C429.886 129.327 429.192 130 428.312 130.48C427.446 130.947 426.486 131.18 425.432 131.18ZM425.432 129.2C426.019 129.2 426.566 129.06 427.072 128.78C427.592 128.5 428.012 128.08 428.332 127.52C428.652 126.96 428.812 126.28 428.812 125.48C428.812 124.68 428.659 124.007 428.352 123.46C428.046 122.9 427.639 122.48 427.132 122.2C426.626 121.92 426.079 121.78 425.492 121.78C424.906 121.78 424.359 121.92 423.852 122.2C423.359 122.48 422.966 122.9 422.672 123.46C422.379 124.007 422.232 124.68 422.232 125.48C422.232 126.667 422.532 127.587 423.132 128.24C423.746 128.88 424.512 129.2 425.432 129.2ZM435.686 121.62C436.073 121.087 436.6 120.653 437.266 120.32C437.946 119.973 438.7 119.8 439.526 119.8C440.5 119.8 441.38 120.033 442.166 120.5C442.953 120.967 443.573 121.633 444.026 122.5C444.48 123.353 444.706 124.333 444.706 125.44C444.706 126.547 444.48 127.54 444.026 128.42C443.573 129.287 442.946 129.967 442.146 130.46C441.36 130.94 440.486 131.18 439.526 131.18C438.673 131.18 437.913 131.013 437.246 130.68C436.593 130.347 436.073 129.92 435.686 129.4V131H433.406V116.2H435.686V121.62ZM442.386 125.44C442.386 124.68 442.226 124.027 441.906 123.48C441.6 122.92 441.186 122.5 440.666 122.22C440.16 121.927 439.613 121.78 439.026 121.78C438.453 121.78 437.906 121.927 437.386 122.22C436.88 122.513 436.466 122.94 436.146 123.5C435.84 124.06 435.686 124.72 435.686 125.48C435.686 126.24 435.84 126.907 436.146 127.48C436.466 128.04 436.88 128.467 437.386 128.76C437.906 129.053 438.453 129.2 439.026 129.2C439.613 129.2 440.16 129.053 440.666 128.76C441.186 128.453 441.6 128.013 441.906 127.44C442.226 126.867 442.386 126.2 442.386 125.44ZM449.241 116.2V131H446.961V116.2H449.241ZM462.334 125.22C462.334 125.633 462.308 126.007 462.254 126.34H453.834C453.901 127.22 454.228 127.927 454.814 128.46C455.401 128.993 456.121 129.26 456.974 129.26C458.201 129.26 459.068 128.747 459.574 127.72H462.034C461.701 128.733 461.094 129.567 460.214 130.22C459.348 130.86 458.268 131.18 456.974 131.18C455.921 131.18 454.974 130.947 454.134 130.48C453.308 130 452.654 129.333 452.174 128.48C451.708 127.613 451.474 126.613 451.474 125.48C451.474 124.347 451.701 123.353 452.154 122.5C452.621 121.633 453.268 120.967 454.094 120.5C454.934 120.033 455.894 119.8 456.974 119.8C458.014 119.8 458.941 120.027 459.754 120.48C460.568 120.933 461.201 121.573 461.654 122.4C462.108 123.213 462.334 124.153 462.334 125.22ZM459.954 124.5C459.941 123.66 459.641 122.987 459.054 122.48C458.468 121.973 457.741 121.72 456.874 121.72C456.088 121.72 455.414 121.973 454.854 122.48C454.294 122.973 453.961 123.647 453.854 124.5H459.954ZM477.918 119.8C478.785 119.8 479.558 119.98 480.238 120.34C480.931 120.7 481.471 121.233 481.858 121.94C482.258 122.647 482.458 123.5 482.458 124.5V131H480.198V124.84C480.198 123.853 479.951 123.1 479.458 122.58C478.965 122.047 478.291 121.78 477.438 121.78C476.585 121.78 475.905 122.047 475.398 122.58C474.905 123.1 474.658 123.853 474.658 124.84V131H472.398V124.84C472.398 123.853 472.151 123.1 471.658 122.58C471.165 122.047 470.491 121.78 469.638 121.78C468.785 121.78 468.105 122.047 467.598 122.58C467.105 123.1 466.858 123.853 466.858 124.84V131H464.578V119.98H466.858V121.24C467.231 120.787 467.705 120.433 468.278 120.18C468.851 119.927 469.465 119.8 470.118 119.8C470.998 119.8 471.785 119.987 472.478 120.36C473.171 120.733 473.705 121.273 474.078 121.98C474.411 121.313 474.931 120.787 475.638 120.4C476.345 120 477.105 119.8 477.918 119.8ZM489.359 131.18C488.493 131.18 487.713 131.027 487.019 130.72C486.339 130.4 485.799 129.973 485.399 129.44C484.999 128.893 484.786 128.287 484.759 127.62H487.119C487.159 128.087 487.379 128.48 487.779 128.8C488.193 129.107 488.706 129.26 489.319 129.26C489.959 129.26 490.453 129.14 490.799 128.9C491.159 128.647 491.339 128.327 491.339 127.94C491.339 127.527 491.139 127.22 490.739 127.02C490.353 126.82 489.733 126.6 488.879 126.36C488.053 126.133 487.379 125.913 486.859 125.7C486.339 125.487 485.886 125.16 485.499 124.72C485.126 124.28 484.939 123.7 484.939 122.98C484.939 122.393 485.113 121.86 485.459 121.38C485.806 120.887 486.299 120.5 486.939 120.22C487.593 119.94 488.339 119.8 489.179 119.8C490.433 119.8 491.439 120.12 492.199 120.76C492.973 121.387 493.386 122.247 493.439 123.34H491.159C491.119 122.847 490.919 122.453 490.559 122.16C490.199 121.867 489.713 121.72 489.099 121.72C488.499 121.72 488.039 121.833 487.719 122.06C487.399 122.287 487.239 122.587 487.239 122.96C487.239 123.253 487.346 123.5 487.559 123.7C487.773 123.9 488.033 124.06 488.339 124.18C488.646 124.287 489.099 124.427 489.699 124.6C490.499 124.813 491.153 125.033 491.659 125.26C492.179 125.473 492.626 125.793 492.999 126.22C493.373 126.647 493.566 127.213 493.579 127.92C493.579 128.547 493.406 129.107 493.059 129.6C492.713 130.093 492.219 130.48 491.579 130.76C490.953 131.04 490.213 131.18 489.359 131.18Z" fill="#051B29"/>
<rect x="547" y="92" width="229" height="64" rx="32" fill="white"/>
<circle cx="579" cy="124" r="22" fill="#8A49FF"/>
<circle cx="579" cy="124" r="10.5" stroke="white" stroke-width="3"/>
<path d="M631.163 117.1V131H628.883V121.48L624.643 131H623.063L618.803 121.48V131H616.523V117.1H618.983L623.863 128L628.723 117.1H631.163ZM644.26 125.22C644.26 125.633 644.233 126.007 644.18 126.34H635.76C635.827 127.22 636.153 127.927 636.74 128.46C637.327 128.993 638.047 129.26 638.9 129.26C640.127 129.26 640.993 128.747 641.5 127.72H643.96C643.627 128.733 643.02 129.567 642.14 130.22C641.273 130.86 640.193 131.18 638.9 131.18C637.847 131.18 636.9 130.947 636.06 130.48C635.233 130 634.58 129.333 634.1 128.48C633.633 127.613 633.4 126.613 633.4 125.48C633.4 124.347 633.627 123.353 634.08 122.5C634.547 121.633 635.193 120.967 636.02 120.5C636.86 120.033 637.82 119.8 638.9 119.8C639.94 119.8 640.867 120.027 641.68 120.48C642.493 120.933 643.127 121.573 643.58 122.4C644.033 123.213 644.26 124.153 644.26 125.22ZM641.88 124.5C641.867 123.66 641.567 122.987 640.98 122.48C640.393 121.973 639.667 121.72 638.8 121.72C638.013 121.72 637.34 121.973 636.78 122.48C636.22 122.973 635.887 123.647 635.78 124.5H641.88ZM652.064 119.8C652.931 119.8 653.704 119.98 654.384 120.34C655.077 120.7 655.617 121.233 656.004 121.94C656.391 122.647 656.584 123.5 656.584 124.5V131H654.324V124.84C654.324 123.853 654.077 123.1 653.584 122.58C653.091 122.047 652.417 121.78 651.564 121.78C650.711 121.78 650.031 122.047 649.524 122.58C649.031 123.1 648.784 123.853 648.784 124.84V131H646.504V119.98H648.784V121.24C649.157 120.787 649.631 120.433 650.204 120.18C650.791 119.927 651.411 119.8 652.064 119.8ZM662.152 121.84V127.94C662.152 128.353 662.246 128.653 662.432 128.84C662.632 129.013 662.966 129.1 663.432 129.1H664.832V131H663.032C662.006 131 661.219 130.76 660.672 130.28C660.126 129.8 659.852 129.02 659.852 127.94V121.84H658.552V119.98H659.852V117.24H662.152V119.98H664.832V121.84H662.152ZM666.174 125.44C666.174 124.333 666.4 123.353 666.854 122.5C667.32 121.647 667.947 120.987 668.734 120.52C669.534 120.04 670.414 119.8 671.374 119.8C672.24 119.8 672.994 119.973 673.634 120.32C674.287 120.653 674.807 121.073 675.194 121.58V119.98H677.494V131H675.194V129.36C674.807 129.88 674.28 130.313 673.614 130.66C672.947 131.007 672.187 131.18 671.334 131.18C670.387 131.18 669.52 130.94 668.734 130.46C667.947 129.967 667.32 129.287 666.854 128.42C666.4 127.54 666.174 126.547 666.174 125.44ZM675.194 125.48C675.194 124.72 675.034 124.06 674.714 123.5C674.407 122.94 674 122.513 673.494 122.22C672.987 121.927 672.44 121.78 671.854 121.78C671.267 121.78 670.72 121.927 670.214 122.22C669.707 122.5 669.294 122.92 668.974 123.48C668.667 124.027 668.514 124.68 668.514 125.44C668.514 126.2 668.667 126.867 668.974 127.44C669.294 128.013 669.707 128.453 670.214 128.76C670.734 129.053 671.28 129.2 671.854 129.2C672.44 129.2 672.987 129.053 673.494 128.76C674 128.467 674.407 128.04 674.714 127.48C675.034 126.907 675.194 126.24 675.194 125.48ZM682.768 116.2V131H680.488V116.2H682.768ZM693.237 117.1V131H690.957V117.1H693.237ZM698.51 116.2V131H696.23V116.2H698.51ZM703.784 116.2V131H701.504V116.2H703.784ZM712.337 119.8C713.204 119.8 713.977 119.98 714.657 120.34C715.351 120.7 715.891 121.233 716.277 121.94C716.664 122.647 716.857 123.5 716.857 124.5V131H714.597V124.84C714.597 123.853 714.351 123.1 713.857 122.58C713.364 122.047 712.691 121.78 711.837 121.78C710.984 121.78 710.304 122.047 709.797 122.58C709.304 123.1 709.057 123.853 709.057 124.84V131H706.777V119.98H709.057V121.24C709.431 120.787 709.904 120.433 710.477 120.18C711.064 119.927 711.684 119.8 712.337 119.8ZM729.866 125.22C729.866 125.633 729.839 126.007 729.786 126.34H721.366C721.432 127.22 721.759 127.927 722.346 128.46C722.932 128.993 723.652 129.26 724.506 129.26C725.732 129.26 726.599 128.747 727.106 127.72H729.566C729.232 128.733 728.626 129.567 727.746 130.22C726.879 130.86 725.799 131.18 724.506 131.18C723.452 131.18 722.506 130.947 721.666 130.48C720.839 130 720.186 129.333 719.706 128.48C719.239 127.613 719.006 126.613 719.006 125.48C719.006 124.347 719.232 123.353 719.686 122.5C720.152 121.633 720.799 120.967 721.626 120.5C722.466 120.033 723.426 119.8 724.506 119.8C725.546 119.8 726.472 120.027 727.286 120.48C728.099 120.933 728.732 121.573 729.186 122.4C729.639 123.213 729.866 124.153 729.866 125.22ZM727.486 124.5C727.472 123.66 727.172 122.987 726.586 122.48C725.999 121.973 725.272 121.72 724.406 121.72C723.619 121.72 722.946 121.973 722.386 122.48C721.826 122.973 721.492 123.647 721.386 124.5H727.486ZM736.109 131.18C735.243 131.18 734.463 131.027 733.769 130.72C733.089 130.4 732.549 129.973 732.149 129.44C731.749 128.893 731.536 128.287 731.509 127.62H733.869C733.909 128.087 734.129 128.48 734.529 128.8C734.943 129.107 735.456 129.26 736.069 129.26C736.709 129.26 737.203 129.14 737.549 128.9C737.909 128.647 738.089 128.327 738.089 127.94C738.089 127.527 737.889 127.22 737.489 127.02C737.103 126.82 736.483 126.6 735.629 126.36C734.803 126.133 734.129 125.913 733.609 125.7C733.089 125.487 732.636 125.16 732.249 124.72C731.876 124.28 731.689 123.7 731.689 122.98C731.689 122.393 731.863 121.86 732.209 121.38C732.556 120.887 733.049 120.5 733.689 120.22C734.343 119.94 735.089 119.8 735.929 119.8C737.183 119.8 738.189 120.12 738.949 120.76C739.723 121.387 740.136 122.247 740.189 123.34H737.909C737.869 122.847 737.669 122.453 737.309 122.16C736.949 121.867 736.463 121.72 735.849 121.72C735.249 121.72 734.789 121.833 734.469 122.06C734.149 122.287 733.989 122.587 733.989 122.96C733.989 123.253 734.096 123.5 734.309 123.7C734.523 123.9 734.783 124.06 735.089 124.18C735.396 124.287 735.849 124.427 736.449 124.6C737.249 124.813 737.903 125.033 738.409 125.26C738.929 125.473 739.376 125.793 739.749 126.22C740.123 126.647 740.316 127.213 740.329 127.92C740.329 128.547 740.156 129.107 739.809 129.6C739.463 130.093 738.969 130.48 738.329 130.76C737.703 131.04 736.963 131.18 736.109 131.18ZM746.793 131.18C745.926 131.18 745.146 131.027 744.453 130.72C743.773 130.4 743.233 129.973 742.833 129.44C742.433 128.893 742.22 128.287 742.193 127.62H744.553C744.593 128.087 744.813 128.48 745.213 128.8C745.626 129.107 746.14 129.26 746.753 129.26C747.393 129.26 747.886 129.14 748.233 128.9C748.593 128.647 748.773 128.327 748.773 127.94C748.773 127.527 748.573 127.22 748.173 127.02C747.786 126.82 747.166 126.6 746.313 126.36C745.486 126.133 744.813 125.913 744.293 125.7C743.773 125.487 743.32 125.16 742.933 124.72C742.56 124.28 742.373 123.7 742.373 122.98C742.373 122.393 742.546 121.86 742.893 121.38C743.24 120.887 743.733 120.5 744.373 120.22C745.026 119.94 745.773 119.8 746.613 119.8C747.866 119.8 748.873 120.12 749.633 120.76C750.406 121.387 750.82 122.247 750.873 123.34H748.593C748.553 122.847 748.353 122.453 747.993 122.16C747.633 121.867 747.146 121.72 746.533 121.72C745.933 121.72 745.473 121.833 745.153 122.06C744.833 122.287 744.673 122.587 744.673 122.96C744.673 123.253 744.78 123.5 744.993 123.7C745.206 123.9 745.466 124.06 745.773 124.18C746.08 124.287 746.533 124.427 747.133 124.6C747.933 124.813 748.586 125.033 749.093 125.26C749.613 125.473 750.06 125.793 750.433 126.22C750.806 126.647 751 127.213 751.013 127.92C751.013 128.547 750.84 129.107 750.493 129.6C750.146 130.093 749.653 130.48 749.013 130.76C748.386 131.04 747.646 131.18 746.793 131.18Z" fill="#051B29"/>
<rect x="804" y="92" width="149" height="64" rx="32" fill="white"/>
<circle cx="836" cy="124" r="22" fill="#8A49FF"/>
<circle cx="836" cy="124" r="10.5" stroke="white" stroke-width="3"/>
<path d="M882.177 128.16H876.357L875.357 131H872.977L877.957 117.08H880.597L885.577 131H883.177L882.177 128.16ZM881.537 126.3L879.277 119.84L876.997 126.3H881.537ZM892.282 117.1C893.762 117.1 895.056 117.387 896.162 117.96C897.282 118.52 898.142 119.333 898.742 120.4C899.356 121.453 899.662 122.687 899.662 124.1C899.662 125.513 899.356 126.74 898.742 127.78C898.142 128.82 897.282 129.62 896.162 130.18C895.056 130.727 893.762 131 892.282 131H887.742V117.1H892.282ZM892.282 129.14C893.909 129.14 895.156 128.7 896.022 127.82C896.889 126.94 897.322 125.7 897.322 124.1C897.322 122.487 896.889 121.227 896.022 120.32C895.156 119.413 893.909 118.96 892.282 118.96H890.022V129.14H892.282ZM913.022 117.1V131H910.742V124.92H904.202V131H901.922V117.1H904.202V123.06H910.742V117.1H913.022ZM920.563 117.1C922.043 117.1 923.337 117.387 924.443 117.96C925.563 118.52 926.423 119.333 927.023 120.4C927.637 121.453 927.943 122.687 927.943 124.1C927.943 125.513 927.637 126.74 927.023 127.78C926.423 128.82 925.563 129.62 924.443 130.18C923.337 130.727 922.043 131 920.563 131H916.023V117.1H920.563ZM920.563 129.14C922.19 129.14 923.437 128.7 924.303 127.82C925.17 126.94 925.603 125.7 925.603 124.1C925.603 122.487 925.17 121.227 924.303 120.32C923.437 119.413 922.19 118.96 920.563 118.96H918.303V129.14H920.563Z" fill="#051B29"/>
<rect x="981" y="92" width="202" height="64" rx="32" fill="white"/>
<circle cx="1013" cy="124" r="22" fill="#8A49FF"/>
<circle cx="1013" cy="124" r="10.5" stroke="white" stroke-width="3"/>
<path d="M1055.55 131.14C1054.62 131.14 1053.78 130.98 1053.03 130.66C1052.28 130.327 1051.7 129.86 1051.27 129.26C1050.84 128.66 1050.63 127.96 1050.63 127.16H1053.07C1053.12 127.76 1053.36 128.253 1053.77 128.64C1054.2 129.027 1054.79 129.22 1055.55 129.22C1056.34 129.22 1056.95 129.033 1057.39 128.66C1057.83 128.273 1058.05 127.78 1058.05 127.18C1058.05 126.713 1057.91 126.333 1057.63 126.04C1057.36 125.747 1057.02 125.52 1056.61 125.36C1056.21 125.2 1055.65 125.027 1054.93 124.84C1054.02 124.6 1053.28 124.36 1052.71 124.12C1052.15 123.867 1051.67 123.48 1051.27 122.96C1050.87 122.44 1050.67 121.747 1050.67 120.88C1050.67 120.08 1050.87 119.38 1051.27 118.78C1051.67 118.18 1052.23 117.72 1052.95 117.4C1053.67 117.08 1054.5 116.92 1055.45 116.92C1056.8 116.92 1057.9 117.26 1058.75 117.94C1059.62 118.607 1060.1 119.527 1060.19 120.7H1057.67C1057.63 120.193 1057.39 119.76 1056.95 119.4C1056.51 119.04 1055.93 118.86 1055.21 118.86C1054.56 118.86 1054.02 119.027 1053.61 119.36C1053.2 119.693 1052.99 120.173 1052.99 120.8C1052.99 121.227 1053.12 121.58 1053.37 121.86C1053.64 122.127 1053.97 122.34 1054.37 122.5C1054.77 122.66 1055.32 122.833 1056.01 123.02C1056.93 123.273 1057.68 123.527 1058.25 123.78C1058.84 124.033 1059.33 124.427 1059.73 124.96C1060.14 125.48 1060.35 126.18 1060.35 127.06C1060.35 127.767 1060.16 128.433 1059.77 129.06C1059.4 129.687 1058.84 130.193 1058.11 130.58C1057.39 130.953 1056.54 131.14 1055.55 131.14ZM1067.4 125.5L1072.48 131H1069.4L1065.32 126.26V131H1063.04V116.2H1065.32V124.8L1069.32 119.98H1072.48L1067.4 125.5ZM1075.27 118.52C1074.86 118.52 1074.51 118.38 1074.23 118.1C1073.95 117.82 1073.81 117.473 1073.81 117.06C1073.81 116.647 1073.95 116.3 1074.23 116.02C1074.51 115.74 1074.86 115.6 1075.27 115.6C1075.67 115.6 1076.01 115.74 1076.29 116.02C1076.57 116.3 1076.71 116.647 1076.71 117.06C1076.71 117.473 1076.57 117.82 1076.29 118.1C1076.01 118.38 1075.67 118.52 1075.27 118.52ZM1076.39 119.98V131H1074.11V119.98H1076.39ZM1081.41 129.14H1086.41V131H1078.77V129.14L1083.79 121.84H1078.77V119.98H1086.41V121.84L1081.41 129.14ZM1093.58 131.18C1092.54 131.18 1091.6 130.947 1090.76 130.48C1089.92 130 1089.26 129.333 1088.78 128.48C1088.3 127.613 1088.06 126.613 1088.06 125.48C1088.06 124.36 1088.31 123.367 1088.8 122.5C1089.29 121.633 1089.97 120.967 1090.82 120.5C1091.67 120.033 1092.63 119.8 1093.68 119.8C1094.73 119.8 1095.69 120.033 1096.54 120.5C1097.39 120.967 1098.07 121.633 1098.56 122.5C1099.05 123.367 1099.3 124.36 1099.3 125.48C1099.3 126.6 1099.05 127.593 1098.54 128.46C1098.03 129.327 1097.34 130 1096.46 130.48C1095.59 130.947 1094.63 131.18 1093.58 131.18ZM1093.58 129.2C1094.17 129.2 1094.71 129.06 1095.22 128.78C1095.74 128.5 1096.16 128.08 1096.48 127.52C1096.8 126.96 1096.96 126.28 1096.96 125.48C1096.96 124.68 1096.81 124.007 1096.5 123.46C1096.19 122.9 1095.79 122.48 1095.28 122.2C1094.77 121.92 1094.23 121.78 1093.64 121.78C1093.05 121.78 1092.51 121.92 1092 122.2C1091.51 122.48 1091.11 122.9 1090.82 123.46C1090.53 124.007 1090.38 124.68 1090.38 125.48C1090.38 126.667 1090.68 127.587 1091.28 128.24C1091.89 128.88 1092.66 129.2 1093.58 129.2ZM1106.17 121.84H1104.13V131H1101.83V121.84H1100.53V119.98H1101.83V119.2C1101.83 117.933 1102.17 117.013 1102.83 116.44C1103.51 115.853 1104.57 115.56 1106.01 115.56V117.46C1105.32 117.46 1104.83 117.593 1104.55 117.86C1104.27 118.113 1104.13 118.56 1104.13 119.2V119.98H1106.17V121.84ZM1110.48 121.58C1110.81 121.02 1111.25 120.587 1111.8 120.28C1112.36 119.96 1113.02 119.8 1113.78 119.8V122.16H1113.2C1112.3 122.16 1111.62 122.387 1111.16 122.84C1110.7 123.293 1110.48 124.08 1110.48 125.2V131H1108.2V119.98H1110.48V121.58ZM1125.97 125.22C1125.97 125.633 1125.94 126.007 1125.89 126.34H1117.47C1117.54 127.22 1117.86 127.927 1118.45 128.46C1119.04 128.993 1119.76 129.26 1120.61 129.26C1121.84 129.26 1122.7 128.747 1123.21 127.72H1125.67C1125.34 128.733 1124.73 129.567 1123.85 130.22C1122.98 130.86 1121.9 131.18 1120.61 131.18C1119.56 131.18 1118.61 130.947 1117.77 130.48C1116.94 130 1116.29 129.333 1115.81 128.48C1115.34 127.613 1115.11 126.613 1115.11 125.48C1115.11 124.347 1115.34 123.353 1115.79 122.5C1116.26 121.633 1116.9 120.967 1117.73 120.5C1118.57 120.033 1119.53 119.8 1120.61 119.8C1121.65 119.8 1122.58 120.027 1123.39 120.48C1124.2 120.933 1124.84 121.573 1125.29 122.4C1125.74 123.213 1125.97 124.153 1125.97 125.22ZM1123.59 124.5C1123.58 123.66 1123.28 122.987 1122.69 122.48C1122.1 121.973 1121.38 121.72 1120.51 121.72C1119.72 121.72 1119.05 121.973 1118.49 122.48C1117.93 122.973 1117.6 123.647 1117.49 124.5H1123.59ZM1133.77 119.8C1134.64 119.8 1135.41 119.98 1136.09 120.34C1136.79 120.7 1137.33 121.233 1137.71 121.94C1138.1 122.647 1138.29 123.5 1138.29 124.5V131H1136.03V124.84C1136.03 123.853 1135.79 123.1 1135.29 122.58C1134.8 122.047 1134.13 121.78 1133.27 121.78C1132.42 121.78 1131.74 122.047 1131.23 122.58C1130.74 123.1 1130.49 123.853 1130.49 124.84V131H1128.21V119.98H1130.49V121.24C1130.87 120.787 1131.34 120.433 1131.91 120.18C1132.5 119.927 1133.12 119.8 1133.77 119.8ZM1142.36 118.52C1141.95 118.52 1141.6 118.38 1141.32 118.1C1141.04 117.82 1140.9 117.473 1140.9 117.06C1140.9 116.647 1141.04 116.3 1141.32 116.02C1141.6 115.74 1141.95 115.6 1142.36 115.6C1142.76 115.6 1143.1 115.74 1143.38 116.02C1143.66 116.3 1143.8 116.647 1143.8 117.06C1143.8 117.473 1143.66 117.82 1143.38 118.1C1143.1 118.38 1142.76 118.52 1142.36 118.52ZM1143.48 119.98V131H1141.2V119.98H1143.48ZM1145.72 125.44C1145.72 124.333 1145.94 123.353 1146.4 122.5C1146.86 121.647 1147.49 120.987 1148.28 120.52C1149.08 120.04 1149.96 119.8 1150.92 119.8C1151.78 119.8 1152.54 119.973 1153.18 120.32C1153.83 120.653 1154.35 121.073 1154.74 121.58V119.98H1157.04V131H1154.74V129.36C1154.35 129.88 1153.82 130.313 1153.16 130.66C1152.49 131.007 1151.73 131.18 1150.88 131.18C1149.93 131.18 1149.06 130.94 1148.28 130.46C1147.49 129.967 1146.86 129.287 1146.4 128.42C1145.94 127.54 1145.72 126.547 1145.72 125.44ZM1154.74 125.48C1154.74 124.72 1154.58 124.06 1154.26 123.5C1153.95 122.94 1153.54 122.513 1153.04 122.22C1152.53 121.927 1151.98 121.78 1151.4 121.78C1150.81 121.78 1150.26 121.927 1149.76 122.22C1149.25 122.5 1148.84 122.92 1148.52 123.48C1148.21 124.027 1148.06 124.68 1148.06 125.44C1148.06 126.2 1148.21 126.867 1148.52 127.44C1148.84 128.013 1149.25 128.453 1149.76 128.76C1150.28 129.053 1150.82 129.2 1151.4 129.2C1151.98 129.2 1152.53 129.053 1153.04 128.76C1153.54 128.467 1153.95 128.04 1154.26 127.48C1154.58 126.907 1154.74 126.24 1154.74 125.48Z" fill="#051B29"/>
<rect x="1211" y="92" width="255" height="64" rx="32" fill="white"/>
<circle cx="1243" cy="124" r="22" fill="#8A49FF"/>
<circle cx="1243" cy="124" r="10.5" stroke="white" stroke-width="3"/>
<path d="M1282.93 118.94V123.02H1287.73V124.88H1282.93V129.14H1288.33V131H1280.65V117.08H1288.33V118.94H1282.93ZM1290.38 125.44C1290.38 124.333 1290.61 123.353 1291.06 122.5C1291.53 121.647 1292.15 120.987 1292.94 120.52C1293.74 120.04 1294.62 119.8 1295.58 119.8C1296.45 119.8 1297.2 119.973 1297.84 120.32C1298.49 120.653 1299.01 121.073 1299.4 121.58V119.98H1301.7V131H1299.4V129.36C1299.01 129.88 1298.49 130.313 1297.82 130.66C1297.15 131.007 1296.39 131.18 1295.54 131.18C1294.59 131.18 1293.73 130.94 1292.94 130.46C1292.15 129.967 1291.53 129.287 1291.06 128.42C1290.61 127.54 1290.38 126.547 1290.38 125.44ZM1299.4 125.48C1299.4 124.72 1299.24 124.06 1298.92 123.5C1298.61 122.94 1298.21 122.513 1297.7 122.22C1297.19 121.927 1296.65 121.78 1296.06 121.78C1295.47 121.78 1294.93 121.927 1294.42 122.22C1293.91 122.5 1293.5 122.92 1293.18 123.48C1292.87 124.027 1292.72 124.68 1292.72 125.44C1292.72 126.2 1292.87 126.867 1293.18 127.44C1293.5 128.013 1293.91 128.453 1294.42 128.76C1294.94 129.053 1295.49 129.2 1296.06 129.2C1296.65 129.2 1297.19 129.053 1297.7 128.76C1298.21 128.467 1298.61 128.04 1298.92 127.48C1299.24 126.907 1299.4 126.24 1299.4 125.48ZM1307.36 121.84V127.94C1307.36 128.353 1307.45 128.653 1307.64 128.84C1307.84 129.013 1308.17 129.1 1308.64 129.1H1310.04V131H1308.24C1307.21 131 1306.42 130.76 1305.88 130.28C1305.33 129.8 1305.06 129.02 1305.06 127.94V121.84H1303.76V119.98H1305.06V117.24H1307.36V119.98H1310.04V121.84H1307.36ZM1313.3 118.52C1312.88 118.52 1312.54 118.38 1312.26 118.1C1311.98 117.82 1311.84 117.473 1311.84 117.06C1311.84 116.647 1311.98 116.3 1312.26 116.02C1312.54 115.74 1312.88 115.6 1313.3 115.6C1313.7 115.6 1314.04 115.74 1314.32 116.02C1314.6 116.3 1314.74 116.647 1314.74 117.06C1314.74 117.473 1314.6 117.82 1314.32 118.1C1314.04 118.38 1313.7 118.52 1313.3 118.52ZM1314.42 119.98V131H1312.14V119.98H1314.42ZM1322.97 119.8C1323.84 119.8 1324.61 119.98 1325.29 120.34C1325.98 120.7 1326.52 121.233 1326.91 121.94C1327.3 122.647 1327.49 123.5 1327.49 124.5V131H1325.23V124.84C1325.23 123.853 1324.98 123.1 1324.49 122.58C1324 122.047 1323.32 121.78 1322.47 121.78C1321.62 121.78 1320.94 122.047 1320.43 122.58C1319.94 123.1 1319.69 123.853 1319.69 124.84V131H1317.41V119.98H1319.69V121.24C1320.06 120.787 1320.54 120.433 1321.11 120.18C1321.7 119.927 1322.32 119.8 1322.97 119.8ZM1334.84 119.8C1335.69 119.8 1336.45 119.973 1337.1 120.32C1337.77 120.653 1338.29 121.073 1338.66 121.58V119.98H1340.96V131.18C1340.96 132.193 1340.75 133.093 1340.32 133.88C1339.89 134.68 1339.27 135.307 1338.46 135.76C1337.66 136.213 1336.7 136.44 1335.58 136.44C1334.09 136.44 1332.85 136.087 1331.86 135.38C1330.87 134.687 1330.31 133.74 1330.18 132.54H1332.44C1332.61 133.113 1332.98 133.573 1333.54 133.92C1334.11 134.28 1334.79 134.46 1335.58 134.46C1336.5 134.46 1337.24 134.18 1337.8 133.62C1338.37 133.06 1338.66 132.247 1338.66 131.18V129.34C1338.27 129.86 1337.75 130.3 1337.08 130.66C1336.43 131.007 1335.68 131.18 1334.84 131.18C1333.88 131.18 1333 130.94 1332.2 130.46C1331.41 129.967 1330.79 129.287 1330.32 128.42C1329.87 127.54 1329.64 126.547 1329.64 125.44C1329.64 124.333 1329.87 123.353 1330.32 122.5C1330.79 121.647 1331.41 120.987 1332.2 120.52C1333 120.04 1333.88 119.8 1334.84 119.8ZM1338.66 125.48C1338.66 124.72 1338.5 124.06 1338.18 123.5C1337.87 122.94 1337.47 122.513 1336.96 122.22C1336.45 121.927 1335.91 121.78 1335.32 121.78C1334.73 121.78 1334.19 121.927 1333.68 122.22C1333.17 122.5 1332.76 122.92 1332.44 123.48C1332.13 124.027 1331.98 124.68 1331.98 125.44C1331.98 126.2 1332.13 126.867 1332.44 127.44C1332.76 128.013 1333.17 128.453 1333.68 128.76C1334.2 129.053 1334.75 129.2 1335.32 129.2C1335.91 129.2 1336.45 129.053 1336.96 128.76C1337.47 128.467 1337.87 128.04 1338.18 127.48C1338.5 126.907 1338.66 126.24 1338.66 125.48ZM1348.39 125.44C1348.39 124.333 1348.62 123.353 1349.07 122.5C1349.54 121.647 1350.16 120.987 1350.95 120.52C1351.75 120.04 1352.64 119.8 1353.61 119.8C1354.33 119.8 1355.04 119.96 1355.73 120.28C1356.44 120.587 1357 121 1357.41 121.52V116.2H1359.71V131H1357.41V129.34C1357.04 129.873 1356.52 130.313 1355.85 130.66C1355.2 131.007 1354.44 131.18 1353.59 131.18C1352.63 131.18 1351.75 130.94 1350.95 130.46C1350.16 129.967 1349.54 129.287 1349.07 128.42C1348.62 127.54 1348.39 126.547 1348.39 125.44ZM1357.41 125.48C1357.41 124.72 1357.25 124.06 1356.93 123.5C1356.62 122.94 1356.22 122.513 1355.71 122.22C1355.2 121.927 1354.66 121.78 1354.07 121.78C1353.48 121.78 1352.94 121.927 1352.43 122.22C1351.92 122.5 1351.51 122.92 1351.19 123.48C1350.88 124.027 1350.73 124.68 1350.73 125.44C1350.73 126.2 1350.88 126.867 1351.19 127.44C1351.51 128.013 1351.92 128.453 1352.43 128.76C1352.95 129.053 1353.5 129.2 1354.07 129.2C1354.66 129.2 1355.2 129.053 1355.71 128.76C1356.22 128.467 1356.62 128.04 1356.93 127.48C1357.25 126.907 1357.41 126.24 1357.41 125.48ZM1363.86 118.52C1363.45 118.52 1363.1 118.38 1362.82 118.1C1362.54 117.82 1362.4 117.473 1362.4 117.06C1362.4 116.647 1362.54 116.3 1362.82 116.02C1363.1 115.74 1363.45 115.6 1363.86 115.6C1364.26 115.6 1364.6 115.74 1364.88 116.02C1365.16 116.3 1365.3 116.647 1365.3 117.06C1365.3 117.473 1365.16 117.82 1364.88 118.1C1364.6 118.38 1364.26 118.52 1363.86 118.52ZM1364.98 119.98V131H1362.7V119.98H1364.98ZM1371.98 131.18C1371.11 131.18 1370.33 131.027 1369.64 130.72C1368.96 130.4 1368.42 129.973 1368.02 129.44C1367.62 128.893 1367.4 128.287 1367.38 127.62H1369.74C1369.78 128.087 1370 128.48 1370.4 128.8C1370.81 129.107 1371.32 129.26 1371.94 129.26C1372.58 129.26 1373.07 129.14 1373.42 128.9C1373.78 128.647 1373.96 128.327 1373.96 127.94C1373.96 127.527 1373.76 127.22 1373.36 127.02C1372.97 126.82 1372.35 126.6 1371.5 126.36C1370.67 126.133 1370 125.913 1369.48 125.7C1368.96 125.487 1368.5 125.16 1368.12 124.72C1367.74 124.28 1367.56 123.7 1367.56 122.98C1367.56 122.393 1367.73 121.86 1368.08 121.38C1368.42 120.887 1368.92 120.5 1369.56 120.22C1370.21 119.94 1370.96 119.8 1371.8 119.8C1373.05 119.8 1374.06 120.12 1374.82 120.76C1375.59 121.387 1376 122.247 1376.06 123.34H1373.78C1373.74 122.847 1373.54 122.453 1373.18 122.16C1372.82 121.867 1372.33 121.72 1371.72 121.72C1371.12 121.72 1370.66 121.833 1370.34 122.06C1370.02 122.287 1369.86 122.587 1369.86 122.96C1369.86 123.253 1369.96 123.5 1370.18 123.7C1370.39 123.9 1370.65 124.06 1370.96 124.18C1371.26 124.287 1371.72 124.427 1372.32 124.6C1373.12 124.813 1373.77 125.033 1374.28 125.26C1374.8 125.473 1375.24 125.793 1375.62 126.22C1375.99 126.647 1376.18 127.213 1376.2 127.92C1376.2 128.547 1376.02 129.107 1375.68 129.6C1375.33 130.093 1374.84 130.48 1374.2 130.76C1373.57 131.04 1372.83 131.18 1371.98 131.18ZM1383.44 131.18C1382.4 131.18 1381.46 130.947 1380.62 130.48C1379.78 130 1379.12 129.333 1378.64 128.48C1378.16 127.613 1377.92 126.613 1377.92 125.48C1377.92 124.36 1378.17 123.367 1378.66 122.5C1379.15 121.633 1379.83 120.967 1380.68 120.5C1381.53 120.033 1382.49 119.8 1383.54 119.8C1384.59 119.8 1385.55 120.033 1386.4 120.5C1387.25 120.967 1387.93 121.633 1388.42 122.5C1388.91 123.367 1389.16 124.36 1389.16 125.48C1389.16 126.6 1388.91 127.593 1388.4 128.46C1387.89 129.327 1387.2 130 1386.32 130.48C1385.45 130.947 1384.49 131.18 1383.44 131.18ZM1383.44 129.2C1384.03 129.2 1384.57 129.06 1385.08 128.78C1385.6 128.5 1386.02 128.08 1386.34 127.52C1386.66 126.96 1386.82 126.28 1386.82 125.48C1386.82 124.68 1386.67 124.007 1386.36 123.46C1386.05 122.9 1385.65 122.48 1385.14 122.2C1384.63 121.92 1384.09 121.78 1383.5 121.78C1382.91 121.78 1382.37 121.92 1381.86 122.2C1381.37 122.48 1380.97 122.9 1380.68 123.46C1380.39 124.007 1380.24 124.68 1380.24 125.48C1380.24 126.667 1380.54 127.587 1381.14 128.24C1381.75 128.88 1382.52 129.2 1383.44 129.2ZM1393.69 121.58C1394.03 121.02 1394.47 120.587 1395.01 120.28C1395.57 119.96 1396.23 119.8 1396.99 119.8V122.16H1396.41C1395.52 122.16 1394.84 122.387 1394.37 122.84C1393.92 123.293 1393.69 124.08 1393.69 125.2V131H1391.41V119.98H1393.69V121.58ZM1398.33 125.44C1398.33 124.333 1398.56 123.353 1399.01 122.5C1399.48 121.647 1400.1 120.987 1400.89 120.52C1401.69 120.04 1402.58 119.8 1403.55 119.8C1404.27 119.8 1404.98 119.96 1405.67 120.28C1406.38 120.587 1406.94 121 1407.35 121.52V116.2H1409.65V131H1407.35V129.34C1406.98 129.873 1406.46 130.313 1405.79 130.66C1405.14 131.007 1404.38 131.18 1403.53 131.18C1402.57 131.18 1401.69 130.94 1400.89 130.46C1400.1 129.967 1399.48 129.287 1399.01 128.42C1398.56 127.54 1398.33 126.547 1398.33 125.44ZM1407.35 125.48C1407.35 124.72 1407.19 124.06 1406.87 123.5C1406.56 122.94 1406.16 122.513 1405.65 122.22C1405.14 121.927 1404.6 121.78 1404.01 121.78C1403.42 121.78 1402.88 121.927 1402.37 122.22C1401.86 122.5 1401.45 122.92 1401.13 123.48C1400.82 124.027 1400.67 124.68 1400.67 125.44C1400.67 126.2 1400.82 126.867 1401.13 127.44C1401.45 128.013 1401.86 128.453 1402.37 128.76C1402.89 129.053 1403.44 129.2 1404.01 129.2C1404.6 129.2 1405.14 129.053 1405.65 128.76C1406.16 128.467 1406.56 128.04 1406.87 127.48C1407.19 126.907 1407.35 126.24 1407.35 125.48ZM1422.74 125.22C1422.74 125.633 1422.72 126.007 1422.66 126.34H1414.24C1414.31 127.22 1414.64 127.927 1415.22 128.46C1415.81 128.993 1416.53 129.26 1417.38 129.26C1418.61 129.26 1419.48 128.747 1419.98 127.72H1422.44C1422.11 128.733 1421.5 129.567 1420.62 130.22C1419.76 130.86 1418.68 131.18 1417.38 131.18C1416.33 131.18 1415.38 130.947 1414.54 130.48C1413.72 130 1413.06 129.333 1412.58 128.48C1412.12 127.613 1411.88 126.613 1411.88 125.48C1411.88 124.347 1412.11 123.353 1412.56 122.5C1413.03 121.633 1413.68 120.967 1414.5 120.5C1415.34 120.033 1416.3 119.8 1417.38 119.8C1418.42 119.8 1419.35 120.027 1420.16 120.48C1420.98 120.933 1421.61 121.573 1422.06 122.4C1422.52 123.213 1422.74 124.153 1422.74 125.22ZM1420.36 124.5C1420.35 123.66 1420.05 122.987 1419.46 122.48C1418.88 121.973 1418.15 121.72 1417.28 121.72C1416.5 121.72 1415.82 121.973 1415.26 122.48C1414.7 122.973 1414.37 123.647 1414.26 124.5H1420.36ZM1427.27 121.58C1427.6 121.02 1428.04 120.587 1428.59 120.28C1429.15 119.96 1429.81 119.8 1430.57 119.8V122.16H1429.99C1429.09 122.16 1428.41 122.387 1427.95 122.84C1427.49 123.293 1427.27 124.08 1427.27 125.2V131H1424.99V119.98H1427.27V121.58ZM1436.66 131.18C1435.8 131.18 1435.02 131.027 1434.32 130.72C1433.64 130.4 1433.1 129.973 1432.7 129.44C1432.3 128.893 1432.09 128.287 1432.06 127.62H1434.42C1434.46 128.087 1434.68 128.48 1435.08 128.8C1435.5 129.107 1436.01 129.26 1436.62 129.26C1437.26 129.26 1437.76 129.14 1438.1 128.9C1438.46 128.647 1438.64 128.327 1438.64 127.94C1438.64 127.527 1438.44 127.22 1438.04 127.02C1437.66 126.82 1437.04 126.6 1436.18 126.36C1435.36 126.133 1434.68 125.913 1434.16 125.7C1433.64 125.487 1433.19 125.16 1432.8 124.72C1432.43 124.28 1432.24 123.7 1432.24 122.98C1432.24 122.393 1432.42 121.86 1432.76 121.38C1433.11 120.887 1433.6 120.5 1434.24 120.22C1434.9 119.94 1435.64 119.8 1436.48 119.8C1437.74 119.8 1438.74 120.12 1439.5 120.76C1440.28 121.387 1440.69 122.247 1440.74 123.34H1438.46C1438.42 122.847 1438.22 122.453 1437.86 122.16C1437.5 121.867 1437.02 121.72 1436.4 121.72C1435.8 121.72 1435.34 121.833 1435.02 122.06C1434.7 122.287 1434.54 122.587 1434.54 122.96C1434.54 123.253 1434.65 123.5 1434.86 123.7C1435.08 123.9 1435.34 124.06 1435.64 124.18C1435.95 124.287 1436.4 124.427 1437 124.6C1437.8 124.813 1438.46 125.033 1438.96 125.26C1439.48 125.473 1439.93 125.793 1440.3 126.22C1440.68 126.647 1440.87 127.213 1440.88 127.92C1440.88 128.547 1440.71 129.107 1440.36 129.6C1440.02 130.093 1439.52 130.48 1438.88 130.76C1438.26 131.04 1437.52 131.18 1436.66 131.18Z" fill="#051B29"/>
<rect x="1371" width="153" height="64" rx="32" fill="white"/>
<circle cx="1403" cy="32" r="22" fill="#8A49FF"/>
<circle cx="1403" cy="32" r="10.5" stroke="white" stroke-width="3"/>
<rect x="1050" width="293" height="64" rx="32" fill="white"/>
<circle cx="1082" cy="32" r="22" fill="#8A49FF"/>
<circle cx="1082" cy="32" r="10.5" stroke="white" stroke-width="3"/>
<path d="M1129.6 29.24C1129.6 29.9467 1129.44 30.6133 1129.1 31.24C1128.77 31.8667 1128.24 32.38 1127.5 32.78C1126.77 33.1667 1125.83 33.36 1124.68 33.36H1122.16V39H1119.88V25.1H1124.68C1125.75 25.1 1126.65 25.2867 1127.38 25.66C1128.13 26.02 1128.68 26.5133 1129.04 27.14C1129.42 27.7667 1129.6 28.4667 1129.6 29.24ZM1124.68 31.5C1125.55 31.5 1126.2 31.3067 1126.62 30.92C1127.05 30.52 1127.26 29.96 1127.26 29.24C1127.26 27.72 1126.4 26.96 1124.68 26.96H1122.16V31.5H1124.68ZM1141.88 33.22C1141.88 33.6333 1141.85 34.0067 1141.8 34.34H1133.38C1133.44 35.22 1133.77 35.9267 1134.36 36.46C1134.94 36.9933 1135.66 37.26 1136.52 37.26C1137.74 37.26 1138.61 36.7467 1139.12 35.72H1141.58C1141.24 36.7333 1140.64 37.5667 1139.76 38.22C1138.89 38.86 1137.81 39.18 1136.52 39.18C1135.46 39.18 1134.52 38.9467 1133.68 38.48C1132.85 38 1132.2 37.3333 1131.72 36.48C1131.25 35.6133 1131.02 34.6133 1131.02 33.48C1131.02 32.3467 1131.24 31.3533 1131.7 30.5C1132.16 29.6333 1132.81 28.9667 1133.64 28.5C1134.48 28.0333 1135.44 27.8 1136.52 27.8C1137.56 27.8 1138.48 28.0267 1139.3 28.48C1140.11 28.9333 1140.74 29.5733 1141.2 30.4C1141.65 31.2133 1141.88 32.1533 1141.88 33.22ZM1139.5 32.5C1139.48 31.66 1139.18 30.9867 1138.6 30.48C1138.01 29.9733 1137.28 29.72 1136.42 29.72C1135.63 29.72 1134.96 29.9733 1134.4 30.48C1133.84 30.9733 1133.5 31.6467 1133.4 32.5H1139.5ZM1146.4 29.58C1146.73 29.02 1147.17 28.5867 1147.72 28.28C1148.28 27.96 1148.94 27.8 1149.7 27.8V30.16H1149.12C1148.23 30.16 1147.55 30.3867 1147.08 30.84C1146.63 31.2933 1146.4 32.08 1146.4 33.2V39H1144.12V27.98H1146.4V29.58ZM1155.8 39.18C1154.93 39.18 1154.15 39.0267 1153.46 38.72C1152.78 38.4 1152.24 37.9733 1151.84 37.44C1151.44 36.8933 1151.22 36.2867 1151.2 35.62H1153.56C1153.6 36.0867 1153.82 36.48 1154.22 36.8C1154.63 37.1067 1155.14 37.26 1155.76 37.26C1156.4 37.26 1156.89 37.14 1157.24 36.9C1157.6 36.6467 1157.78 36.3267 1157.78 35.94C1157.78 35.5267 1157.58 35.22 1157.18 35.02C1156.79 34.82 1156.17 34.6 1155.32 34.36C1154.49 34.1333 1153.82 33.9133 1153.3 33.7C1152.78 33.4867 1152.32 33.16 1151.94 32.72C1151.56 32.28 1151.38 31.7 1151.38 30.98C1151.38 30.3933 1151.55 29.86 1151.9 29.38C1152.24 28.8867 1152.74 28.5 1153.38 28.22C1154.03 27.94 1154.78 27.8 1155.62 27.8C1156.87 27.8 1157.88 28.12 1158.64 28.76C1159.41 29.3867 1159.82 30.2467 1159.88 31.34H1157.6C1157.56 30.8467 1157.36 30.4533 1157 30.16C1156.64 29.8667 1156.15 29.72 1155.54 29.72C1154.94 29.72 1154.48 29.8333 1154.16 30.06C1153.84 30.2867 1153.68 30.5867 1153.68 30.96C1153.68 31.2533 1153.78 31.5 1154 31.7C1154.21 31.9 1154.47 32.06 1154.78 32.18C1155.08 32.2867 1155.54 32.4267 1156.14 32.6C1156.94 32.8133 1157.59 33.0333 1158.1 33.26C1158.62 33.4733 1159.06 33.7933 1159.44 34.22C1159.81 34.6467 1160 35.2133 1160.02 35.92C1160.02 36.5467 1159.84 37.1067 1159.5 37.6C1159.15 38.0933 1158.66 38.48 1158.02 38.76C1157.39 39.04 1156.65 39.18 1155.8 39.18ZM1167.26 39.18C1166.22 39.18 1165.28 38.9467 1164.44 38.48C1163.6 38 1162.94 37.3333 1162.46 36.48C1161.98 35.6133 1161.74 34.6133 1161.74 33.48C1161.74 32.36 1161.99 31.3667 1162.48 30.5C1162.97 29.6333 1163.65 28.9667 1164.5 28.5C1165.35 28.0333 1166.31 27.8 1167.36 27.8C1168.41 27.8 1169.37 28.0333 1170.22 28.5C1171.07 28.9667 1171.75 29.6333 1172.24 30.5C1172.73 31.3667 1172.98 32.36 1172.98 33.48C1172.98 34.6 1172.73 35.5933 1172.22 36.46C1171.71 37.3267 1171.02 38 1170.14 38.48C1169.27 38.9467 1168.31 39.18 1167.26 39.18ZM1167.26 37.2C1167.85 37.2 1168.39 37.06 1168.9 36.78C1169.42 36.5 1169.84 36.08 1170.16 35.52C1170.48 34.96 1170.64 34.28 1170.64 33.48C1170.64 32.68 1170.49 32.0067 1170.18 31.46C1169.87 30.9 1169.47 30.48 1168.96 30.2C1168.45 29.92 1167.91 29.78 1167.32 29.78C1166.73 29.78 1166.19 29.92 1165.68 30.2C1165.19 30.48 1164.79 30.9 1164.5 31.46C1164.21 32.0067 1164.06 32.68 1164.06 33.48C1164.06 34.6667 1164.36 35.5867 1164.96 36.24C1165.57 36.88 1166.34 37.2 1167.26 37.2ZM1180.79 27.8C1181.66 27.8 1182.43 27.98 1183.11 28.34C1183.81 28.7 1184.35 29.2333 1184.73 29.94C1185.12 30.6467 1185.31 31.5 1185.31 32.5V39H1183.05V32.84C1183.05 31.8533 1182.81 31.1 1182.31 30.58C1181.82 30.0467 1181.15 29.78 1180.29 29.78C1179.44 29.78 1178.76 30.0467 1178.25 30.58C1177.76 31.1 1177.51 31.8533 1177.51 32.84V39H1175.23V27.98H1177.51V29.24C1177.89 28.7867 1178.36 28.4333 1178.93 28.18C1179.52 27.9267 1180.14 27.8 1180.79 27.8ZM1187.46 33.44C1187.46 32.3333 1187.69 31.3533 1188.14 30.5C1188.61 29.6467 1189.24 28.9867 1190.02 28.52C1190.82 28.04 1191.7 27.8 1192.66 27.8C1193.53 27.8 1194.28 27.9733 1194.92 28.32C1195.58 28.6533 1196.1 29.0733 1196.48 29.58V27.98H1198.78V39H1196.48V37.36C1196.1 37.88 1195.57 38.3133 1194.9 38.66C1194.24 39.0067 1193.48 39.18 1192.62 39.18C1191.68 39.18 1190.81 38.94 1190.02 38.46C1189.24 37.9667 1188.61 37.2867 1188.14 36.42C1187.69 35.54 1187.46 34.5467 1187.46 33.44ZM1196.48 33.48C1196.48 32.72 1196.32 32.06 1196 31.5C1195.7 30.94 1195.29 30.5133 1194.78 30.22C1194.28 29.9267 1193.73 29.78 1193.14 29.78C1192.56 29.78 1192.01 29.9267 1191.5 30.22C1191 30.5 1190.58 30.92 1190.26 31.48C1189.96 32.0267 1189.8 32.68 1189.8 33.44C1189.8 34.2 1189.96 34.8667 1190.26 35.44C1190.58 36.0133 1191 36.4533 1191.5 36.76C1192.02 37.0533 1192.57 37.2 1193.14 37.2C1193.73 37.2 1194.28 37.0533 1194.78 36.76C1195.29 36.4667 1195.7 36.04 1196 35.48C1196.32 34.9067 1196.48 34.24 1196.48 33.48ZM1204.06 24.2V39H1201.78V24.2H1204.06ZM1208.21 26.52C1207.8 26.52 1207.45 26.38 1207.17 26.1C1206.89 25.82 1206.75 25.4733 1206.75 25.06C1206.75 24.6467 1206.89 24.3 1207.17 24.02C1207.45 23.74 1207.8 23.6 1208.21 23.6C1208.61 23.6 1208.95 23.74 1209.23 24.02C1209.51 24.3 1209.65 24.6467 1209.65 25.06C1209.65 25.4733 1209.51 25.82 1209.23 26.1C1208.95 26.38 1208.61 26.52 1208.21 26.52ZM1209.33 27.98V39H1207.05V27.98H1209.33ZM1214.98 29.84V35.94C1214.98 36.3533 1215.08 36.6533 1215.26 36.84C1215.46 37.0133 1215.8 37.1 1216.26 37.1H1217.66V39H1215.86C1214.84 39 1214.05 38.76 1213.5 38.28C1212.96 37.8 1212.68 37.02 1212.68 35.94V29.84H1211.38V27.98H1212.68V25.24H1214.98V27.98H1217.66V29.84H1214.98ZM1229.69 27.98L1222.93 44.18H1220.57L1222.81 38.82L1218.47 27.98H1221.01L1224.11 36.38L1227.33 27.98H1229.69ZM1235.84 33.44C1235.84 32.3333 1236.07 31.3533 1236.52 30.5C1236.99 29.6467 1237.61 28.9867 1238.4 28.52C1239.2 28.04 1240.09 27.8 1241.06 27.8C1241.78 27.8 1242.49 27.96 1243.18 28.28C1243.89 28.5867 1244.45 29 1244.86 29.52V24.2H1247.16V39H1244.86V37.34C1244.49 37.8733 1243.97 38.3133 1243.3 38.66C1242.65 39.0067 1241.89 39.18 1241.04 39.18C1240.08 39.18 1239.2 38.94 1238.4 38.46C1237.61 37.9667 1236.99 37.2867 1236.52 36.42C1236.07 35.54 1235.84 34.5467 1235.84 33.44ZM1244.86 33.48C1244.86 32.72 1244.7 32.06 1244.38 31.5C1244.07 30.94 1243.67 30.5133 1243.16 30.22C1242.65 29.9267 1242.11 29.78 1241.52 29.78C1240.93 29.78 1240.39 29.9267 1239.88 30.22C1239.37 30.5 1238.96 30.92 1238.64 31.48C1238.33 32.0267 1238.18 32.68 1238.18 33.44C1238.18 34.2 1238.33 34.8667 1238.64 35.44C1238.96 36.0133 1239.37 36.4533 1239.88 36.76C1240.4 37.0533 1240.95 37.2 1241.52 37.2C1242.11 37.2 1242.65 37.0533 1243.16 36.76C1243.67 36.4667 1244.07 36.04 1244.38 35.48C1244.7 34.9067 1244.86 34.24 1244.86 33.48ZM1251.32 26.52C1250.9 26.52 1250.56 26.38 1250.28 26.1C1250 25.82 1249.86 25.4733 1249.86 25.06C1249.86 24.6467 1250 24.3 1250.28 24.02C1250.56 23.74 1250.9 23.6 1251.32 23.6C1251.72 23.6 1252.06 23.74 1252.34 24.02C1252.62 24.3 1252.76 24.6467 1252.76 25.06C1252.76 25.4733 1252.62 25.82 1252.34 26.1C1252.06 26.38 1251.72 26.52 1251.32 26.52ZM1252.44 27.98V39H1250.16V27.98H1252.44ZM1259.43 39.18C1258.56 39.18 1257.78 39.0267 1257.09 38.72C1256.41 38.4 1255.87 37.9733 1255.47 37.44C1255.07 36.8933 1254.86 36.2867 1254.83 35.62H1257.19C1257.23 36.0867 1257.45 36.48 1257.85 36.8C1258.26 37.1067 1258.78 37.26 1259.39 37.26C1260.03 37.26 1260.52 37.14 1260.87 36.9C1261.23 36.6467 1261.41 36.3267 1261.41 35.94C1261.41 35.5267 1261.21 35.22 1260.81 35.02C1260.42 34.82 1259.8 34.6 1258.95 34.36C1258.12 34.1333 1257.45 33.9133 1256.93 33.7C1256.41 33.4867 1255.96 33.16 1255.57 32.72C1255.2 32.28 1255.01 31.7 1255.01 30.98C1255.01 30.3933 1255.18 29.86 1255.53 29.38C1255.88 28.8867 1256.37 28.5 1257.01 28.22C1257.66 27.94 1258.41 27.8 1259.25 27.8C1260.5 27.8 1261.51 28.12 1262.27 28.76C1263.04 29.3867 1263.46 30.2467 1263.51 31.34H1261.23C1261.19 30.8467 1260.99 30.4533 1260.63 30.16C1260.27 29.8667 1259.78 29.72 1259.17 29.72C1258.57 29.72 1258.11 29.8333 1257.79 30.06C1257.47 30.2867 1257.31 30.5867 1257.31 30.96C1257.31 31.2533 1257.42 31.5 1257.63 31.7C1257.84 31.9 1258.1 32.06 1258.41 32.18C1258.72 32.2867 1259.17 32.4267 1259.77 32.6C1260.57 32.8133 1261.22 33.0333 1261.73 33.26C1262.25 33.4733 1262.7 33.7933 1263.07 34.22C1263.44 34.6467 1263.64 35.2133 1263.65 35.92C1263.65 36.5467 1263.48 37.1067 1263.13 37.6C1262.78 38.0933 1262.29 38.48 1261.65 38.76C1261.02 39.04 1260.28 39.18 1259.43 39.18ZM1270.89 39.18C1269.85 39.18 1268.91 38.9467 1268.07 38.48C1267.23 38 1266.57 37.3333 1266.09 36.48C1265.61 35.6133 1265.37 34.6133 1265.37 33.48C1265.37 32.36 1265.62 31.3667 1266.11 30.5C1266.61 29.6333 1267.28 28.9667 1268.13 28.5C1268.99 28.0333 1269.94 27.8 1270.99 27.8C1272.05 27.8 1273 28.0333 1273.85 28.5C1274.71 28.9667 1275.38 29.6333 1275.87 30.5C1276.37 31.3667 1276.61 32.36 1276.61 33.48C1276.61 34.6 1276.36 35.5933 1275.85 36.46C1275.35 37.3267 1274.65 38 1273.77 38.48C1272.91 38.9467 1271.95 39.18 1270.89 39.18ZM1270.89 37.2C1271.48 37.2 1272.03 37.06 1272.53 36.78C1273.05 36.5 1273.47 36.08 1273.79 35.52C1274.11 34.96 1274.27 34.28 1274.27 33.48C1274.27 32.68 1274.12 32.0067 1273.81 31.46C1273.51 30.9 1273.1 30.48 1272.59 30.2C1272.09 29.92 1271.54 29.78 1270.95 29.78C1270.37 29.78 1269.82 29.92 1269.31 30.2C1268.82 30.48 1268.43 30.9 1268.13 31.46C1267.84 32.0067 1267.69 32.68 1267.69 33.48C1267.69 34.6667 1267.99 35.5867 1268.59 36.24C1269.21 36.88 1269.97 37.2 1270.89 37.2ZM1281.15 29.58C1281.48 29.02 1281.92 28.5867 1282.47 28.28C1283.03 27.96 1283.69 27.8 1284.45 27.8V30.16H1283.87C1282.97 30.16 1282.29 30.3867 1281.83 30.84C1281.37 31.2933 1281.15 32.08 1281.15 33.2V39H1278.87V27.98H1281.15V29.58ZM1285.78 33.44C1285.78 32.3333 1286.01 31.3533 1286.46 30.5C1286.93 29.6467 1287.56 28.9867 1288.34 28.52C1289.14 28.04 1290.03 27.8 1291 27.8C1291.72 27.8 1292.43 27.96 1293.12 28.28C1293.83 28.5867 1294.39 29 1294.8 29.52V24.2H1297.1V39H1294.8V37.34C1294.43 37.8733 1293.91 38.3133 1293.24 38.66C1292.59 39.0067 1291.84 39.18 1290.98 39.18C1290.02 39.18 1289.14 38.94 1288.34 38.46C1287.56 37.9667 1286.93 37.2867 1286.46 36.42C1286.01 35.54 1285.78 34.5467 1285.78 33.44ZM1294.8 33.48C1294.8 32.72 1294.64 32.06 1294.32 31.5C1294.02 30.94 1293.61 30.5133 1293.1 30.22C1292.6 29.9267 1292.05 29.78 1291.46 29.78C1290.88 29.78 1290.33 29.9267 1289.82 30.22C1289.32 30.5 1288.9 30.92 1288.58 31.48C1288.28 32.0267 1288.12 32.68 1288.12 33.44C1288.12 34.2 1288.28 34.8667 1288.58 35.44C1288.9 36.0133 1289.32 36.4533 1289.82 36.76C1290.34 37.0533 1290.89 37.2 1291.46 37.2C1292.05 37.2 1292.6 37.0533 1293.1 36.76C1293.61 36.4667 1294.02 36.04 1294.32 35.48C1294.64 34.9067 1294.8 34.24 1294.8 33.48ZM1310.2 33.22C1310.2 33.6333 1310.17 34.0067 1310.12 34.34H1301.7C1301.76 35.22 1302.09 35.9267 1302.68 36.46C1303.26 36.9933 1303.98 37.26 1304.84 37.26C1306.06 37.26 1306.93 36.7467 1307.44 35.72H1309.9C1309.56 36.7333 1308.96 37.5667 1308.08 38.22C1307.21 38.86 1306.13 39.18 1304.84 39.18C1303.78 39.18 1302.84 38.9467 1302 38.48C1301.17 38 1300.52 37.3333 1300.04 36.48C1299.57 35.6133 1299.34 34.6133 1299.34 33.48C1299.34 32.3467 1299.56 31.3533 1300.02 30.5C1300.48 29.6333 1301.13 28.9667 1301.96 28.5C1302.8 28.0333 1303.76 27.8 1304.84 27.8C1305.88 27.8 1306.8 28.0267 1307.62 28.48C1308.43 28.9333 1309.06 29.5733 1309.52 30.4C1309.97 31.2133 1310.2 32.1533 1310.2 33.22ZM1307.82 32.5C1307.8 31.66 1307.5 30.9867 1306.92 30.48C1306.33 29.9733 1305.6 29.72 1304.74 29.72C1303.95 29.72 1303.28 29.9733 1302.72 30.48C1302.16 30.9733 1301.82 31.6467 1301.72 32.5H1307.82ZM1314.72 29.58C1315.05 29.02 1315.49 28.5867 1316.04 28.28C1316.6 27.96 1317.26 27.8 1318.02 27.8V30.16H1317.44C1316.55 30.16 1315.87 30.3867 1315.4 30.84C1314.95 31.2933 1314.72 32.08 1314.72 33.2V39H1312.44V27.98H1314.72V29.58Z" fill="#051B29"/>
<rect x="850" width="172" height="64" rx="32" fill="white"/>
<circle cx="882" cy="32" r="22" fill="#8A49FF"/>
<circle cx="882" cy="32" r="10.5" stroke="white" stroke-width="3"/>
<path d="M928.558 25.1V26.96H924.858V39H922.578V26.96H918.858V25.1H928.558ZM933.147 29.58C933.481 29.02 933.921 28.5867 934.467 28.28C935.027 27.96 935.687 27.8 936.447 27.8V30.16H935.867C934.974 30.16 934.294 30.3867 933.827 30.84C933.374 31.2933 933.147 32.08 933.147 33.2V39H930.867V27.98H933.147V29.58ZM937.783 33.44C937.783 32.3333 938.01 31.3533 938.463 30.5C938.93 29.6467 939.556 28.9867 940.343 28.52C941.143 28.04 942.023 27.8 942.983 27.8C943.85 27.8 944.603 27.9733 945.243 28.32C945.896 28.6533 946.416 29.0733 946.803 29.58V27.98H949.103V39H946.803V37.36C946.416 37.88 945.89 38.3133 945.223 38.66C944.556 39.0067 943.796 39.18 942.943 39.18C941.996 39.18 941.13 38.94 940.343 38.46C939.556 37.9667 938.93 37.2867 938.463 36.42C938.01 35.54 937.783 34.5467 937.783 33.44ZM946.803 33.48C946.803 32.72 946.643 32.06 946.323 31.5C946.016 30.94 945.61 30.5133 945.103 30.22C944.596 29.9267 944.05 29.78 943.463 29.78C942.876 29.78 942.33 29.9267 941.823 30.22C941.316 30.5 940.903 30.92 940.583 31.48C940.276 32.0267 940.123 32.68 940.123 33.44C940.123 34.2 940.276 34.8667 940.583 35.44C940.903 36.0133 941.316 36.4533 941.823 36.76C942.343 37.0533 942.89 37.2 943.463 37.2C944.05 37.2 944.596 37.0533 945.103 36.76C945.61 36.4667 946.016 36.04 946.323 35.48C946.643 34.9067 946.803 34.24 946.803 33.48ZM962.078 27.98V39H959.798V37.7C959.438 38.1533 958.964 38.5133 958.378 38.78C957.804 39.0333 957.191 39.16 956.538 39.16C955.671 39.16 954.891 38.98 954.198 38.62C953.518 38.26 952.978 37.7267 952.578 37.02C952.191 36.3133 951.998 35.46 951.998 34.46V27.98H954.258V34.12C954.258 35.1067 954.504 35.8667 954.998 36.4C955.491 36.92 956.164 37.18 957.018 37.18C957.871 37.18 958.544 36.92 959.038 36.4C959.544 35.8667 959.798 35.1067 959.798 34.12V27.98H962.078ZM978.426 27.8C979.293 27.8 980.066 27.98 980.746 28.34C981.439 28.7 981.979 29.2333 982.366 29.94C982.766 30.6467 982.966 31.5 982.966 32.5V39H980.706V32.84C980.706 31.8533 980.459 31.1 979.966 30.58C979.473 30.0467 978.799 29.78 977.946 29.78C977.093 29.78 976.413 30.0467 975.906 30.58C975.413 31.1 975.166 31.8533 975.166 32.84V39H972.906V32.84C972.906 31.8533 972.659 31.1 972.166 30.58C971.673 30.0467 970.999 29.78 970.146 29.78C969.293 29.78 968.613 30.0467 968.106 30.58C967.613 31.1 967.366 31.8533 967.366 32.84V39H965.086V27.98H967.366V29.24C967.739 28.7867 968.213 28.4333 968.786 28.18C969.359 27.9267 969.973 27.8 970.626 27.8C971.506 27.8 972.293 27.9867 972.986 28.36C973.679 28.7333 974.213 29.2733 974.586 29.98C974.919 29.3133 975.439 28.7867 976.146 28.4C976.853 28 977.613 27.8 978.426 27.8ZM985.107 33.44C985.107 32.3333 985.334 31.3533 985.787 30.5C986.254 29.6467 986.881 28.9867 987.667 28.52C988.467 28.04 989.347 27.8 990.307 27.8C991.174 27.8 991.927 27.9733 992.567 28.32C993.221 28.6533 993.741 29.0733 994.127 29.58V27.98H996.427V39H994.127V37.36C993.741 37.88 993.214 38.3133 992.547 38.66C991.881 39.0067 991.121 39.18 990.267 39.18C989.321 39.18 988.454 38.94 987.667 38.46C986.881 37.9667 986.254 37.2867 985.787 36.42C985.334 35.54 985.107 34.5467 985.107 33.44ZM994.127 33.48C994.127 32.72 993.967 32.06 993.647 31.5C993.341 30.94 992.934 30.5133 992.427 30.22C991.921 29.9267 991.374 29.78 990.787 29.78C990.201 29.78 989.654 29.9267 989.147 30.22C988.641 30.5 988.227 30.92 987.907 31.48C987.601 32.0267 987.447 32.68 987.447 33.44C987.447 34.2 987.601 34.8667 987.907 35.44C988.227 36.0133 988.641 36.4533 989.147 36.76C989.667 37.0533 990.214 37.2 990.787 37.2C991.374 37.2 991.921 37.0533 992.427 36.76C992.934 36.4667 993.341 36.04 993.647 35.48C993.967 34.9067 994.127 34.24 994.127 33.48Z" fill="#051B29"/>
<rect x="580" width="242" height="64" rx="32" fill="#8A49FF"/>
<circle cx="612" cy="32" r="22" fill="white"/>
<circle cx="612" cy="32" r="10.5" stroke="#8A49FF" stroke-width="3"/>
<path d="M657.758 25.1V26.96H651.858V31.06H656.458V32.92H651.858V39H649.578V25.1H657.758ZM659.111 33.44C659.111 32.3333 659.338 31.3533 659.791 30.5C660.258 29.6467 660.884 28.9867 661.671 28.52C662.471 28.04 663.351 27.8 664.311 27.8C665.178 27.8 665.931 27.9733 666.571 28.32C667.224 28.6533 667.744 29.0733 668.131 29.58V27.98H670.431V39H668.131V37.36C667.744 37.88 667.218 38.3133 666.551 38.66C665.884 39.0067 665.124 39.18 664.271 39.18C663.324 39.18 662.458 38.94 661.671 38.46C660.884 37.9667 660.258 37.2867 659.791 36.42C659.338 35.54 659.111 34.5467 659.111 33.44ZM668.131 33.48C668.131 32.72 667.971 32.06 667.651 31.5C667.344 30.94 666.938 30.5133 666.431 30.22C665.924 29.9267 665.378 29.78 664.791 29.78C664.204 29.78 663.658 29.9267 663.151 30.22C662.644 30.5 662.231 30.92 661.911 31.48C661.604 32.0267 661.451 32.68 661.451 33.44C661.451 34.2 661.604 34.8667 661.911 35.44C662.231 36.0133 662.644 36.4533 663.151 36.76C663.671 37.0533 664.218 37.2 664.791 37.2C665.378 37.2 665.924 37.0533 666.431 36.76C666.938 36.4667 667.344 36.04 667.651 35.48C667.971 34.9067 668.131 34.24 668.131 33.48ZM686.766 27.8C687.632 27.8 688.406 27.98 689.086 28.34C689.779 28.7 690.319 29.2333 690.706 29.94C691.106 30.6467 691.306 31.5 691.306 32.5V39H689.046V32.84C689.046 31.8533 688.799 31.1 688.306 30.58C687.812 30.0467 687.139 29.78 686.286 29.78C685.432 29.78 684.752 30.0467 684.246 30.58C683.752 31.1 683.506 31.8533 683.506 32.84V39H681.246V32.84C681.246 31.8533 680.999 31.1 680.506 30.58C680.012 30.0467 679.339 29.78 678.486 29.78C677.632 29.78 676.952 30.0467 676.446 30.58C675.952 31.1 675.706 31.8533 675.706 32.84V39H673.426V27.98H675.706V29.24C676.079 28.7867 676.552 28.4333 677.126 28.18C677.699 27.9267 678.312 27.8 678.966 27.8C679.846 27.8 680.632 27.9867 681.326 28.36C682.019 28.7333 682.552 29.2733 682.926 29.98C683.259 29.3133 683.779 28.7867 684.486 28.4C685.192 28 685.952 27.8 686.766 27.8ZM695.367 26.52C694.954 26.52 694.607 26.38 694.327 26.1C694.047 25.82 693.907 25.4733 693.907 25.06C693.907 24.6467 694.047 24.3 694.327 24.02C694.607 23.74 694.954 23.6 695.367 23.6C695.767 23.6 696.107 23.74 696.387 24.02C696.667 24.3 696.807 24.6467 696.807 25.06C696.807 25.4733 696.667 25.82 696.387 26.1C696.107 26.38 695.767 26.52 695.367 26.52ZM696.487 27.98V39H694.207V27.98H696.487ZM701.76 24.2V39H699.48V24.2H701.76ZM714.674 27.98L707.914 44.18H705.554L707.794 38.82L703.454 27.98H705.994L709.094 36.38L712.314 27.98H714.674ZM720.83 32.02C720.83 30.66 721.143 29.44 721.77 28.36C722.41 27.28 723.27 26.44 724.35 25.84C725.443 25.2267 726.637 24.92 727.93 24.92C729.41 24.92 730.723 25.2867 731.87 26.02C733.03 26.74 733.87 27.7667 734.39 29.1H731.65C731.29 28.3667 730.79 27.82 730.15 27.46C729.51 27.1 728.77 26.92 727.93 26.92C727.01 26.92 726.19 27.1267 725.47 27.54C724.75 27.9533 724.183 28.5467 723.77 29.32C723.37 30.0933 723.17 30.9933 723.17 32.02C723.17 33.0467 723.37 33.9467 723.77 34.72C724.183 35.4933 724.75 36.0933 725.47 36.52C726.19 36.9333 727.01 37.14 727.93 37.14C728.77 37.14 729.51 36.96 730.15 36.6C730.79 36.24 731.29 35.6933 731.65 34.96H734.39C733.87 36.2933 733.03 37.32 731.87 38.04C730.723 38.76 729.41 39.12 727.93 39.12C726.623 39.12 725.43 38.82 724.35 38.22C723.27 37.6067 722.41 36.76 721.77 35.68C721.143 34.6 720.83 33.38 720.83 32.02ZM741.839 39.18C740.799 39.18 739.859 38.9467 739.019 38.48C738.179 38 737.519 37.3333 737.039 36.48C736.559 35.6133 736.319 34.6133 736.319 33.48C736.319 32.36 736.565 31.3667 737.059 30.5C737.552 29.6333 738.225 28.9667 739.079 28.5C739.932 28.0333 740.885 27.8 741.939 27.8C742.992 27.8 743.945 28.0333 744.799 28.5C745.652 28.9667 746.325 29.6333 746.819 30.5C747.312 31.3667 747.559 32.36 747.559 33.48C747.559 34.6 747.305 35.5933 746.799 36.46C746.292 37.3267 745.599 38 744.719 38.48C743.852 38.9467 742.892 39.18 741.839 39.18ZM741.839 37.2C742.425 37.2 742.972 37.06 743.479 36.78C743.999 36.5 744.419 36.08 744.739 35.52C745.059 34.96 745.219 34.28 745.219 33.48C745.219 32.68 745.065 32.0067 744.759 31.46C744.452 30.9 744.045 30.48 743.539 30.2C743.032 29.92 742.485 29.78 741.899 29.78C741.312 29.78 740.765 29.92 740.259 30.2C739.765 30.48 739.372 30.9 739.079 31.46C738.785 32.0067 738.639 32.68 738.639 33.48C738.639 34.6667 738.939 35.5867 739.539 36.24C740.152 36.88 740.919 37.2 741.839 37.2ZM755.373 27.8C756.239 27.8 757.013 27.98 757.693 28.34C758.386 28.7 758.926 29.2333 759.313 29.94C759.699 30.6467 759.893 31.5 759.893 32.5V39H757.633V32.84C757.633 31.8533 757.386 31.1 756.893 30.58C756.399 30.0467 755.726 29.78 754.873 29.78C754.019 29.78 753.339 30.0467 752.833 30.58C752.339 31.1 752.093 31.8533 752.093 32.84V39H749.813V27.98H752.093V29.24C752.466 28.7867 752.939 28.4333 753.513 28.18C754.099 27.9267 754.719 27.8 755.373 27.8ZM767.421 29.84H765.381V39H763.081V29.84H761.781V27.98H763.081V27.2C763.081 25.9333 763.414 25.0133 764.081 24.44C764.761 23.8533 765.821 23.56 767.261 23.56V25.46C766.567 25.46 766.081 25.5933 765.801 25.86C765.521 26.1133 765.381 26.56 765.381 27.2V27.98H767.421V29.84ZM771.721 24.2V39H769.441V24.2H771.721ZM775.875 26.52C775.462 26.52 775.115 26.38 774.835 26.1C774.555 25.82 774.415 25.4733 774.415 25.06C774.415 24.6467 774.555 24.3 774.835 24.02C775.115 23.74 775.462 23.6 775.875 23.6C776.275 23.6 776.615 23.74 776.895 24.02C777.175 24.3 777.315 24.6467 777.315 25.06C777.315 25.4733 777.175 25.82 776.895 26.1C776.615 26.38 776.275 26.52 775.875 26.52ZM776.995 27.98V39H774.715V27.98H776.995ZM779.228 33.48C779.228 32.3467 779.455 31.3533 779.908 30.5C780.375 29.6333 781.015 28.9667 781.828 28.5C782.642 28.0333 783.575 27.8 784.628 27.8C785.962 27.8 787.062 28.12 787.928 28.76C788.808 29.3867 789.402 30.2867 789.708 31.46H787.248C787.048 30.9133 786.728 30.4867 786.288 30.18C785.848 29.8733 785.295 29.72 784.628 29.72C783.695 29.72 782.948 30.0533 782.388 30.72C781.842 31.3733 781.568 32.2933 781.568 33.48C781.568 34.6667 781.842 35.5933 782.388 36.26C782.948 36.9267 783.695 37.26 784.628 37.26C785.948 37.26 786.822 36.68 787.248 35.52H789.708C789.388 36.64 788.788 37.5333 787.908 38.2C787.028 38.8533 785.935 39.18 784.628 39.18C783.575 39.18 782.642 38.9467 781.828 38.48C781.015 38 780.375 37.3333 779.908 36.48C779.455 35.6133 779.228 34.6133 779.228 33.48ZM794.64 29.84V35.94C794.64 36.3533 794.734 36.6533 794.92 36.84C795.12 37.0133 795.454 37.1 795.92 37.1H797.32V39H795.52C794.494 39 793.707 38.76 793.16 38.28C792.614 37.8 792.34 37.02 792.34 35.94V29.84H791.04V27.98H792.34V25.24H794.64V27.98H797.32V29.84H794.64Z" fill="white"/>
<rect x="369" width="183" height="64" rx="32" fill="white"/>
<circle cx="401" cy="32" r="22" fill="#8A49FF"/>
<circle cx="401" cy="32" r="10.5" stroke="white" stroke-width="3"/>
<path d="M443.297 39.14C442.363 39.14 441.523 38.98 440.777 38.66C440.03 38.3267 439.443 37.86 439.017 37.26C438.59 36.66 438.377 35.96 438.377 35.16H440.817C440.87 35.76 441.103 36.2533 441.517 36.64C441.943 37.0267 442.537 37.22 443.297 37.22C444.083 37.22 444.697 37.0333 445.137 36.66C445.577 36.2733 445.797 35.78 445.797 35.18C445.797 34.7133 445.657 34.3333 445.377 34.04C445.11 33.7467 444.77 33.52 444.357 33.36C443.957 33.2 443.397 33.0267 442.677 32.84C441.77 32.6 441.03 32.36 440.457 32.12C439.897 31.8667 439.417 31.48 439.017 30.96C438.617 30.44 438.417 29.7467 438.417 28.88C438.417 28.08 438.617 27.38 439.017 26.78C439.417 26.18 439.977 25.72 440.697 25.4C441.417 25.08 442.25 24.92 443.197 24.92C444.543 24.92 445.643 25.26 446.497 25.94C447.363 26.6067 447.843 27.5267 447.937 28.7H445.417C445.377 28.1933 445.137 27.76 444.697 27.4C444.257 27.04 443.677 26.86 442.957 26.86C442.303 26.86 441.77 27.0267 441.357 27.36C440.943 27.6933 440.737 28.1733 440.737 28.8C440.737 29.2267 440.863 29.58 441.117 29.86C441.383 30.1267 441.717 30.34 442.117 30.5C442.517 30.66 443.063 30.8333 443.757 31.02C444.677 31.2733 445.423 31.5267 445.997 31.78C446.583 32.0333 447.077 32.4267 447.477 32.96C447.89 33.48 448.097 34.18 448.097 35.06C448.097 35.7667 447.903 36.4333 447.517 37.06C447.143 37.6867 446.59 38.1933 445.857 38.58C445.137 38.9533 444.283 39.14 443.297 39.14ZM460.887 33.22C460.887 33.6333 460.86 34.0067 460.807 34.34H452.387C452.454 35.22 452.78 35.9267 453.367 36.46C453.954 36.9933 454.674 37.26 455.527 37.26C456.754 37.26 457.62 36.7467 458.127 35.72H460.587C460.254 36.7333 459.647 37.5667 458.767 38.22C457.9 38.86 456.82 39.18 455.527 39.18C454.474 39.18 453.527 38.9467 452.687 38.48C451.86 38 451.207 37.3333 450.727 36.48C450.26 35.6133 450.027 34.6133 450.027 33.48C450.027 32.3467 450.254 31.3533 450.707 30.5C451.174 29.6333 451.82 28.9667 452.647 28.5C453.487 28.0333 454.447 27.8 455.527 27.8C456.567 27.8 457.494 28.0267 458.307 28.48C459.12 28.9333 459.754 29.5733 460.207 30.4C460.66 31.2133 460.887 32.1533 460.887 33.22ZM458.507 32.5C458.494 31.66 458.194 30.9867 457.607 30.48C457.02 29.9733 456.294 29.72 455.427 29.72C454.64 29.72 453.967 29.9733 453.407 30.48C452.847 30.9733 452.514 31.6467 452.407 32.5H458.507ZM467.851 33.42L471.411 39H468.831L466.451 35.26L464.211 39H461.831L465.391 33.58L461.831 27.98H464.411L466.791 31.72L469.031 27.98H471.411L467.851 33.42ZM483.091 27.98V39H480.811V37.7C480.451 38.1533 479.978 38.5133 479.391 38.78C478.818 39.0333 478.205 39.16 477.551 39.16C476.685 39.16 475.905 38.98 475.211 38.62C474.531 38.26 473.991 37.7267 473.591 37.02C473.205 36.3133 473.011 35.46 473.011 34.46V27.98H475.271V34.12C475.271 35.1067 475.518 35.8667 476.011 36.4C476.505 36.92 477.178 37.18 478.031 37.18C478.885 37.18 479.558 36.92 480.051 36.4C480.558 35.8667 480.811 35.1067 480.811 34.12V27.98H483.091ZM485.34 33.44C485.34 32.3333 485.566 31.3533 486.02 30.5C486.486 29.6467 487.113 28.9867 487.9 28.52C488.7 28.04 489.58 27.8 490.54 27.8C491.406 27.8 492.16 27.9733 492.8 28.32C493.453 28.6533 493.973 29.0733 494.36 29.58V27.98H496.66V39H494.36V37.36C493.973 37.88 493.446 38.3133 492.78 38.66C492.113 39.0067 491.353 39.18 490.5 39.18C489.553 39.18 488.686 38.94 487.9 38.46C487.113 37.9667 486.486 37.2867 486.02 36.42C485.566 35.54 485.34 34.5467 485.34 33.44ZM494.36 33.48C494.36 32.72 494.2 32.06 493.88 31.5C493.573 30.94 493.166 30.5133 492.66 30.22C492.153 29.9267 491.606 29.78 491.02 29.78C490.433 29.78 489.886 29.9267 489.38 30.22C488.873 30.5 488.46 30.92 488.14 31.48C487.833 32.0267 487.68 32.68 487.68 33.44C487.68 34.2 487.833 34.8667 488.14 35.44C488.46 36.0133 488.873 36.4533 489.38 36.76C489.9 37.0533 490.446 37.2 491.02 37.2C491.606 37.2 492.153 37.0533 492.66 36.76C493.166 36.4667 493.573 36.04 493.88 35.48C494.2 34.9067 494.36 34.24 494.36 33.48ZM501.934 24.2V39H499.654V24.2H501.934ZM506.088 26.52C505.674 26.52 505.328 26.38 505.048 26.1C504.768 25.82 504.628 25.4733 504.628 25.06C504.628 24.6467 504.768 24.3 505.048 24.02C505.328 23.74 505.674 23.6 506.088 23.6C506.488 23.6 506.828 23.74 507.108 24.02C507.388 24.3 507.528 24.6467 507.528 25.06C507.528 25.4733 507.388 25.82 507.108 26.1C506.828 26.38 506.488 26.52 506.088 26.52ZM507.208 27.98V39H504.928V27.98H507.208ZM512.861 29.84V35.94C512.861 36.3533 512.955 36.6533 513.141 36.84C513.341 37.0133 513.675 37.1 514.141 37.1H515.541V39H513.741C512.715 39 511.928 38.76 511.381 38.28C510.835 37.8 510.561 37.02 510.561 35.94V29.84H509.261V27.98H510.561V25.24H512.861V27.98H515.541V29.84H512.861ZM527.563 27.98L520.803 44.18H518.443L520.683 38.82L516.343 27.98H518.883L521.983 36.38L525.203 27.98H527.563Z" fill="#051B29"/>
<rect x="136" width="205" height="64" rx="32" fill="white"/>
<circle cx="168" cy="32" r="22" fill="#8A49FF"/>
<circle cx="168" cy="32" r="10.5" stroke="white" stroke-width="3"/>
<path d="M210.3 25.1C211.78 25.1 213.073 25.3867 214.18 25.96C215.3 26.52 216.16 27.3333 216.76 28.4C217.373 29.4533 217.68 30.6867 217.68 32.1C217.68 33.5133 217.373 34.74 216.76 35.78C216.16 36.82 215.3 37.62 214.18 38.18C213.073 38.7267 211.78 39 210.3 39H205.76V25.1H210.3ZM210.3 37.14C211.926 37.14 213.173 36.7 214.04 35.82C214.906 34.94 215.34 33.7 215.34 32.1C215.34 30.4867 214.906 29.2267 214.04 28.32C213.173 27.4133 211.926 26.96 210.3 26.96H208.04V37.14H210.3ZM230.039 33.22C230.039 33.6333 230.013 34.0067 229.959 34.34H221.539C221.606 35.22 221.933 35.9267 222.519 36.46C223.106 36.9933 223.826 37.26 224.679 37.26C225.906 37.26 226.773 36.7467 227.279 35.72H229.739C229.406 36.7333 228.799 37.5667 227.919 38.22C227.053 38.86 225.973 39.18 224.679 39.18C223.626 39.18 222.679 38.9467 221.839 38.48C221.013 38 220.359 37.3333 219.879 36.48C219.413 35.6133 219.179 34.6133 219.179 33.48C219.179 32.3467 219.406 31.3533 219.859 30.5C220.326 29.6333 220.973 28.9667 221.799 28.5C222.639 28.0333 223.599 27.8 224.679 27.8C225.719 27.8 226.646 28.0267 227.459 28.48C228.273 28.9333 228.906 29.5733 229.359 30.4C229.813 31.2133 230.039 32.1533 230.039 33.22ZM227.659 32.5C227.646 31.66 227.346 30.9867 226.759 30.48C226.173 29.9733 225.446 29.72 224.579 29.72C223.793 29.72 223.119 29.9733 222.559 30.48C221.999 30.9733 221.666 31.6467 221.559 32.5H227.659ZM234.563 29.6C234.95 29.0933 235.477 28.6667 236.143 28.32C236.81 27.9733 237.563 27.8 238.403 27.8C239.363 27.8 240.237 28.04 241.023 28.52C241.823 28.9867 242.45 29.6467 242.903 30.5C243.357 31.3533 243.583 32.3333 243.583 33.44C243.583 34.5467 243.357 35.54 242.903 36.42C242.45 37.2867 241.823 37.9667 241.023 38.46C240.237 38.94 239.363 39.18 238.403 39.18C237.563 39.18 236.817 39.0133 236.163 38.68C235.51 38.3333 234.977 37.9067 234.563 37.4V44.24H232.283V27.98H234.563V29.6ZM241.263 33.44C241.263 32.68 241.103 32.0267 240.783 31.48C240.477 30.92 240.063 30.5 239.543 30.22C239.037 29.9267 238.49 29.78 237.903 29.78C237.33 29.78 236.783 29.9267 236.263 30.22C235.757 30.5133 235.343 30.94 235.023 31.5C234.717 32.06 234.563 32.72 234.563 33.48C234.563 34.24 234.717 34.9067 235.023 35.48C235.343 36.04 235.757 36.4667 236.263 36.76C236.783 37.0533 237.33 37.2 237.903 37.2C238.49 37.2 239.037 37.0533 239.543 36.76C240.063 36.4533 240.477 36.0133 240.783 35.44C241.103 34.8667 241.263 34.2 241.263 33.44ZM248.118 29.58C248.451 29.02 248.891 28.5867 249.438 28.28C249.998 27.96 250.658 27.8 251.418 27.8V30.16H250.838C249.945 30.16 249.265 30.3867 248.798 30.84C248.345 31.2933 248.118 32.08 248.118 33.2V39H245.838V27.98H248.118V29.58ZM263.614 33.22C263.614 33.6333 263.587 34.0067 263.534 34.34H255.114C255.18 35.22 255.507 35.9267 256.094 36.46C256.68 36.9933 257.4 37.26 258.254 37.26C259.48 37.26 260.347 36.7467 260.854 35.72H263.314C262.98 36.7333 262.374 37.5667 261.494 38.22C260.627 38.86 259.547 39.18 258.254 39.18C257.2 39.18 256.254 38.9467 255.414 38.48C254.587 38 253.934 37.3333 253.454 36.48C252.987 35.6133 252.754 34.6133 252.754 33.48C252.754 32.3467 252.98 31.3533 253.434 30.5C253.9 29.6333 254.547 28.9667 255.374 28.5C256.214 28.0333 257.174 27.8 258.254 27.8C259.294 27.8 260.22 28.0267 261.034 28.48C261.847 28.9333 262.48 29.5733 262.934 30.4C263.387 31.2133 263.614 32.1533 263.614 33.22ZM261.234 32.5C261.22 31.66 260.92 30.9867 260.334 30.48C259.747 29.9733 259.02 29.72 258.154 29.72C257.367 29.72 256.694 29.9733 256.134 30.48C255.574 30.9733 255.24 31.6467 255.134 32.5H261.234ZM269.857 39.18C268.991 39.18 268.211 39.0267 267.517 38.72C266.837 38.4 266.297 37.9733 265.897 37.44C265.497 36.8933 265.284 36.2867 265.257 35.62H267.617C267.657 36.0867 267.877 36.48 268.277 36.8C268.691 37.1067 269.204 37.26 269.817 37.26C270.457 37.26 270.951 37.14 271.297 36.9C271.657 36.6467 271.837 36.3267 271.837 35.94C271.837 35.5267 271.637 35.22 271.237 35.02C270.851 34.82 270.231 34.6 269.377 34.36C268.551 34.1333 267.877 33.9133 267.357 33.7C266.837 33.4867 266.384 33.16 265.997 32.72C265.624 32.28 265.437 31.7 265.437 30.98C265.437 30.3933 265.611 29.86 265.957 29.38C266.304 28.8867 266.797 28.5 267.437 28.22C268.091 27.94 268.837 27.8 269.677 27.8C270.931 27.8 271.937 28.12 272.697 28.76C273.471 29.3867 273.884 30.2467 273.937 31.34H271.657C271.617 30.8467 271.417 30.4533 271.057 30.16C270.697 29.8667 270.211 29.72 269.597 29.72C268.997 29.72 268.537 29.8333 268.217 30.06C267.897 30.2867 267.737 30.5867 267.737 30.96C267.737 31.2533 267.844 31.5 268.057 31.7C268.271 31.9 268.531 32.06 268.837 32.18C269.144 32.2867 269.597 32.4267 270.197 32.6C270.997 32.8133 271.651 33.0333 272.157 33.26C272.677 33.4733 273.124 33.7933 273.497 34.22C273.871 34.6467 274.064 35.2133 274.077 35.92C274.077 36.5467 273.904 37.1067 273.557 37.6C273.211 38.0933 272.717 38.48 272.077 38.76C271.451 39.04 270.711 39.18 269.857 39.18ZM280.541 39.18C279.674 39.18 278.894 39.0267 278.201 38.72C277.521 38.4 276.981 37.9733 276.581 37.44C276.181 36.8933 275.968 36.2867 275.941 35.62H278.301C278.341 36.0867 278.561 36.48 278.961 36.8C279.374 37.1067 279.888 37.26 280.501 37.26C281.141 37.26 281.634 37.14 281.981 36.9C282.341 36.6467 282.521 36.3267 282.521 35.94C282.521 35.5267 282.321 35.22 281.921 35.02C281.534 34.82 280.914 34.6 280.061 34.36C279.234 34.1333 278.561 33.9133 278.041 33.7C277.521 33.4867 277.068 33.16 276.681 32.72C276.308 32.28 276.121 31.7 276.121 30.98C276.121 30.3933 276.294 29.86 276.641 29.38C276.988 28.8867 277.481 28.5 278.121 28.22C278.774 27.94 279.521 27.8 280.361 27.8C281.614 27.8 282.621 28.12 283.381 28.76C284.154 29.3867 284.568 30.2467 284.621 31.34H282.341C282.301 30.8467 282.101 30.4533 281.741 30.16C281.381 29.8667 280.894 29.72 280.281 29.72C279.681 29.72 279.221 29.8333 278.901 30.06C278.581 30.2867 278.421 30.5867 278.421 30.96C278.421 31.2533 278.528 31.5 278.741 31.7C278.954 31.9 279.214 32.06 279.521 32.18C279.828 32.2867 280.281 32.4267 280.881 32.6C281.681 32.8133 282.334 33.0333 282.841 33.26C283.361 33.4733 283.808 33.7933 284.181 34.22C284.554 34.6467 284.748 35.2133 284.761 35.92C284.761 36.5467 284.588 37.1067 284.241 37.6C283.894 38.0933 283.401 38.48 282.761 38.76C282.134 39.04 281.394 39.18 280.541 39.18ZM288.385 26.52C287.971 26.52 287.625 26.38 287.345 26.1C287.065 25.82 286.925 25.4733 286.925 25.06C286.925 24.6467 287.065 24.3 287.345 24.02C287.625 23.74 287.971 23.6 288.385 23.6C288.785 23.6 289.125 23.74 289.405 24.02C289.685 24.3 289.825 24.6467 289.825 25.06C289.825 25.4733 289.685 25.82 289.405 26.1C289.125 26.38 288.785 26.52 288.385 26.52ZM289.505 27.98V39H287.225V27.98H289.505ZM297.278 39.18C296.238 39.18 295.298 38.9467 294.458 38.48C293.618 38 292.958 37.3333 292.478 36.48C291.998 35.6133 291.758 34.6133 291.758 33.48C291.758 32.36 292.005 31.3667 292.498 30.5C292.991 29.6333 293.665 28.9667 294.518 28.5C295.371 28.0333 296.325 27.8 297.378 27.8C298.431 27.8 299.385 28.0333 300.238 28.5C301.091 28.9667 301.765 29.6333 302.258 30.5C302.751 31.3667 302.998 32.36 302.998 33.48C302.998 34.6 302.745 35.5933 302.238 36.46C301.731 37.3267 301.038 38 300.158 38.48C299.291 38.9467 298.331 39.18 297.278 39.18ZM297.278 37.2C297.865 37.2 298.411 37.06 298.918 36.78C299.438 36.5 299.858 36.08 300.178 35.52C300.498 34.96 300.658 34.28 300.658 33.48C300.658 32.68 300.505 32.0067 300.198 31.46C299.891 30.9 299.485 30.48 298.978 30.2C298.471 29.92 297.925 29.78 297.338 29.78C296.751 29.78 296.205 29.92 295.698 30.2C295.205 30.48 294.811 30.9 294.518 31.46C294.225 32.0067 294.078 32.68 294.078 33.48C294.078 34.6667 294.378 35.5867 294.978 36.24C295.591 36.88 296.358 37.2 297.278 37.2ZM310.812 27.8C311.679 27.8 312.452 27.98 313.132 28.34C313.825 28.7 314.365 29.2333 314.752 29.94C315.139 30.6467 315.332 31.5 315.332 32.5V39H313.072V32.84C313.072 31.8533 312.825 31.1 312.332 30.58C311.839 30.0467 311.165 29.78 310.312 29.78C309.459 29.78 308.779 30.0467 308.272 30.58C307.779 31.1 307.532 31.8533 307.532 32.84V39H305.252V27.98H307.532V29.24C307.905 28.7867 308.379 28.4333 308.952 28.18C309.539 27.9267 310.159 27.8 310.812 27.8Z" fill="#051B29"/>
<rect x="-45" width="153" height="64" rx="32" fill="white"/>
<circle cx="-13" cy="32" r="22" fill="#8A49FF"/>
<path d="M29.1308 39.14C28.1974 39.14 27.3574 38.98 26.6108 38.66C25.8641 38.3267 25.2774 37.86 24.8508 37.26C24.4241 36.66 24.2108 35.96 24.2108 35.16H26.6508C26.7041 35.76 26.9374 36.2533 27.3508 36.64C27.7774 37.0267 28.3708 37.22 29.1308 37.22C29.9174 37.22 30.5308 37.0333 30.9708 36.66C31.4108 36.2733 31.6308 35.78 31.6308 35.18C31.6308 34.7133 31.4908 34.3333 31.2108 34.04C30.9441 33.7467 30.6041 33.52 30.1908 33.36C29.7908 33.2 29.2308 33.0267 28.5108 32.84C27.6041 32.6 26.8641 32.36 26.2908 32.12C25.7308 31.8667 25.2508 31.48 24.8508 30.96C24.4508 30.44 24.2508 29.7467 24.2508 28.88C24.2508 28.08 24.4508 27.38 24.8508 26.78C25.2508 26.18 25.8108 25.72 26.5308 25.4C27.2508 25.08 28.0841 24.92 29.0308 24.92C30.3774 24.92 31.4774 25.26 32.3308 25.94C33.1974 26.6067 33.6774 27.5267 33.7708 28.7H31.2508C31.2108 28.1933 30.9708 27.76 30.5308 27.4C30.0908 27.04 29.5108 26.86 28.7908 26.86C28.1374 26.86 27.6041 27.0267 27.1908 27.36C26.7774 27.6933 26.5708 28.1733 26.5708 28.8C26.5708 29.2267 26.6974 29.58 26.9508 29.86C27.2174 30.1267 27.5508 30.34 27.9508 30.5C28.3508 30.66 28.8974 30.8333 29.5908 31.02C30.5108 31.2733 31.2574 31.5267 31.8308 31.78C32.4174 32.0333 32.9108 32.4267 33.3108 32.96C33.7241 33.48 33.9308 34.18 33.9308 35.06C33.9308 35.7667 33.7374 36.4333 33.3508 37.06C32.9774 37.6867 32.4241 38.1933 31.6908 38.58C30.9708 38.9533 30.1174 39.14 29.1308 39.14ZM39.2811 29.84V35.94C39.2811 36.3533 39.3744 36.6533 39.5611 36.84C39.7611 37.0133 40.0944 37.1 40.5611 37.1H41.9611V39H40.1611C39.1344 39 38.3478 38.76 37.8011 38.28C37.2544 37.8 36.9811 37.02 36.9811 35.94V29.84H35.6811V27.98H36.9811V25.24H39.2811V27.98H41.9611V29.84H39.2811ZM46.3425 29.58C46.6758 29.02 47.1158 28.5867 47.6625 28.28C48.2225 27.96 48.8825 27.8 49.6425 27.8V30.16H49.0625C48.1692 30.16 47.4892 30.3867 47.0225 30.84C46.5692 31.2933 46.3425 32.08 46.3425 33.2V39H44.0625V27.98H46.3425V29.58ZM61.8383 33.22C61.8383 33.6333 61.8116 34.0067 61.7583 34.34H53.3383C53.4049 35.22 53.7316 35.9267 54.3183 36.46C54.9049 36.9933 55.6249 37.26 56.4783 37.26C57.7049 37.26 58.5716 36.7467 59.0783 35.72H61.5383C61.2049 36.7333 60.5983 37.5667 59.7183 38.22C58.8516 38.86 57.7716 39.18 56.4783 39.18C55.4249 39.18 54.4783 38.9467 53.6383 38.48C52.8116 38 52.1583 37.3333 51.6783 36.48C51.2116 35.6133 50.9783 34.6133 50.9783 33.48C50.9783 32.3467 51.2049 31.3533 51.6583 30.5C52.1249 29.6333 52.7716 28.9667 53.5983 28.5C54.4383 28.0333 55.3983 27.8 56.4783 27.8C57.5183 27.8 58.4449 28.0267 59.2583 28.48C60.0716 28.9333 60.7049 29.5733 61.1583 30.4C61.6116 31.2133 61.8383 32.1533 61.8383 33.22ZM59.4583 32.5C59.4449 31.66 59.1449 30.9867 58.5583 30.48C57.9716 29.9733 57.2449 29.72 56.3783 29.72C55.5916 29.72 54.9183 29.9733 54.3583 30.48C53.7983 30.9733 53.4649 31.6467 53.3583 32.5H59.4583ZM68.082 39.18C67.2154 39.18 66.4354 39.0267 65.742 38.72C65.062 38.4 64.522 37.9733 64.122 37.44C63.722 36.8933 63.5087 36.2867 63.482 35.62H65.842C65.882 36.0867 66.102 36.48 66.502 36.8C66.9154 37.1067 67.4287 37.26 68.042 37.26C68.682 37.26 69.1754 37.14 69.522 36.9C69.882 36.6467 70.062 36.3267 70.062 35.94C70.062 35.5267 69.862 35.22 69.462 35.02C69.0754 34.82 68.4554 34.6 67.602 34.36C66.7754 34.1333 66.102 33.9133 65.582 33.7C65.062 33.4867 64.6087 33.16 64.222 32.72C63.8487 32.28 63.662 31.7 63.662 30.98C63.662 30.3933 63.8354 29.86 64.182 29.38C64.5287 28.8867 65.022 28.5 65.662 28.22C66.3154 27.94 67.062 27.8 67.902 27.8C69.1554 27.8 70.162 28.12 70.922 28.76C71.6954 29.3867 72.1087 30.2467 72.162 31.34H69.882C69.842 30.8467 69.642 30.4533 69.282 30.16C68.922 29.8667 68.4354 29.72 67.822 29.72C67.222 29.72 66.762 29.8333 66.442 30.06C66.122 30.2867 65.962 30.5867 65.962 30.96C65.962 31.2533 66.0687 31.5 66.282 31.7C66.4954 31.9 66.7554 32.06 67.062 32.18C67.3687 32.2867 67.822 32.4267 68.422 32.6C69.222 32.8133 69.8754 33.0333 70.382 33.26C70.902 33.4733 71.3487 33.7933 71.722 34.22C72.0954 34.6467 72.2887 35.2133 72.302 35.92C72.302 36.5467 72.1287 37.1067 71.782 37.6C71.4354 38.0933 70.942 38.48 70.302 38.76C69.6754 39.04 68.9354 39.18 68.082 39.18ZM78.7656 39.18C77.899 39.18 77.119 39.0267 76.4256 38.72C75.7456 38.4 75.2056 37.9733 74.8056 37.44C74.4056 36.8933 74.1923 36.2867 74.1656 35.62H76.5256C76.5656 36.0867 76.7856 36.48 77.1856 36.8C77.599 37.1067 78.1123 37.26 78.7256 37.26C79.3656 37.26 79.859 37.14 80.2056 36.9C80.5656 36.6467 80.7456 36.3267 80.7456 35.94C80.7456 35.5267 80.5456 35.22 80.1456 35.02C79.759 34.82 79.139 34.6 78.2856 34.36C77.459 34.1333 76.7856 33.9133 76.2656 33.7C75.7456 33.4867 75.2923 33.16 74.9056 32.72C74.5323 32.28 74.3456 31.7 74.3456 30.98C74.3456 30.3933 74.519 29.86 74.8656 29.38C75.2123 28.8867 75.7056 28.5 76.3456 28.22C76.999 27.94 77.7456 27.8 78.5856 27.8C79.839 27.8 80.8456 28.12 81.6056 28.76C82.379 29.3867 82.7923 30.2467 82.8456 31.34H80.5656C80.5256 30.8467 80.3256 30.4533 79.9656 30.16C79.6056 29.8667 79.119 29.72 78.5056 29.72C77.9056 29.72 77.4456 29.8333 77.1256 30.06C76.8056 30.2867 76.6456 30.5867 76.6456 30.96C76.6456 31.2533 76.7523 31.5 76.9656 31.7C77.179 31.9 77.439 32.06 77.7456 32.18C78.0523 32.2867 78.5056 32.4267 79.1056 32.6C79.9056 32.8133 80.559 33.0333 81.0656 33.26C81.5856 33.4733 82.0323 33.7933 82.4056 34.22C82.779 34.6467 82.9723 35.2133 82.9856 35.92C82.9856 36.5467 82.8123 37.1067 82.4656 37.6C82.119 38.0933 81.6256 38.48 80.9856 38.76C80.359 39.04 79.619 39.18 78.7656 39.18Z" fill="#051B29"/>
</svg>
