<svg width="219" height="219" viewBox="0 0 219 219" fill="none" xmlns="http://www.w3.org/2000/svg">
<path d="M0 109.5C0 49.0248 49.0248 0 109.5 0V0C169.975 0 219 49.0248 219 109.5V109.5C219 169.975 169.975 219 109.5 219V219C49.0248 219 0 169.975 0 109.5V109.5Z" fill="#EEE4FF"/>
<mask id="mask0_11_2029" style="mask-type:alpha" maskUnits="userSpaceOnUse" x="0" y="0" width="219" height="219">
<path d="M0 109.5C0 49.0248 49.0248 0 109.5 0V0C169.975 0 219 49.0248 219 109.5V109.5C219 169.975 169.975 219 109.5 219V219C49.0248 219 0 169.975 0 109.5V109.5Z" fill="#C4C4C4"/>
</mask>
<g mask="url(#mask0_11_2029)">
<path d="M194.027 229.785H172.293V256.006H60.6982V184.859L42.115 214.196C39.2321 218.748 35.0004 222.285 30.0103 224.316C25.0203 226.346 19.5208 226.768 14.2792 225.523L-63.5254 207.062L-51.4606 161.311L15.4944 178.879L40.5873 127.669C42.7688 123.216 46.1556 119.465 50.3628 116.841C54.57 114.217 59.4288 112.826 64.3871 112.826H153.866C160.553 112.827 167.135 114.494 173.016 117.676C178.897 120.858 183.893 125.456 187.552 131.054L220.317 181.196C233.979 202.081 218.989 229.785 194.027 229.785Z" fill="#0079C4"/>
<path d="M137.729 75.1844C137.491 78.4834 136.066 81.5847 133.72 83.9155C131.373 86.2464 128.262 87.6494 124.961 87.8654L124.779 87.8741L121.724 122.74C121.446 125.938 119.945 128.905 117.533 131.023C115.122 133.141 111.986 134.247 108.779 134.111C105.573 133.974 102.542 132.606 100.32 130.29C98.0968 127.975 96.8533 124.891 96.8479 121.681C96.8454 121.153 96.8773 120.626 96.9434 120.102L98.8269 105.129L98.905 104.478C97.1318 104.486 95.3771 104.117 93.758 103.393C93.7539 103.388 93.7486 103.384 93.7426 103.381C93.7366 103.378 93.7299 103.376 93.7232 103.376C91.9285 102.436 90.27 101.256 88.7932 99.8694L88.7672 99.8434C85.8855 96.7448 83.3337 91.5717 82.674 82.9527C82.2314 77.1547 82.648 69.7857 84.3926 60.4377C84.6745 58.9374 85.0691 57.4606 85.5731 56.0197C87.2487 51.0894 90.2593 46.7206 94.2701 43.3994C98.9224 39.5891 105.458 36.8203 113.808 39.3547C132.374 44.9792 128.433 67.1991 128.433 67.1991L130.568 67.2599C131.813 67.2908 133.03 67.6404 134.101 68.2754C135.289 68.9753 136.258 69.9928 136.899 71.2134C137.54 72.434 137.827 73.8093 137.729 75.1844V75.1844Z" fill="#FFA59C"/>
<path d="M97.3839 85.8777L98.3578 84.9976L94.6402 80.8843L97.5766 66.0638L96.2894 65.8086L93.2246 81.2758L97.3839 85.8777Z" fill="#FC6760"/>
<path d="M134.101 68.2755L128.433 67.1992L124.779 87.8724C118.92 99.9025 108.131 106.725 98.8268 105.128C98.8095 105.128 98.7921 105.119 98.7747 105.119C97.0256 104.797 95.3346 104.215 93.7579 103.392C93.7538 103.386 93.7485 103.382 93.7425 103.379C93.7365 103.376 93.7299 103.374 93.7232 103.374C91.9284 102.434 90.2699 101.255 88.7931 99.8678L88.7671 99.8417C88.2376 99.3383 87.8904 98.9737 87.7689 98.8349C81.9188 92.3598 82.3962 84.4092 82.509 82.9163C82.5698 82.925 82.6219 82.9424 82.674 82.9511C84.5013 83.3589 86.4015 83.3052 88.2029 82.7948C90.4249 82.1352 91.2929 81.0328 93.6103 80.7638C94.9366 80.6354 96.2749 80.7953 97.5336 81.2325C99.6514 81.8574 114.442 86.5792 120.24 81.4147C122.262 79.6094 123.703 71.4244 124.137 67.1974C124.137 67.1974 116.377 65.6004 116.186 56.5562C116.186 56.5562 97.0649 61.0001 85.573 56.018C79.1761 53.2579 75.14 47.564 78.0997 36.5495C86.3715 5.76267 120.24 30.196 120.24 30.196C120.24 30.196 145.94 19.8949 134.101 68.2755Z" fill="#020C2D"/>
<path d="M130.681 81.0571C132.811 79.1033 133.742 77.1322 133.445 75.1975C132.948 71.9513 129.155 70.1424 128.993 70.0669L128.444 71.2387C128.478 71.2551 131.778 72.8366 132.167 75.398C132.392 76.8779 131.598 78.461 129.806 80.1032L130.681 81.0571Z" fill="#FF8579"/>
<path d="M111.842 66.8904C111.954 66.9009 112.065 66.8676 112.153 66.7974C112.241 66.7273 112.298 66.6258 112.313 66.5143C112.327 66.4028 112.298 66.2901 112.231 66.1998C112.164 66.1095 112.065 66.0487 111.954 66.0302C111.656 65.9512 104.632 64.1311 101.365 66.0762C101.315 66.1056 101.272 66.1444 101.238 66.1904C101.203 66.2364 101.178 66.2888 101.164 66.3445C101.15 66.4002 101.147 66.4581 101.155 66.515C101.163 66.5719 101.182 66.6266 101.212 66.676C101.241 66.7254 101.28 66.7686 101.326 66.803C101.372 66.8374 101.424 66.8624 101.48 66.8766C101.536 66.8908 101.594 66.8939 101.651 66.8856C101.707 66.8774 101.762 66.8581 101.812 66.8288C104.769 65.0694 111.665 66.8574 111.733 66.8756C111.769 66.8852 111.805 66.8902 111.842 66.8904V66.8904Z" fill="#020C2D"/>
<path d="M105.418 70.9383C106.375 70.9383 107.151 69.7476 107.151 68.2788C107.151 66.8101 106.375 65.6194 105.418 65.6194C104.461 65.6194 103.685 66.8101 103.685 68.2788C103.685 69.7476 104.461 70.9383 105.418 70.9383Z" fill="#020C2D"/>
<path d="M93.9323 66.8904C94.044 66.9004 94.1552 66.8667 94.2427 66.7965C94.3301 66.7263 94.387 66.625 94.4014 66.5137C94.4158 66.4025 94.3865 66.29 94.3197 66.1999C94.253 66.1097 94.154 66.0489 94.0434 66.0302C93.7465 65.9512 86.722 64.1311 83.4542 66.0762C83.3544 66.1356 83.2823 66.2322 83.2537 66.3448C83.2251 66.4573 83.2425 66.5766 83.3018 66.6764C83.3612 66.7762 83.4578 66.8483 83.5704 66.8769C83.6829 66.9055 83.8022 66.8882 83.902 66.8288C86.8583 65.0694 93.7543 66.8574 93.8238 66.8756C93.8591 66.8853 93.8956 66.8903 93.9323 66.8904Z" fill="#020C2D"/>
<path d="M87.5087 70.9383C88.466 70.9383 89.2421 69.7476 89.2421 68.2788C89.2421 66.8101 88.466 65.6194 87.5087 65.6194C86.5514 65.6194 85.7754 66.8101 85.7754 68.2788C85.7754 69.7476 86.5514 70.9383 87.5087 70.9383Z" fill="#020C2D"/>
<path d="M115.661 61.0183C114.467 60.5555 113.237 60.1903 111.984 59.9264C110.735 59.6592 109.467 59.4872 108.192 59.4117C106.899 59.3314 105.601 59.3747 104.316 59.541C103.006 59.7106 101.719 60.0217 100.476 60.4689C100.153 60.586 99.8889 60.8249 99.7399 61.1344C99.5909 61.4439 99.569 61.7995 99.679 62.125C99.789 62.4504 100.022 62.7199 100.328 62.8756C100.634 63.0314 100.989 63.061 101.317 62.9582C101.341 62.9504 101.364 62.9417 101.387 62.9322L101.465 62.9009C102.503 62.4516 103.586 62.115 104.695 61.8967C105.829 61.6744 106.981 61.5613 108.136 61.5591C109.309 61.5521 110.481 61.6339 111.642 61.8038C112.799 61.9705 113.942 62.2285 115.059 62.5755L115.103 62.5893C115.309 62.6545 115.533 62.6371 115.726 62.5409C115.92 62.4446 116.068 62.277 116.141 62.0733C116.213 61.8696 116.203 61.6458 116.114 61.449C116.025 61.2522 115.862 61.0978 115.661 61.0183V61.0183Z" fill="#020C2D"/>
<path d="M82.3705 59.983C83.2537 59.6461 84.1677 59.3959 85.0993 59.2357C86.0191 59.0747 86.9518 58.9995 87.8855 59.0109C88.8357 59.0192 89.7818 59.1378 90.7047 59.3642C91.6649 59.6012 92.5914 59.9584 93.4622 60.4274C93.7131 60.5838 93.9025 60.8218 93.9987 61.1014C94.0948 61.3811 94.0917 61.6852 93.9899 61.9629C93.9616 62.0942 93.9043 62.2175 93.8222 62.3239C93.7401 62.4302 93.6353 62.5168 93.5154 62.5774C93.3955 62.638 93.2636 62.671 93.1293 62.674C92.9949 62.677 92.8617 62.6499 92.7392 62.5947C92.7227 62.5869 92.7062 62.5774 92.6897 62.5678L92.6341 62.5348C91.9118 62.0773 91.1362 61.7101 90.3245 61.4412C89.516 61.1751 88.6796 61.0029 87.8317 60.9282C86.9783 60.8488 86.1194 60.8488 85.266 60.9282C84.4111 61.0065 83.5656 61.1664 82.7411 61.4056L82.7081 61.4152C82.623 61.4329 82.5352 61.4325 82.4503 61.4139C82.3654 61.3953 82.2854 61.3591 82.2155 61.3074C82.1456 61.2558 82.0874 61.19 82.0447 61.1144C82.002 61.0387 81.9757 60.9549 81.9677 60.8683C81.9248 60.697 81.9413 60.5162 82.0145 60.3554C82.0876 60.1946 82.2131 60.0633 82.3705 59.983Z" fill="#020C2D"/>
<path d="M194.026 229.785H172.293V256.006L171.728 264.599L176.198 265.155L187.916 362.445C139.301 377.939 122.975 319.967 119.069 256.006C118.513 246.936 118.209 237.744 118.105 228.613C117.914 213.38 118.27 198.347 118.895 184.416C120.718 143.995 124.858 112.826 124.858 112.826H153.866C160.553 112.827 167.134 114.494 173.016 117.676C178.897 120.858 183.893 125.456 187.551 131.054L195.545 143.292L220.317 181.196C233.979 202.081 218.989 229.785 194.026 229.785Z" fill="#E7F0FD"/>
<path d="M93.056 256.008C88.7335 311.871 78.7606 362.222 56.7923 359.704V271.675H60.8804L60.6982 256.008V184.861L42.115 214.198C39.232 218.749 35.0004 222.287 30.0103 224.318C25.0202 226.348 19.5208 226.77 14.2792 225.525L-63.5254 207.064L-51.4606 161.313L15.4944 178.881L40.5873 127.671C42.7688 123.218 46.1556 119.467 50.3628 116.843C54.57 114.219 59.4288 112.828 64.3871 112.828H95.2867C95.2867 112.828 98.2985 188.454 93.056 256.008Z" fill="#E7F0FD"/>
<path d="M123.198 104.583L144.91 127.337L133.106 137.939L142.312 150.494L118.295 201.48C118.295 201.48 116.077 119.215 123.198 104.583Z" fill="#E7F0FD"/>
<path d="M99.1842 106.741L83.3533 119.247L88.601 128.434L80.9829 137.66L95.6238 191.229C95.6238 191.229 98.7814 109.805 99.1842 106.741Z" fill="#E7F0FD"/>
<path d="M118.885 201.758L117.707 201.203L141.561 150.566L132.236 137.848L143.976 127.301L122.727 105.033L123.668 104.134L145.845 127.373L133.983 138.03L143.068 150.421L118.885 201.758Z" fill="#96BED5"/>
<path d="M94.9974 191.4L80.2671 137.505L87.8141 128.366L82.5108 119.083L98.7817 106.231L99.5889 107.252L84.1973 119.41L89.3903 128.5L81.701 137.813L96.2533 191.057L94.9974 191.4Z" fill="#96BED5"/>
<path d="M113.186 192.965L105.027 187.576C101.865 185.487 98.1843 184.321 94.3968 184.208L68.2154 183.427C67.5879 183.409 66.9646 183.536 66.3941 183.798C65.8235 184.06 65.3212 184.45 64.9262 184.938C64.5312 185.426 64.2542 185.999 64.1166 186.611C63.9791 187.224 63.9848 187.86 64.1334 188.47L69.5191 210.577C69.8946 212.118 70.7501 213.499 71.9619 214.521C73.1737 215.543 74.6791 216.154 76.2607 216.264L88.7845 217.138C90.8932 217.286 92.9666 217.758 94.9315 218.537L106.562 223.157L113.186 192.965Z" fill="#FFA59C"/>
<path d="M65.0269 191.228L64.8916 192.514L83.2156 194.443L83.351 193.156L65.0269 191.228Z" fill="#FF8579"/>
<path d="M67.1236 199.787L66.9736 201.071L85.0151 203.178L85.165 201.893L67.1236 199.787Z" fill="#FF8579"/>
<path d="M69.0176 207.827L68.812 209.104L83.1375 211.411L83.3431 210.135L69.0176 207.827Z" fill="#FF8579"/>
<path d="M194.027 229.785H172.293L118.106 228.614L104.774 228.327V184.417H171.772C171.772 184.417 157.225 163.603 157.98 161.928L195.546 143.292L220.318 181.197C233.98 202.082 218.99 229.785 194.027 229.785Z" fill="#E7F0FD"/>
<path d="M173.02 185.069H118.05V183.767H170.523C163.962 174.339 156.662 163.268 157.383 161.665L158.571 162.198C158.587 162.165 158.597 162.13 158.6 162.094C158.571 163.518 165.544 174.374 172.304 184.046L173.02 185.069Z" fill="#96BED5"/>
<path d="M153.16 149.364C149.707 141.654 149.26 134.636 151.83 128.504C155.981 118.597 166.419 114.617 166.861 114.456L167.315 115.676C167.213 115.714 156.953 119.635 153.026 129.017C150.606 134.802 151.05 141.468 154.348 148.832L153.16 149.364Z" fill="#96BED5"/>
<path d="M94.7358 93.8041C93.7522 93.8128 92.7698 93.7335 91.8003 93.5671L92.0485 92.2894C92.1223 92.3033 99.4497 93.6496 104.33 89.104L105.218 90.0588C101.845 93.1982 97.5506 93.8041 94.7358 93.8041Z" fill="#FC6760"/>
</g>
</svg>
