<svg width="219" height="219" viewBox="0 0 219 219" fill="none" xmlns="http://www.w3.org/2000/svg">
<path d="M0 109.5C0 49.0248 49.0248 0 109.5 0V0C169.975 0 219 49.0248 219 109.5V109.5C219 169.975 169.975 219 109.5 219V219C49.0248 219 0 169.975 0 109.5V109.5Z" fill="#EEE4FF"/>
<mask id="mask0_11_2032" style="mask-type:alpha" maskUnits="userSpaceOnUse" x="0" y="0" width="219" height="219">
<path d="M0 109.5C0 49.0248 49.0248 0 109.5 0V0C169.975 0 219 49.0248 219 109.5V109.5C219 169.975 169.975 219 109.5 219V219C49.0248 219 0 169.975 0 109.5V109.5Z" fill="#C4C4C4"/>
</mask>
<g mask="url(#mask0_11_2032)">
<path d="M-26.0605 124.28V247.326C-26.0605 284.724 18.4328 304.244 45.9554 278.913L52.134 273.217L68.2054 291.974L70.7443 294.938C85.7969 300.072 101.425 303.33 117.275 304.64C137.635 306.339 161.711 304.861 183.075 294.32L194.844 275.273L196.109 273.217L223.892 272.357C248.065 271.605 263.124 245.829 251.907 224.408L217.115 157.952C214.148 152.286 209.688 147.541 204.217 144.229C198.746 140.918 192.473 139.167 186.078 139.166H73.0828C65.0763 139.166 57.317 141.94 51.1251 147.016C44.9332 152.092 40.6913 159.156 39.121 167.007L27.3046 226.049V124.28C27.3046 124.28 -3.72213 144.138 -26.0605 124.28Z" fill="#0079C4"/>
<path d="M124.739 429.606C124.739 429.606 161.356 415.338 227.763 426.507C227.763 426.507 194.245 366.925 201.698 299.282L196.524 299.494L194.844 275.273L196.109 273.217L223.892 272.357C248.065 271.605 263.124 245.829 251.907 224.408L227.357 177.52L217.115 157.952C214.148 152.286 209.688 147.541 204.217 144.229C198.746 140.918 192.473 139.167 186.078 139.166H127.848C127.848 139.166 124.033 179.084 120.859 229.775C119.961 244.005 119.121 259.094 118.423 274.375C117.97 284.434 117.574 294.58 117.274 304.64C115.694 358.362 116.746 409.372 124.739 429.606Z" fill="#E7F0FD"/>
<path d="M-26.0609 124.28V247.326C-26.0609 284.724 18.4324 304.244 45.955 278.913L52.1336 273.217C51.5159 289.348 39.7148 305.238 39.7148 305.238L34.1353 301.145C4.34642 358.237 -1.86298 429.606 -1.86298 429.606C2.48116 426.498 25.447 429.606 25.447 429.606C25.447 429.606 20.4754 376.859 53.9923 322.248C59.235 313.705 63.9647 303.356 68.2025 291.972C74.3332 275.521 79.459 256.907 83.6684 238.49C83.6684 238.49 83.6781 238.442 83.6967 238.355C83.7154 238.268 83.7552 238.162 83.7836 238.008C95.2138 187.837 99.915 139.164 99.915 139.164H73.0783C65.0718 139.164 57.3125 141.937 51.1206 147.013C44.9287 152.089 40.6868 159.154 39.1166 167.005L27.3001 226.047V124.28H-26.0609Z" fill="#E7F0FD"/>
<path d="M73.0829 139.166H99.9197C99.9197 139.166 99.8904 139.491 99.8231 140.112C100.189 140.498 100.464 140.96 100.63 141.465C100.795 141.971 100.846 142.506 100.779 143.034L104.95 142.985L121.293 102.295L86.3175 69.8784L83.1129 69.2022C83.1032 69.2022 83.0934 69.1933 83.0837 69.1933L82.9871 69.1738C82.9871 69.1738 78.9717 90.4984 78.9717 107.614C78.9717 123.442 71.4417 123.756 70.669 139.26C71.4701 139.198 72.272 139.166 73.0829 139.166Z" fill="#FFD492"/>
<path d="M130.908 103.178L127.485 142.191C127.18 145.666 125.585 148.899 123.013 151.255C120.442 153.611 117.081 154.918 113.594 154.918C111.616 154.918 109.661 154.497 107.858 153.684C106.055 152.87 104.446 151.682 103.137 150.199C101.829 148.716 100.851 146.972 100.268 145.082C99.6853 143.192 99.5113 141.199 99.7576 139.237L101.949 121.754C101.949 121.754 76.2187 123.341 85.7154 72.4847C87.0354 65.024 90.9471 58.2688 96.7608 53.4101C101.973 49.1488 109.281 46.0538 118.629 48.8866C139.403 55.1821 134.997 80.0472 134.997 80.0472L137.381 80.1154C138.497 80.1474 139.594 80.4048 140.608 80.8722C141.622 81.3396 142.53 82.0074 143.279 82.8352C144.028 83.663 144.601 84.6338 144.965 85.6891C145.329 86.7444 145.475 87.8624 145.395 88.9757V88.9757C145.131 92.6687 143.537 96.1408 140.91 98.7497C138.283 101.359 134.8 102.928 131.105 103.166L130.908 103.178Z" fill="#FFD1CC"/>
<path d="M137.508 95.548C139.894 93.3621 140.935 91.156 140.603 88.9912C140.046 85.3597 135.801 83.3354 135.621 83.251L135.007 84.5618C135.044 84.5797 138.741 86.3476 139.172 89.216C139.424 90.8719 138.535 92.643 136.53 94.4806L137.508 95.548Z" fill="#FFC1BB"/>
<path d="M100.251 100.943L101.341 99.9573L97.1814 95.3551L100.467 78.7716L99.0264 78.4858L95.5978 95.7926L100.251 100.943Z" fill="#FFC1BB"/>
<path d="M110.778 103.214L97.7914 106.739C97.7173 106.758 97.649 106.795 97.5922 106.846C97.5354 106.898 97.4918 106.962 97.4652 107.034C97.4385 107.105 97.4296 107.183 97.4392 107.258C97.4488 107.334 97.4766 107.407 97.5203 107.47C99.082 109.712 105.4 117.333 111.346 103.868C111.382 103.785 111.394 103.694 111.38 103.604C111.367 103.515 111.328 103.431 111.268 103.362C111.209 103.294 111.132 103.243 111.045 103.217C110.958 103.191 110.866 103.19 110.778 103.214V103.214Z" fill="#FC6760"/>
<path d="M116.429 79.696C116.551 79.7018 116.671 79.6614 116.765 79.5829C116.858 79.5044 116.919 79.3935 116.935 79.2723C116.951 79.151 116.92 79.0283 116.85 78.9285C116.779 78.8287 116.674 78.759 116.554 78.7334C116.221 78.6449 108.361 76.6084 104.703 78.7853C104.592 78.8517 104.511 78.9598 104.479 79.0858C104.447 79.2117 104.466 79.3453 104.533 79.457C104.599 79.5687 104.707 79.6495 104.833 79.6815C104.959 79.7136 105.093 79.6943 105.204 79.6278C108.513 77.6579 116.229 79.6587 116.307 79.6798C116.346 79.6905 116.388 79.696 116.429 79.696V79.696Z" fill="#020C2D"/>
<path d="M109.241 84.2252C108.169 84.2252 107.301 82.893 107.301 81.2496C107.301 79.6062 108.169 78.2739 109.241 78.2739C110.312 78.2739 111.181 79.6062 111.181 81.2496C111.181 82.893 110.312 84.2252 109.241 84.2252Z" fill="#020C2D"/>
<path d="M96.3905 79.696C96.5126 79.7015 96.6322 79.6609 96.7257 79.5824C96.8192 79.5038 96.8798 79.393 96.8954 79.2718C96.911 79.1507 96.8806 79.0281 96.8101 78.9284C96.7396 78.8286 96.6341 78.759 96.5147 78.7334C96.1819 78.6449 88.3224 76.6084 84.6641 78.7853C84.5524 78.8516 84.4716 78.9596 84.4395 79.0855C84.4074 79.2114 84.4266 79.3449 84.4929 79.4566C84.5592 79.5683 84.6671 79.6491 84.793 79.6812C84.9189 79.7134 85.0524 79.6942 85.1641 79.6278C88.4734 77.6579 96.1892 79.6587 96.2664 79.6798C96.3069 79.6906 96.3486 79.696 96.3905 79.696V79.696Z" fill="#020C2D"/>
<path d="M89.2022 84.2252C88.1308 84.2252 87.2622 82.893 87.2622 81.2496C87.2622 79.6062 88.1308 78.2739 89.2022 78.2739C90.2735 78.2739 91.1421 79.6062 91.1421 81.2496C91.1421 82.893 90.2735 84.2252 89.2022 84.2252Z" fill="#020C2D"/>
<path d="M120.703 73.1267C119.366 72.6106 117.99 72.2034 116.588 71.9092C115.19 71.6103 113.772 71.4179 112.345 71.3337C110.898 71.2437 109.446 71.2921 108.008 71.4782C106.543 71.6679 105.102 72.016 103.712 72.5163C103.529 72.5781 103.36 72.6753 103.215 72.8023C103.069 72.9294 102.951 73.0838 102.865 73.2569C102.779 73.4299 102.728 73.6181 102.716 73.8107C102.703 74.0033 102.728 74.1966 102.79 74.3795C102.851 74.5624 102.948 74.7314 103.076 74.8767C103.203 75.0221 103.357 75.141 103.53 75.2267C103.703 75.3123 103.891 75.3631 104.084 75.376C104.277 75.3889 104.47 75.3638 104.653 75.302C104.679 75.2928 104.706 75.2831 104.734 75.2728L104.822 75.2379C105.983 74.7351 107.194 74.3585 108.436 74.1145C109.704 73.8653 110.993 73.7387 112.286 73.7363C113.598 73.728 114.91 73.8195 116.209 74.0098C117.504 74.197 118.783 74.4858 120.033 74.8734L120.082 74.8889C120.313 74.9613 120.562 74.9416 120.778 74.8337C120.995 74.7259 121.161 74.5384 121.242 74.3107C121.322 74.0829 121.312 73.8328 121.212 73.6127C121.112 73.3926 120.931 73.2199 120.706 73.1307L120.703 73.1267Z" fill="#020C2D"/>
<path d="M83.4523 71.9668C84.4407 71.5901 85.4633 71.3101 86.5058 71.1308C87.535 70.9507 88.5787 70.8664 89.6235 70.8792C90.6869 70.8882 91.7457 71.0209 92.7785 71.2745C93.8527 71.5397 94.889 71.9395 95.8629 72.4644C96.1436 72.6394 96.3554 72.9056 96.4629 73.2184C96.5703 73.5312 96.5669 73.8714 96.453 74.1819C96.4214 74.3288 96.3574 74.4668 96.2657 74.5858C96.1739 74.7047 96.0567 74.8017 95.9226 74.8695C95.7886 74.9374 95.641 74.9744 95.4908 74.9779C95.3406 74.9814 95.1915 74.9513 95.0545 74.8897C95.0358 74.88 95.0171 74.8702 94.9993 74.8597L94.9368 74.8224C94.1286 74.3105 93.2606 73.8997 92.3524 73.5991C91.4477 73.3008 90.5116 73.108 89.5626 73.0245C88.6077 72.9356 87.6466 72.9356 86.6917 73.0245C85.735 73.1119 84.7888 73.2907 83.8662 73.5586L83.8297 73.5691C83.7352 73.5886 83.6377 73.588 83.5434 73.5675C83.4492 73.547 83.3603 73.5069 83.2825 73.45C83.2046 73.393 83.1396 73.3204 83.0915 73.2367C83.0434 73.1531 83.0134 73.0603 83.0034 72.9644C82.9527 72.7719 82.9696 72.5677 83.0513 72.3862C83.133 72.2046 83.2745 72.0566 83.4523 71.9668Z" fill="#020C2D"/>
<path d="M75.2227 65.6341C77.5805 67.3649 80.263 68.6027 83.1098 69.2737C84.1528 69.5538 85.234 69.7762 86.3436 69.9596C102.398 72.5367 123.704 65.6341 123.704 65.6341C124.012 77.2867 135.027 80.1244 135.027 80.1244L137.421 80.1925C138.537 80.2249 139.634 80.4827 140.647 80.9505C141.66 81.4183 142.568 82.0864 143.315 82.9144C144.063 83.7425 144.636 84.7135 144.998 85.7687C145.361 86.824 145.506 87.9417 145.425 89.0545C145.163 92.7459 143.572 96.2172 140.945 98.8239C138.24 101.443 134.692 103.014 130.934 103.256L127.75 139.166L184.213 139.248C184.994 109.466 140.26 110.364 151.4 76.2867C163.042 40.6594 129.675 38.2568 129.675 38.2568C103.556 9.93308 60.7422 54.6204 75.2227 65.6341Z" fill="#FFD492"/>
<g opacity="0.5">
<path opacity="0.5" d="M138.361 80.2044L125.715 79.2061V83.6638C125.715 84.8709 125.421 86.0598 124.858 87.1276C124.295 88.1953 123.48 89.1096 122.483 89.7913C117.622 93.1192 107.99 97.1549 98.594 86.1744C98.594 86.1744 83.659 100.8 79.1054 85.7442C78.4471 83.4841 78.1695 81.1303 78.284 78.7791L78.7183 67.6631C78.7183 67.6631 108.247 63.5008 126.502 69.1761L139.246 76.1111L138.361 80.2044Z" fill="white"/>
</g>
<path d="M134.402 100.943C133.684 100.943 133.102 100.361 133.102 99.643C133.102 98.9253 133.684 98.3435 134.402 98.3435C135.119 98.3435 135.701 98.9253 135.701 99.643C135.701 100.361 135.119 100.943 134.402 100.943Z" fill="#96BED5"/>
<path d="M134.401 112.931C133.252 112.931 132.319 110.465 132.319 107.423C132.319 104.381 133.252 101.915 134.401 101.915C135.551 101.915 136.483 104.381 136.483 107.423C136.483 110.465 135.551 112.931 134.401 112.931Z" fill="#96BED5"/>
<path d="M105.303 122.756C108.532 122.806 111.722 122.047 114.582 120.546L113.87 119.261C108.502 122.234 102.154 121.047 102.091 121.033L101.81 122.477C102.964 122.674 104.133 122.767 105.303 122.756V122.756Z" fill="#FFC1BB"/>
<path d="M119.825 246.978V246.997L142.743 196.194L137.154 183.009L150.804 167.12L139.993 142.838L129.197 122.713L127.463 142.442C127.463 142.442 124.038 180.811 120.862 229.78C120.511 235.202 120.154 241.337 119.825 246.978Z" fill="#E7F0FD"/>
<path d="M85.2241 168.541L77.9838 177.519L83.6656 238.492C83.6656 238.492 83.6746 238.444 83.694 238.357C83.7135 238.27 83.7525 238.164 83.7809 238.009C93.6956 194.48 98.5535 152.091 99.6615 141.617C99.642 141.414 99.642 141.202 99.642 140.99C99.6393 140.402 99.6748 139.816 99.7484 139.233L101.615 124.434L92.1356 139.165L77.9838 160.683L85.2241 168.541Z" fill="#E7F0FD"/>
<path d="M119.101 250.363L143.534 196.203L137.996 183.14L151.652 167.243L140.653 142.542L129.832 122.369L128.557 123.054L139.355 143.179L149.956 166.995L136.312 182.878L141.954 196.186L119.165 246.7L119.804 246.987L119.101 246.978V250.363Z" fill="#96BED5"/>
<path d="M83.4143 243.56L84.4046 238.514C84.4403 238.388 84.4711 238.278 84.4963 238.143L84.3615 238.118L78.7309 177.745L86.1789 168.51L78.8989 160.609L92.743 139.563L102.228 124.825L101.01 124.042L91.5295 138.774L77.071 160.757L84.2714 168.573L77.239 177.293L83.4143 243.56Z" fill="#96BED5"/>
<path d="M63.4988 170.514C63.5281 160.8 62.5854 151.108 60.6847 141.581L59.2716 141.897C61.149 151.317 62.0801 160.901 62.0508 170.506L63.4988 170.514Z" fill="#96BED5"/>
<path d="M52.848 273.341C53.3302 270.576 64.6386 205.393 63.4056 186.289L61.9608 186.382C63.1783 205.315 51.5396 272.421 51.4219 273.092L52.848 273.341Z" fill="#96BED5"/>
<path d="M66.6879 186.428C66.076 186.428 65.58 185.932 65.58 185.32C65.58 184.708 66.076 184.212 66.6879 184.212C67.2998 184.212 67.7959 184.708 67.7959 185.32C67.7959 185.932 67.2998 186.428 66.6879 186.428Z" fill="white"/>
<path d="M65.1211 188.642C64.7149 188.642 64.3857 188.313 64.3857 187.907C64.3857 187.501 64.7149 187.172 65.1211 187.172C65.5272 187.172 65.8564 187.501 65.8564 187.907C65.8564 188.313 65.5272 188.642 65.1211 188.642Z" fill="white"/>
<path d="M67.1026 190.937C66.8076 190.937 66.5685 190.698 66.5685 190.403C66.5685 190.108 66.8076 189.869 67.1026 189.869C67.3976 189.869 67.6367 190.108 67.6367 190.403C67.6367 190.698 67.3976 190.937 67.1026 190.937Z" fill="white"/>
<path d="M61.8062 213.467C60.7294 213.467 59.8565 212.594 59.8565 211.517C59.8565 210.441 60.7294 209.568 61.8062 209.568C62.883 209.568 63.7559 210.441 63.7559 211.517C63.7559 212.594 62.883 213.467 61.8062 213.467Z" fill="white"/>
<path d="M64.5628 217.367C63.8478 217.367 63.2681 216.787 63.2681 216.072C63.2681 215.357 63.8478 214.777 64.5628 214.777C65.2778 214.777 65.8574 215.357 65.8574 216.072C65.8574 216.787 65.2778 217.367 64.5628 217.367Z" fill="white"/>
<path d="M11.7516 220.87C10.4569 220.87 9.40741 219.821 9.40741 218.526C9.40741 217.232 10.4569 216.182 11.7516 216.182C13.0462 216.182 14.0957 217.232 14.0957 218.526C14.0957 219.821 13.0462 220.87 11.7516 220.87Z" fill="white"/>
<path d="M17.5368 217.345C16.6774 217.345 15.9808 216.648 15.9808 215.789C15.9808 214.929 16.6774 214.233 17.5368 214.233C18.3961 214.233 19.0928 214.929 19.0928 215.789C19.0928 216.648 18.3961 217.345 17.5368 217.345Z" fill="white"/>
<path d="M16.9541 210.2C16.3301 210.2 15.8243 209.694 15.8243 209.07C15.8243 208.446 16.3301 207.94 16.9541 207.94C17.5781 207.94 18.084 208.446 18.084 209.07C18.084 209.694 17.5781 210.2 16.9541 210.2Z" fill="white"/>
<path d="M94.2869 175.834H96.9297V238.497H94.2869V175.834Z" fill="#004471"/>
<path d="M92.1192 229.776V274.772L118.426 274.375L196.109 273.217L223.892 272.358C248.065 271.605 263.124 245.829 251.907 224.408L227.357 177.52L176.251 183.851L195.488 229.774L92.1192 229.776Z" fill="#E7F0FD"/>
<path d="M196.578 230.501L176.919 183.573L175.583 184.132L194.401 229.053L120.858 229.051V230.499L196.578 230.501Z" fill="#96BED5"/>
<path d="M174.914 173.403L176.347 173.202C173.344 151.886 191.682 140.321 191.867 140.207L191.107 138.974C190.914 139.093 171.782 151.161 174.914 173.403Z" fill="#96BED5"/>
<path d="M19.6892 81.9725C18.8894 81.9725 18.2411 81.3242 18.2411 80.5245C18.2411 79.7247 18.8894 79.0764 19.6892 79.0764C20.4889 79.0764 21.1372 79.7247 21.1372 80.5245C21.1372 81.3242 20.4889 81.9725 19.6892 81.9725Z" fill="white"/>
<path d="M17.6425 84.8679C17.1117 84.8679 16.6815 84.4376 16.6815 83.9068C16.6815 83.3761 17.1117 82.9458 17.6425 82.9458C18.1733 82.9458 18.6035 83.3761 18.6035 83.9068C18.6035 84.4376 18.1733 84.8679 17.6425 84.8679Z" fill="white"/>
<path d="M20.2317 87.8678C19.8461 87.8678 19.5336 87.5553 19.5336 87.1697C19.5336 86.7842 19.8461 86.4717 20.2317 86.4717C20.6172 86.4717 20.9297 86.7842 20.9297 87.1697C20.9297 87.5553 20.6172 87.8678 20.2317 87.8678Z" fill="white"/>
<path d="M13.3077 120.777C11.9001 120.777 10.759 119.636 10.759 118.228C10.759 116.821 11.9001 115.679 13.3077 115.679C14.7153 115.679 15.8564 116.821 15.8564 118.228C15.8564 119.636 14.7153 120.777 13.3077 120.777Z" fill="white"/>
<path d="M12.3522 131.154C11.6735 131.154 11.1233 130.604 11.1233 129.925C11.1233 129.246 11.6735 128.696 12.3522 128.696C13.0309 128.696 13.5811 129.246 13.5811 129.925C13.5811 130.604 13.0309 131.154 12.3522 131.154Z" fill="white"/>
<path d="M5.38188 124.28V117.243L23.2682 114.858C24.3547 114.713 25.3591 114.201 26.1148 113.407C26.8705 112.613 27.3322 111.584 27.4232 110.492L28.5466 97.0116C28.6585 95.6664 28.2453 94.3302 27.3934 93.2831C26.5416 92.2361 25.3174 91.5596 23.9776 91.3955L10.3462 89.7299L30.7113 82.4767C31.5068 82.1931 32.172 81.63 32.5831 80.8923C32.9942 80.1546 33.1231 79.2926 32.9459 78.4669C32.7686 77.6412 32.2973 76.9081 31.6196 76.4042C30.942 75.9002 30.1043 75.6597 29.2625 75.7276L-5.7398 78.5571C-7.83831 78.7266 -9.79609 79.6799 -11.2236 81.2274C-12.6511 82.7749 -13.4436 84.8032 -13.4435 86.9085V124.28H5.38188Z" fill="#FFD1CC"/>
<path d="M28.1589 100.707L28.4365 99.2866C28.3123 99.2622 15.9171 96.8734 6.47149 97.4887L6.56566 98.9335C15.8335 98.3247 28.0363 100.684 28.1589 100.707Z" fill="#FFC1BB"/>
<path d="M27.5418 108.731L27.7188 107.294C27.1043 107.218 12.5913 105.462 6.31378 107.318L6.72532 108.706C12.7115 106.936 27.3941 108.714 27.5418 108.731Z" fill="#FFC1BB"/>
</g>
</svg>
