<svg width="219" height="219" viewBox="0 0 219 219" fill="none" xmlns="http://www.w3.org/2000/svg">
<path d="M0 109.5C0 49.0248 49.0248 0 109.5 0V0C169.975 0 219 49.0248 219 109.5V109.5C219 169.975 169.975 219 109.5 219V219C49.0248 219 0 169.975 0 109.5V109.5Z" fill="#EEE4FF"/>
<mask id="mask0_11_2031" style="mask-type:alpha" maskUnits="userSpaceOnUse" x="0" y="0" width="219" height="219">
<path d="M0 109.5C0 49.0248 49.0248 0 109.5 0V0C169.975 0 219 49.0248 219 109.5V109.5C219 169.975 169.975 219 109.5 219V219C49.0248 219 0 169.975 0 109.5V109.5Z" fill="#C4C4C4"/>
</mask>
<g mask="url(#mask0_11_2031)">
<path d="M221.543 272.74H198.266V302.363H41.3888L39.2127 270.482L21.0187 271.598C17.3995 271.604 13.8316 270.742 10.6143 269.084C9.57878 268.556 8.58752 267.945 7.65021 267.258C3.49979 264.194 0.383391 259.936 -1.28251 255.053C-2.94841 250.17 -3.08447 244.896 -1.67251 239.934L23.6901 148.3C23.6917 148.3 23.6932 148.3 23.6947 148.3C23.6961 148.299 23.6974 148.298 23.6985 148.297C23.6997 148.296 23.7005 148.295 23.7012 148.294C23.7018 148.292 23.7021 148.291 23.7021 148.289C30.3863 135.879 36.9696 129.385 42.1888 126.004L42.3218 125.918C46.0343 123.575 50.3406 122.345 54.7306 122.374H171.268C188.774 122.374 204.42 133.86 210.406 151.108L241.991 242.143C247.154 257.026 236.648 272.74 221.543 272.74Z" fill="#676767"/>
<path d="M140.867 92.1777C140.867 92.1777 139.425 105.96 134.147 108.401L135.458 93.4667L140.867 92.1777Z" fill="#712F1A"/>
<path d="M88.89 55.3621C88.89 55.3621 82.169 75.2524 88.0781 78.1597C93.9871 81.067 95.621 52.6062 95.621 52.6062L88.89 55.3621Z" fill="#712F1A"/>
<path d="M135.459 93.4667L132.03 132.548C131.725 136.029 130.127 139.269 127.551 141.63C124.975 143.99 121.607 145.3 118.113 145.3C116.132 145.3 114.173 144.879 112.366 144.064C110.56 143.249 108.948 142.059 107.637 140.573C106.326 139.087 105.346 137.339 104.762 135.446C104.178 133.552 104.004 131.556 104.251 129.59L106.449 112.076C106.449 112.076 80.6694 113.666 90.1875 62.7152C91.5095 55.2406 95.4289 48.4731 101.254 43.6065C106.475 39.3378 113.796 36.237 123.161 39.0754C143.972 45.3817 139.558 70.2911 139.558 70.2911L141.943 70.36C143.061 70.3918 144.161 70.6495 145.176 71.1176C146.192 71.5858 147.102 72.2547 147.852 73.084C148.603 73.9133 149.177 74.8859 149.541 75.9431C149.906 77.0004 150.052 78.1205 149.972 79.2359V79.2359C149.708 82.9361 148.112 86.4154 145.48 89.0297C142.848 91.644 139.358 93.2163 135.656 93.4557L135.459 93.4667Z" fill="#D89791"/>
<path d="M142.071 85.8238C144.461 83.633 145.504 81.4202 145.171 79.2551C144.613 75.6167 140.361 73.5892 140.181 73.5039L139.565 74.8176C139.603 74.835 143.302 76.6084 143.738 79.4799C143.991 81.1386 143.096 82.9128 141.091 84.7541L142.071 85.8238Z" fill="#C4847E"/>
<path d="M104.747 91.2274L105.839 90.2402L101.672 85.6303L104.964 69.0169L103.521 68.7307L100.085 86.0679L104.747 91.2274Z" fill="#C3847E"/>
<path d="M115.293 93.5033L102.28 97.0344C102.206 97.0533 102.137 97.09 102.079 97.1413C102.022 97.1927 101.978 97.2572 101.951 97.3293C101.924 97.4014 101.915 97.4791 101.924 97.5555C101.934 97.632 101.961 97.7049 102.005 97.7683C103.57 100.015 109.899 107.649 115.858 94.1601C115.894 94.0772 115.906 93.9857 115.893 93.8961C115.879 93.8066 115.841 93.7227 115.782 93.654C115.723 93.5854 115.646 93.5348 115.559 93.5081C115.473 93.4815 115.38 93.4798 115.293 93.5033Z" fill="white"/>
<path d="M120.955 69.9426C121.074 69.9431 121.19 69.9 121.28 69.8214C121.37 69.7427 121.428 69.634 121.443 69.5156C121.458 69.3971 121.43 69.2772 121.363 69.1783C121.296 69.0794 121.195 69.0083 121.08 68.9784C120.746 68.8866 112.872 66.8491 109.206 69.0307C109.148 69.0625 109.098 69.1056 109.057 69.1573C109.017 69.2091 108.987 69.2685 108.97 69.3319C108.953 69.3954 108.948 69.4617 108.957 69.5268C108.966 69.592 108.988 69.6547 109.022 69.7112C109.055 69.7677 109.1 69.8168 109.153 69.8557C109.206 69.8946 109.266 69.9225 109.33 69.9377C109.394 69.9528 109.461 69.955 109.525 69.944C109.59 69.9331 109.652 69.9092 109.708 69.8738C113.022 67.9014 120.752 69.9059 120.829 69.9261C120.87 69.9374 120.913 69.9429 120.955 69.9426V69.9426Z" fill="#020C2D"/>
<path d="M113.752 74.481C114.825 74.481 115.695 73.1461 115.695 71.4994C115.695 69.8527 114.825 68.5178 113.752 68.5178C112.679 68.5178 111.809 69.8527 111.809 71.4994C111.809 73.1461 112.679 74.481 113.752 74.481Z" fill="#020C2D"/>
<path d="M100.878 69.9426C100.997 69.9431 101.113 69.9 101.203 69.8214C101.292 69.7427 101.351 69.634 101.366 69.5156C101.381 69.3971 101.353 69.2772 101.286 69.1783C101.219 69.0794 101.118 69.0083 101.003 68.9784C100.67 68.8866 92.7955 66.8491 89.1296 69.0307C89.0742 69.0636 89.0258 69.107 88.9873 69.1586C88.9487 69.2102 88.9207 69.2688 88.9048 69.3312C88.8727 69.4573 88.892 69.5909 88.9584 69.7027C89.0249 69.8145 89.133 69.8953 89.259 69.9274C89.385 69.9595 89.5186 69.9402 89.6304 69.8738C92.945 67.9014 100.675 69.9059 100.753 69.9261C100.794 69.9374 100.836 69.943 100.878 69.9426V69.9426Z" fill="#020C2D"/>
<path d="M93.6779 74.481C94.751 74.481 95.621 73.1461 95.621 71.4994C95.621 69.8527 94.751 68.5178 93.6779 68.5178C92.6048 68.5178 91.7349 69.8527 91.7349 71.4994C91.7349 73.1461 92.6048 74.481 93.6779 74.481Z" fill="#020C2D"/>
<path d="M125.235 63.3602C123.896 62.8421 122.517 62.4328 121.112 62.1363C119.712 61.8371 118.291 61.6445 116.862 61.5602C115.412 61.47 113.957 61.5182 112.517 61.7043C111.049 61.8948 109.606 62.2436 108.213 62.7446C108.026 62.8029 107.851 62.8981 107.701 63.0248C107.551 63.1514 107.427 63.3068 107.338 63.4819C107.248 63.657 107.195 63.8482 107.181 64.0442C107.166 64.2403 107.191 64.4372 107.254 64.6234C107.317 64.8096 107.417 64.9814 107.547 65.1285C107.677 65.2757 107.836 65.3953 108.013 65.4803C108.19 65.5653 108.383 65.6139 108.579 65.6234C108.776 65.6328 108.972 65.6029 109.156 65.5354L109.234 65.5069L109.322 65.4711C110.485 64.9673 111.699 64.5899 112.943 64.3455C114.212 64.0964 115.502 63.9695 116.796 63.9666C118.11 63.9587 119.424 64.0508 120.725 64.2418C122.023 64.4295 123.304 64.7187 124.556 65.1069L124.606 65.1225C124.838 65.1994 125.091 65.1823 125.31 65.0749C125.53 64.9675 125.699 64.7783 125.78 64.548C125.862 64.3176 125.851 64.0644 125.748 63.8425C125.645 63.6207 125.46 63.4479 125.231 63.3611L125.235 63.3602Z" fill="#020C2D"/>
<path d="M87.9208 62.2005C88.9107 61.8226 89.935 61.5421 90.9794 61.3629C92.009 61.1822 93.0532 61.0978 94.0985 61.1107C95.1638 61.1196 96.2244 61.2523 97.259 61.5061C98.3357 61.7718 99.3745 62.1725 100.351 62.6987C100.632 62.8741 100.844 63.1409 100.952 63.4543C101.059 63.7678 101.056 64.1086 100.942 64.4197C100.91 64.5669 100.846 64.7051 100.754 64.8242C100.662 64.9434 100.545 65.0405 100.41 65.1084C100.276 65.1763 100.128 65.2133 99.9776 65.2167C99.8272 65.22 99.6778 65.1898 99.5406 65.128C99.5213 65.1188 99.503 65.1087 99.4847 65.0977L99.4223 65.061C98.6128 64.5477 97.7433 64.1357 96.8333 63.8344C95.9271 63.5361 94.9894 63.3434 94.0389 63.2601C93.082 63.1707 92.1188 63.1707 91.1619 63.2601C90.2036 63.3474 89.2559 63.5266 88.3318 63.795L88.295 63.806C88.1999 63.8249 88.102 63.8237 88.0074 63.8024C87.9128 63.7811 87.8238 63.7402 87.746 63.6824C87.6682 63.6246 87.6034 63.5511 87.5557 63.4666C87.5081 63.3822 87.4787 63.2887 87.4694 63.1922C87.4204 63.0002 87.4384 62.7973 87.5205 62.6169C87.6026 62.4366 87.7438 62.2897 87.9208 62.2005V62.2005Z" fill="#020C2D"/>
<path d="M109.807 113.08C113.042 113.13 116.238 112.369 119.103 110.866L118.39 109.582C113.012 112.56 106.654 111.369 106.591 111.357L106.309 112.801C107.465 112.997 108.635 113.09 109.807 113.08V113.08Z" fill="#C4847E"/>
<path d="M138.708 73.225L137.721 76.6341C137.616 76.9986 137.415 77.3281 137.139 77.5876C136.862 77.8472 136.521 78.0272 136.15 78.1086C135.78 78.1901 135.394 78.1698 135.035 78.0501C134.675 77.9304 134.354 77.7156 134.106 77.4285C130.289 72.8243 128.103 67.0859 127.89 61.1088C127.89 61.1088 66.1107 69.537 84.5011 25.751C84.5011 25.751 97.176 34.8003 113.753 26.9188C130.329 19.0374 139.557 37.9827 139.557 37.9827C139.557 37.9827 160.571 29.1059 145.232 71.1415L142.576 70.7443C141.74 70.6186 140.887 70.8009 140.175 71.2572C139.464 71.7136 138.942 72.4129 138.708 73.225V73.225Z" fill="#712F1A"/>
<path d="M221.543 272.744H198.266L219.274 431.839L180.927 411.74C161.356 401.487 147.763 381.901 144.481 359.231L136.245 302.359L120.351 192.63L135.941 122.38H171.268C188.774 122.38 204.42 133.861 210.406 151.108L241.991 242.149C247.154 257.021 236.648 272.744 221.543 272.744Z" fill="#E7F0FD"/>
<path d="M185.57 175.372L183.904 175.667L193.155 228.056L194.821 227.761L185.57 175.372Z" fill="#96BED5"/>
<path d="M120.351 192.628L112.314 302.363L108.357 356.46C106.576 380.672 93.0361 402.239 72.5109 413.523L21.0443 435.632L39.2127 270.482L25.314 273.125C21.9515 272.544 18.6202 271.796 15.3326 270.882C13.7022 270.446 12.121 269.844 10.6143 269.084C9.58127 268.552 8.59035 267.941 7.65021 267.258C3.49979 264.194 0.383391 259.936 -1.28251 255.053C-2.94841 250.17 -3.08447 244.896 -1.67251 239.934L23.6901 148.3L23.7021 148.289C30.3863 135.879 36.9696 129.385 42.1888 126.004L42.3218 125.918C46.0343 123.575 50.3406 122.345 54.7306 122.374H99.7112L120.351 192.628Z" fill="#E7F0FD"/>
<path d="M133.89 111.33L152.789 137.416L143.34 145.299L150.834 164.409L120.348 219.31C120.348 219.31 120.077 149.723 133.89 111.33Z" fill="#E7F0FD"/>
<path d="M106.309 112.798L88.0779 134.215L97.1933 146.293L87.4458 159.337L120.349 219.31C120.349 219.31 124.138 207.567 106.309 112.798Z" fill="#E7F0FD"/>
<path d="M121.089 219.721L119.611 218.9L149.904 164.347L142.332 145.04L151.644 137.272L133.207 111.826L134.577 110.834L153.94 137.559L144.351 145.557L151.768 164.471L121.089 219.721Z" fill="#96BED5"/>
<path d="M119.607 219.718L86.4429 159.266L96.1353 146.296L86.9951 134.183L105.664 112.25L106.952 113.346L89.1612 134.247L98.2508 146.29L88.4483 159.406L121.09 218.904L119.607 219.718Z" fill="#96BED5"/>
<path d="M80.5046 206.886L55.6924 179.762C54.165 178.092 52.2296 176.848 50.0763 176.153C47.9229 175.457 45.6257 175.334 43.4101 175.794L35.6269 177.411C35.2532 177.489 34.9133 177.682 34.6552 177.963C34.397 178.244 34.2336 178.599 34.1879 178.978C34.1422 179.357 34.2165 179.74 34.4005 180.075C34.5844 180.409 34.8686 180.677 35.2131 180.842L43.5771 182.754L34.403 188.35C33.2655 188.974 32.3872 189.983 31.9253 191.196C31.4635 192.408 31.4481 193.746 31.882 194.969L35.6379 205.547C36.5777 208.194 38.1875 210.552 40.3102 212.39L44.7138 216.203L80.5046 206.886Z" fill="#D89791"/>
<path d="M47.5015 188.237L46.1006 184.973C45.8849 184.466 45.5426 184.023 45.1064 183.687C44.6702 183.351 44.1548 183.132 43.6098 183.053L35.3779 181.818L35.6284 180.145L43.8612 181.38C44.6908 181.502 45.4752 181.835 46.1389 182.347C46.8026 182.859 47.3233 183.534 47.651 184.306L49.0519 187.569L47.5015 188.237Z" fill="#C4847E"/>
<path d="M34.3978 200.236L33.1987 199.044L38.9188 193.29H46.8819V194.981H39.6215L34.3978 200.236Z" fill="#C4847E"/>
<path d="M38.5935 210.157L37.4238 208.936L44.32 202.34H53.0179V204.031H44.998L38.5935 210.157Z" fill="#C4847E"/>
<path d="M141.849 195.519L179.849 180.37C182.188 179.437 184.729 179.129 187.224 179.476C189.718 179.822 192.079 180.811 194.075 182.346L201.089 187.738C201.425 187.997 201.672 188.355 201.795 188.761C201.917 189.168 201.909 189.603 201.771 190.004C201.633 190.406 201.373 190.754 201.027 191C200.68 191.246 200.266 191.377 199.841 191.375L190.536 189.238L197.014 199.285C197.851 200.462 198.241 201.898 198.116 203.337C197.991 204.775 197.359 206.122 196.331 207.137L187.442 215.915C185.219 218.11 182.464 219.69 179.447 220.502L173.189 222.189L158.316 219.307L141.849 195.519Z" fill="#D89791"/>
<path d="M183.948 192.829L182.714 191.408L185.7 188.817C186.402 188.202 187.25 187.779 188.163 187.588C189.077 187.397 190.023 187.443 190.913 187.724L199.76 190.476L199.2 192.273L190.355 189.521C189.771 189.338 189.149 189.308 188.55 189.434C187.952 189.559 187.395 189.836 186.934 190.239L183.948 192.829Z" fill="#C4847E"/>
<path d="M191.262 211.199L188.575 203.403L181.302 199.885L182.121 198.191L190.099 202.051L193.041 210.586L191.262 211.199Z" fill="#C4847E"/>
<path d="M182.252 219.106L178.804 209.864L170.77 205.977L171.588 204.284L180.303 208.499L184.015 218.449L182.252 219.106Z" fill="#C4847E"/>
<path d="M41.0131 216.925L151.885 188.068L161.305 231.354L39.2095 270.49L41.0131 216.925Z" fill="#E7F0FD"/>
<path d="M25.0732 273.977C20.5964 273.95 16.1869 272.884 12.1917 270.864C8.1965 268.844 4.72452 265.924 2.04891 262.335C-0.626714 258.746 -2.43299 254.584 -3.22781 250.179C-4.02264 245.773 -3.78433 241.243 -2.53164 236.945L24.0494 145.966L25.6713 146.441L-0.909657 237.42C-2.25109 242.012 -2.35833 246.876 -1.22059 251.522C-0.0828549 256.169 2.25965 260.433 5.57082 263.886C8.882 267.338 13.0448 269.857 17.6397 271.188C22.2345 272.518 27.099 272.614 31.7427 271.466L39.0068 269.67L160.316 230.783L151.246 189.107L41.2251 217.743L40.7994 216.108L152.523 187.026L162.294 231.922L39.4682 271.295L32.1491 273.107C29.8344 273.682 27.4583 273.974 25.0732 273.977V273.977Z" fill="#96BED5"/>
<path d="M198.127 273.578L85.6426 254.719L160.316 230.783L157.571 218.169L202.086 229.012L201.686 230.654L159.798 220.452L162.296 231.925L92.7919 254.203L198.406 271.91L198.127 273.578Z" fill="#96BED5"/>
<path d="M59.697 162.363L58.0245 162.111C61.6942 137.773 47.9477 129.301 41.8662 126.791L42.5084 125.231C48.9614 127.891 63.5473 136.844 59.697 162.363Z" fill="#96BED5"/>
<path d="M181.007 159.504C179.006 149.583 180.074 141.959 184.182 136.844C185.718 135.004 187.616 133.498 189.758 132.421C191.899 131.344 194.239 130.718 196.633 130.581L196.665 132.272C194.518 132.418 192.423 132.994 190.502 133.964C188.582 134.934 186.876 136.279 185.484 137.921C181.723 142.625 180.77 149.773 182.665 159.167L181.007 159.504Z" fill="#96BED5"/>
</g>
</svg>
