<svg width="276" height="441" viewBox="0 0 276 441" fill="none" xmlns="http://www.w3.org/2000/svg">
<path d="M0 138C0 61.7847 61.7847 0 138 0V0C214.215 0 276 61.7847 276 138V303C276 379.215 214.215 441 138 441V441C61.7847 441 0 379.215 0 303V138Z" fill="#8A49FF"/>
<mask id="mask0_11_584" style="mask-type:alpha" maskUnits="userSpaceOnUse" x="0" y="0" width="276" height="441">
<path d="M0 138C0 61.7847 61.7847 0 138 0V0C214.215 0 276 61.7847 276 138V303C276 379.215 214.215 441 138 441V441C61.7847 441 0 379.215 0 303V138Z" fill="#C4C4C4"/>
</mask>
<g mask="url(#mask0_11_584)">
<path d="M107.677 110.787H226.825C238.462 110.787 247.895 120.22 247.895 131.857V344.559C247.895 356.196 238.462 365.629 226.825 365.629H107.677C96.0403 365.629 86.607 356.196 86.607 344.559V131.857C86.607 120.22 96.0403 110.787 107.677 110.787Z" fill="#F7C16C"/>
<path d="M218.754 365.326L227.017 517.277H211.63L199.801 365.793L218.754 365.326Z" fill="#E36155"/>
<path d="M138.905 365.326L130.642 517.277H146.03L157.858 365.793L138.905 365.326Z" fill="#E36155"/>
<path d="M69.2117 365.326L60.9483 517.277H76.3365L88.1641 365.793L69.2117 365.326Z" fill="#E36155"/>
<path d="M227.017 110.787H222.282C216.745 110.787 211.435 112.987 207.519 116.902C203.604 120.817 201.404 126.128 201.404 131.665V344.748C201.404 350.286 203.604 355.596 207.519 359.511C211.435 363.427 216.745 365.626 222.282 365.626H230.418C235.053 365.626 239.498 363.785 242.776 360.507C246.054 357.23 247.895 352.784 247.895 348.149V131.665C247.895 126.128 245.695 120.817 241.78 116.902C237.865 112.987 232.554 110.787 227.017 110.787V110.787Z" fill="#F7C16C"/>
<path d="M70.415 366.503H230.236C232.658 366.518 235.059 366.054 237.301 365.138C239.543 364.221 241.581 362.871 243.299 361.163C245.017 359.456 246.38 357.426 247.311 355.19C248.241 352.954 248.72 350.556 248.72 348.134C248.72 345.712 248.241 343.314 247.311 341.078C246.38 338.842 245.017 336.812 243.299 335.105C241.581 333.398 239.543 332.047 237.301 331.131C235.059 330.214 232.658 329.75 230.236 329.765H70.415C67.9932 329.75 65.5923 330.214 63.3504 331.131C61.1086 332.047 59.0701 333.398 57.3523 335.105C55.6344 336.812 54.2711 338.842 53.3408 341.078C52.4105 343.314 51.9316 345.712 51.9316 348.134C51.9316 350.556 52.4105 352.954 53.3408 355.19C54.2711 357.426 55.6344 359.456 57.3523 361.163C59.0701 362.871 61.1086 364.221 63.3504 365.138C65.5923 366.054 67.9932 366.518 70.415 366.503V366.503ZM230.236 331.186C232.471 331.171 234.687 331.599 236.756 332.444C238.825 333.29 240.706 334.536 242.292 336.111C243.877 337.686 245.135 339.559 245.994 341.623C246.853 343.686 247.295 345.899 247.295 348.134C247.295 350.369 246.853 352.582 245.994 354.645C245.135 356.709 243.877 358.582 242.292 360.157C240.706 361.733 238.825 362.979 236.756 363.824C234.687 364.669 232.471 365.097 230.236 365.082H70.415C68.1801 365.097 65.9644 364.669 63.8954 363.824C61.8265 362.979 59.9451 361.733 58.3596 360.157C56.7742 358.582 55.5159 356.709 54.6573 354.645C53.7987 352.582 53.3566 350.369 53.3566 348.134C53.3566 345.899 53.7987 343.686 54.6573 341.623C55.5159 339.559 56.7742 337.686 58.3596 336.111C59.9451 334.536 61.8265 333.29 63.8954 332.444C65.9644 331.599 68.1801 331.171 70.415 331.186H230.236Z" fill="#E59C54"/>
<path d="M-54.8705 186.648L42.0037 252.986C44.5321 254.714 47.3904 255.902 50.3994 256.474C53.4084 257.046 56.5032 256.991 59.4896 256.31C62.476 255.63 65.2897 254.34 67.7541 252.521C70.2185 250.703 72.2805 248.394 73.8107 245.741L90.9 216.084L91.2516 256.558H206.895L235.113 264.187C256.298 269.919 274.197 247.728 264.106 228.235L224.434 151.612C221.208 145.38 216.331 140.156 210.337 136.509C204.342 132.863 197.46 130.935 190.443 130.936H91.3191C87.4988 130.935 83.752 131.985 80.4884 133.971C77.2248 135.957 74.5702 138.802 72.8149 142.195L39.2187 207.149L-34.3704 154.589L-54.8705 186.648Z" fill="#FF7467"/>
<path d="M155.933 103.483C155.933 103.483 154.636 115.892 149.884 118.09L151.064 104.644L155.933 103.483Z" fill="#020C2D"/>
<path d="M109.136 70.3365C109.136 70.3365 103.085 88.2448 108.405 90.8636C113.725 93.4824 115.197 67.8569 115.197 67.8569L109.136 70.3365Z" fill="#020C2D"/>
<path d="M151.064 104.644L147.977 139.833C147.702 142.967 146.263 145.883 143.943 148.008C141.624 150.133 138.592 151.312 135.447 151.312V151.312C133.663 151.312 131.899 150.932 130.273 150.199C128.647 149.465 127.196 148.393 126.016 147.056C124.835 145.718 123.953 144.145 123.428 142.44C122.902 140.735 122.745 138.938 122.967 137.168L124.946 121.4C124.946 121.4 101.735 122.831 110.304 76.9571C111.495 70.2282 115.024 64.1359 120.267 59.7541C124.969 55.9108 131.561 53.1194 139.993 55.6743C158.73 61.3522 154.755 83.7807 154.755 83.7807L156.905 83.8418C157.911 83.8705 158.902 84.1027 159.816 84.5243C160.73 84.9459 161.55 85.5481 162.225 86.2949C162.901 87.0416 163.418 87.9172 163.746 88.8692C164.074 89.8211 164.206 90.8296 164.134 91.8338V91.8338C163.895 95.1648 162.458 98.2966 160.088 100.65C157.719 103.003 154.577 104.418 151.244 104.633L151.064 104.644Z" fill="#FFA59C"/>
<path d="M157.157 94.3999H154.704V103.958C155.554 103.675 156.376 103.31 157.157 102.871V94.3999Z" fill="#FFA59C"/>
<path d="M132.169 150.083C131.366 150.084 130.563 150.041 129.765 149.952C132.624 151.4 135.928 151.702 139.003 150.797C142.077 149.891 144.689 147.846 146.307 145.079C142.309 148.322 137.317 150.089 132.169 150.083V150.083Z" fill="#FFA59C"/>
<path d="M157.018 97.7655C159.169 95.7931 160.108 93.8036 159.808 91.8511C159.307 88.5752 155.476 86.7498 155.316 86.6738L154.761 87.8564C154.795 87.8721 158.126 89.4688 158.518 92.0535C158.746 93.5451 157.944 95.1453 156.136 96.8031L157.018 97.7655Z" fill="#FF8579"/>
<path d="M123.413 102.628L124.396 101.739L120.644 97.5877L123.608 82.6299L122.308 82.3721L119.215 97.9826L123.413 102.628Z" fill="#FC6760"/>
<path d="M132.908 104.677L121.188 107.856C121.121 107.873 121.059 107.906 121.008 107.952C120.956 107.998 120.916 108.056 120.892 108.121C120.868 108.186 120.86 108.255 120.869 108.324C120.878 108.393 120.903 108.458 120.943 108.515C122.352 110.538 128.051 117.411 133.413 105.266C133.445 105.192 133.456 105.11 133.443 105.03C133.431 104.95 133.396 104.875 133.344 104.814C133.291 104.753 133.222 104.707 133.145 104.683C133.068 104.659 132.986 104.657 132.908 104.677V104.677Z" fill="#FC6760"/>
<path d="M138.005 83.4642C138.112 83.4645 138.216 83.4256 138.297 83.3548C138.378 83.284 138.43 83.1862 138.444 83.0797C138.457 82.9732 138.432 82.8653 138.372 82.7763C138.312 82.6873 138.221 82.6233 138.117 82.5962C137.817 82.5167 130.73 80.6785 127.427 82.6431C127.376 82.6724 127.332 82.7114 127.296 82.7579C127.261 82.8045 127.235 82.8576 127.22 82.9142C127.205 82.9708 127.202 83.0298 127.21 83.0877C127.218 83.1457 127.238 83.2014 127.268 83.2517C127.298 83.302 127.337 83.3458 127.384 83.3807C127.431 83.4155 127.485 83.4407 127.542 83.4547C127.599 83.4687 127.658 83.4714 127.715 83.4624C127.773 83.4534 127.829 83.433 127.879 83.4024C130.862 81.6267 137.822 83.4308 137.893 83.45C137.93 83.4594 137.967 83.4642 138.005 83.4642V83.4642Z" fill="#020C2D"/>
<path d="M131.522 87.5497C130.555 87.5497 129.772 86.3479 129.772 84.8655C129.772 83.3831 130.555 82.1814 131.522 82.1814C132.488 82.1814 133.271 83.3831 133.271 84.8655C133.271 86.3479 132.488 87.5497 131.522 87.5497Z" fill="#020C2D"/>
<path d="M119.931 83.4642C120.038 83.4645 120.142 83.4256 120.223 83.3548C120.303 83.284 120.356 83.1862 120.369 83.0797C120.383 82.9732 120.358 82.8653 120.298 82.7763C120.237 82.6873 120.147 82.6233 120.043 82.5962C119.743 82.5167 112.656 80.6785 109.352 82.6431C109.253 82.7039 109.182 82.8011 109.154 82.9139C109.126 83.0266 109.144 83.1458 109.203 83.2456C109.263 83.3455 109.359 83.4179 109.471 83.4472C109.584 83.4765 109.703 83.4605 109.804 83.4024C112.787 81.6267 119.748 83.4308 119.819 83.45C119.855 83.4594 119.893 83.4642 119.931 83.4642Z" fill="#020C2D"/>
<path d="M113.446 87.5497C112.48 87.5497 111.697 86.3479 111.697 84.8655C111.697 83.3831 112.48 82.1814 113.446 82.1814C114.413 82.1814 115.196 83.3831 115.196 84.8655C115.196 86.3479 114.413 87.5497 113.446 87.5497Z" fill="#020C2D"/>
<path d="M141.861 77.5374C140.655 77.0707 139.414 76.7023 138.149 76.4357C136.888 76.166 135.609 75.9927 134.322 75.9172C133.016 75.8356 131.706 75.8789 130.409 76.0465C129.088 76.2183 127.789 76.5324 126.535 76.9833C126.208 77.1004 125.939 77.3414 125.788 77.6543C125.636 77.9672 125.614 78.3271 125.725 78.6564C125.836 78.9858 126.073 79.2583 126.383 79.4152C126.693 79.5722 127.052 79.601 127.384 79.4956C127.407 79.488 127.431 79.4795 127.455 79.47L127.533 79.4381C128.581 78.9842 129.674 78.6444 130.794 78.4245C131.938 78.2002 133.1 78.0861 134.266 78.0836C135.45 78.0765 136.633 78.1591 137.804 78.3307C138.973 78.5001 140.126 78.7613 141.253 79.1121L141.298 79.1263C141.507 79.1964 141.736 79.1816 141.934 79.085C142.132 78.9885 142.285 78.8178 142.359 78.6099C142.433 78.402 142.422 78.1734 142.329 77.9733C142.236 77.7733 142.068 77.6177 141.861 77.5402L141.861 77.5374Z" fill="#020C2D"/>
<path d="M108.261 76.4932C109.152 76.1529 110.075 75.9003 111.015 75.7389C111.943 75.5764 112.885 75.5003 113.827 75.5116C114.786 75.5194 115.741 75.6386 116.673 75.8667C117.642 76.1061 118.577 76.4667 119.455 76.94C119.709 77.0979 119.9 77.3381 119.997 77.6204C120.094 77.9026 120.091 78.2096 119.988 78.4898C119.96 78.6224 119.902 78.747 119.819 78.8544C119.736 78.9618 119.631 79.0494 119.51 79.1106C119.389 79.1719 119.255 79.2054 119.12 79.2086C118.984 79.2118 118.85 79.1846 118.726 79.1291C118.709 79.1205 118.693 79.1113 118.676 79.1021L118.62 79.0687C117.891 78.6065 117.108 78.2358 116.288 77.9649C115.472 77.696 114.628 77.5222 113.772 77.4471C112.911 77.3669 112.044 77.3669 111.183 77.4471C110.32 77.5263 109.467 77.6878 108.635 77.9294L108.602 77.9393C108.516 77.957 108.427 77.9564 108.342 77.9375C108.256 77.9186 108.175 77.8819 108.105 77.8298C108.034 77.7776 107.976 77.7112 107.932 77.6349C107.889 77.5586 107.863 77.474 107.854 77.3867C107.81 77.2138 107.826 77.0308 107.9 76.8682C107.974 76.7056 108.101 76.5733 108.261 76.4932V76.4932Z" fill="#020C2D"/>
<path d="M127.969 122.303C130.882 122.349 133.759 121.663 136.339 120.31L135.7 119.151C130.857 121.832 125.132 120.76 125.075 120.749L124.822 122.049C125.861 122.227 126.914 122.312 127.969 122.303V122.303Z" fill="#FF8579"/>
<path d="M55.546 281.783L44.0864 287.509C37.0536 291.024 30.9626 296.168 26.3211 302.514C21.6795 308.859 18.6217 316.222 17.4026 323.989L-6.24967 474.7H40.2679L62.3448 369.047L80.4789 474.7H127.783L112.015 350.912L148.034 336.713L167.998 293.518L144.434 256.56H112.284L55.546 281.783Z" fill="#005386"/>
<path d="M162.759 351.446L190.919 359.893C193.943 360.801 197.143 360.961 200.243 360.362C203.343 359.763 206.252 358.421 208.72 356.451C211.188 354.482 213.143 351.943 214.415 349.053C215.688 346.163 216.241 343.008 216.027 339.858L211.63 274.956H208.209L206.892 256.56L235.11 264.189C256.296 269.921 274.194 247.73 264.104 228.236L238.127 178.056L224.431 151.613C221.206 145.382 216.33 140.157 210.336 136.511C204.342 132.864 197.46 130.935 190.444 130.936H152.758C152.758 130.936 149.888 156.496 147.484 191.197C146.577 204.173 145.742 218.433 145.146 233.118C144.835 240.853 144.59 248.711 144.436 256.558C143.893 283.957 144.47 311.249 147.259 333.084C147.789 337.317 149.536 341.304 152.287 344.563C155.038 347.822 158.676 350.213 162.759 351.446V351.446Z" fill="#E7F0FD"/>
<path d="M-54.8703 186.648L42.004 252.986C44.5323 254.714 47.3906 255.902 50.3997 256.474C53.4087 257.046 56.5034 256.991 59.4899 256.31C62.4763 255.63 65.29 254.34 67.7544 252.521C70.2188 250.702 72.2807 248.394 73.811 245.741L90.9003 216.084C84.8899 269.167 56.64 281.326 55.544 281.785C56.9014 281.564 100.377 274.157 112.282 256.56C124.369 238.685 119.111 130.936 119.111 130.936H91.3193C87.4991 130.935 83.7522 131.985 80.4886 133.971C77.2251 135.957 74.5704 138.802 72.8151 142.195L39.219 207.149L-34.3702 154.589L-54.8703 186.648Z" fill="#E7F0FD"/>
<path d="M149.514 122.303L167.25 146.999L159.864 156.517L164.907 163.744L147.478 217.491C147.478 217.491 144.325 136.802 149.514 122.303Z" fill="#E7F0FD"/>
<path d="M124.686 123.468L107.39 142.233L113.446 154.06L105.224 165.624L119.216 202.744C119.216 202.744 126.053 127.831 124.686 123.468Z" fill="#E7F0FD"/>
<path d="M148.063 217.676L165.586 163.64L160.625 156.533L168.017 147.013L150.013 121.946L149.017 122.661L166.485 146.985L159.102 156.494L164.232 163.841L146.897 217.298L148.063 217.676Z" fill="#96BED5"/>
<path d="M118.642 202.961L119.79 202.528L105.912 165.713L114.162 154.113L108.131 142.335L125.137 123.884L124.235 123.053L106.649 142.132L112.731 154.008L104.534 165.535L118.642 202.961Z" fill="#96BED5"/>
<path d="M132.603 228.349L145.145 233.116L206.895 256.555L235.113 264.184C256.298 269.916 274.197 247.725 264.106 228.232L238.129 178.052L194.631 181.035L207.95 214.682L147.484 191.191L141.368 188.394L132.603 228.349Z" fill="#E7F0FD"/>
<path d="M209.034 215.764L195.201 180.817L194.061 181.269L206.86 213.603L147.703 190.62L147.259 191.763L209.034 215.764Z" fill="#96BED5"/>
<path d="M191.926 164.341L193.13 164.103C188.732 141.888 207.93 135.816 208.124 135.758L207.768 134.583C207.564 134.646 187.316 141.048 191.926 164.341Z" fill="#96BED5"/>
<path d="M204.461 312.691C204.871 312.691 205.281 312.668 205.689 312.624L205.56 311.405C204.274 311.574 202.967 311.446 201.739 311.029C200.511 310.613 199.395 309.919 198.478 309.002C190.769 301.501 191.73 279.394 191.962 275.57H211.629V274.341H190.818L190.773 274.905C190.689 275.979 188.802 301.299 197.619 309.878C198.514 310.78 199.58 311.494 200.755 311.977C201.93 312.46 203.19 312.703 204.461 312.691V312.691Z" fill="#96BED5"/>
<path d="M61.7345 369.11L62.9541 368.982L59.7209 338.258C59.1387 332.645 60.177 326.982 62.7131 321.94C65.2492 316.898 69.1768 312.689 74.0309 309.81L120.561 282.311L119.936 281.255L73.4058 308.755C68.3496 311.753 64.2585 316.138 61.6168 321.389C58.9751 326.641 57.8934 332.539 58.4999 338.387L61.7345 369.11Z" fill="#0079C4"/>
<path d="M144.001 316.97L144.501 318.09L140.021 320.091L139.521 318.971L144.001 316.97Z" fill="#0079C4"/>
<path d="M109.029 460.622L110.248 460.484L109.207 451.219L107.988 451.356L109.029 460.622ZM106.947 442.09L108.166 441.954L107.124 432.688L105.905 432.825L106.947 442.09ZM104.864 423.559L106.082 423.422L105.041 414.156L103.822 414.293L104.864 423.559ZM102.781 405.028L103.999 404.89L102.958 395.624L101.739 395.762L102.781 405.028ZM100.698 386.496L101.917 386.359L100.875 377.093L99.6565 377.23L100.698 386.496ZM98.6145 367.965L99.8334 367.828L98.7921 358.562L97.5733 358.699L98.6145 367.965ZM96.532 349.434L97.7508 349.296L97.5583 347.584C97.2852 345.177 97.8042 342.746 99.0364 340.66L97.9795 340.037C96.6137 342.352 96.0381 345.049 96.3395 347.721L96.532 349.434ZM105.965 335.299L114.479 331.498L113.982 330.378L105.468 334.179L105.965 335.299ZM122.993 327.697L131.507 323.896L131.01 322.775L122.496 326.577L122.993 327.697Z" fill="#0079C4"/>
<path d="M58.3099 336.224L59.4985 336.524L58.2972 341.281L57.1085 340.981L58.3099 336.224Z" fill="#0079C4"/>
<path d="M28.2707 460.185L30.7737 450.277L29.5847 449.976L27.0817 459.885L28.2707 460.185ZM33.2761 440.368L35.7784 430.46L34.5894 430.159L32.0871 440.068L33.2761 440.368ZM38.28 420.552L40.7823 410.643L39.594 410.343L37.0917 420.251L38.28 420.552ZM43.2846 400.735L45.7869 390.826L44.5986 390.526L42.0963 400.434L43.2846 400.735ZM48.2899 380.918L50.7923 371.01L49.6032 370.709L47.1009 380.618L48.2899 380.918ZM53.2946 361.101L55.7969 351.193L54.6079 350.892L52.1056 360.801L53.2946 361.101Z" fill="#0079C4"/>
<path d="M92.0429 161.077L93.2695 161.059C92.9144 136.031 83.0564 132.486 82.6367 132.347L82.2474 133.511C82.3426 133.543 91.7048 137.049 92.0429 161.077Z" fill="#96BED5"/>
<path d="M92.042 178.024L93.2666 178.081L91.5118 216.11L90.2871 216.053L92.042 178.024Z" fill="#96BED5"/>
<path d="M145.364 232.532L207.107 255.99L206.672 257.137L144.928 233.679L145.364 232.532Z" fill="#96BED5"/>
<path d="M153.991 86.4187L153.101 89.4885C153.007 89.8167 152.826 90.1133 152.577 90.347C152.328 90.5807 152.021 90.7428 151.687 90.8162C151.354 90.8895 151.007 90.8714 150.682 90.7637C150.358 90.656 150.07 90.4628 149.846 90.2045C147.655 87.6474 144.682 82.8772 144.25 75.5109C144.25 75.5109 88.6266 83.0988 105.185 43.6762C105.185 43.6762 116.597 51.8231 131.522 44.7274C146.448 37.6318 154.756 54.6891 154.756 54.6891C154.756 54.6891 173.675 46.6963 159.864 84.5435L157.473 84.1884C156.721 84.0755 155.954 84.2393 155.313 84.6495C154.673 85.0597 154.203 85.6883 153.991 86.4187Z" fill="#020C2D"/>
<path d="M140.369 192.95L132.635 187.84C129.638 185.858 126.148 184.751 122.556 184.644L97.7304 183.906C97.1352 183.889 96.544 184.009 96.0028 184.257C95.4616 184.505 94.9851 184.875 94.6103 185.338C94.2355 185.801 93.9727 186.344 93.8422 186.925C93.7117 187.506 93.7171 188.109 93.858 188.687L98.9649 209.649C99.3208 211.11 100.132 212.419 101.281 213.389C102.43 214.358 103.858 214.937 105.357 215.042L117.233 215.87C119.231 216.011 121.195 216.458 123.057 217.198L134.085 221.578L140.369 192.95Z" fill="#FFA59C"/>
<path d="M94.7087 191.307L112.083 193.136L111.955 194.355L94.5804 192.527L94.7087 191.307Z" fill="#FF8579"/>
<path d="M96.688 199.415L113.795 201.412L113.653 202.63L96.5459 200.632L96.688 199.415Z" fill="#FF8579"/>
<path d="M98.5263 206.851L112.114 209.038L111.919 210.249L98.3313 208.062L98.5263 206.851Z" fill="#FF8579"/>
<path d="M202.017 132.948C202.267 124.325 204.807 118.116 209.568 114.492C216.791 108.994 226.77 111.358 226.871 111.382L227.163 110.192C226.731 110.086 216.508 107.666 208.825 113.516C203.755 117.375 201.051 123.901 200.791 132.912L202.017 132.948Z" fill="#E59C54"/>
</g>
</svg>
