<svg width="219" height="219" viewBox="0 0 219 219" fill="none" xmlns="http://www.w3.org/2000/svg">
<path d="M0 109.5C0 49.0248 49.0248 0 109.5 0V0C169.975 0 219 49.0248 219 109.5V109.5C219 169.975 169.975 219 109.5 219V219C49.0248 219 0 169.975 0 109.5V109.5Z" fill="#EEE4FF"/>
<mask id="mask0_11_2030" style="mask-type:alpha" maskUnits="userSpaceOnUse" x="0" y="0" width="219" height="219">
<path d="M0 109.5C0 49.0248 49.0248 0 109.5 0V0C169.975 0 219 49.0248 219 109.5V109.5C219 169.975 169.975 219 109.5 219V219C49.0248 219 0 169.975 0 109.5V109.5Z" fill="#C4C4C4"/>
</mask>
<g mask="url(#mask0_11_2030)">
<path d="M232.597 228.49L203.743 142.465C201.268 135.082 196.535 128.663 190.214 124.116C183.892 119.568 176.302 117.122 168.515 117.122H56.8502C49.8166 117.121 42.9082 118.983 36.8279 122.518C30.7475 126.054 25.7123 131.137 22.2345 137.251L-5.03688 185.194L-96.2696 151.376L-117.19 201.216L2.89021 251.967C8.56162 254.364 14.9366 254.496 20.7019 252.333C26.4672 250.171 31.1835 245.88 33.8793 240.344L40.8132 226.091L58.1653 256.4L52.3807 275.988H168.54L147.178 317.22L185.892 335.06L230.647 251.638C232.539 248.118 233.687 244.248 234.023 240.266C234.358 236.285 233.873 232.277 232.597 228.49V228.49ZM181.892 245.096C178.288 236.324 186.141 226.089 186.141 226.089L188.228 231.919L181.892 245.096Z" fill="#0079C4"/>
<path d="M86.8743 43.479C86.8743 43.479 78.6846 91.092 73.1674 96.8181C67.6503 102.544 63.9066 110.376 67.0593 117.47L100.465 117.125L110.078 105.664L94.1056 47.3665L86.8743 43.479Z" fill="#020C2D"/>
<path d="M129.192 88.8083L125.955 125.698C125.666 128.982 124.158 132.039 121.726 134.266C119.295 136.492 116.118 137.728 112.821 137.727V137.727C110.951 137.728 109.102 137.33 107.397 136.562C105.692 135.793 104.17 134.67 102.933 133.267C101.695 131.865 100.77 130.216 100.219 128.428C99.6674 126.641 99.5027 124.757 99.7354 122.901L101.81 106.372C101.81 106.372 77.479 107.872 86.4627 59.7845C87.7109 52.7311 91.4095 46.345 96.9062 41.7521C101.834 37.7231 108.744 34.7971 117.583 37.4752C137.227 43.4272 133.06 66.9338 133.06 66.9338L135.314 66.9988C136.369 67.0289 137.407 67.2722 138.366 67.7141C139.324 68.156 140.183 68.7873 140.891 69.57C141.599 70.3528 142.142 71.2707 142.485 72.2685C142.829 73.2664 142.968 74.3235 142.892 75.3762V75.3762C142.643 78.8687 141.137 82.1527 138.653 84.6203C136.169 87.0879 132.875 88.572 129.381 88.7977L129.192 88.8083Z" fill="#FFA59C"/>
<path d="M87.8486 54.7077C89.0846 55.1374 90.3488 55.5484 91.6411 55.9407C100.734 58.6773 110.168 60.1156 119.663 60.2127C120.531 60.2217 121.362 60.5695 121.978 61.1819C122.594 61.7943 122.946 62.623 122.96 63.4915C122.996 66.9499 122.528 71.8299 125.582 73.7741C129.918 76.5326 117.987 115.294 133.067 117.125H159.869C159.869 117.125 158.417 93.0192 150.017 86.6949C141.617 80.3706 157.504 24.1177 127.159 28.4523C112.871 19.3166 96.1106 22.4044 89.3076 32.2082C82.9801 41.3309 87.3227 53.3211 87.8486 54.7077Z" fill="#020C2D"/>
<path d="M100.207 86.6951L101.238 85.7637L97.3046 81.412L100.411 65.7326L99.0489 65.4619L95.8066 81.8257L100.207 86.6951Z" fill="#FC6760"/>
<path d="M110.159 88.8424L97.8777 92.1748C97.8079 92.1932 97.7436 92.2281 97.6901 92.2765C97.6366 92.325 97.5955 92.3856 97.5703 92.4532C97.5451 92.5209 97.5365 92.5936 97.5454 92.6652C97.5542 92.7369 97.5801 92.8053 97.6209 92.8649C99.0985 94.9854 105.072 102.191 110.694 89.4593C110.727 89.381 110.738 89.2949 110.724 89.2109C110.711 89.1268 110.675 89.0482 110.619 88.9839C110.563 88.9196 110.491 88.8722 110.409 88.8472C110.328 88.8222 110.241 88.8205 110.159 88.8424V88.8424Z" fill="#FC6760"/>
<path d="M115.502 66.6084C115.615 66.6083 115.723 66.5672 115.808 66.4929C115.892 66.4186 115.947 66.3161 115.961 66.2046C115.975 66.0931 115.949 65.9801 115.886 65.8868C115.823 65.7934 115.729 65.7261 115.62 65.6973C115.306 65.616 107.874 63.6881 104.414 65.7469C104.361 65.778 104.316 65.8191 104.279 65.8679C104.243 65.9166 104.216 65.9721 104.201 66.0311C104.186 66.09 104.183 66.1514 104.192 66.2116C104.201 66.2719 104.221 66.3298 104.252 66.3821C104.283 66.4344 104.324 66.48 104.373 66.5165C104.422 66.5529 104.477 66.5793 104.536 66.5943C104.595 66.6093 104.657 66.6125 104.717 66.6038C104.777 66.595 104.835 66.5745 104.887 66.5434C108.015 64.6813 115.311 66.5727 115.384 66.5922C115.422 66.6031 115.462 66.6086 115.502 66.6084V66.6084Z" fill="#020C2D"/>
<path d="M108.707 70.8897C109.72 70.8897 110.541 69.6299 110.541 68.0758C110.541 66.5218 109.72 65.262 108.707 65.262C107.693 65.262 106.872 66.5218 106.872 68.0758C106.872 69.6299 107.693 70.8897 108.707 70.8897Z" fill="#020C2D"/>
<path d="M96.556 66.6084C96.6685 66.6083 96.777 66.5672 96.8614 66.4929C96.9458 66.4186 97.0003 66.3161 97.0147 66.2046C97.0291 66.0931 97.0025 65.9801 96.9398 65.8868C96.8771 65.7934 96.7826 65.7261 96.6739 65.6973C96.3594 65.616 88.928 63.6881 85.4672 65.7469C85.3641 65.8108 85.2901 65.9127 85.2613 66.0305C85.2325 66.1484 85.2511 66.2729 85.313 66.3772C85.375 66.4815 85.4754 66.5574 85.5927 66.5884C85.7099 66.6195 85.8348 66.6034 85.9403 66.5434C89.0687 64.6813 96.3642 66.5727 96.4374 66.5922C96.476 66.6031 96.5159 66.6086 96.556 66.6084V66.6084Z" fill="#020C2D"/>
<path d="M89.7593 70.8897C90.7724 70.8897 91.5938 69.6299 91.5938 68.0758C91.5938 66.5218 90.7724 65.262 89.7593 65.262C88.7461 65.262 87.9248 66.5218 87.9248 68.0758C87.9248 69.6299 88.7461 70.8897 89.7593 70.8897Z" fill="#020C2D"/>
<path d="M119.544 60.3938C118.28 59.9044 116.979 59.5182 115.653 59.2389C114.332 58.9558 112.991 58.774 111.642 58.6951C110.273 58.6098 108.9 58.6552 107.54 58.8308C106.154 59.0107 104.792 59.3399 103.476 59.8127C103.301 59.8693 103.139 59.9601 102.999 60.0799C102.86 60.1997 102.745 60.346 102.663 60.5104C102.58 60.6748 102.531 60.8539 102.518 61.0375C102.505 61.2211 102.528 61.4054 102.587 61.5798C102.646 61.7541 102.739 61.9151 102.861 62.0532C102.982 62.1914 103.13 62.3041 103.295 62.3847C103.461 62.4653 103.641 62.5122 103.824 62.5227C104.008 62.5333 104.192 62.5072 104.366 62.4461C104.391 62.438 104.415 62.429 104.44 62.4193L104.521 62.386C105.619 61.9105 106.765 61.5544 107.939 61.3237C109.138 61.0885 110.357 60.9688 111.579 60.966C112.82 60.9586 114.06 61.0452 115.288 61.2253C116.512 61.4008 117.721 61.6725 118.903 62.0381L118.95 62.0527C119.168 62.1197 119.403 62.1001 119.606 61.9979C119.81 61.8957 119.966 61.7189 120.042 61.5044C120.118 61.2899 120.108 61.0543 120.015 60.8467C119.921 60.6392 119.751 60.4757 119.54 60.3906L119.544 60.3938Z" fill="#020C2D"/>
<path d="M84.3236 59.2992C85.2581 58.943 86.225 58.6782 87.2106 58.5084C88.1835 58.3379 89.1701 58.2582 90.1577 58.2702C91.1632 58.2787 92.1643 58.4042 93.1407 58.6441C94.1566 58.8954 95.1369 59.2734 96.0586 59.769C96.3241 59.9347 96.5245 60.1867 96.626 60.4828C96.7276 60.7788 96.7241 61.1008 96.6162 61.3946C96.5862 61.5334 96.5257 61.6638 96.4389 61.7763C96.3521 61.8887 96.2412 61.9803 96.1145 62.0445C95.9877 62.1086 95.8483 62.1435 95.7063 62.1468C95.5643 62.1501 95.4233 62.1217 95.2937 62.0635C95.2759 62.0546 95.2588 62.0448 95.2417 62.0342L95.1824 61.9993C94.4181 61.5152 93.5973 61.1268 92.7384 60.8427C91.883 60.5607 90.998 60.3786 90.1008 60.2998C89.1982 60.2156 88.2896 60.2156 87.3869 60.2998C86.4824 60.383 85.5878 60.5523 84.7153 60.8053L84.6804 60.8159C84.5904 60.8343 84.4975 60.8336 84.4078 60.8138C84.3181 60.7939 84.2335 60.7554 84.1597 60.7007C84.0859 60.6461 84.0244 60.5765 83.9792 60.4965C83.9341 60.4165 83.9063 60.3278 83.8977 60.2364C83.8513 60.055 83.8683 59.8632 83.9457 59.6928C84.0231 59.5224 84.1565 59.3836 84.3236 59.2992V59.2992Z" fill="#020C2D"/>
<path d="M104.982 107.319C108.037 107.367 111.055 106.649 113.76 105.23L113.087 104.015C108.01 106.826 102.01 105.701 101.952 105.691L101.686 107.054C102.775 107.239 103.878 107.328 104.982 107.319V107.319Z" fill="#FF8579"/>
<path d="M232.598 228.49L215.285 176.847L203.744 142.467C201.268 135.083 196.536 128.665 190.214 124.117C183.893 119.57 176.302 117.123 168.515 117.124H130.152L125.361 275.988L122.378 374.94C122.023 386.762 125.586 398.37 132.514 407.956C139.441 417.542 149.343 424.57 160.678 427.944L176.421 432.625C177.447 432.929 178.529 432.991 179.583 432.805C180.636 432.619 181.632 432.191 182.492 431.554C183.352 430.917 184.052 430.089 184.537 429.136C185.022 428.182 185.278 427.129 185.286 426.059L188.228 336.291L185.892 335.059L230.648 251.636C232.539 248.117 233.687 244.246 234.023 240.265C234.358 236.284 233.873 232.277 232.598 228.49V228.49ZM181.893 245.096C178.288 236.324 186.141 226.089 186.141 226.089L188.228 231.919L181.893 245.096Z" fill="#E7F0FD"/>
<path d="M94.1044 117.125L89.4422 275.982L87.021 358.378C86.421 378.819 78.277 398.314 64.1581 413.107L43.0346 435.24V332.26C43.0346 326.343 42.6624 313.404 42.6624 313.404H44.066C44.066 313.404 48.1966 288.232 52.38 275.983C54.2084 269.792 54.7645 263.295 54.015 256.883C53.2654 250.472 51.2257 244.278 48.0187 238.676L40.8117 226.087L33.8754 240.345C31.181 245.881 26.4653 250.172 20.7004 252.335C14.9356 254.497 8.56083 254.365 2.89035 251.966L-117.187 201.217L-96.2622 151.372L-5.0351 185.194L22.2346 137.249C25.713 131.138 30.7478 126.056 36.8271 122.521C42.9063 118.986 49.8133 117.124 56.8455 117.125H94.1044Z" fill="#E7F0FD"/>
<path d="M101.68 107.053L78.5371 129.405L82.979 139.018L78.5371 147.954L91.5937 207.031C91.5937 207.031 104.445 114.487 101.68 107.053Z" fill="#E7F0FD"/>
<path d="M124.787 105.667L146.255 128.1L138.103 138.991L146.255 159.742L127.438 207.033C127.438 207.033 119.308 118.507 124.787 105.667Z" fill="#E7F0FD"/>
<path d="M90.7999 207.204L77.6823 147.847L82.0786 139.002L77.5571 129.218L101.117 106.469L102.245 107.638L79.5176 129.586L83.8806 139.028L79.3932 148.056L92.3872 206.852L90.7999 207.204Z" fill="#96BED5"/>
<path d="M128.192 207.328L126.682 206.728L145.381 159.736L137.181 138.862L145.191 128.161L124.199 106.229L125.374 105.105L147.318 128.031L139.025 139.111L147.129 159.74L147.009 160.038L128.192 207.328Z" fill="#96BED5"/>
<path d="M230.649 251.634L185.892 335.062L147.179 317.221L168.54 275.982L188.228 231.921L168.54 176.842H215.28L232.601 228.484C233.873 232.271 234.356 236.279 234.021 240.261C233.685 244.242 232.537 248.113 230.649 251.634V251.634Z" fill="#E7F0FD"/>
<path d="M187.94 336.918L146.255 317.553L187.484 231.882L167.891 177.079L169.19 176.614L188.977 231.96L188.852 232.22L148.104 316.891L188.521 335.667L187.94 336.918Z" fill="#96BED5"/>
<path d="M40.1305 226.193C40.072 225.815 34.4711 188.175 49.4881 167.789L50.5992 168.608C35.9235 188.53 41.4358 225.611 41.496 225.983L40.1305 226.193Z" fill="#96BED5"/>
<path d="M59.153 156.823L57.7851 156.644C61.107 131.261 43.3598 120.115 43.1802 120.006L43.8987 118.828C44.0856 118.942 62.5895 130.561 59.153 156.823Z" fill="#96BED5"/>
<path d="M162.53 156.909C157.106 136.499 184.922 121.736 186.109 121.118L186.747 122.337C186.467 122.484 158.723 137.211 163.862 156.556L162.53 156.909Z" fill="#96BED5"/>
</g>
</svg>
